<svg version="1.1" viewBox="0.0 0.0 960.0 540.0" fill="none" stroke="none" stroke-linecap="square" stroke-miterlimit="10" xmlns:xlink="http://www.w3.org/1999/xlink" xmlns="http://www.w3.org/2000/svg"><clipPath id="g134ef82c5a1_0_213.0"><path d="m0 0l960.0 0l0 540.0l-960.0 0l0 -540.0z" clip-rule="nonzero"/></clipPath><g clip-path="url(#g134ef82c5a1_0_213.0)"><path fill="#000000" fill-opacity="0.0" d="m0 0l960.0 0l0 540.0l-960.0 0z" fill-rule="evenodd"/><path fill="#000000" fill-opacity="0.0" d="m26.913385 70.59843l246.07874 0l0 107.11811l-246.07874 0z" fill-rule="evenodd"/><path stroke="#9e9e9e" stroke-width="1.0" stroke-linejoin="round" stroke-linecap="butt" stroke-dasharray="4.0,3.0" d="m26.913385 70.59843l246.07874 0l0 107.11811l-246.07874 0z" fill-rule="evenodd"/><path fill="#000000" fill-opacity="0.0" d="m170.91339 222.59842l498.36218 0l0 107.1181l-498.36218 0z" fill-rule="evenodd"/><path stroke="#9e9e9e" stroke-width="1.0" stroke-linejoin="round" stroke-linecap="butt" stroke-dasharray="4.0,3.0" d="m170.91339 222.59842l498.36218 0l0 107.1181l-498.36218 0z" fill-rule="evenodd"/><path fill="#000000" d="m319.75592 250.17848l106.17322 0l0 54.740158l-106.17322 0z" fill-rule="evenodd"/><path stroke="#000000" stroke-width="1.0" stroke-linejoin="round" stroke-linecap="butt" d="m319.75592 250.17848l106.17322 0l0 54.740158l-106.17322 0z" fill-rule="evenodd"/><path fill="#ffffff" d="m330.4278 284.46857l0 -12.234375l3.0625 0q2.84375 0 4.3125 1.578125q1.46875 1.578125 1.46875 4.484375q0 2.921875 -1.46875 4.546875q-1.453125 1.625 -4.234375 1.625l-3.140625 0zm1.5625 -1.265625l1.390625 0q2.140625 0 3.21875 -1.296875q1.078125 -1.296875 1.078125 -3.609375q0 -2.3125 -1.078125 -3.546875q-1.078125 -1.25 -3.21875 -1.25l-1.390625 0l0 9.703125zm11.864227 1.484375q-1.140625 0 -1.90625 -0.671875q-0.75 -0.6875 -0.75 -1.890625q0 -1.5 1.328125 -2.28125q1.34375 -0.796875 4.234375 -1.125q0 -0.578125 -0.15625 -1.09375q-0.15625 -0.53125 -0.5625 -0.84375q-0.40625 -0.328125 -1.140625 -0.328125q-0.796875 0 -1.484375 0.296875q-0.6875 0.296875 -1.234375 0.671875l-0.59375 -1.0625q0.640625 -0.421875 1.5625 -0.796875q0.921875 -0.390625 2.0 -0.390625q1.65625 0 2.40625 1.03125q0.75 1.015625 0.75 2.703125l0 5.5625l-1.265625 0l-0.140625 -1.078125l-0.046875 0q-0.640625 0.515625 -1.390625 0.90625q-0.75 0.390625 -1.609375 0.390625zm0.4375 -1.21875q0.65625 0 1.234375 -0.3125q0.578125 -0.328125 1.234375 -0.90625l0 -2.515625q-2.265625 0.28125 -3.171875 0.84375q-0.890625 0.546875 -0.890625 1.421875q0 0.765625 0.453125 1.125q0.46875 0.34375 1.140625 0.34375zm9.469543 1.21875q-1.46875 0 -2.03125 -0.828125q-0.5625 -0.84375 -0.5625 -2.1875l0 -5.015625l-1.34375 0l0 -1.15625l1.40625 -0.09375l0.1875 -2.546875l1.296875 0l0 2.546875l2.4375 0l0 1.25l-2.4375 0l0 5.03125q0 0.84375 0.296875 1.296875q0.3125 0.453125 1.09375 0.453125q0.25 0 0.53125 -0.078125q0.28125 -0.078125 0.5 -0.15625l0.296875 1.15625q-0.375 0.125 -0.8125 0.21875q-0.4375 0.109375 -0.859375 0.109375zm5.1481934 0q-1.140625 0 -1.90625 -0.671875q-0.75 -0.6875 -0.75 -1.890625q0 -1.5 1.328125 -2.28125q1.34375 -0.796875 4.234375 -1.125q0 -0.578125 -0.15625 -1.09375q-0.15625 -0.53125 -0.5625 -0.84375q-0.40625 -0.328125 -1.140625 -0.328125q-0.796875 0 -1.484375 0.296875q-0.6875 0.296875 -1.234375 0.671875l-0.59375 -1.0625q0.640625 -0.421875 1.5625 -0.796875q0.921875 -0.390625 2.0 -0.390625q1.65625 0 2.40625 1.03125q0.75 1.015625 0.75 2.703125l0 5.5625l-1.265625 0l-0.140625 -1.078125l-0.046875 0q-0.640625 0.515625 -1.390625 0.90625q-0.75 0.390625 -1.609375 0.390625zm0.4375 -1.21875q0.65625 0 1.234375 -0.3125q0.578125 -0.328125 1.234375 -0.90625l0 -2.515625q-2.265625 0.28125 -3.171875 0.84375q-0.890625 0.546875 -0.890625 1.421875q0 0.765625 0.453125 1.125q0.46875 0.34375 1.140625 0.34375zm10.868378 1.0l0 -7.8125l-1.234375 0l0 -1.15625l1.234375 -0.09375l0 -1.4375q0 -1.390625 0.640625 -2.1875q0.640625 -0.8125 2.0 -0.8125q0.4375 0 0.828125 0.078125q0.390625 0.078125 0.6875 0.21875l-0.34375 1.171875q-0.5 -0.21875 -1.015625 -0.21875q-1.265625 0 -1.265625 1.75l0 1.4375l1.921875 0l0 1.25l-1.921875 0l0 7.8125l-1.53125 0zm5.182007 0l0 -9.0625l1.265625 0l0.125 1.640625l0.0625 0q0.46875 -0.859375 1.140625 -1.359375q0.671875 -0.515625 1.4375 -0.515625q0.53125 0 0.96875 0.1875l-0.296875 1.34375q-0.234375 -0.0625 -0.421875 -0.09375q-0.171875 -0.046875 -0.453125 -0.046875q-0.578125 0 -1.203125 0.46875q-0.625 0.453125 -1.09375 1.609375l0 5.828125l-1.53125 0zm8.119476 0.21875q-1.140625 0 -1.90625 -0.671875q-0.75 -0.6875 -0.75 -1.890625q0 -1.5 1.328125 -2.28125q1.34375 -0.796875 4.234375 -1.125q0 -0.578125 -0.15625 -1.09375q-0.15625 -0.53125 -0.5625 -0.84375q-0.40625 -0.328125 -1.140625 -0.328125q-0.796875 0 -1.484375 0.296875q-0.6875 0.296875 -1.234375 0.671875l-0.59375 -1.0625q0.640625 -0.421875 1.5625 -0.796875q0.921875 -0.390625 2.0 -0.390625q1.65625 0 2.40625 1.03125q0.75 1.015625 0.75 2.703125l0 5.5625l-1.265625 0l-0.140625 -1.078125l-0.046875 0q-0.640625 0.515625 -1.390625 0.90625q-0.75 0.390625 -1.609375 0.390625zm0.4375 -1.21875q0.65625 0 1.234375 -0.3125q0.578125 -0.328125 1.234375 -0.90625l0 -2.515625q-2.265625 0.28125 -3.171875 0.84375q-0.890625 0.546875 -0.890625 1.421875q0 0.765625 0.453125 1.125q0.46875 0.34375 1.140625 0.34375zm6.8714905 1.0l0 -9.0625l1.265625 0l0.125 1.296875l0.0625 0q0.59375 -0.640625 1.296875 -1.078125q0.71875 -0.453125 1.515625 -0.453125q1.046875 0 1.625 0.46875q0.59375 0.453125 0.875 1.265625q0.71875 -0.765625 1.4375 -1.25q0.734375 -0.484375 1.546875 -0.484375q1.40625 0 2.078125 0.90625q0.6875 0.90625 0.6875 2.640625l0 5.75l-1.53125 0l0 -5.546875q0 -1.265625 -0.40625 -1.84375q-0.40625 -0.578125 -1.265625 -0.578125q-1.015625 0 -2.28125 1.40625l0 6.5625l-1.53125 0l0 -5.546875q0 -1.265625 -0.40625 -1.84375q-0.40625 -0.578125 -1.296875 -0.578125q-1.0 0 -2.265625 1.40625l0 6.5625l-1.53125 0zm19.137909 0.21875q-1.203125 0 -2.203125 -0.5625q-0.984375 -0.578125 -1.5625 -1.640625q-0.578125 -1.0625 -0.578125 -2.53125q0 -1.484375 0.578125 -2.546875q0.59375 -1.078125 1.53125 -1.65625q0.9375 -0.578125 1.953125 -0.578125q1.734375 0 2.671875 1.15625q0.953125 1.15625 0.953125 3.109375q0 0.234375 -0.015625 0.46875q0 0.234375 -0.046875 0.40625l-6.109375 0q0.09375 1.4375 0.890625 2.296875q0.8125 0.859375 2.125 0.859375q0.65625 0 1.203125 -0.203125q0.546875 -0.203125 1.0625 -0.515625l0.53125 1.015625q-0.578125 0.375 -1.3125 0.65625q-0.734375 0.265625 -1.671875 0.265625zm-2.859375 -5.484375l4.859375 0q0 -1.375 -0.59375 -2.09375q-0.578125 -0.71875 -1.640625 -0.71875q-0.953125 0 -1.71875 0.734375q-0.75 0.734375 -0.90625 2.078125z" fill-rule="nonzero"/><path fill="#000000" d="m521.10895 250.17848l106.17322 0l0 54.740158l-106.17322 0z" fill-rule="evenodd"/><path stroke="#000000" stroke-width="1.0" stroke-linejoin="round" stroke-linecap="butt" d="m521.10895 250.17848l106.17322 0l0 54.740158l-106.17322 0z" fill-rule="evenodd"/><path fill="#ffffff" d="m531.7808 284.46857l0 -12.234375l3.0625 0q2.84375 0 4.3125 1.578125q1.46875 1.578125 1.46875 4.484375q0 2.921875 -1.46875 4.546875q-1.453125 1.625 -4.234375 1.625l-3.140625 0zm1.5625 -1.265625l1.390625 0q2.140625 0 3.21875 -1.296875q1.078125 -1.296875 1.078125 -3.609375q0 -2.3125 -1.078125 -3.546875q-1.078125 -1.25 -3.21875 -1.25l-1.390625 0l0 9.703125zm11.864197 1.484375q-1.140625 0 -1.90625 -0.671875q-0.75 -0.6875 -0.75 -1.890625q0 -1.5 1.328125 -2.28125q1.34375 -0.796875 4.234375 -1.125q0 -0.578125 -0.15625 -1.09375q-0.15625 -0.53125 -0.5625 -0.84375q-0.40625 -0.328125 -1.140625 -0.328125q-0.796875 0 -1.484375 0.296875q-0.6875 0.296875 -1.234375 0.671875l-0.59375 -1.0625q0.640625 -0.421875 1.5625 -0.796875q0.921875 -0.390625 2.0 -0.390625q1.65625 0 2.40625 1.03125q0.75 1.015625 0.75 2.703125l0 5.5625l-1.265625 0l-0.140625 -1.078125l-0.046875 0q-0.640625 0.515625 -1.390625 0.90625q-0.75 0.390625 -1.609375 0.390625zm0.4375 -1.21875q0.65625 0 1.234375 -0.3125q0.578125 -0.328125 1.234375 -0.90625l0 -2.515625q-2.265625 0.28125 -3.171875 0.84375q-0.890625 0.546875 -0.890625 1.421875q0 0.765625 0.453125 1.125q0.46875 0.34375 1.140625 0.34375zm9.469543 1.21875q-1.46875 0 -2.03125 -0.828125q-0.5625 -0.84375 -0.5625 -2.1875l0 -5.015625l-1.34375 0l0 -1.15625l1.40625 -0.09375l0.1875 -2.546875l1.296875 0l0 2.546875l2.4375 0l0 1.25l-2.4375 0l0 5.03125q0 0.84375 0.296875 1.296875q0.3125 0.453125 1.09375 0.453125q0.25 0 0.53125 -0.078125q0.28125 -0.078125 0.5 -0.15625l0.296875 1.15625q-0.375 0.125 -0.8125 0.21875q-0.4375 0.109375 -0.859375 0.109375zm5.1481934 0q-1.140625 0 -1.90625 -0.671875q-0.75 -0.6875 -0.75 -1.890625q0 -1.5 1.328125 -2.28125q1.34375 -0.796875 4.234375 -1.125q0 -0.578125 -0.15625 -1.09375q-0.15625 -0.53125 -0.5625 -0.84375q-0.40625 -0.328125 -1.140625 -0.328125q-0.796875 0 -1.484375 0.296875q-0.6875 0.296875 -1.234375 0.671875l-0.59375 -1.0625q0.640625 -0.421875 1.5625 -0.796875q0.921875 -0.390625 2.0 -0.390625q1.65625 0 2.40625 1.03125q0.75 1.015625 0.75 2.703125l0 5.5625l-1.265625 0l-0.140625 -1.078125l-0.046875 0q-0.640625 0.515625 -1.390625 0.90625q-0.75 0.390625 -1.609375 0.390625zm0.4375 -1.21875q0.65625 0 1.234375 -0.3125q0.578125 -0.328125 1.234375 -0.90625l0 -2.515625q-2.265625 0.28125 -3.171875 0.84375q-0.890625 0.546875 -0.890625 1.421875q0 0.765625 0.453125 1.125q0.46875 0.34375 1.140625 0.34375zm10.868408 1.0l0 -7.8125l-1.234375 0l0 -1.15625l1.234375 -0.09375l0 -1.4375q0 -1.390625 0.640625 -2.1875q0.640625 -0.8125 2.0 -0.8125q0.4375 0 0.828125 0.078125q0.390625 0.078125 0.6875 0.21875l-0.34375 1.171875q-0.5 -0.21875 -1.015625 -0.21875q-1.265625 0 -1.265625 1.75l0 1.4375l1.921875 0l0 1.25l-1.921875 0l0 7.8125l-1.53125 0zm5.182007 0l0 -9.0625l1.265625 0l0.125 1.640625l0.0625 0q0.46875 -0.859375 1.140625 -1.359375q0.671875 -0.515625 1.4375 -0.515625q0.53125 0 0.96875 0.1875l-0.296875 1.34375q-0.234375 -0.0625 -0.421875 -0.09375q-0.171875 -0.046875 -0.453125 -0.046875q-0.578125 0 -1.203125 0.46875q-0.625 0.453125 -1.09375 1.609375l0 5.828125l-1.53125 0zm8.119446 0.21875q-1.140625 0 -1.90625 -0.671875q-0.75 -0.6875 -0.75 -1.890625q0 -1.5 1.328125 -2.28125q1.34375 -0.796875 4.234375 -1.125q0 -0.578125 -0.15625 -1.09375q-0.15625 -0.53125 -0.5625 -0.84375q-0.40625 -0.328125 -1.140625 -0.328125q-0.796875 0 -1.484375 0.296875q-0.6875 0.296875 -1.234375 0.671875l-0.59375 -1.0625q0.640625 -0.421875 1.5625 -0.796875q0.921875 -0.390625 2.0 -0.390625q1.65625 0 2.40625 1.03125q0.75 1.015625 0.75 2.703125l0 5.5625l-1.265625 0l-0.140625 -1.078125l-0.046875 0q-0.640625 0.515625 -1.390625 0.90625q-0.75 0.390625 -1.609375 0.390625zm0.4375 -1.21875q0.65625 0 1.234375 -0.3125q0.578125 -0.328125 1.234375 -0.90625l0 -2.515625q-2.265625 0.28125 -3.171875 0.84375q-0.890625 0.546875 -0.890625 1.421875q0 0.765625 0.453125 1.125q0.46875 0.34375 1.140625 0.34375zm6.871521 1.0l0 -9.0625l1.265625 0l0.125 1.296875l0.0625 0q0.59375 -0.640625 1.296875 -1.078125q0.71875 -0.453125 1.515625 -0.453125q1.046875 0 1.625 0.46875q0.59375 0.453125 0.875 1.265625q0.71875 -0.765625 1.4375 -1.25q0.734375 -0.484375 1.546875 -0.484375q1.40625 0 2.078125 0.90625q0.6875 0.90625 0.6875 2.640625l0 5.75l-1.53125 0l0 -5.546875q0 -1.265625 -0.40625 -1.84375q-0.40625 -0.578125 -1.265625 -0.578125q-1.015625 0 -2.28125 1.40625l0 6.5625l-1.53125 0l0 -5.546875q0 -1.265625 -0.40625 -1.84375q-0.40625 -0.578125 -1.296875 -0.578125q-1.0 0 -2.265625 1.40625l0 6.5625l-1.53125 0zm19.137878 0.21875q-1.203125 0 -2.203125 -0.5625q-0.984375 -0.578125 -1.5625 -1.640625q-0.578125 -1.0625 -0.578125 -2.53125q0 -1.484375 0.578125 -2.546875q0.59375 -1.078125 1.53125 -1.65625q0.9375 -0.578125 1.953125 -0.578125q1.734375 0 2.671875 1.15625q0.953125 1.15625 0.953125 3.109375q0 0.234375 -0.015625 0.46875q0 0.234375 -0.046875 0.40625l-6.109375 0q0.09375 1.4375 0.890625 2.296875q0.8125 0.859375 2.125 0.859375q0.65625 0 1.203125 -0.203125q0.546875 -0.203125 1.0625 -0.515625l0.53125 1.015625q-0.578125 0.375 -1.3125 0.65625q-0.734375 0.265625 -1.671875 0.265625zm-2.859375 -5.484375l4.859375 0q0 -1.375 -0.59375 -2.09375q-0.578125 -0.71875 -1.640625 -0.71875q-0.953125 0 -1.71875 0.734375q-0.75 0.734375 -0.90625 2.078125z" fill-rule="nonzero"/><path fill="#000000" fill-opacity="0.0" d="m171.30708 224.7979l181.73228 0l0 42.015762l-181.73228 0z" fill-rule="evenodd"/><path fill="#9e9e9e" d="m181.97896 251.7179l0 -12.234375l3.828125 0q1.25 0 2.21875 0.328125q0.96875 0.328125 1.515625 1.078125q0.5625 0.75 0.5625 2.015625q0 1.421875 -0.75 2.296875q-0.75 0.859375 -2.015625 1.1875l3.125 5.328125l-1.765625 0l-2.9375 -5.171875l-2.21875 0l0 5.171875l-1.5625 0zm1.5625 -6.4375l2.046875 0q1.4375 0 2.203125 -0.578125q0.765625 -0.59375 0.765625 -1.796875q0 -1.203125 -0.765625 -1.6875q-0.765625 -0.484375 -2.203125 -0.484375l-2.046875 0l0 4.546875zm12.643524 6.4375l0 -9.0625l1.265625 0l0.125 1.296875l0.0625 0q0.59375 -0.640625 1.296875 -1.078125q0.71875 -0.453125 1.515625 -0.453125q1.046875 0 1.625 0.46875q0.59375 0.453125 0.875 1.265625q0.71875 -0.765625 1.4375 -1.25q0.734375 -0.484375 1.546875 -0.484375q1.40625 0 2.078125 0.90625q0.6875 0.90625 0.6875 2.640625l0 5.75l-1.53125 0l0 -5.546875q0 -1.265625 -0.40625 -1.84375q-0.40625 -0.578125 -1.265625 -0.578125q-1.015625 0 -2.28125 1.40625l0 6.5625l-1.53125 0l0 -5.546875q0 -1.265625 -0.40625 -1.84375q-0.40625 -0.578125 -1.296875 -0.578125q-1.0 0 -2.265625 1.40625l0 6.5625l-1.53125 0zm19.137909 0.21875q-1.203125 0 -2.203125 -0.5625q-0.984375 -0.578125 -1.5625 -1.640625q-0.578125 -1.0625 -0.578125 -2.53125q0 -1.484375 0.578125 -2.546875q0.59375 -1.078125 1.53125 -1.65625q0.9375 -0.578125 1.953125 -0.578125q1.734375 0 2.671875 1.15625q0.953125 1.15625 0.953125 3.109375q0 0.234375 -0.015625 0.46875q0 0.234375 -0.046875 0.40625l-6.109375 0q0.09375 1.4375 0.890625 2.296875q0.8125 0.859375 2.125 0.859375q0.65625 0 1.203125 -0.203125q0.546875 -0.203125 1.0625 -0.515625l0.53125 1.015625q-0.578125 0.375 -1.3125 0.65625q-0.734375 0.265625 -1.671875 0.265625zm-2.859375 -5.484375l4.859375 0q0 -1.375 -0.59375 -2.09375q-0.578125 -0.71875 -1.640625 -0.71875q-0.953125 0 -1.71875 0.734375q-0.75 0.734375 -0.90625 2.078125zm8.4410095 5.265625l0 -9.0625l1.265625 0l0.125 1.296875l0.0625 0q0.59375 -0.640625 1.296875 -1.078125q0.71875 -0.453125 1.515625 -0.453125q1.046875 0 1.625 0.46875q0.59375 0.453125 0.875 1.265625q0.71875 -0.765625 1.4375 -1.25q0.734375 -0.484375 1.546875 -0.484375q1.40625 0 2.078125 0.90625q0.6875 0.90625 0.6875 2.640625l0 5.75l-1.53125 0l0 -5.546875q0 -1.265625 -0.40625 -1.84375q-0.40625 -0.578125 -1.265625 -0.578125q-1.015625 0 -2.28125 1.40625l0 6.5625l-1.53125 0l0 -5.546875q0 -1.265625 -0.40625 -1.84375q-0.40625 -0.578125 -1.296875 -0.578125q-1.0 0 -2.265625 1.40625l0 6.5625l-1.53125 0zm18.997284 0.21875q-1.109375 0 -2.078125 -0.546875q-0.953125 -0.5625 -1.546875 -1.625q-0.578125 -1.0625 -0.578125 -2.5625q0 -1.53125 0.578125 -2.59375q0.59375 -1.0625 1.546875 -1.625q0.96875 -0.5625 2.078125 -0.5625q1.109375 0 2.0625 0.5625q0.953125 0.5625 1.53125 1.625q0.59375 1.0625 0.59375 2.59375q0 1.5 -0.59375 2.5625q-0.578125 1.0625 -1.53125 1.625q-0.953125 0.546875 -2.0625 0.546875zm0 -1.265625q1.171875 0 1.890625 -0.953125q0.71875 -0.96875 0.71875 -2.515625q0 -1.5625 -0.71875 -2.53125q-0.71875 -0.96875 -1.890625 -0.96875q-1.15625 0 -1.890625 0.96875q-0.734375 0.96875 -0.734375 2.53125q0 1.546875 0.734375 2.515625q0.734375 0.953125 1.890625 0.953125zm6.5804443 1.046875l0 -9.0625l1.265625 0l0.125 1.640625l0.0625 0q0.46875 -0.859375 1.140625 -1.359375q0.671875 -0.515625 1.4375 -0.515625q0.53125 0 0.96875 0.1875l-0.296875 1.34375q-0.234375 -0.0625 -0.421875 -0.09375q-0.171875 -0.046875 -0.453125 -0.046875q-0.578125 0 -1.203125 0.46875q-0.625 0.453125 -1.09375 1.609375l0 5.828125l-1.53125 0zm7.081009 3.90625q-0.296875 0 -0.5625 -0.0625q-0.265625 -0.0625 -0.5 -0.125l0.3125 -1.21875q0.140625 0.03125 0.328125 0.078125q0.1875 0.046875 0.359375 0.046875q0.765625 0 1.265625 -0.546875q0.5 -0.546875 0.78125 -1.390625l0.203125 -0.671875l-3.640625 -9.078125l1.59375 0l1.84375 5.015625q0.203125 0.578125 0.4375 1.25q0.234375 0.671875 0.4375 1.296875l0.078125 0q0.203125 -0.609375 0.390625 -1.28125q0.1875 -0.671875 0.375 -1.265625l1.625 -5.015625l1.484375 0l-3.40625 9.8125q-0.328125 0.890625 -0.765625 1.59375q-0.4375 0.71875 -1.078125 1.140625q-0.640625 0.421875 -1.5625 0.421875z" fill-rule="nonzero"/><path fill="#000000" fill-opacity="0.0" d="m351.0 178.57742l0 0c0 -3.6181183 0.7826233 -6.551178 1.7480164 -6.551178l0 0c0.46362305 0 0.90823364 0.69021606 1.2360535 1.9187927c0.32781982 1.2285919 0.5119934 2.8949127 0.5119934 4.6323853l0 0c0 3.6181183 -0.7826233 6.551193 -1.7480469 6.551193l0 0c-0.46359253 0 -0.9082031 -0.69021606 -1.236023 -1.918808c-0.32781982 -1.2285767 -0.5119934 -2.8948975 -0.5119934 -4.6323853z" fill-rule="evenodd"/><path fill="#000000" fill-opacity="0.0" d="m27.307087 72.7979l181.73228 0l0 42.015755l-181.73228 0z" fill-rule="evenodd"/><path fill="#9e9e9e" d="m42.494587 99.936646q-1.515625 0 -2.703125 -0.78125q-1.1875 -0.78125 -1.859375 -2.21875q-0.65625 -1.4375 -0.65625 -3.390625q0 -1.96875 0.65625 -3.375q0.671875 -1.40625 1.859375 -2.15625q1.1875 -0.765625 2.703125 -0.765625q1.5625 0 2.734375 0.765625q1.171875 0.75 1.84375 2.15625q0.671875 1.40625 0.671875 3.375q0 1.953125 -0.671875 3.390625q-0.671875 1.4375 -1.84375 2.21875q-1.171875 0.78125 -2.734375 0.78125zm0 -1.359375q1.109375 0 1.921875 -0.625q0.8125 -0.625 1.25 -1.75q0.453125 -1.125 0.453125 -2.65625q0 -2.28125 -1.0 -3.59375q-0.984375 -1.328125 -2.625 -1.328125q-1.640625 0 -2.625 1.328125q-0.984375 1.3125 -0.984375 3.59375q0 1.53125 0.4375 2.65625q0.453125 1.125 1.265625 1.75q0.828125 0.625 1.90625 0.625zm7.7315063 1.140625l0 -9.0625l1.265625 0l0.125 1.296875l0.0625 0q0.65625 -0.640625 1.375 -1.078125q0.734375 -0.453125 1.671875 -0.453125q1.4375 0 2.09375 0.90625q0.65625 0.90625 0.65625 2.640625l0 5.75l-1.53125 0l0 -5.546875q0 -1.265625 -0.40625 -1.84375q-0.40625 -0.578125 -1.296875 -0.578125q-0.703125 0 -1.25 0.359375q-0.546875 0.359375 -1.234375 1.046875l0 6.5625l-1.53125 0zm17.029964 0.21875q-1.703125 0 -2.734375 -1.234375q-1.0156212 -1.234375 -1.0156212 -3.5q0 -1.46875 0.5468712 -2.546875q0.5625 -1.078125 1.453125 -1.65625q0.90625 -0.578125 1.9375 -0.578125q0.78125 0 1.359375 0.28125q0.578125 0.28125 1.171875 0.765625l-0.0625 -1.546875l0 -3.484375l1.546875 0l0 13.28125l-1.265625 0l-0.140625 -1.0625l-0.046875 0q-0.53125 0.515625 -1.25 0.90625q-0.703125 0.375 -1.5 0.375zm0.34375 -1.28125q1.1875 0 2.3125 -1.25l0 -4.734375q-0.578125 -0.53125 -1.109375 -0.734375q-0.53125 -0.21875 -1.09375 -0.21875q-0.734375 0 -1.328125 0.4375q-0.578125 0.4375 -0.9375 1.21875q-0.34375 0.765625 -0.34375 1.8125q0 1.625 0.640625 2.546875q0.65625 0.921875 1.859375 0.921875zm6.9167175 1.0625l0 -9.0625l1.53125 0l0 9.0625l-1.53125 0zm0.78125 -10.9375q-0.453125 0 -0.75 -0.265625q-0.28125 -0.265625 -0.28125 -0.734375q0 -0.453125 0.28125 -0.734375q0.296875 -0.28125 0.75 -0.28125q0.453125 0 0.734375 0.28125q0.296875 0.28125 0.296875 0.734375q0 0.46875 -0.296875 0.734375q-0.28125 0.265625 -0.734375 0.265625zm6.183182 11.15625q-0.984375 0 -1.859375 -0.359375q-0.875 -0.359375 -1.53125 -0.890625l0.765625 -1.015625q0.609375 0.46875 1.234375 0.78125q0.640625 0.296875 1.4375 0.296875q0.890625 0 1.34375 -0.421875q0.453125 -0.421875 0.453125 -1.0q0 -0.46875 -0.3125 -0.78125q-0.3125 -0.3125 -0.796875 -0.53125q-0.46875 -0.21875 -0.96875 -0.40625q-0.625 -0.234375 -1.25 -0.546875q-0.609375 -0.3125 -1.0 -0.796875q-0.390625 -0.5 -0.390625 -1.265625q0 -1.09375 0.828125 -1.828125q0.828125 -0.75 2.296875 -0.75q0.84375 0 1.5625 0.3125q0.734375 0.296875 1.265625 0.71875l-0.75 0.96875q-0.46875 -0.359375 -0.984375 -0.578125q-0.5 -0.21875 -1.09375 -0.21875q-0.859375 0 -1.265625 0.390625q-0.390625 0.390625 -0.390625 0.90625q0 0.4375 0.28125 0.703125q0.28125 0.265625 0.71875 0.46875q0.453125 0.203125 0.953125 0.40625q0.65625 0.234375 1.28125 0.546875q0.640625 0.3125 1.0625 0.828125q0.421875 0.5 0.421875 1.359375q0 0.734375 -0.390625 1.359375q-0.375 0.609375 -1.109375 0.984375q-0.734375 0.359375 -1.8125 0.359375zm5.441971 -0.21875l0 -13.28125l1.515625 0l0 8.984375l0.046875 0l3.859375 -4.765625l1.703125 0l-3.046875 3.640625l3.453125 5.421875l-1.671875 0l-2.65625 -4.359375l-1.6875 1.96875l0 2.390625l-1.515625 0z" fill-rule="nonzero"/><path fill="#000000" d="m127.144356 96.7874l106.173225 0l0 54.740158l-106.173225 0z" fill-rule="evenodd"/><path stroke="#000000" stroke-width="1.0" stroke-linejoin="round" stroke-linecap="butt" d="m127.144356 96.7874l106.173225 0l0 54.740158l-106.173225 0z" fill-rule="evenodd"/><path fill="#ffffff" d="m142.45686 131.29623q-1.53125 0 -2.734375 -0.75q-1.203125 -0.75 -1.90625 -2.171875q-0.703125 -1.4218826 -0.703125 -3.4218826q0 -1.96875 0.703125 -3.390625q0.71875 -1.421875 1.9375 -2.1875q1.234375 -0.765625 2.796875 -0.765625q1.109375 0 1.96875 0.46875q0.859375 0.453125 1.375 1.046875l-0.828125 1.015625q-0.484375 -0.53125 -1.109375 -0.84375q-0.609375 -0.3125 -1.390625 -0.3125q-1.15625 0 -2.03125 0.609375q-0.859375 0.59375 -1.34375 1.703125q-0.46875 1.09375 -0.46875 2.625q0 1.53125 0.453125 2.65625q0.46875 1.1250076 1.3125 1.7500076q0.859375 0.609375 2.015625 0.609375q0.875 0 1.5625 -0.375q0.703125 -0.375 1.28125 -1.0l0.859375 0.96875q-0.734375 0.84375 -1.65625 1.3125q-0.90625 0.453125 -2.09375 0.453125zm8.970352 0q-1.296875 0 -2.40625 -0.484375q-1.09375 -0.5 -1.890625 -1.3125l0.9375 -1.09375q0.65625 0.6875 1.53125 1.109375q0.890625 0.421875 1.84375 0.421875q1.21875 0 1.890625 -0.546875q0.671875 -0.546875 0.671875 -1.4531326q0 -0.625 -0.28125 -1.0q-0.265625 -0.375 -0.734375 -0.625q-0.453125 -0.265625 -1.03125 -0.53125l-1.75 -0.765625q-0.578125 -0.25 -1.15625 -0.640625q-0.5625 -0.390625 -0.953125 -1.0q-0.375 -0.625 -0.375 -1.515625q0 -0.9375 0.5 -1.671875q0.5 -0.734375 1.375 -1.15625q0.875 -0.421875 1.96875 -0.421875q1.109375 0 2.03125 0.421875q0.9375 0.421875 1.59375 1.09375l-0.84375 1.015625q-0.5625 -0.546875 -1.25 -0.84375q-0.671875 -0.3125 -1.53125 -0.3125q-1.015625 0 -1.640625 0.484375q-0.625 0.484375 -0.625 1.296875q0 0.578125 0.296875 0.96875q0.3125 0.375 0.78125 0.625q0.46875 0.234375 0.953125 0.4375l1.734375 0.75q0.703125 0.296875 1.265625 0.71875q0.578125 0.421875 0.90625 1.03125q0.34375 0.609375 0.34375 1.515625q0 0.9687576 -0.5 1.7656326q-0.5 0.796875 -1.4375 1.265625q-0.9375 0.453125 -2.21875 0.453125zm8.806183 -0.21875l-3.921875 -12.234383l1.65625 0l1.96875 6.59375q0.328125 1.09375 0.578125 2.03125q0.25 0.9375076 0.609375 2.0312576l0.078125 0q0.328125 -1.09375 0.59375 -2.0312576q0.265625 -0.9375 0.578125 -2.03125l1.953125 -6.59375l1.59375 0l-3.875 12.234383l-1.8125 0zm11.214218 0l0 -7.8125076l-1.234375 0l0 -1.15625l1.234375 -0.09375l0 -1.4375q0 -1.390625 0.640625 -2.1875q0.640625 -0.8125 2.0 -0.8125q0.4375 0 0.828125 0.078125q0.390625 0.078125 0.6875 0.21875l-0.34375 1.171875q-0.5 -0.21875 -1.015625 -0.21875q-1.265625 0 -1.265625 1.75l0 1.4375l1.921875 0l0 1.25l-1.921875 0l0 7.8125076l-1.53125 0zm5.182007 0l0 -9.062508l1.53125 0l0 9.062508l-1.53125 0zm0.78125 -10.937508q-0.453125 0 -0.75 -0.265625q-0.28125 -0.265625 -0.28125 -0.734375q0 -0.453125 0.28125 -0.734375q0.296875 -0.28125 0.75 -0.28125q0.453125 0 0.734375 0.28125q0.296875 0.28125 0.296875 0.734375q0 0.46875 -0.296875 0.734375q-0.28125 0.265625 -0.734375 0.265625zm5.433182 11.156258q-0.859375 0 -1.25 -0.53125q-0.375 -0.53125 -0.375 -1.515625l0 -11.453133l1.53125 0l0 11.562508q0 0.359375 0.125 0.515625q0.140625 0.15625 0.296875 0.15625q0.078125 0 0.140625 0q0.0625 -0.015625 0.203125 -0.03125l0.203125 1.15625q-0.15625 0.078125 -0.359375 0.109375q-0.203125 0.03125 -0.515625 0.03125zm6.8042145 0q-1.203125 0 -2.203125 -0.5625q-0.984375 -0.578125 -1.5625 -1.640625q-0.578125 -1.0625 -0.578125 -2.5312576q0 -1.484375 0.578125 -2.546875q0.59375 -1.078125 1.53125 -1.65625q0.9375 -0.578125 1.953125 -0.578125q1.734375 0 2.671875 1.15625q0.953125 1.15625 0.953125 3.109375q0 0.234375 -0.015625 0.46875q0 0.234375 -0.046875 0.40625l-6.109375 0q0.09375 1.4375076 0.890625 2.2968826q0.8125 0.859375 2.125 0.859375q0.65625 0 1.203125 -0.203125q0.546875 -0.203125 1.0625 -0.515625l0.53125 1.015625q-0.578125 0.375 -1.3125 0.65625q-0.734375 0.265625 -1.671875 0.265625zm-2.859375 -5.4843826l4.859375 0q0 -1.375 -0.59375 -2.09375q-0.578125 -0.71875 -1.640625 -0.71875q-0.953125 0 -1.71875 0.734375q-0.75 0.734375 -0.90625 2.078125z" fill-rule="nonzero"/><path fill="#000000" fill-opacity="0.0" d="m532.18634 374.59842l337.16534 0l0 107.1181l-337.16534 0z" fill-rule="evenodd"/><path stroke="#9e9e9e" stroke-width="1.0" stroke-linejoin="round" stroke-linecap="butt" stroke-dasharray="4.0,3.0" d="m532.18634 374.59842l337.16534 0l0 107.1181l-337.16534 0z" fill-rule="evenodd"/><path fill="#000000" fill-opacity="0.0" d="m539.30707 376.7979l181.7323 0l0 42.015747l-181.7323 0z" fill-rule="evenodd"/><path fill="#9e9e9e" d="m552.0883 396.87415l-0.578125 1.859375l3.6875 0l-0.578125 -1.859375q-0.34375 -1.03125 -0.640625 -2.046875q-0.296875 -1.015625 -0.59375 -2.078125l-0.078125 0q-0.28125 1.0625 -0.578125 2.078125q-0.296875 1.015625 -0.640625 2.046875zm-3.71875 6.84375l4.140625 -12.234375l1.75 0l4.140625 12.234375l-1.65625 0l-1.15625 -3.734375l-4.46875 0l-1.171875 3.734375l-1.578125 0zm11.617798 0l0 -9.0625l1.265625 0l0.125 1.640625l0.0625 0q0.46875 -0.859375 1.140625 -1.359375q0.671875 -0.515625 1.4375 -0.515625q0.53125 0 0.96875 0.1875l-0.296875 1.34375q-0.234375 -0.0625 -0.421875 -0.09375q-0.171875 -0.046875 -0.453125 -0.046875q-0.578125 0 -1.203125 0.46875q-0.625 0.453125 -1.09375 1.609375l0 5.828125l-1.53125 0zm6.473694 0l0 -9.0625l1.265625 0l0.125 1.640625l0.0625 0q0.46875 -0.859375 1.140625 -1.359375q0.671875 -0.515625 1.4375 -0.515625q0.53125 0 0.96875 0.1875l-0.296875 1.34375q-0.234375 -0.0625 -0.421875 -0.09375q-0.171875 -0.046875 -0.453125 -0.046875q-0.578125 0 -1.203125 0.46875q-0.625 0.453125 -1.09375 1.609375l0 5.828125l-1.53125 0zm9.818298 0.21875q-1.109375 0 -2.078125 -0.546875q-0.953125 -0.5625 -1.546875 -1.625q-0.578125 -1.0625 -0.578125 -2.5625q0 -1.53125 0.578125 -2.59375q0.59375 -1.0625 1.546875 -1.625q0.96875 -0.5625 2.078125 -0.5625q1.109375 0 2.0625 0.5625q0.953125 0.5625 1.53125 1.625q0.59375 1.0625 0.59375 2.59375q0 1.5 -0.59375 2.5625q-0.578125 1.0625 -1.53125 1.625q-0.953125 0.546875 -2.0625 0.546875zm0 -1.265625q1.171875 0 1.890625 -0.953125q0.71875 -0.96875 0.71875 -2.515625q0 -1.5625 -0.71875 -2.53125q-0.71875 -0.96875 -1.890625 -0.96875q-1.15625 0 -1.890625 0.96875q-0.734375 0.96875 -0.734375 2.53125q0 1.546875 0.734375 2.515625q0.734375 0.953125 1.890625 0.953125zm7.9432983 1.046875l-2.515625 -9.0625l1.5625 0l1.34375 5.234375q0.140625 0.640625 0.265625 1.265625q0.140625 0.625 0.28125 1.25l0.0625 0q0.15625 -0.625 0.296875 -1.25q0.15625 -0.625 0.328125 -1.265625l1.390625 -5.234375l1.5 0l1.421875 5.234375q0.15625 0.640625 0.3125 1.265625q0.171875 0.625 0.3125 1.25l0.078125 0q0.140625 -0.625 0.28125 -1.25q0.140625 -0.625 0.28125 -1.265625l1.328125 -5.234375l1.453125 0l-2.4375 9.0625l-1.859375 0l-1.3125 -4.875q-0.15625 -0.640625 -0.296875 -1.28125q-0.140625 -0.640625 -0.3125 -1.328125l-0.078125 0q-0.140625 0.6875 -0.296875 1.34375q-0.140625 0.640625 -0.328125 1.296875l-1.28125 4.84375l-1.78125 0zm15.688965 0l0 -9.0625l1.265625 0l0.125 1.296875l0.0625 0q0.59375 -0.640625 1.296875 -1.078125q0.71875 -0.453125 1.515625 -0.453125q1.046875 0 1.625 0.46875q0.59375 0.453125 0.875 1.265625q0.71875 -0.765625 1.4375 -1.25q0.734375 -0.484375 1.546875 -0.484375q1.40625 0 2.078125 0.90625q0.6875 0.90625 0.6875 2.640625l0 5.75l-1.53125 0l0 -5.546875q0 -1.265625 -0.40625 -1.84375q-0.40625 -0.578125 -1.265625 -0.578125q-1.015625 0 -2.28125 1.40625l0 6.5625l-1.53125 0l0 -5.546875q0 -1.265625 -0.40625 -1.84375q-0.40625 -0.578125 -1.296875 -0.578125q-1.0 0 -2.265625 1.40625l0 6.5625l-1.53125 0zm19.137878 0.21875q-1.203125 0 -2.203125 -0.5625q-0.984375 -0.578125 -1.5625 -1.640625q-0.578125 -1.0625 -0.578125 -2.53125q0 -1.484375 0.578125 -2.546875q0.59375 -1.078125 1.53125 -1.65625q0.9375 -0.578125 1.953125 -0.578125q1.734375 0 2.671875 1.15625q0.953125 1.15625 0.953125 3.109375q0 0.234375 -0.015625 0.46875q0 0.234375 -0.046875 0.40625l-6.109375 0q0.09375 1.4375 0.890625 2.296875q0.8125 0.859375 2.125 0.859375q0.65625 0 1.203125 -0.203125q0.546875 -0.203125 1.0625 -0.515625l0.53125 1.015625q-0.578125 0.375 -1.3125 0.65625q-0.734375 0.265625 -1.671875 0.265625zm-2.859375 -5.484375l4.859375 0q0 -1.375 -0.59375 -2.09375q-0.578125 -0.71875 -1.640625 -0.71875q-0.953125 0 -1.71875 0.734375q-0.75 0.734375 -0.90625 2.078125zm8.44104 5.265625l0 -9.0625l1.265625 0l0.125 1.296875l0.0625 0q0.59375 -0.640625 1.296875 -1.078125q0.71875 -0.453125 1.515625 -0.453125q1.046875 0 1.625 0.46875q0.59375 0.453125 0.875 1.265625q0.71875 -0.765625 1.4375 -1.25q0.734375 -0.484375 1.546875 -0.484375q1.40625 0 2.078125 0.90625q0.6875 0.90625 0.6875 2.640625l0 5.75l-1.53125 0l0 -5.546875q0 -1.265625 -0.40625 -1.84375q-0.40625 -0.578125 -1.265625 -0.578125q-1.015625 0 -2.28125 1.40625l0 6.5625l-1.53125 0l0 -5.546875q0 -1.265625 -0.40625 -1.84375q-0.40625 -0.578125 -1.296875 -0.578125q-1.0 0 -2.265625 1.40625l0 6.5625l-1.53125 0zm18.997253 0.21875q-1.109375 0 -2.078125 -0.546875q-0.953125 -0.5625 -1.546875 -1.625q-0.578125 -1.0625 -0.578125 -2.5625q0 -1.53125 0.578125 -2.59375q0.59375 -1.0625 1.546875 -1.625q0.96875 -0.5625 2.078125 -0.5625q1.109375 0 2.0625 0.5625q0.953125 0.5625 1.53125 1.625q0.59375 1.0625 0.59375 2.59375q0 1.5 -0.59375 2.5625q-0.578125 1.0625 -1.53125 1.625q-0.953125 0.546875 -2.0625 0.546875zm0 -1.265625q1.171875 0 1.890625 -0.953125q0.71875 -0.96875 0.71875 -2.515625q0 -1.5625 -0.71875 -2.53125q-0.71875 -0.96875 -1.890625 -0.96875q-1.15625 0 -1.890625 0.96875q-0.734375 0.96875 -0.734375 2.53125q0 1.546875 0.734375 2.515625q0.734375 0.953125 1.890625 0.953125zm6.5804443 1.046875l0 -9.0625l1.265625 0l0.125 1.640625l0.0625 0q0.46875 -0.859375 1.140625 -1.359375q0.671875 -0.515625 1.4375 -0.515625q0.53125 0 0.96875 0.1875l-0.296875 1.34375q-0.234375 -0.0625 -0.421875 -0.09375q-0.171875 -0.046875 -0.453125 -0.046875q-0.578125 0 -1.203125 0.46875q-0.625 0.453125 -1.09375 1.609375l0 5.828125l-1.53125 0zm7.0809937 3.90625q-0.296875 0 -0.5625 -0.0625q-0.265625 -0.0625 -0.5 -0.125l0.3125 -1.21875q0.140625 0.03125 0.328125 0.078125q0.1875 0.046875 0.359375 0.046875q0.765625 0 1.265625 -0.546875q0.5 -0.546875 0.78125 -1.390625l0.203125 -0.671875l-3.640625 -9.078125l1.59375 0l1.84375 5.015625q0.203125 0.578125 0.4375 1.25q0.234375 0.671875 0.4375 1.296875l0.078125 0q0.203125 -0.609375 0.390625 -1.28125q0.1875 -0.671875 0.375 -1.265625l1.625 -5.015625l1.484375 0l-3.40625 9.8125q-0.328125 0.890625 -0.765625 1.59375q-0.4375 0.71875 -1.078125 1.140625q-0.640625 0.421875 -1.5625 0.421875z" fill-rule="nonzero"/><path fill="#000000" d="m743.14435 400.7874l106.17322 0l0 54.740143l-106.17322 0z" fill-rule="evenodd"/><path stroke="#000000" stroke-width="1.0" stroke-linejoin="round" stroke-linecap="butt" d="m743.14435 400.7874l106.17322 0l0 54.740143l-106.17322 0z" fill-rule="evenodd"/><path fill="#ffffff" d="m755.9256 417.23373l-0.578125 1.859375l3.6875 0l-0.578125 -1.859375q-0.34375 -1.03125 -0.640625 -2.046875q-0.296875 -1.015625 -0.59375 -2.078125l-0.078125 0q-0.28125 1.0625 -0.578125 2.078125q-0.296875 1.015625 -0.640625 2.046875zm-3.71875 6.84375l4.140625 -12.234375l1.75 0l4.140625 12.234375l-1.65625 0l-1.15625 -3.734375l-4.46875 0l-1.171875 3.734375l-1.578125 0zm11.617737 0l0 -9.0625l1.265625 0l0.125 1.640625l0.0625 0q0.46875 -0.859375 1.140625 -1.359375q0.671875 -0.515625 1.4375 -0.515625q0.53125 0 0.96875 0.1875l-0.296875 1.34375q-0.234375 -0.0625 -0.421875 -0.09375q-0.171875 -0.046875 -0.453125 -0.046875q-0.578125 0 -1.203125 0.46875q-0.625 0.453125 -1.09375 1.609375l0 5.828125l-1.53125 0zm6.473755 0l0 -9.0625l1.265625 0l0.125 1.640625l0.0625 0q0.46875 -0.859375 1.140625 -1.359375q0.671875 -0.515625 1.4375 -0.515625q0.53125 0 0.96875 0.1875l-0.296875 1.34375q-0.234375 -0.0625 -0.421875 -0.09375q-0.171875 -0.046875 -0.453125 -0.046875q-0.578125 0 -1.203125 0.46875q-0.625 0.453125 -1.09375 1.609375l0 5.828125l-1.53125 0zm9.818298 0.21875q-1.109375 0 -2.078125 -0.546875q-0.953125 -0.5625 -1.546875 -1.625q-0.578125 -1.0625 -0.578125 -2.5625q0 -1.53125 0.578125 -2.59375q0.59375 -1.0625 1.546875 -1.625q0.96875 -0.5625 2.078125 -0.5625q1.109375 0 2.0625 0.5625q0.953125 0.5625 1.53125 1.625q0.59375 1.0625 0.59375 2.59375q0 1.5 -0.59375 2.5625q-0.578125 1.0625 -1.53125 1.625q-0.953125 0.546875 -2.0625 0.546875zm0 -1.265625q1.171875 0 1.890625 -0.953125q0.71875 -0.96875 0.71875 -2.515625q0 -1.5625 -0.71875 -2.53125q-0.71875 -0.96875 -1.890625 -0.96875q-1.15625 0 -1.890625 0.96875q-0.734375 0.96875 -0.734375 2.53125q0 1.546875 0.734375 2.515625q0.734375 0.953125 1.890625 0.953125zm7.9432983 1.046875l-2.515625 -9.0625l1.5625 0l1.34375 5.234375q0.140625 0.640625 0.265625 1.265625q0.140625 0.625 0.28125 1.25l0.0625 0q0.15625 -0.625 0.296875 -1.25q0.15625 -0.625 0.328125 -1.265625l1.390625 -5.234375l1.5 0l1.421875 5.234375q0.15625 0.640625 0.3125 1.265625q0.171875 0.625 0.3125 1.25l0.078125 0q0.140625 -0.625 0.28125 -1.25q0.140625 -0.625 0.28125 -1.265625l1.328125 -5.234375l1.453125 0l-2.4375 9.0625l-1.859375 0l-1.3125 -4.875q-0.15625 -0.640625 -0.296875 -1.28125q-0.140625 -0.640625 -0.3125 -1.328125l-0.078125 0q-0.140625 0.6875 -0.296875 1.34375q-0.140625 0.640625 -0.328125 1.296875l-1.28125 4.84375l-1.78125 0z" fill-rule="nonzero"/><path fill="#ffffff" d="m756.3631 446.07748l0 -10.9375l-3.703125 0l0 -1.296875l8.96875 0l0 1.296875l-3.703125 0l0 10.9375l-1.5625 0zm8.043335 0.21875q-1.140625 0 -1.90625 -0.671875q-0.75 -0.6875 -0.75 -1.890625q0 -1.5 1.328125 -2.28125q1.34375 -0.796875 4.234375 -1.125q0 -0.578125 -0.15625 -1.09375q-0.15625 -0.53125 -0.5625 -0.84375q-0.40625 -0.328125 -1.140625 -0.328125q-0.796875 0 -1.484375 0.296875q-0.6875 0.296875 -1.234375 0.671875l-0.59375 -1.0625q0.640625 -0.421875 1.5625 -0.796875q0.921875 -0.390625 2.0 -0.390625q1.65625 0 2.40625 1.03125q0.75 1.015625 0.75 2.703125l0 5.5625l-1.265625 0l-0.140625 -1.078125l-0.046875 0q-0.640625 0.515625 -1.390625 0.90625q-0.75 0.390625 -1.609375 0.390625zm0.4375 -1.21875q0.65625 0 1.234375 -0.3125q0.578125 -0.328125 1.234375 -0.90625l0 -2.515625q-2.265625 0.28125 -3.171875 0.84375q-0.890625 0.546875 -0.890625 1.421875q0 0.765625 0.453125 1.125q0.46875 0.34375 1.140625 0.34375zm10.887146 1.21875q-0.640625 0 -1.328125 -0.296875q-0.671875 -0.3125 -1.265625 -0.859375l-0.0625 0l-0.125 0.9375l-1.234375 0l0 -13.28125l1.53125 0l0 3.625l-0.046875 1.640625q0.625 -0.546875 1.359375 -0.90625q0.734375 -0.375 1.484375 -0.375q1.765625 0 2.671875 1.25q0.921875 1.25 0.921875 3.359375q0 1.546875 -0.546875 2.65625q-0.546875 1.09375 -1.4375 1.671875q-0.890625 0.578125 -1.921875 0.578125zm-0.265625 -1.28125q1.125 0 1.859375 -0.953125q0.734375 -0.96875 0.734375 -2.65625q0 -1.484375 -0.5625 -2.40625q-0.546875 -0.921875 -1.828125 -0.921875q-0.578125 0 -1.171875 0.3125q-0.59375 0.3125 -1.25 0.921875l0 4.75q0.59375 0.515625 1.171875 0.734375q0.59375 0.21875 1.046875 0.21875zm8.191895 1.28125q-0.859375 0 -1.25 -0.53125q-0.375 -0.53125 -0.375 -1.515625l0 -11.453125l1.53125 0l0 11.5625q0 0.359375 0.125 0.515625q0.140625 0.15625 0.296875 0.15625q0.078125 0 0.140625 0q0.0625 -0.015625 0.203125 -0.03125l0.203125 1.15625q-0.15625 0.078125 -0.359375 0.109375q-0.203125 0.03125 -0.515625 0.03125zm6.804199 0q-1.203125 0 -2.203125 -0.5625q-0.984375 -0.578125 -1.5625 -1.640625q-0.578125 -1.0625 -0.578125 -2.53125q0 -1.484375 0.578125 -2.546875q0.59375 -1.078125 1.53125 -1.65625q0.9375 -0.578125 1.953125 -0.578125q1.734375 0 2.671875 1.15625q0.953125 1.15625 0.953125 3.109375q0 0.234375 -0.015625 0.46875q0 0.234375 -0.046875 0.40625l-6.109375 0q0.09375 1.4375 0.890625 2.296875q0.8125 0.859375 2.125 0.859375q0.65625 0 1.203125 -0.203125q0.546875 -0.203125 1.0625 -0.515625l0.53125 1.015625q-0.578125 0.375 -1.3125 0.65625q-0.734375 0.265625 -1.671875 0.265625zm-2.859375 -5.484375l4.859375 0q0 -1.375 -0.59375 -2.09375q-0.578125 -0.71875 -1.640625 -0.71875q-0.953125 0 -1.71875 0.734375q-0.75 0.734375 -0.90625 2.078125z" fill-rule="nonzero"/><path fill="#000000" fill-opacity="0.0" d="m233.31758 124.15748c21.609756 0 32.416367 38.34646 43.21953 76.69291c10.803131 38.346466 21.602844 76.69292 43.205658 76.69292" fill-rule="evenodd"/><path stroke="#0000ff" stroke-width="2.0" stroke-linejoin="round" stroke-linecap="butt" d="m240.72137 125.78233l0.21456909 0.09774017c2.3847198 1.123436 4.6217194 2.7711258 6.7321167 4.868202c4.2207794 4.194153 7.9351196 10.185776 11.311768 17.375732c6.7532654 14.379929 12.155701 33.55316 17.557251 52.72638c5.401581 19.173233 10.802307 38.346466 17.552979 52.72638c3.3753357 7.1899567 7.0881653 13.181595 11.307343 17.375748c0.52737427 0.5242615 1.0626831 1.0204468 1.6062622 1.4873657c0.27175903 0.23345947 0.54559326 0.45962524 0.8215332 0.6783142c0.13796997 0.10934448 0.27645874 0.2168274 0.4154663 0.3224182l0.17800903 0.13226318" fill-rule="evenodd"/><path fill="#0000ff" stroke="#0000ff" stroke-width="2.0" stroke-linecap="butt" d="m234.29434 124.37184c0.38949585 -1.7747803 2.143982 -2.8977737 3.9187622 -2.508278c1.7747803 0.38949585 2.8977814 2.1439896 2.5082855 3.9187698c-0.38949585 1.7747803 -2.1439972 2.897766 -3.9187775 2.5082703c-1.7747803 -0.38948822 -2.897766 -2.143982 -2.5082703 -3.9187622z" fill-rule="nonzero"/><path fill="#0000ff" stroke="#0000ff" stroke-width="2.0" stroke-linecap="butt" d="m307.32565 276.69028l9.6579895 -0.11437988l-7.4719543 -6.1204224z" fill-rule="evenodd"/><path fill="#000000" fill-opacity="0.0" d="m425.92914 277.54855c23.7948 0 35.691956 0.01574707 47.5896 0.03149414c11.897644 0.01574707 23.795746 0.03149414 47.59149 0.03149414" fill-rule="evenodd"/><path stroke="#9900ff" stroke-width="2.0" stroke-linejoin="round" stroke-linecap="butt" d="m433.50916 277.54984l8.221161 0.0014343262c4.6474304 0.0017089844 8.737122 0.004180908 12.455048 0.0071411133c7.435852 0.0058898926 13.384552 0.013763428 19.333374 0.021636963c5.948822 0.007873535 11.897766 0.01574707 19.333954 0.02166748c3.7180786 0.0029296875 7.808014 0.0054016113 12.455627 0.0071411133l3.8019104 6.4086914E-4" fill-rule="evenodd"/><path fill="#9900ff" stroke="#9900ff" stroke-width="2.0" stroke-linecap="butt" d="m426.92914 277.54874c3.0517578E-4 -1.8170166 1.4735413 -3.2897644 3.2905579 -3.2894592c1.8170166 3.3569336E-4 3.289734 1.4735718 3.2894287 3.2905884c-3.0517578E-4 1.8170166 -1.4735413 3.289734 -3.2905579 3.2894287c-1.8170166 -3.0517578E-4 -3.289734 -1.4735413 -3.2894287 -3.2905579z" fill-rule="nonzero"/><path fill="#9900ff" stroke="#9900ff" stroke-width="2.0" stroke-linecap="butt" d="m509.10968 280.91296l9.076721 -3.3019104l-9.075592 -3.3050232z" fill-rule="evenodd"/><path fill="#000000" fill-opacity="0.0" d="m627.28217 277.54855c28.965576 0 43.44696 37.653534 57.931213 75.3071c14.484253 37.653534 28.971375 75.30707 57.94281 75.30707" fill-rule="evenodd"/><path stroke="#ff00ff" stroke-width="2.0" stroke-linejoin="round" stroke-linecap="butt" d="m634.8084 278.44928l0.2503662 0.061065674c0.8242798 0.21029663 1.6357422 0.45388794 2.4348145 0.7296753c3.19635 1.1031494 6.194702 2.7210693 9.023376 4.780243c5.6571655 4.118347 10.635498 10.001709 15.161316 17.061768c9.051514 14.120056 16.292969 32.94684 23.535095 51.77362c7.2420654 18.826752 14.484924 37.653534 23.538696 51.77362c4.5268555 7.060028 9.50647 12.94339 15.1651 17.061768c1.4146118 1.029602 2.871704 1.9488525 4.374756 2.7486267c0.7515259 0.39990234 1.5145874 0.76989746 2.2894897 1.1088867c0.19378662 0.0847168 0.38824463 0.1675415 0.5834961 0.24841309l0.21008301 0.08456421" fill-rule="evenodd"/><path fill="#ff00ff" stroke="#ff00ff" stroke-width="2.0" stroke-linecap="butt" d="m628.2751 277.6674c0.21588135 -1.8041382 1.8534546 -3.0916748 3.6575928 -2.875763c1.8041382 0.21591187 3.0916748 1.8534851 2.8757935 3.6576538c-0.21594238 1.8041382 -1.8535156 3.0916443 -3.6576538 2.8757324c-1.8041382 -0.21591187 -3.0916748 -1.8534851 -2.8757324 -3.6576233z" fill-rule="nonzero"/><path fill="#ff00ff" stroke="#ff00ff" stroke-width="2.0" stroke-linecap="butt" d="m730.747 429.12473l9.538696 -1.5178223l-8.282715 -4.968628z" fill-rule="evenodd"/><path fill="#000000" fill-opacity="0.0" d="m277.99475 129.12862l300.4724 0l0 42.015747l-300.4724 0z" fill-rule="evenodd"/><path fill="#0000ff" d="m295.901 153.90799q0 0.578125 0.1875 0.859375q0.203125 0.265625 0.609375 0.390625l-0.375 1.109375q-0.640625 -0.09375 -1.109375 -0.40625q-0.46875 -0.328125 -0.6875 -0.984375q-0.53125 0.6875 -1.328125 1.046875q-0.796875 0.34375 -1.75 0.34375q-1.484375 0 -2.328125 -0.828125q-0.84375 -0.84375 -0.84375 -2.203125q0 -1.53125 1.171875 -2.328125q1.1875 -0.8125 3.4375 -0.8125l1.4375 0l0 -0.828125q0 -1.0625 -0.625 -1.5q-0.609375 -0.453125 -1.71875 -0.453125q-0.484375 0 -1.140625 0.125q-0.640625 0.109375 -1.40625 0.375l-0.40625 -1.171875q0.890625 -0.34375 1.6875 -0.484375q0.796875 -0.140625 1.515625 -0.140625q1.84375 0 2.75 0.859375q0.921875 0.84375 0.921875 2.3125l0 4.71875zm-4.0625 1.15625q0.734375 0 1.390625 -0.359375q0.671875 -0.375 1.09375 -1.03125l0 -2.515625l-1.421875 0q-1.609375 0 -2.28125 0.5625q-0.671875 0.546875 -0.671875 1.5q0 0.90625 0.46875 1.375q0.484375 0.46875 1.421875 0.46875zm8.318756 0.984375l0 -1.203125l1.53125 0l0 -7.421875l-1.53125 0l0 -1.203125l2.71875 0l0.296875 2.328125q0.5625 -1.21875 1.375 -1.875q0.8125 -0.65625 2.140625 -0.65625q0.421875 0 0.734375 0.0625q0.328125 0.046875 0.65625 0.140625l-0.453125 1.40625q-0.3125 -0.078125 -0.5625 -0.125q-0.25 -0.046875 -0.578125 -0.046875q-1.125 0 -1.9375 0.8125q-0.8125 0.796875 -1.296875 2.421875l0 4.15625l2.0 0l0 1.203125l-5.09375 0zm6.421875 -6.5l0 -2.140625l0.15625 -1.1875l1.34375 0l-0.21875 3.328125l-1.28125 0zm4.771881 6.5l0 -1.203125l1.53125 0l0 -7.421875l-1.53125 0l0 -1.203125l2.71875 0l0.296875 2.328125q0.5625 -1.21875 1.375 -1.875q0.8125 -0.65625 2.140625 -0.65625q0.421875 0 0.734375 0.0625q0.328125 0.046875 0.65625 0.140625l-0.453125 1.40625q-0.3125 -0.078125 -0.5625 -0.125q-0.25 -0.046875 -0.578125 -0.046875q-1.125 0 -1.9375 0.8125q-0.8125 0.796875 -1.296875 2.421875l0 4.15625l2.0 0l0 1.203125l-5.09375 0zm6.421875 -6.5l0 -2.140625l0.15625 -1.1875l1.34375 0l-0.21875 3.328125l-1.28125 0zm8.412506 -3.53125q1.390625 0 2.328125 0.640625q0.9375 0.625 1.40625 1.78125q0.484375 1.140625 0.484375 2.6875q0 1.5 -0.484375 2.671875q-0.484375 1.15625 -1.421875 1.8125q-0.9375 0.65625 -2.328125 0.65625q-1.375 0 -2.328125 -0.625q-0.9375 -0.640625 -1.421875 -1.796875q-0.46875 -1.15625 -0.46875 -2.6875q0 -1.53125 0.484375 -2.6875q0.484375 -1.15625 1.421875 -1.796875q0.953125 -0.65625 2.328125 -0.65625zm0 1.28125q-1.265625 0 -1.921875 0.9375q-0.640625 0.9375 -0.640625 2.921875q0 1.9375 0.640625 2.875q0.640625 0.9375 1.90625 0.9375q1.265625 0 1.90625 -0.9375q0.640625 -0.9375 0.640625 -2.90625q0 -1.953125 -0.640625 -2.890625q-0.625 -0.9375 -1.890625 -0.9375zm14.740631 8.75l-2.21875 0l-1.28125 -7.203125l-1.375 7.203125l-2.15625 0l-1.796875 -9.828125l1.609375 0l1.25 8.859375l1.5625 -7.609375l1.859375 0l1.484375 7.609375l1.25 -8.859375l1.53125 0l-1.71875 9.828125zm15.450012 -1.3125q0 -0.59375 0.421875 -1.046875q0.4375 -0.453125 1.078125 -0.453125q0.65625 0 1.078125 0.453125q0.4375 0.453125 0.4375 1.046875q0 0.640625 -0.4375 1.09375q-0.421875 0.4375 -1.078125 0.4375q-0.640625 0 -1.078125 -0.4375q-0.421875 -0.453125 -0.421875 -1.09375zm0 -6.71875q0 -0.421875 0.1875 -0.75q0.203125 -0.34375 0.546875 -0.546875q0.34375 -0.203125 0.765625 -0.203125q0.65625 0 1.078125 0.4375q0.4375 0.4375 0.4375 1.0625q0 0.609375 -0.4375 1.0625q-0.421875 0.453125 -1.078125 0.453125q-0.640625 0 -1.078125 -0.453125q-0.421875 -0.453125 -0.421875 -1.0625zm-7.46875 6.71875q0 -0.59375 0.4375 -1.046875q0.421875 -0.453125 1.0625 -0.453125q0.65625 0 1.09375 0.453125q0.421875 0.453125 0.421875 1.046875q0 0.640625 -0.421875 1.09375q-0.4375 0.4375 -1.09375 0.4375q-0.640625 0 -1.0625 -0.4375q-0.4375 -0.453125 -0.4375 -1.09375zm0 -6.71875q0 -0.421875 0.203125 -0.75q0.1875 -0.34375 0.53125 -0.546875q0.34375 -0.203125 0.765625 -0.203125q0.65625 0 1.09375 0.4375q0.421875 0.4375 0.421875 1.0625q0 0.609375 -0.421875 1.0625q-0.4375 0.453125 -1.09375 0.453125q-0.640625 0 -1.0625 -0.453125q-0.4375 -0.453125 -0.4375 -1.0625zm18.412506 8.03125l0 -1.203125l1.53125 0l0 -7.421875l-1.53125 0l0 -1.203125l2.71875 0l0.296875 2.328125q0.5625 -1.21875 1.375 -1.875q0.8125 -0.65625 2.140625 -0.65625q0.421875 0 0.734375 0.0625q0.328125 0.046875 0.65625 0.140625l-0.453125 1.40625q-0.3125 -0.078125 -0.5625 -0.125q-0.25 -0.046875 -0.578125 -0.046875q-1.125 0 -1.9375 0.8125q-0.8125 0.796875 -1.296875 2.421875l0 4.15625l2.0 0l0 1.203125l-5.09375 0zm6.421875 -6.5l0 -2.140625l0.15625 -1.1875l1.34375 0l-0.21875 3.328125l-1.28125 0zm5.912506 2.140625q0.046875 1.140625 0.4375 1.875q0.390625 0.71875 1.03125 1.0625q0.640625 0.328125 1.40625 0.328125q0.75 0 1.359375 -0.21875q0.609375 -0.234375 1.25 -0.671875l0.75 1.046875q-0.703125 0.53125 -1.578125 0.84375q-0.875 0.3125 -1.8125 0.3125q-1.421875 0 -2.4375 -0.640625q-1.0 -0.65625 -1.53125 -1.796875q-0.515625 -1.15625 -0.515625 -2.671875q0 -1.5 0.53125 -2.65625q0.53125 -1.15625 1.484375 -1.8125q0.96875 -0.671875 2.265625 -0.671875q1.25 0 2.140625 0.59375q0.890625 0.578125 1.375 1.65625q0.484375 1.078125 0.484375 2.5625q0 0.25 -0.015625 0.46875q0 0.21875 -0.03125 0.390625l-6.59375 0zm2.671875 -4.375q-1.09375 0 -1.828125 0.78125q-0.734375 0.765625 -0.84375 2.390625l5.125 0q-0.03125 -1.578125 -0.6875 -2.375q-0.65625 -0.796875 -1.765625 -0.796875zm14.318756 6.59375q0 0.578125 0.1875 0.859375q0.203125 0.265625 0.609375 0.390625l-0.375 1.109375q-0.640625 -0.09375 -1.109375 -0.40625q-0.46875 -0.328125 -0.6875 -0.984375q-0.53125 0.6875 -1.328125 1.046875q-0.796875 0.34375 -1.75 0.34375q-1.484375 0 -2.328125 -0.828125q-0.84375 -0.84375 -0.84375 -2.203125q0 -1.53125 1.171875 -2.328125q1.1875 -0.8125 3.4375 -0.8125l1.4375 0l0 -0.828125q0 -1.0625 -0.625 -1.5q-0.609375 -0.453125 -1.71875 -0.453125q-0.484375 0 -1.140625 0.125q-0.640625 0.109375 -1.40625 0.375l-0.40625 -1.171875q0.890625 -0.34375 1.6875 -0.484375q0.796875 -0.140625 1.515625 -0.140625q1.84375 0 2.75 0.859375q0.921875 0.84375 0.921875 2.3125l0 4.71875zm-4.0625 1.15625q0.734375 0 1.390625 -0.359375q0.671875 -0.375 1.09375 -1.03125l0 -2.515625l-1.421875 0q-1.609375 0 -2.28125 0.5625q-0.671875 0.546875 -0.671875 1.5q0 0.90625 0.46875 1.375q0.484375 0.46875 1.421875 0.46875zm14.100006 -12.984375l1.5625 0.1875l0 13.78125l-1.359375 0l-0.15625 -1.296875q-0.546875 0.78125 -1.265625 1.15625q-0.703125 0.359375 -1.515625 0.359375q-1.28125 0 -2.109375 -0.640625q-0.828125 -0.65625 -1.234375 -1.796875q-0.40625 -1.15625 -0.40625 -2.671875q0 -1.484375 0.453125 -2.640625q0.46875 -1.15625 1.328125 -1.828125q0.859375 -0.671875 2.078125 -0.671875q0.84375 0 1.484375 0.296875q0.640625 0.296875 1.140625 0.859375l0 -5.09375zm-2.21875 5.203125q-1.234375 0 -1.90625 0.96875q-0.65625 0.953125 -0.65625 2.90625q0 1.265625 0.265625 2.125q0.28125 0.859375 0.8125 1.296875q0.53125 0.421875 1.28125 0.421875q0.84375 0 1.4375 -0.46875q0.59375 -0.484375 0.984375 -1.09375l0 -4.90625q-0.40625 -0.59375 -0.96875 -0.921875q-0.5625 -0.328125 -1.25 -0.328125zm6.600006 12.15625l0 -1.375l9.328125 0l0 1.375l-9.328125 0zm16.568756 -4.53125q0.734375 0 1.375 -0.234375q0.640625 -0.25 1.1875 -0.625l0.765625 1.03125q-0.640625 0.546875 -1.546875 0.875q-0.90625 0.3125 -1.78125 0.3125q-1.46875 0 -2.5 -0.625q-1.015625 -0.640625 -1.5625 -1.78125q-0.546875 -1.140625 -0.546875 -2.6875q0 -1.46875 0.546875 -2.640625q0.546875 -1.171875 1.578125 -1.84375q1.03125 -0.671875 2.5 -0.671875q0.953125 0 1.765625 0.296875q0.828125 0.28125 1.53125 0.84375l-0.765625 1.046875q-0.625 -0.4375 -1.265625 -0.65625q-0.625 -0.21875 -1.28125 -0.21875q-1.265625 0 -2.09375 0.953125q-0.8125 0.953125 -0.8125 2.890625q0 1.3125 0.375 2.140625q0.375 0.828125 1.03125 1.21875q0.65625 0.375 1.5 0.375zm10.100006 0.0625q1.125 0 1.78125 -0.421875q0.65625 -0.4375 0.65625 -1.140625q0 -0.453125 -0.171875 -0.765625q-0.15625 -0.328125 -0.65625 -0.59375q-0.5 -0.265625 -1.546875 -0.53125q-1.015625 -0.25 -1.765625 -0.578125q-0.75 -0.328125 -1.171875 -0.859375q-0.40625 -0.53125 -0.40625 -1.375q0 -0.84375 0.46875 -1.4375q0.46875 -0.609375 1.296875 -0.921875q0.84375 -0.328125 1.953125 -0.328125q1.1875 0 2.0625 0.3125q0.890625 0.3125 1.5 0.765625l-0.6875 1.078125q-0.5625 -0.390625 -1.234375 -0.640625q-0.671875 -0.25 -1.609375 -0.25q-1.15625 0 -1.65625 0.359375q-0.484375 0.359375 -0.484375 0.9375q0 0.421875 0.234375 0.71875q0.25 0.28125 0.8125 0.515625q0.578125 0.21875 1.578125 0.484375q0.953125 0.25 1.65625 0.609375q0.71875 0.359375 1.125 0.9375q0.40625 0.578125 0.40625 1.484375q0 1.046875 -0.609375 1.703125q-0.59375 0.640625 -1.546875 0.9375q-0.9375 0.296875 -1.984375 0.296875q-1.34375 0 -2.28125 -0.390625q-0.9375 -0.390625 -1.5625 -0.9375l0.890625 -1.03125q0.578125 0.46875 1.328125 0.765625q0.75 0.296875 1.625 0.296875zm16.037506 -8.75l-3.5625 9.828125l-1.828125 0l-3.546875 -9.828125l1.671875 0l2.84375 8.40625l2.796875 -8.40625l1.625 0zm2.068756 13.21875l0 -1.375l9.328125 0l0 1.375l-9.328125 0zm19.162506 -5.53125q0 0.578125 0.1875 0.859375q0.203125 0.265625 0.609375 0.390625l-0.375 1.109375q-0.640625 -0.09375 -1.109375 -0.40625q-0.46875 -0.328125 -0.6875 -0.984375q-0.53125 0.6875 -1.328125 1.046875q-0.796875 0.34375 -1.75 0.34375q-1.484375 0 -2.328125 -0.828125q-0.84375 -0.84375 -0.84375 -2.203125q0 -1.53125 1.171875 -2.328125q1.1875 -0.8125 3.4375 -0.8125l1.4375 0l0 -0.828125q0 -1.0625 -0.625 -1.5q-0.609375 -0.453125 -1.71875 -0.453125q-0.484375 0 -1.140625 0.125q-0.640625 0.109375 -1.40625 0.375l-0.40625 -1.171875q0.890625 -0.34375 1.6875 -0.484375q0.796875 -0.140625 1.515625 -0.140625q1.84375 0 2.75 0.859375q0.921875 0.84375 0.921875 2.3125l0 4.71875zm-4.0625 1.15625q0.734375 0 1.390625 -0.359375q0.671875 -0.375 1.09375 -1.03125l0 -2.515625l-1.421875 0q-1.609375 0 -2.28125 0.5625q-0.671875 0.546875 -0.671875 1.5q0 0.90625 0.46875 1.375q0.484375 0.46875 1.421875 0.46875zm8.318756 0.984375l0 -1.203125l1.53125 0l0 -7.421875l-1.53125 0l0 -1.203125l2.71875 0l0.296875 2.328125q0.5625 -1.21875 1.375 -1.875q0.8125 -0.65625 2.140625 -0.65625q0.421875 0 0.734375 0.0625q0.328125 0.046875 0.65625 0.140625l-0.453125 1.40625q-0.3125 -0.078125 -0.5625 -0.125q-0.25 -0.046875 -0.578125 -0.046875q-1.125 0 -1.9375 0.8125q-0.8125 0.796875 -1.296875 2.421875l0 4.15625l2.0 0l0 1.203125l-5.09375 0zm6.421875 -6.5l0 -2.140625l0.15625 -1.1875l1.34375 0l-0.21875 3.328125l-1.28125 0zm4.771881 6.5l0 -1.203125l1.53125 0l0 -7.421875l-1.53125 0l0 -1.203125l2.71875 0l0.296875 2.328125q0.5625 -1.21875 1.375 -1.875q0.8125 -0.65625 2.140625 -0.65625q0.421875 0 0.734375 0.0625q0.328125 0.046875 0.65625 0.140625l-0.453125 1.40625q-0.3125 -0.078125 -0.5625 -0.125q-0.25 -0.046875 -0.578125 -0.046875q-1.125 0 -1.9375 0.8125q-0.8125 0.796875 -1.296875 2.421875l0 4.15625l2.0 0l0 1.203125l-5.09375 0zm6.421875 -6.5l0 -2.140625l0.15625 -1.1875l1.34375 0l-0.21875 3.328125l-1.28125 0zm8.412506 -3.53125q1.390625 0 2.328125 0.640625q0.9375 0.625 1.40625 1.78125q0.484375 1.140625 0.484375 2.6875q0 1.5 -0.484375 2.671875q-0.484375 1.15625 -1.421875 1.8125q-0.9375 0.65625 -2.328125 0.65625q-1.375 0 -2.328125 -0.625q-0.9375 -0.640625 -1.421875 -1.796875q-0.46875 -1.15625 -0.46875 -2.6875q0 -1.53125 0.484375 -2.6875q0.484375 -1.15625 1.421875 -1.796875q0.953125 -0.65625 2.328125 -0.65625zm0 1.28125q-1.265625 0 -1.921875 0.9375q-0.640625 0.9375 -0.640625 2.921875q0 1.9375 0.640625 2.875q0.640625 0.9375 1.90625 0.9375q1.265625 0 1.90625 -0.9375q0.640625 -0.9375 0.640625 -2.90625q0 -1.953125 -0.640625 -2.890625q-0.625 -0.9375 -1.890625 -0.9375zm14.740631 8.75l-2.21875 0l-1.28125 -7.203125l-1.375 7.203125l-2.15625 0l-1.796875 -9.828125l1.609375 0l1.25 8.859375l1.5625 -7.609375l1.859375 0l1.484375 7.609375l1.25 -8.859375l1.53125 0l-1.71875 9.828125zm6.0062256 -6.53125q0 1.453125 0.25 2.609375q0.25 1.15625 0.734375 2.109375q0.5 0.953125 1.25 1.8125q0.75 0.875 1.75 1.75l-0.8125 0.859375q-1.515625 -1.234375 -2.59375 -2.53125q-1.078125 -1.296875 -1.65625 -2.890625q-0.5625 -1.59375 -0.5625 -3.71875q0 -2.125 0.5625 -3.71875q0.578125 -1.59375 1.65625 -2.890625q1.078125 -1.296875 2.59375 -2.53125l0.8125 0.859375q-1.0 0.890625 -1.75 1.765625q-0.75 0.859375 -1.25 1.8125q-0.5 0.9375 -0.75 2.09375q-0.234375 1.140625 -0.234375 2.609375zm14.459412 0q0 -1.46875 -0.25 -2.609375q-0.25 -1.15625 -0.75 -2.09375q-0.484375 -0.953125 -1.234375 -1.8125q-0.75 -0.875 -1.765625 -1.765625l0.828125 -0.859375q1.515625 1.234375 2.578125 2.53125q1.078125 1.296875 1.65625 2.890625q0.578125 1.59375 0.578125 3.71875q0 2.125 -0.578125 3.71875q-0.578125 1.59375 -1.65625 2.890625q-1.0625 1.296875 -2.578125 2.53125l-0.828125 -0.859375q1.0 -0.875 1.75 -1.75q0.75 -0.859375 1.234375 -1.8125q0.5 -0.953125 0.75 -2.109375q0.265625 -1.15625 0.265625 -2.609375z" fill-rule="nonzero"/><path fill="#000000" fill-opacity="0.0" d="m423.41733 183.06299l300.47244 0l0 42.015747l-300.47244 0z" fill-rule="evenodd"/><path fill="#9900ff" d="m440.7142 200.15486l0 8.25q0 1.640625 -0.734375 2.75q-0.734375 1.109375 -2.140625 1.78125q-1.390625 0.671875 -3.375 1.0l-0.265625 -1.203125q1.453125 -0.25 2.5625 -0.734375q1.125 -0.484375 1.75 -1.328125q0.640625 -0.84375 0.640625 -2.15625l0 -7.109375l-4.078125 0l0 -1.25l5.640625 0zm-1.453125 -4.59375q0.515625 0 0.828125 0.328125q0.328125 0.3125 0.328125 0.765625q0 0.46875 -0.328125 0.796875q-0.3125 0.328125 -0.828125 0.328125q-0.515625 0 -0.828125 -0.328125q-0.296875 -0.328125 -0.296875 -0.796875q0 -0.453125 0.296875 -0.765625q0.3125 -0.328125 0.828125 -0.328125zm13.256256 12.28125q0 0.578125 0.1875 0.859375q0.203125 0.265625 0.609375 0.390625l-0.375 1.109375q-0.640625 -0.09375 -1.109375 -0.40625q-0.46875 -0.328125 -0.6875 -0.984375q-0.53125 0.6875 -1.328125 1.046875q-0.796875 0.34375 -1.75 0.34375q-1.484375 0 -2.328125 -0.828125q-0.84375 -0.84375 -0.84375 -2.203125q0 -1.53125 1.171875 -2.328125q1.1875 -0.8125 3.4375 -0.8125l1.4375 0l0 -0.828125q0 -1.0625 -0.625 -1.5q-0.609375 -0.453125 -1.71875 -0.453125q-0.484375 0 -1.140625 0.125q-0.640625 0.109375 -1.40625 0.375l-0.40625 -1.171875q0.890625 -0.34375 1.6875 -0.484375q0.796875 -0.140625 1.515625 -0.140625q1.84375 0 2.75 0.859375q0.921875 0.84375 0.921875 2.3125l0 4.71875zm-4.0625 1.15625q0.734375 0 1.390625 -0.359375q0.671875 -0.375 1.09375 -1.03125l0 -2.515625l-1.421875 0q-1.609375 0 -2.28125 0.5625q-0.671875 0.546875 -0.671875 1.5q0 0.90625 0.46875 1.375q0.484375 0.46875 1.421875 0.46875zm8.225006 0.984375l0 -9.828125l1.328125 0l0.125 1.375q0.59375 -0.765625 1.5 -1.171875q0.90625 -0.40625 1.75 -0.40625q1.4375 0 2.09375 0.765625q0.671875 0.765625 0.671875 2.125l0 7.140625l-1.578125 0l0 -5.984375q0 -1.0 -0.109375 -1.625q-0.109375 -0.625 -0.46875 -0.90625q-0.34375 -0.28125 -1.09375 -0.28125q-0.578125 0 -1.09375 0.25q-0.5 0.25 -0.90625 0.640625q-0.390625 0.375 -0.65625 0.75l0 7.15625l-1.5625 0zm16.162506 -9.828125l0 8.59375l2.78125 0l0 1.234375l-7.375 0l0 -1.234375l3.03125 0l0 -7.34375l-2.9375 0l0 -1.25l4.5 0zm-1.25 -4.59375q0.53125 0 0.84375 0.328125q0.3125 0.3125 0.3125 0.765625q0 0.46875 -0.3125 0.796875q-0.3125 0.328125 -0.84375 0.328125q-0.484375 0 -0.8125 -0.328125q-0.3125 -0.328125 -0.3125 -0.796875q0 -0.453125 0.3125 -0.765625q0.328125 -0.328125 0.8125 -0.328125zm15.271881 13.921875q-0.5 0.34375 -1.21875 0.53125q-0.71875 0.1875 -1.40625 0.1875q-1.59375 0 -2.453125 -0.828125q-0.859375 -0.84375 -0.859375 -2.140625l0 -5.859375l-2.25 0l0 -1.21875l2.25 0l0 -2.21875l1.578125 -0.1875l0 2.40625l3.390625 0l-0.1875 1.21875l-3.203125 0l0 5.84375q0 0.8125 0.421875 1.25q0.4375 0.421875 1.453125 0.421875q0.546875 0 1.015625 -0.125q0.46875 -0.140625 0.859375 -0.34375l0.609375 1.0625zm7.131256 -9.53125q1.390625 0 2.328125 0.640625q0.9375 0.625 1.40625 1.78125q0.484375 1.140625 0.484375 2.6875q0 1.5 -0.484375 2.671875q-0.484375 1.15625 -1.421875 1.8125q-0.9375 0.65625 -2.328125 0.65625q-1.375 0 -2.328125 -0.625q-0.9375 -0.640625 -1.421875 -1.796875q-0.46875 -1.15625 -0.46875 -2.6875q0 -1.53125 0.484375 -2.6875q0.484375 -1.15625 1.421875 -1.796875q0.953125 -0.65625 2.328125 -0.65625zm0 1.28125q-1.265625 0 -1.921875 0.9375q-0.640625 0.9375 -0.640625 2.921875q0 1.9375 0.640625 2.875q0.640625 0.9375 1.90625 0.9375q1.265625 0 1.90625 -0.9375q0.640625 -0.9375 0.640625 -2.90625q0 -1.953125 -0.640625 -2.890625q-0.625 -0.9375 -1.890625 -0.9375zm7.553131 8.75l0 -1.203125l1.53125 0l0 -7.421875l-1.53125 0l0 -1.203125l2.71875 0l0.296875 2.328125q0.5625 -1.21875 1.375 -1.875q0.8125 -0.65625 2.140625 -0.65625q0.421875 0 0.734375 0.0625q0.328125 0.046875 0.65625 0.140625l-0.453125 1.40625q-0.3125 -0.078125 -0.5625 -0.125q-0.25 -0.046875 -0.578125 -0.046875q-1.125 0 -1.9375 0.8125q-0.8125 0.796875 -1.296875 2.421875l0 4.15625l2.0 0l0 1.203125l-5.09375 0zm6.421875 -6.5l0 -2.140625l0.15625 -1.1875l1.34375 0l-0.21875 3.328125l-1.28125 0zm16.215607 5.1875q0 -0.59375 0.421875 -1.046875q0.4375 -0.453125 1.078125 -0.453125q0.65625 0 1.078125 0.453125q0.4375 0.453125 0.4375 1.046875q0 0.640625 -0.4375 1.09375q-0.421875 0.4375 -1.078125 0.4375q-0.640625 0 -1.078125 -0.4375q-0.421875 -0.453125 -0.421875 -1.09375zm0 -6.71875q0 -0.421875 0.1875 -0.75q0.203125 -0.34375 0.546875 -0.546875q0.34375 -0.203125 0.765625 -0.203125q0.65625 0 1.078125 0.4375q0.4375 0.4375 0.4375 1.0625q0 0.609375 -0.4375 1.0625q-0.421875 0.453125 -1.078125 0.453125q-0.640625 0 -1.078125 -0.453125q-0.421875 -0.453125 -0.421875 -1.0625zm-7.46875 6.71875q0 -0.59375 0.4375 -1.046875q0.421875 -0.453125 1.0625 -0.453125q0.65625 0 1.09375 0.453125q0.421875 0.453125 0.421875 1.046875q0 0.640625 -0.421875 1.09375q-0.4375 0.4375 -1.09375 0.4375q-0.640625 0 -1.0625 -0.4375q-0.4375 -0.453125 -0.4375 -1.09375zm0 -6.71875q0 -0.421875 0.203125 -0.75q0.1875 -0.34375 0.53125 -0.546875q0.34375 -0.203125 0.765625 -0.203125q0.65625 0 1.09375 0.4375q0.421875 0.4375 0.421875 1.0625q0 0.609375 -0.421875 1.0625q-0.4375 0.453125 -1.09375 0.453125q-0.640625 0 -1.0625 -0.453125q-0.4375 -0.453125 -0.4375 -1.0625zm22.756287 6.890625q0.734375 0 1.375 -0.234375q0.640625 -0.25 1.1875 -0.625l0.765625 1.03125q-0.640625 0.546875 -1.546875 0.875q-0.90625 0.3125 -1.78125 0.3125q-1.46875 0 -2.5 -0.625q-1.015625 -0.640625 -1.5625 -1.78125q-0.546875 -1.140625 -0.546875 -2.6875q0 -1.46875 0.546875 -2.640625q0.546875 -1.171875 1.578125 -1.84375q1.03125 -0.671875 2.5 -0.671875q0.953125 0 1.765625 0.296875q0.828125 0.28125 1.53125 0.84375l-0.765625 1.046875q-0.625 -0.4375 -1.265625 -0.65625q-0.625 -0.21875 -1.28125 -0.21875q-1.265625 0 -2.09375 0.953125q-0.8125 0.953125 -0.8125 2.890625q0 1.3125 0.375 2.140625q0.375 0.828125 1.03125 1.21875q0.65625 0.375 1.5 0.375zm10.584351 -12.640625l0 11.359375q0 0.71875 0.453125 1.03125q0.453125 0.296875 1.171875 0.296875q0.4375 0 0.84375 -0.09375q0.40625 -0.09375 0.796875 -0.25l0.421875 1.140625q-0.390625 0.203125 -0.984375 0.359375q-0.59375 0.15625 -1.34375 0.15625q-1.3125 0 -2.125 -0.71875q-0.8125 -0.734375 -0.8125 -2.015625l0 -10.015625l-3.0 0l0 -1.25l4.578125 0zm8.600037 9.421875q0.046875 1.140625 0.4375 1.875q0.390625 0.71875 1.03125 1.0625q0.640625 0.328125 1.40625 0.328125q0.75 0 1.359375 -0.21875q0.609375 -0.234375 1.25 -0.671875l0.75 1.046875q-0.703125 0.53125 -1.578125 0.84375q-0.875 0.3125 -1.8125 0.3125q-1.421875 0 -2.4375 -0.640625q-1.0 -0.65625 -1.53125 -1.796875q-0.515625 -1.15625 -0.515625 -2.671875q0 -1.5 0.53125 -2.65625q0.53125 -1.15625 1.484375 -1.8125q0.96875 -0.671875 2.265625 -0.671875q1.25 0 2.140625 0.59375q0.890625 0.578125 1.375 1.65625q0.484375 1.078125 0.484375 2.5625q0 0.25 -0.015625 0.46875q0 0.21875 -0.03125 0.390625l-6.59375 0zm2.671875 -4.375q-1.09375 0 -1.828125 0.78125q-0.734375 0.765625 -0.84375 2.390625l5.125 0q-0.03125 -1.578125 -0.6875 -2.375q-0.65625 -0.796875 -1.765625 -0.796875zm14.318726 6.59375q0 0.578125 0.1875 0.859375q0.203125 0.265625 0.609375 0.390625l-0.375 1.109375q-0.640625 -0.09375 -1.109375 -0.40625q-0.46875 -0.328125 -0.6875 -0.984375q-0.53125 0.6875 -1.328125 1.046875q-0.796875 0.34375 -1.75 0.34375q-1.484375 0 -2.328125 -0.828125q-0.84375 -0.84375 -0.84375 -2.203125q0 -1.53125 1.171875 -2.328125q1.1875 -0.8125 3.4375 -0.8125l1.4375 0l0 -0.828125q0 -1.0625 -0.625 -1.5q-0.609375 -0.453125 -1.71875 -0.453125q-0.484375 0 -1.140625 0.125q-0.640625 0.109375 -1.40625 0.375l-0.40625 -1.171875q0.890625 -0.34375 1.6875 -0.484375q0.796875 -0.140625 1.515625 -0.140625q1.84375 0 2.75 0.859375q0.921875 0.84375 0.921875 2.3125l0 4.71875zm-4.0625 1.15625q0.734375 0 1.390625 -0.359375q0.671875 -0.375 1.09375 -1.03125l0 -2.515625l-1.421875 0q-1.609375 0 -2.28125 0.5625q-0.671875 0.546875 -0.671875 1.5q0 0.90625 0.46875 1.375q0.484375 0.46875 1.421875 0.46875zm8.225037 0.984375l0 -9.828125l1.328125 0l0.125 1.375q0.59375 -0.765625 1.5 -1.171875q0.90625 -0.40625 1.75 -0.40625q1.4375 0 2.09375 0.765625q0.671875 0.765625 0.671875 2.125l0 7.140625l-1.578125 0l0 -5.984375q0 -1.0 -0.109375 -1.625q-0.109375 -0.625 -0.46875 -0.90625q-0.34375 -0.28125 -1.09375 -0.28125q-0.578125 0 -1.09375 0.25q-0.5 0.25 -0.90625 0.640625q-0.390625 0.375 -0.65625 0.75l0 7.15625l-1.5625 0zm10.256226 3.390625l0 -1.375l9.328125 0l0 1.375l-9.328125 0zm12.131287 -3.390625l0 -9.828125l1.328125 0l0.125 1.375q0.59375 -0.765625 1.5 -1.171875q0.90625 -0.40625 1.75 -0.40625q1.4375 0 2.09375 0.765625q0.671875 0.765625 0.671875 2.125l0 7.140625l-1.578125 0l0 -5.984375q0 -1.0 -0.109375 -1.625q-0.109375 -0.625 -0.46875 -0.90625q-0.34375 -0.28125 -1.09375 -0.28125q-0.578125 0 -1.09375 0.25q-0.5 0.25 -0.90625 0.640625q-0.390625 0.375 -0.65625 0.75l0 7.15625l-1.5625 0zm18.224976 -2.140625q0 0.578125 0.1875 0.859375q0.203125 0.265625 0.609375 0.390625l-0.375 1.109375q-0.640625 -0.09375 -1.109375 -0.40625q-0.46875 -0.328125 -0.6875 -0.984375q-0.53125 0.6875 -1.328125 1.046875q-0.796875 0.34375 -1.75 0.34375q-1.484375 0 -2.328125 -0.828125q-0.84375 -0.84375 -0.84375 -2.203125q0 -1.53125 1.171875 -2.328125q1.1875 -0.8125 3.4375 -0.8125l1.4375 0l0 -0.828125q0 -1.0625 -0.625 -1.5q-0.609375 -0.453125 -1.71875 -0.453125q-0.484375 0 -1.140625 0.125q-0.640625 0.109375 -1.40625 0.375l-0.40625 -1.171875q0.890625 -0.34375 1.6875 -0.484375q0.796875 -0.140625 1.515625 -0.140625q1.84375 0 2.75 0.859375q0.921875 0.84375 0.921875 2.3125l0 4.71875zm-4.0625 1.15625q0.734375 0 1.390625 -0.359375q0.671875 -0.375 1.09375 -1.03125l0 -2.515625l-1.421875 0q-1.609375 0 -2.28125 0.5625q-0.671875 0.546875 -0.671875 1.5q0 0.90625 0.46875 1.375q0.484375 0.46875 1.421875 0.46875zm14.693787 -9.046875q0.484375 0 0.90625 0.203125q0.4375 0.203125 0.71875 0.796875q0.28125 0.59375 0.28125 1.71875l0 7.3125l-1.453125 0l0 -7.0625q0 -0.921875 -0.109375 -1.328125q-0.109375 -0.421875 -0.640625 -0.421875q-0.4375 0 -0.875 0.28125q-0.4375 0.28125 -0.84375 0.90625l0 7.625l-1.46875 0l0 -7.0625q0 -0.921875 -0.109375 -1.328125q-0.109375 -0.421875 -0.640625 -0.421875q-0.46875 0 -0.890625 0.28125q-0.421875 0.28125 -0.828125 0.90625l0 7.625l-1.453125 0l0 -9.828125l1.234375 0l0.09375 1.140625q0.40625 -0.5625 0.90625 -0.953125q0.5 -0.390625 1.234375 -0.390625q0.5625 0 1.046875 0.265625q0.5 0.265625 0.734375 1.03125q0.390625 -0.578125 0.890625 -0.9375q0.515625 -0.359375 1.265625 -0.359375zm5.9593506 5.671875q0.046875 1.140625 0.4375 1.875q0.390625 0.71875 1.03125 1.0625q0.640625 0.328125 1.40625 0.328125q0.75 0 1.359375 -0.21875q0.609375 -0.234375 1.25 -0.671875l0.75 1.046875q-0.703125 0.53125 -1.578125 0.84375q-0.875 0.3125 -1.8125 0.3125q-1.421875 0 -2.4375 -0.640625q-1.0 -0.65625 -1.53125 -1.796875q-0.515625 -1.15625 -0.515625 -2.671875q0 -1.5 0.53125 -2.65625q0.53125 -1.15625 1.484375 -1.8125q0.96875 -0.671875 2.265625 -0.671875q1.25 0 2.140625 0.59375q0.890625 0.578125 1.375 1.65625q0.484375 1.078125 0.484375 2.5625q0 0.25 -0.015625 0.46875q0 0.21875 -0.03125 0.390625l-6.59375 0zm2.671875 -4.375q-1.09375 0 -1.828125 0.78125q-0.734375 0.765625 -0.84375 2.390625l5.125 0q-0.03125 -1.578125 -0.6875 -2.375q-0.65625 -0.796875 -1.765625 -0.796875zm10.631287 7.65625q1.125 0 1.78125 -0.421875q0.65625 -0.4375 0.65625 -1.140625q0 -0.453125 -0.171875 -0.765625q-0.15625 -0.328125 -0.65625 -0.59375q-0.5 -0.265625 -1.546875 -0.53125q-1.015625 -0.25 -1.765625 -0.578125q-0.75 -0.328125 -1.171875 -0.859375q-0.40625 -0.53125 -0.40625 -1.375q0 -0.84375 0.46875 -1.4375q0.46875 -0.609375 1.296875 -0.921875q0.84375 -0.328125 1.953125 -0.328125q1.1875 0 2.0625 0.3125q0.890625 0.3125 1.5 0.765625l-0.6875 1.078125q-0.5625 -0.390625 -1.234375 -0.640625q-0.671875 -0.25 -1.609375 -0.25q-1.15625 0 -1.65625 0.359375q-0.484375 0.359375 -0.484375 0.9375q0 0.421875 0.234375 0.71875q0.25 0.28125 0.8125 0.515625q0.578125 0.21875 1.578125 0.484375q0.953125 0.25 1.65625 0.609375q0.71875 0.359375 1.125 0.9375q0.40625 0.578125 0.40625 1.484375q0 1.046875 -0.609375 1.703125q-0.59375 0.640625 -1.546875 0.9375q-0.9375 0.296875 -1.984375 0.296875q-1.34375 0 -2.28125 -0.390625q-0.9375 -0.390625 -1.5625 -0.9375l0.890625 -1.03125q0.578125 0.46875 1.328125 0.765625q0.75 0.296875 1.625 0.296875zm9.943726 -5.453125q0 1.453125 0.25 2.609375q0.25 1.15625 0.734375 2.109375q0.5 0.953125 1.25 1.8125q0.75 0.875 1.75 1.75l-0.8125 0.859375q-1.515625 -1.234375 -2.59375 -2.53125q-1.078125 -1.296875 -1.65625 -2.890625q-0.5625 -1.59375 -0.5625 -3.71875q0 -2.125 0.5625 -3.71875q0.578125 -1.59375 1.65625 -2.890625q1.078125 -1.296875 2.59375 -2.53125l0.8125 0.859375q-1.0 0.890625 -1.75 1.765625q-0.75 0.859375 -1.25 1.8125q-0.5 0.9375 -0.75 2.09375q-0.234375 1.140625 -0.234375 2.609375zm14.459412 0q0 -1.46875 -0.25 -2.609375q-0.25 -1.15625 -0.75 -2.09375q-0.484375 -0.953125 -1.234375 -1.8125q-0.75 -0.875 -1.765625 -1.765625l0.828125 -0.859375q1.515625 1.234375 2.578125 2.53125q1.078125 1.296875 1.65625 2.890625q0.578125 1.59375 0.578125 3.71875q0 2.125 -0.578125 3.71875q-0.578125 1.59375 -1.65625 2.890625q-1.0625 1.296875 -2.578125 2.53125l-0.828125 -0.859375q1.0 -0.875 1.75 -1.75q0.75 -0.859375 1.234375 -1.8125q0.5 -0.953125 0.75 -2.109375q0.265625 -1.15625 0.265625 -2.609375z" fill-rule="nonzero"/><path fill="#000000" fill-opacity="0.0" d="m685.2756 312.91864l260.75592 0l0 42.015747l-260.75592 0z" fill-rule="evenodd"/><path fill="#ff00ff" d="m703.1818 337.698q0 0.578125 0.1875 0.859375q0.203125 0.265625 0.609375 0.390625l-0.375 1.109375q-0.640625 -0.09375 -1.109375 -0.40625q-0.46875 -0.328125 -0.6875 -0.984375q-0.53125 0.6875 -1.328125 1.046875q-0.796875 0.34375 -1.75 0.34375q-1.484375 0 -2.328125 -0.828125q-0.84375 -0.84375 -0.84375 -2.203125q0 -1.53125 1.171875 -2.328125q1.1875 -0.8125 3.4375 -0.8125l1.4375 0l0 -0.828125q0 -1.0625 -0.625 -1.5q-0.609375 -0.453125 -1.71875 -0.453125q-0.484375 0 -1.140625 0.125q-0.640625 0.109375 -1.40625 0.375l-0.40625 -1.171875q0.890625 -0.34375 1.6875 -0.484375q0.796875 -0.140625 1.515625 -0.140625q1.84375 0 2.75 0.859375q0.921875 0.84375 0.921875 2.3125l0 4.71875zm-4.0625 1.15625q0.734375 0 1.390625 -0.359375q0.671875 -0.375 1.09375 -1.03125l0 -2.515625l-1.421875 0q-1.609375 0 -2.28125 0.5625q-0.671875 0.546875 -0.671875 1.5q0 0.90625 0.46875 1.375q0.484375 0.46875 1.421875 0.46875zm8.318787 0.984375l0 -1.203125l1.53125 0l0 -7.421875l-1.53125 0l0 -1.203125l2.71875 0l0.296875 2.328125q0.5625 -1.21875 1.375 -1.875q0.8125 -0.65625 2.140625 -0.65625q0.421875 0 0.734375 0.0625q0.328125 0.046875 0.65625 0.140625l-0.453125 1.40625q-0.3125 -0.078125 -0.5625 -0.125q-0.25 -0.046875 -0.578125 -0.046875q-1.125 0 -1.9375 0.8125q-0.8125 0.796875 -1.296875 2.421875l0 4.15625l2.0 0l0 1.203125l-5.09375 0zm6.421875 -6.5l0 -2.140625l0.15625 -1.1875l1.34375 0l-0.21875 3.328125l-1.28125 0zm4.7718506 6.5l0 -1.203125l1.53125 0l0 -7.421875l-1.53125 0l0 -1.203125l2.71875 0l0.296875 2.328125q0.5625 -1.21875 1.375 -1.875q0.8125 -0.65625 2.140625 -0.65625q0.421875 0 0.734375 0.0625q0.328125 0.046875 0.65625 0.140625l-0.453125 1.40625q-0.3125 -0.078125 -0.5625 -0.125q-0.25 -0.046875 -0.578125 -0.046875q-1.125 0 -1.9375 0.8125q-0.8125 0.796875 -1.296875 2.421875l0 4.15625l2.0 0l0 1.203125l-5.09375 0zm6.421875 -6.5l0 -2.140625l0.15625 -1.1875l1.34375 0l-0.21875 3.328125l-1.28125 0zm8.412537 -3.53125q1.390625 0 2.328125 0.640625q0.9375 0.625 1.40625 1.78125q0.484375 1.140625 0.484375 2.6875q0 1.5 -0.484375 2.671875q-0.484375 1.15625 -1.421875 1.8125q-0.9375 0.65625 -2.328125 0.65625q-1.375 0 -2.328125 -0.625q-0.9375 -0.640625 -1.421875 -1.796875q-0.46875 -1.15625 -0.46875 -2.6875q0 -1.53125 0.484375 -2.6875q0.484375 -1.15625 1.421875 -1.796875q0.953125 -0.65625 2.328125 -0.65625zm0 1.28125q-1.265625 0 -1.921875 0.9375q-0.640625 0.9375 -0.640625 2.921875q0 1.9375 0.640625 2.875q0.640625 0.9375 1.90625 0.9375q1.265625 0 1.90625 -0.9375q0.640625 -0.9375 0.640625 -2.90625q0 -1.953125 -0.640625 -2.890625q-0.625 -0.9375 -1.890625 -0.9375zm14.740601 8.75l-2.21875 0l-1.28125 -7.203125l-1.375 7.203125l-2.15625 0l-1.796875 -9.828125l1.609375 0l1.25 8.859375l1.5625 -7.609375l1.859375 0l1.484375 7.609375l1.25 -8.859375l1.53125 0l-1.71875 9.828125zm15.450012 -1.3125q0 -0.59375 0.421875 -1.046875q0.4375 -0.453125 1.078125 -0.453125q0.65625 0 1.078125 0.453125q0.4375 0.453125 0.4375 1.046875q0 0.640625 -0.4375 1.09375q-0.421875 0.4375 -1.078125 0.4375q-0.640625 0 -1.078125 -0.4375q-0.421875 -0.453125 -0.421875 -1.09375zm0 -6.71875q0 -0.421875 0.1875 -0.75q0.203125 -0.34375 0.546875 -0.546875q0.34375 -0.203125 0.765625 -0.203125q0.65625 0 1.078125 0.4375q0.4375 0.4375 0.4375 1.0625q0 0.609375 -0.4375 1.0625q-0.421875 0.453125 -1.078125 0.453125q-0.640625 0 -1.078125 -0.453125q-0.421875 -0.453125 -0.421875 -1.0625zm-7.46875 6.71875q0 -0.59375 0.4375 -1.046875q0.421875 -0.453125 1.0625 -0.453125q0.65625 0 1.09375 0.453125q0.421875 0.453125 0.421875 1.046875q0 0.640625 -0.421875 1.09375q-0.4375 0.4375 -1.09375 0.4375q-0.640625 0 -1.0625 -0.4375q-0.4375 -0.453125 -0.4375 -1.09375zm0 -6.71875q0 -0.421875 0.203125 -0.75q0.1875 -0.34375 0.53125 -0.546875q0.34375 -0.203125 0.765625 -0.203125q0.65625 0 1.09375 0.4375q0.421875 0.4375 0.421875 1.0625q0 0.609375 -0.421875 1.0625q-0.4375 0.453125 -1.09375 0.453125q-0.640625 0 -1.0625 -0.453125q-0.4375 -0.453125 -0.4375 -1.0625zm25.350037 5.890625q0 0.578125 0.1875 0.859375q0.203125 0.265625 0.609375 0.390625l-0.375 1.109375q-0.640625 -0.09375 -1.109375 -0.40625q-0.46875 -0.328125 -0.6875 -0.984375q-0.53125 0.6875 -1.328125 1.046875q-0.796875 0.34375 -1.75 0.34375q-1.484375 0 -2.328125 -0.828125q-0.84375 -0.84375 -0.84375 -2.203125q0 -1.53125 1.171875 -2.328125q1.1875 -0.8125 3.4375 -0.8125l1.4375 0l0 -0.828125q0 -1.0625 -0.625 -1.5q-0.609375 -0.453125 -1.71875 -0.453125q-0.484375 0 -1.140625 0.125q-0.640625 0.109375 -1.40625 0.375l-0.40625 -1.171875q0.890625 -0.34375 1.6875 -0.484375q0.796875 -0.140625 1.515625 -0.140625q1.84375 0 2.75 0.859375q0.921875 0.84375 0.921875 2.3125l0 4.71875zm-4.0625 1.15625q0.734375 0 1.390625 -0.359375q0.671875 -0.375 1.09375 -1.03125l0 -2.515625l-1.421875 0q-1.609375 0 -2.28125 0.5625q-0.671875 0.546875 -0.671875 1.5q0 0.90625 0.46875 1.375q0.484375 0.46875 1.421875 0.46875zm8.318726 0.984375l0 -1.203125l1.53125 0l0 -7.421875l-1.53125 0l0 -1.203125l2.71875 0l0.296875 2.328125q0.5625 -1.21875 1.375 -1.875q0.8125 -0.65625 2.140625 -0.65625q0.421875 0 0.734375 0.0625q0.328125 0.046875 0.65625 0.140625l-0.453125 1.40625q-0.3125 -0.078125 -0.5625 -0.125q-0.25 -0.046875 -0.578125 -0.046875q-1.125 0 -1.9375 0.8125q-0.8125 0.796875 -1.296875 2.421875l0 4.15625l2.0 0l0 1.203125l-5.09375 0zm6.421875 -6.5l0 -2.140625l0.15625 -1.1875l1.34375 0l-0.21875 3.328125l-1.28125 0zm4.7719116 6.5l0 -1.203125l1.53125 0l0 -7.421875l-1.53125 0l0 -1.203125l2.71875 0l0.296875 2.328125q0.5625 -1.21875 1.375 -1.875q0.8125 -0.65625 2.140625 -0.65625q0.421875 0 0.734375 0.0625q0.328125 0.046875 0.65625 0.140625l-0.453125 1.40625q-0.3125 -0.078125 -0.5625 -0.125q-0.25 -0.046875 -0.578125 -0.046875q-1.125 0 -1.9375 0.8125q-0.8125 0.796875 -1.296875 2.421875l0 4.15625l2.0 0l0 1.203125l-5.09375 0zm6.421875 -6.5l0 -2.140625l0.15625 -1.1875l1.34375 0l-0.21875 3.328125l-1.28125 0zm8.412476 -3.53125q1.390625 0 2.328125 0.640625q0.9375 0.625 1.40625 1.78125q0.484375 1.140625 0.484375 2.6875q0 1.5 -0.484375 2.671875q-0.484375 1.15625 -1.421875 1.8125q-0.9375 0.65625 -2.328125 0.65625q-1.375 0 -2.328125 -0.625q-0.9375 -0.640625 -1.421875 -1.796875q-0.46875 -1.15625 -0.46875 -2.6875q0 -1.53125 0.484375 -2.6875q0.484375 -1.15625 1.421875 -1.796875q0.953125 -0.65625 2.328125 -0.65625zm0 1.28125q-1.265625 0 -1.921875 0.9375q-0.640625 0.9375 -0.640625 2.921875q0 1.9375 0.640625 2.875q0.640625 0.9375 1.90625 0.9375q1.265625 0 1.90625 -0.9375q0.640625 -0.9375 0.640625 -2.90625q0 -1.953125 -0.640625 -2.890625q-0.625 -0.9375 -1.890625 -0.9375zm14.740662 8.75l-2.21875 0l-1.28125 -7.203125l-1.375 7.203125l-2.15625 0l-1.796875 -9.828125l1.609375 0l1.25 8.859375l1.5625 -7.609375l1.859375 0l1.484375 7.609375l1.25 -8.859375l1.53125 0l-1.71875 9.828125zm2.9749756 3.390625l0 -1.375l9.328125 0l0 1.375l-9.328125 0zm19.928162 -3.890625q-0.5 0.34375 -1.21875 0.53125q-0.71875 0.1875 -1.40625 0.1875q-1.59375 0 -2.453125 -0.828125q-0.859375 -0.84375 -0.859375 -2.140625l0 -5.859375l-2.25 0l0 -1.21875l2.25 0l0 -2.21875l1.578125 -0.1875l0 2.40625l3.390625 0l-0.1875 1.21875l-3.203125 0l0 5.84375q0 0.8125 0.421875 1.25q0.4375 0.421875 1.453125 0.421875q0.546875 0 1.015625 -0.125q0.46875 -0.140625 0.859375 -0.34375l0.609375 1.0625zm10.428101 -1.640625q0 0.578125 0.1875 0.859375q0.203125 0.265625 0.609375 0.390625l-0.375 1.109375q-0.640625 -0.09375 -1.109375 -0.40625q-0.46875 -0.328125 -0.6875 -0.984375q-0.53125 0.6875 -1.328125 1.046875q-0.796875 0.34375 -1.75 0.34375q-1.484375 0 -2.328125 -0.828125q-0.84375 -0.84375 -0.84375 -2.203125q0 -1.53125 1.171875 -2.328125q1.1875 -0.8125 3.4375 -0.8125l1.4375 0l0 -0.828125q0 -1.0625 -0.625 -1.5q-0.609375 -0.453125 -1.71875 -0.453125q-0.484375 0 -1.140625 0.125q-0.640625 0.109375 -1.40625 0.375l-0.40625 -1.171875q0.890625 -0.34375 1.6875 -0.484375q0.796875 -0.140625 1.515625 -0.140625q1.84375 0 2.75 0.859375q0.921875 0.84375 0.921875 2.3125l0 4.71875zm-4.0625 1.15625q0.734375 0 1.390625 -0.359375q0.671875 -0.375 1.09375 -1.03125l0 -2.515625l-1.421875 0q-1.609375 0 -2.28125 0.5625q-0.671875 0.546875 -0.671875 1.5q0 0.90625 0.46875 1.375q0.484375 0.46875 1.421875 0.46875zm9.787537 -7.5625q0.546875 -0.703125 1.25 -1.09375q0.703125 -0.390625 1.546875 -0.390625q1.328125 0 2.125 0.640625q0.8125 0.625 1.1875 1.78125q0.375 1.15625 0.375 2.6875q0 1.484375 -0.453125 2.65625q-0.4375 1.15625 -1.3125 1.828125q-0.859375 0.65625 -2.125 0.65625q-1.703125 0 -2.671875 -1.234375l-0.109375 1.015625l-1.375 0l0 -13.78125l1.5625 -0.1875l0 5.421875zm2.21875 7.5q1.234375 0 1.890625 -0.953125q0.671875 -0.953125 0.671875 -2.921875q0 -1.296875 -0.265625 -2.140625q-0.25 -0.859375 -0.78125 -1.28125q-0.515625 -0.421875 -1.265625 -0.421875q-0.828125 0 -1.453125 0.5q-0.609375 0.484375 -1.015625 1.078125l0 4.859375q0.390625 0.578125 0.96875 0.9375q0.578125 0.34375 1.25 0.34375zm11.240601 -12.734375l0 11.359375q0 0.71875 0.453125 1.03125q0.453125 0.296875 1.171875 0.296875q0.4375 0 0.84375 -0.09375q0.40625 -0.09375 0.796875 -0.25l0.421875 1.140625q-0.390625 0.203125 -0.984375 0.359375q-0.59375 0.15625 -1.34375 0.15625q-1.3125 0 -2.125 -0.71875q-0.8125 -0.734375 -0.8125 -2.015625l0 -10.015625l-3.0 0l0 -1.25l4.578125 0zm8.600037 9.421875q0.046875 1.140625 0.4375 1.875q0.390625 0.71875 1.03125 1.0625q0.640625 0.328125 1.40625 0.328125q0.75 0 1.359375 -0.21875q0.609375 -0.234375 1.25 -0.671875l0.75 1.046875q-0.703125 0.53125 -1.578125 0.84375q-0.875 0.3125 -1.8125 0.3125q-1.421875 0 -2.4375 -0.640625q-1.0 -0.65625 -1.53125 -1.796875q-0.515625 -1.15625 -0.515625 -2.671875q0 -1.5 0.53125 -2.65625q0.53125 -1.15625 1.484375 -1.8125q0.96875 -0.671875 2.265625 -0.671875q1.25 0 2.140625 0.59375q0.890625 0.578125 1.375 1.65625q0.484375 1.078125 0.484375 2.5625q0 0.25 -0.015625 0.46875q0 0.21875 -0.03125 0.390625l-6.59375 0zm2.671875 -4.375q-1.09375 0 -1.828125 0.78125q-0.734375 0.765625 -0.84375 2.390625l5.125 0q-0.03125 -1.578125 -0.6875 -2.375q-0.65625 -0.796875 -1.765625 -0.796875zm9.381226 2.203125q0 1.453125 0.25 2.609375q0.25 1.15625 0.734375 2.109375q0.5 0.953125 1.25 1.8125q0.75 0.875 1.75 1.75l-0.8125 0.859375q-1.515625 -1.234375 -2.59375 -2.53125q-1.078125 -1.296875 -1.65625 -2.890625q-0.5625 -1.59375 -0.5625 -3.71875q0 -2.125 0.5625 -3.71875q0.578125 -1.59375 1.65625 -2.890625q1.078125 -1.296875 2.59375 -2.53125l0.8125 0.859375q-1.0 0.890625 -1.75 1.765625q-0.75 0.859375 -1.25 1.8125q-0.5 0.9375 -0.75 2.09375q-0.234375 1.140625 -0.234375 2.609375zm14.459412 0q0 -1.46875 -0.25 -2.609375q-0.25 -1.15625 -0.75 -2.09375q-0.484375 -0.953125 -1.234375 -1.8125q-0.75 -0.875 -1.765625 -1.765625l0.828125 -0.859375q1.515625 1.234375 2.578125 2.53125q1.078125 1.296875 1.65625 2.890625q0.578125 1.59375 0.578125 3.71875q0 2.125 -0.578125 3.71875q-0.578125 1.59375 -1.65625 2.890625q-1.0625 1.296875 -2.578125 2.53125l-0.828125 -0.859375q1.0 -0.875 1.75 -1.75q0.75 -0.859375 1.234375 -1.8125q0.5 -0.953125 0.75 -2.109375q0.265625 -1.15625 0.265625 -2.609375z" fill-rule="nonzero"/></g></svg>