<svg version="1.1" viewBox="0.0 0.0 960.0 540.0" fill="none" stroke="none" stroke-linecap="square" stroke-miterlimit="10" xmlns:xlink="http://www.w3.org/1999/xlink" xmlns="http://www.w3.org/2000/svg"><clipPath id="g134ef82c5a1_0_65.0"><path d="m0 0l960.0 0l0 540.0l-960.0 0l0 -540.0z" clip-rule="nonzero"/></clipPath><g clip-path="url(#g134ef82c5a1_0_65.0)"><path fill="#ffffff" d="m0 0l960.0 0l0 540.0l-960.0 0z" fill-rule="evenodd"/><path fill="#eeeeee" d="m527.0828 425.7848l34.299194 0l0 42.015747l-34.299194 0z" fill-rule="evenodd"/><path stroke="#595959" stroke-width="1.0" stroke-linejoin="round" stroke-linecap="butt" d="m527.0828 425.7848l34.299194 0l0 42.015747l-34.299194 0z" fill-rule="evenodd"/><path fill="#eeeeee" d="m392.53244 311.7848l34.305573 0l0 42.015747l-34.305573 0z" fill-rule="evenodd"/><path stroke="#595959" stroke-width="1.0" stroke-linejoin="round" stroke-linecap="butt" d="m392.53244 311.7848l34.305573 0l0 42.015747l-34.305573 0z" fill-rule="evenodd"/><path fill="#eeeeee" d="m359.08282 311.7848l34.305603 0l0 42.015747l-34.305603 0z" fill-rule="evenodd"/><path stroke="#595959" stroke-width="1.0" stroke-linejoin="round" stroke-linecap="butt" d="m359.08282 311.7848l34.305603 0l0 42.015747l-34.305603 0z" fill-rule="evenodd"/><path fill="#eeeeee" d="m258.02362 190.67192l32.81891 0l0 42.015747l-32.81891 0z" fill-rule="evenodd"/><path stroke="#595959" stroke-width="1.0" stroke-linejoin="round" stroke-linecap="butt" d="m258.02362 190.67192l32.81891 0l0 42.015747l-32.81891 0z" fill-rule="evenodd"/><path fill="#eeeeee" d="m454.73227 98.26509l168.40945 0l0 225.54332l-168.40945 0z" fill-rule="evenodd"/><path stroke="#595959" stroke-width="1.0" stroke-linejoin="round" stroke-linecap="butt" d="m454.73227 98.26509l168.40945 0l0 225.54332l-168.40945 0z" fill-rule="evenodd"/><path fill="#000000" d="m454.73227 56.249344l168.40945 0l0 42.015747l-168.40945 0z" fill-rule="evenodd"/><path stroke="#000000" stroke-width="1.0" stroke-linejoin="round" stroke-linecap="butt" d="m454.73227 56.249344l168.40945 0l0 42.015747l-168.40945 0z" fill-rule="evenodd"/><path fill="#ffffff" d="m476.30414 84.395966q-1.1875 0 -2.15625 -0.546875q-0.96875 -0.5625 -1.53125 -1.625q-0.5625 -1.0625 -0.5625 -2.5625q0 -1.53125 0.609375 -2.59375q0.609375 -1.0625 1.59375 -1.625q1.0 -0.5625 2.15625 -0.5625q0.90625 0 1.546875 0.328125q0.640625 0.3125 1.109375 0.734375l-0.78125 1.015625q-0.390625 -0.359375 -0.828125 -0.578125q-0.4375 -0.21875 -0.984375 -0.21875q-0.828125 0 -1.46875 0.4375q-0.640625 0.4375 -1.015625 1.234375q-0.359375 0.78125 -0.359375 1.828125q0 1.546875 0.78125 2.515625q0.78125 0.953125 2.03125 0.953125q0.625 0 1.15625 -0.265625q0.546875 -0.265625 0.96875 -0.640625l0.671875 1.015625q-0.625 0.546875 -1.375 0.859375q-0.734375 0.296875 -1.5625 0.296875zm4.929138 -0.21875l0 -9.0625l1.53125 0l0 9.0625l-1.53125 0zm0.78125 -10.9375q-0.453125 0 -0.75 -0.265625q-0.28125 -0.265625 -0.28125 -0.734375q0 -0.453125 0.28125 -0.734375q0.296875 -0.28125 0.75 -0.28125q0.453125 0 0.734375 0.28125q0.296875 0.28125 0.296875 0.734375q0 0.46875 -0.296875 0.734375q-0.28125 0.265625 -0.734375 0.265625zm6.6675415 11.15625q-1.46875 0 -2.03125 -0.828125q-0.5625 -0.84375 -0.5625 -2.1875l0 -5.015625l-1.34375 0l0 -1.15625l1.40625 -0.09375l0.1875 -2.546875l1.296875 0l0 2.546875l2.4375 0l0 1.25l-2.4375 0l0 5.03125q0 0.84375 0.296875 1.296875q0.3125 0.453125 1.09375 0.453125q0.25 0 0.53125 -0.078125q0.28125 -0.078125 0.5 -0.15625l0.296875 1.15625q-0.375 0.125 -0.8125 0.21875q-0.4375 0.109375 -0.859375 0.109375zm3.5870667 3.6875q-0.296875 0 -0.5625 -0.0625q-0.265625 -0.0625 -0.5 -0.125l0.3125 -1.21875q0.140625 0.03125 0.328125 0.078125q0.1875 0.046875 0.359375 0.046875q0.765625 0 1.265625 -0.546875q0.5 -0.546875 0.78125 -1.390625l0.203125 -0.671875l-3.640625 -9.078125l1.59375 0l1.84375 5.015625q0.203125 0.578125 0.4375 1.25q0.234375 0.671875 0.4375 1.296875l0.078125 0q0.203125 -0.609375 0.390625 -1.28125q0.1875 -0.671875 0.375 -1.265625l1.625 -5.015625l1.484375 0l-3.40625 9.8125q-0.328125 0.890625 -0.765625 1.59375q-0.4375 0.71875 -1.078125 1.140625q-0.640625 0.421875 -1.5625 0.421875z" fill-rule="nonzero"/><path stroke="#9e9e9e" stroke-width="1.0" stroke-linecap="butt" d="m258.02362 425.2861l0 43.013123" fill-rule="nonzero"/><path stroke="#9e9e9e" stroke-width="1.0" stroke-linecap="butt" d="m291.70865 425.2861l0 43.013123" fill-rule="nonzero"/><path stroke="#9e9e9e" stroke-width="1.0" stroke-linecap="butt" d="m325.3937 425.2861l0 43.013123" fill-rule="nonzero"/><path stroke="#9e9e9e" stroke-width="1.0" stroke-linecap="butt" d="m359.07874 425.2861l0 43.013123" fill-rule="nonzero"/><path stroke="#9e9e9e" stroke-width="1.0" stroke-linecap="butt" d="m392.7638 425.2861l0 43.013123" fill-rule="nonzero"/><path stroke="#9e9e9e" stroke-width="1.0" stroke-linecap="butt" d="m426.44882 425.2861l0 43.013123" fill-rule="nonzero"/><path stroke="#9e9e9e" stroke-width="1.0" stroke-linecap="butt" d="m460.13385 425.2861l0 43.013123" fill-rule="nonzero"/><path stroke="#9e9e9e" stroke-width="1.0" stroke-linecap="butt" d="m493.8189 425.2861l0 43.013123" fill-rule="nonzero"/><path stroke="#9e9e9e" stroke-width="1.0" stroke-linecap="butt" d="m527.50397 425.2861l0 43.013123" fill-rule="nonzero"/><path stroke="#9e9e9e" stroke-width="1.0" stroke-linecap="butt" d="m561.18896 425.2861l0 43.013123" fill-rule="nonzero"/><path stroke="#9e9e9e" stroke-width="1.0" stroke-linecap="butt" d="m594.874 425.2861l0 43.013123" fill-rule="nonzero"/><path stroke="#9e9e9e" stroke-width="1.0" stroke-linecap="butt" d="m628.5591 425.2861l0 43.013123" fill-rule="nonzero"/><path stroke="#9e9e9e" stroke-width="1.0" stroke-linecap="butt" d="m662.2441 425.2861l0 43.013123" fill-rule="nonzero"/><path stroke="#9e9e9e" stroke-width="1.0" stroke-linecap="butt" d="m695.92914 425.2861l0 43.013123" fill-rule="nonzero"/><path stroke="#9e9e9e" stroke-width="1.0" stroke-linecap="butt" d="m729.6142 425.2861l0 43.013123" fill-rule="nonzero"/><path stroke="#9e9e9e" stroke-width="1.0" stroke-linecap="butt" d="m763.2992 425.2861l0 43.013123" fill-rule="nonzero"/><path stroke="#9e9e9e" stroke-width="1.0" stroke-linecap="butt" d="m796.98425 425.2861l0 43.013123" fill-rule="nonzero"/><path stroke="#9e9e9e" stroke-width="1.0" stroke-linecap="butt" d="m830.6693 425.2861l0 43.013123" fill-rule="nonzero"/><path stroke="#9e9e9e" stroke-width="1.0" stroke-linecap="butt" d="m864.3543 425.2861l0 43.013123" fill-rule="nonzero"/><path stroke="#9e9e9e" stroke-width="1.0" stroke-linecap="butt" d="m898.03937 425.2861l0 43.013123" fill-rule="nonzero"/><path stroke="#9e9e9e" stroke-width="1.0" stroke-linecap="butt" d="m931.7244 425.2861l0 43.013123" fill-rule="nonzero"/><path stroke="#9e9e9e" stroke-width="1.0" stroke-linecap="butt" d="m257.52493 425.7848l674.6981 0" fill-rule="nonzero"/><path stroke="#9e9e9e" stroke-width="1.0" stroke-linecap="butt" d="m257.52493 467.80054l674.6981 0" fill-rule="nonzero"/><path fill="#000000" d="m276.64426 453.51266l-4.53125 -11.296875q0.015625 0.21875 0.046875 0.71875q0.03125 0.5 0.0625 1.1875q0.046875 0.671875 0.078125 1.4375q0.03125 0.765625 0.03125 1.515625l0 6.4375l-1.5 0l0 -12.84375l2.1875 0l4.59375 11.34375q0 -0.265625 -0.0625 -0.984375q-0.046875 -0.734375 -0.09375 -1.75q-0.046875 -1.03125 -0.046875 -2.1875l0 -6.421875l1.5 0l0 12.84375l-2.265625 0z" fill-rule="nonzero"/><path fill="#000000" d="m306.0637 449.1533q0.046875 1.140625 0.4375 1.875q0.390625 0.71875 1.03125 1.0625q0.640625 0.328125 1.40625 0.328125q0.75 0 1.359375 -0.21875q0.609375 -0.234375 1.25 -0.671875l0.75 1.046875q-0.703125 0.53125 -1.578125 0.84375q-0.875 0.3125 -1.8125 0.3125q-1.421875 0 -2.4375 -0.640625q-1.0 -0.65625 -1.53125 -1.796875q-0.515625 -1.15625 -0.515625 -2.671875q0 -1.5 0.53125 -2.65625q0.53125 -1.15625 1.484375 -1.8125q0.96875 -0.671875 2.265625 -0.671875q1.25 0 2.140625 0.59375q0.890625 0.578125 1.375 1.65625q0.484375 1.078125 0.484375 2.5625q0 0.25 -0.015625 0.46875q0 0.21875 -0.03125 0.390625l-6.59375 0zm2.671875 -4.375q-1.09375 0 -1.828125 0.78125q-0.734375 0.765625 -0.84375 2.390625l5.125 0q-0.03125 -1.578125 -0.6875 -2.375q-0.65625 -0.796875 -1.765625 -0.796875z" fill-rule="nonzero"/><path fill="#000000" d="m345.7956 453.51266l-2.21875 0l-1.28125 -7.203125l-1.375 7.203125l-2.15625 0l-1.796875 -9.828125l1.609375 0l1.25 8.859375l1.5625 -7.609375l1.859375 0l1.484375 7.609375l1.25 -8.859375l1.53125 0l-1.71875 9.828125z" fill-rule="nonzero"/><path fill="#000000" d="m410.4313 448.55954l0 4.953125l-1.640625 0l0 -4.9375l-4.34375 -7.90625l1.796875 0l3.40625 6.4375l3.4375 -6.4375l1.671875 0l-4.328125 7.890625z" fill-rule="nonzero"/><path fill="#000000" d="m443.30383 443.4814q1.390625 0 2.328125 0.640625q0.9375 0.625 1.40625 1.78125q0.484375 1.140625 0.484375 2.6875q0 1.5 -0.484375 2.671875q-0.484375 1.15625 -1.421875 1.8125q-0.9375 0.65625 -2.328125 0.65625q-1.375 0 -2.328125 -0.625q-0.9375 -0.640625 -1.421875 -1.796875q-0.46875 -1.15625 -0.46875 -2.6875q0 -1.53125 0.484375 -2.6875q0.484375 -1.15625 1.421875 -1.796875q0.953125 -0.65625 2.328125 -0.65625zm0 1.28125q-1.265625 0 -1.921875 0.9375q-0.640625 0.9375 -0.640625 2.921875q0 1.9375 0.640625 2.875q0.640625 0.9375 1.90625 0.9375q1.265625 0 1.90625 -0.9375q0.640625 -0.9375 0.640625 -2.90625q0 -1.953125 -0.640625 -2.890625q-0.625 -0.9375 -1.890625 -0.9375z" fill-rule="nonzero"/><path fill="#000000" d="m473.34824 453.51266l0 -1.203125l1.53125 0l0 -7.421875l-1.53125 0l0 -1.203125l2.71875 0l0.296875 2.328125q0.5625 -1.21875 1.375 -1.875q0.8125 -0.65625 2.140625 -0.65625q0.421875 0 0.734375 0.0625q0.328125 0.046875 0.65625 0.140625l-0.453125 1.40625q-0.3125 -0.078125 -0.5625 -0.125q-0.25 -0.046875 -0.578125 -0.046875q-1.125 0 -1.9375 0.8125q-0.8125 0.796875 -1.296875 2.421875l0 4.15625l2.0 0l0 1.203125l-5.09375 0zm6.421875 -6.5l0 -2.140625l0.15625 -1.1875l1.34375 0l-0.21875 3.328125l-1.28125 0z" fill-rule="nonzero"/><path fill="#000000" d="m515.1739 443.68454l-4.4218445 4.421875l4.9218445 5.40625l-2.0625 0l-4.8280945 -5.359375l4.3437195 -4.46875l2.046875 0zm-6.5624695 -4.140625l0 13.96875l-1.5625 0l0 -13.78125l1.5625 -0.1875z" fill-rule="nonzero"/><path fill="#000000" d="m547.4058 444.63766q0 -1.0 -0.390625 -1.578125q-0.390625 -0.59375 -1.078125 -0.84375q-0.671875 -0.265625 -1.546875 -0.265625l-1.859375 0l0 5.484375l1.78125 0q0.90625 0 1.59375 -0.234375q0.703125 -0.25 1.09375 -0.859375q0.40625 -0.609375 0.40625 -1.703125zm1.734375 -0.03125q0 1.515625 -0.640625 2.421875q-0.640625 0.890625 -1.765625 1.3125q-1.109375 0.40625 -2.5625 0.40625l-1.640625 0l0 4.765625l-1.625 0l0 -12.84375l3.28125 0q2.296875 0 3.625 0.96875q1.328125 0.96875 1.328125 2.96875z" fill-rule="nonzero"/><path fill="#000000" d="m575.87213 439.5908l0 5.4375q0.578125 -0.765625 1.421875 -1.15625q0.84375 -0.390625 1.71875 -0.390625q1.4375 0 2.09375 0.765625q0.671875 0.765625 0.671875 2.125l0 7.140625l-1.578125 0l0 -7.09375q0 -0.890625 -0.40625 -1.296875q-0.40625 -0.40625 -1.28125 -0.40625q-0.5625 0 -1.078125 0.25q-0.5 0.25 -0.90625 0.625q-0.390625 0.375 -0.65625 0.765625l0 7.15625l-1.5625 0l0 -13.765625l1.5625 -0.15625z" fill-rule="nonzero"/><path fill="#000000" d="m612.9634 443.68454l0 8.59375l2.78125 0l0 1.234375l-7.375 0l0 -1.234375l3.03125 0l0 -7.34375l-2.9375 0l0 -1.25l4.5 0zm-1.25 -4.59375q0.53125 0 0.84375 0.328125q0.3125 0.3125 0.3125 0.765625q0 0.46875 -0.3125 0.796875q-0.3125 0.328125 -0.84375 0.328125q-0.484375 0 -0.8125 -0.328125q-0.3125 -0.328125 -0.3125 -0.796875q0 -0.453125 0.3125 -0.765625q0.328125 -0.328125 0.8125 -0.328125z" fill-rule="nonzero"/><path fill="#000000" d="m645.5078 439.7314l0 11.359375q0 0.71875 0.453125 1.03125q0.453125 0.296875 1.171875 0.296875q0.4375 0 0.84375 -0.09375q0.40625 -0.09375 0.796875 -0.25l0.421875 1.140625q-0.390625 0.203125 -0.984375 0.359375q-0.59375 0.15625 -1.34375 0.15625q-1.3125 0 -2.125 -0.71875q-0.8125 -0.734375 -0.8125 -2.015625l0 -10.015625l-3.0 0l0 -1.25l4.578125 0z" fill-rule="nonzero"/><path fill="#000000" d="m682.396 451.37204q0 0.578125 0.1875 0.859375q0.203125 0.265625 0.609375 0.390625l-0.375 1.109375q-0.640625 -0.09375 -1.109375 -0.40625q-0.46875 -0.328125 -0.6875 -0.984375q-0.53125 0.6875 -1.328125 1.046875q-0.796875 0.34375 -1.75 0.34375q-1.484375 0 -2.328125 -0.828125q-0.84375 -0.84375 -0.84375 -2.203125q0 -1.53125 1.171875 -2.328125q1.1875 -0.8125 3.4375 -0.8125l1.4375 0l0 -0.828125q0 -1.0625 -0.625 -1.5q-0.609375 -0.453125 -1.71875 -0.453125q-0.484375 0 -1.140625 0.125q-0.640625 0.109375 -1.40625 0.375l-0.40625 -1.171875q0.890625 -0.34375 1.6875 -0.484375q0.796875 -0.140625 1.515625 -0.140625q1.84375 0 2.75 0.859375q0.921875 0.84375 0.921875 2.3125l0 4.71875zm-4.0625 1.15625q0.734375 0 1.390625 -0.359375q0.671875 -0.375 1.09375 -1.03125l0 -2.515625l-1.421875 0q-1.609375 0 -2.28125 0.5625q-0.671875 0.546875 -0.671875 1.5q0 0.90625 0.46875 1.375q0.484375 0.46875 1.421875 0.46875z" fill-rule="nonzero"/><path fill="#000000" d="m714.9248 439.5439l1.5625 0.1875l0 13.78125l-1.359375 0l-0.15625 -1.296875q-0.546875 0.78125 -1.265625 1.15625q-0.703125 0.359375 -1.515625 0.359375q-1.28125 0 -2.109375 -0.640625q-0.828125 -0.65625 -1.234375 -1.796875q-0.40625 -1.15625 -0.40625 -2.671875q0 -1.484375 0.453125 -2.640625q0.46875 -1.15625 1.328125 -1.828125q0.859375 -0.671875 2.078125 -0.671875q0.84375 0 1.484375 0.296875q0.640625 0.296875 1.140625 0.859375l0 -5.09375zm-2.21875 5.203125q-1.234375 0 -1.90625 0.96875q-0.65625 0.953125 -0.65625 2.90625q0 1.265625 0.265625 2.125q0.28125 0.859375 0.8125 1.296875q0.53125 0.421875 1.28125 0.421875q0.84375 0 1.4375 -0.46875q0.59375 -0.484375 0.984375 -1.09375l0 -4.90625q-0.40625 -0.59375 -0.96875 -0.921875q-0.5625 -0.328125 -1.25 -0.328125z" fill-rule="nonzero"/><path fill="#000000" d="m743.9692 449.1533q0.046875 1.140625 0.4375 1.875q0.390625 0.71875 1.03125 1.0625q0.640625 0.328125 1.40625 0.328125q0.75 0 1.359375 -0.21875q0.609375 -0.234375 1.25 -0.671875l0.75 1.046875q-0.703125 0.53125 -1.578125 0.84375q-0.875 0.3125 -1.8125 0.3125q-1.421875 0 -2.4375 -0.640625q-1.0 -0.65625 -1.53125 -1.796875q-0.515625 -1.15625 -0.515625 -2.671875q0 -1.5 0.53125 -2.65625q0.53125 -1.15625 1.484375 -1.8125q0.96875 -0.671875 2.265625 -0.671875q1.25 0 2.140625 0.59375q0.890625 0.578125 1.375 1.65625q0.484375 1.078125 0.484375 2.5625q0 0.25 -0.015625 0.46875q0 0.21875 -0.03125 0.390625l-6.59375 0zm2.671875 -4.375q-1.09375 0 -1.828125 0.78125q-0.734375 0.765625 -0.84375 2.390625l5.125 0q-0.03125 -1.578125 -0.6875 -2.375q-0.65625 -0.796875 -1.765625 -0.796875z" fill-rule="nonzero"/><path fill="#000000" d="m780.248 439.7314l0 11.359375q0 0.71875 0.453125 1.03125q0.453125 0.296875 1.171875 0.296875q0.4375 0 0.84375 -0.09375q0.40625 -0.09375 0.796875 -0.25l0.421875 1.140625q-0.390625 0.203125 -0.984375 0.359375q-0.59375 0.15625 -1.34375 0.15625q-1.3125 0 -2.125 -0.71875q-0.8125 -0.734375 -0.8125 -2.015625l0 -10.015625l-3.0 0l0 -1.25l4.578125 0z" fill-rule="nonzero"/><path fill="#000000" d="m814.49554 443.4814q1.3125 0 2.078125 0.640625q0.78125 0.625 1.125 1.78125q0.359375 1.15625 0.359375 2.6875q0 1.484375 -0.421875 2.65625q-0.40625 1.15625 -1.25 1.828125q-0.84375 0.65625 -2.125 0.65625q-1.609375 0 -2.59375 -1.140625l0 4.6875l-1.5625 0.1875l0 -13.78125l1.328125 0l0.140625 1.375q0.53125 -0.75 1.28125 -1.15625q0.75 -0.421875 1.640625 -0.421875zm-0.375 1.265625q-0.8125 0 -1.4375 0.5q-0.609375 0.484375 -1.015625 1.078125l0 4.859375q0.390625 0.578125 0.96875 0.90625q0.578125 0.328125 1.28125 0.328125q1.21875 0 1.828125 -0.921875q0.625 -0.9375 0.625 -2.90625q0 -1.296875 -0.25 -2.140625q-0.234375 -0.859375 -0.734375 -1.28125q-0.484375 -0.421875 -1.265625 -0.421875z" fill-rule="nonzero"/><path fill="#000000" d="m845.3524 439.5908l0 5.4375q0.578125 -0.765625 1.421875 -1.15625q0.84375 -0.390625 1.71875 -0.390625q1.4375 0 2.09375 0.765625q0.671875 0.765625 0.671875 2.125l0 7.140625l-1.578125 0l0 -7.09375q0 -0.890625 -0.40625 -1.296875q-0.40625 -0.40625 -1.28125 -0.40625q-0.5625 0 -1.078125 0.25q-0.5 0.25 -0.90625 0.625q-0.390625 0.375 -0.65625 0.765625l0 7.15625l-1.5625 0l0 -13.765625l1.5625 -0.15625z" fill-rule="nonzero"/><path fill="#000000" d="m882.4437 443.68454l0 8.59375l2.78125 0l0 1.234375l-7.375 0l0 -1.234375l3.03125 0l0 -7.34375l-2.9375 0l0 -1.25l4.5 0zm-1.25 -4.59375q0.53125 0 0.84375 0.328125q0.3125 0.3125 0.3125 0.765625q0 0.46875 -0.3125 0.796875q-0.3125 0.328125 -0.84375 0.328125q-0.484375 0 -0.8125 -0.328125q-0.3125 -0.328125 -0.3125 -0.796875q0 -0.453125 0.3125 -0.765625q0.328125 -0.328125 0.8125 -0.328125z" fill-rule="nonzero"/><path fill="#000000" d="m918.1913 451.37204q0 0.578125 0.1875 0.859375q0.203125 0.265625 0.609375 0.390625l-0.375 1.109375q-0.640625 -0.09375 -1.109375 -0.40625q-0.46875 -0.328125 -0.6875 -0.984375q-0.53125 0.6875 -1.328125 1.046875q-0.796875 0.34375 -1.75 0.34375q-1.484375 0 -2.328125 -0.828125q-0.84375 -0.84375 -0.84375 -2.203125q0 -1.53125 1.171875 -2.328125q1.1875 -0.8125 3.4375 -0.8125l1.4375 0l0 -0.828125q0 -1.0625 -0.625 -1.5q-0.609375 -0.453125 -1.71875 -0.453125q-0.484375 0 -1.140625 0.125q-0.640625 0.109375 -1.40625 0.375l-0.40625 -1.171875q0.890625 -0.34375 1.6875 -0.484375q0.796875 -0.140625 1.515625 -0.140625q1.84375 0 2.75 0.859375q0.921875 0.84375 0.921875 2.3125l0 4.71875zm-4.0625 1.15625q0.734375 0 1.390625 -0.359375q0.671875 -0.375 1.09375 -1.03125l0 -2.515625l-1.421875 0q-1.609375 0 -2.28125 0.5625q-0.671875 0.546875 -0.671875 1.5q0 0.90625 0.46875 1.375q0.484375 0.46875 1.421875 0.46875z" fill-rule="nonzero"/><path stroke="#9e9e9e" stroke-width="1.0" stroke-linecap="butt" d="m258.02362 190.17323l0 43.013123" fill-rule="nonzero"/><path stroke="#9e9e9e" stroke-width="1.0" stroke-linecap="butt" d="m291.70865 190.17323l0 43.013123" fill-rule="nonzero"/><path stroke="#9e9e9e" stroke-width="1.0" stroke-linecap="butt" d="m325.3937 190.17323l0 43.013123" fill-rule="nonzero"/><path stroke="#9e9e9e" stroke-width="1.0" stroke-linecap="butt" d="m359.07874 190.17323l0 43.013123" fill-rule="nonzero"/><path stroke="#9e9e9e" stroke-width="1.0" stroke-linecap="butt" d="m392.7638 190.17323l0 43.013123" fill-rule="nonzero"/><path stroke="#9e9e9e" stroke-width="1.0" stroke-linecap="butt" d="m257.52493 190.67192l135.73755 0" fill-rule="nonzero"/><path stroke="#9e9e9e" stroke-width="1.0" stroke-linecap="butt" d="m257.52493 232.68767l135.73755 0" fill-rule="nonzero"/><path fill="#000000" d="m276.238 205.55605l0 12.46875l-1.5625 0l0 -10.765625l-2.953125 1.78125l-0.6875 -1.109375l3.828125 -2.375l1.375 0zm2.6875 11.5625l0 1.28125l-7.421875 0l0 -1.28125l7.421875 0z" fill-rule="nonzero"/><path fill="#000000" d="m308.54807 205.35292q2.078125 0 3.140625 1.71875q1.0625 1.703125 1.0625 4.90625q0 3.1875 -1.0625 4.921875q-1.0625 1.71875 -3.140625 1.71875q-2.0625 0 -3.140625 -1.71875q-1.0625 -1.734375 -1.0625 -4.921875q0 -3.203125 1.0625 -4.90625q1.078125 -1.71875 3.140625 -1.71875zm0 1.25q-1.1875 0 -1.875 1.265625q-0.671875 1.25 -0.671875 4.109375q0 1.4375 0.140625 2.46875q0.15625 1.03125 0.46875 1.671875q0.3125 0.625 0.796875 0.9375q0.484375 0.296875 1.140625 0.296875q0.8125 0 1.375 -0.546875q0.578125 -0.5625 0.875 -1.75q0.3125 -1.1875 0.3125 -3.078125q0 -1.921875 -0.265625 -3.109375q-0.265625 -1.1875 -0.828125 -1.71875q-0.5625 -0.546875 -1.46875 -0.546875zm1.890625 0.46875l0.421875 1.359375l-4.09375 8.28125l-0.578125 -1.09375l4.25 -8.546875z" fill-rule="nonzero"/><path fill="#000000" d="m342.2331 205.35292q2.078125 0 3.140625 1.71875q1.0625 1.703125 1.0625 4.90625q0 3.1875 -1.0625 4.921875q-1.0625 1.71875 -3.140625 1.71875q-2.0625 0 -3.140625 -1.71875q-1.0625 -1.734375 -1.0625 -4.921875q0 -3.203125 1.0625 -4.90625q1.078125 -1.71875 3.140625 -1.71875zm0 1.25q-1.1875 0 -1.875 1.265625q-0.671875 1.25 -0.671875 4.109375q0 1.4375 0.140625 2.46875q0.15625 1.03125 0.46875 1.671875q0.3125 0.625 0.796875 0.9375q0.484375 0.296875 1.140625 0.296875q0.8125 0 1.375 -0.546875q0.578125 -0.5625 0.875 -1.75q0.3125 -1.1875 0.3125 -3.078125q0 -1.921875 -0.265625 -3.109375q-0.265625 -1.1875 -0.828125 -1.71875q-0.5625 -0.546875 -1.46875 -0.546875zm1.890625 0.46875l0.421875 1.359375l-4.09375 8.28125l-0.578125 -1.09375l4.25 -8.546875z" fill-rule="nonzero"/><path fill="#000000" d="m377.29312 205.55605l0 12.46875l-1.5625 0l0 -10.765625l-2.953125 1.78125l-0.6875 -1.109375l3.828125 -2.375l1.375 0zm2.6875 11.5625l0 1.28125l-7.421875 0l0 -1.28125l7.421875 0z" fill-rule="nonzero"/><path fill="#eeeeee" d="m27.603674 190.67192l224.12599 0l0 42.015747l-224.12599 0z" fill-rule="evenodd"/><path stroke="#595959" stroke-width="1.0" stroke-linejoin="round" stroke-linecap="butt" d="m27.603674 190.67192l224.12599 0l0 42.015747l-224.12599 0z" fill-rule="evenodd"/><path fill="#000000" d="m38.27555 218.5998l0 -12.234375l3.640625 0q1.25 0 2.1875 0.296875q0.953125 0.296875 1.484375 0.953125q0.53125 0.65625 0.53125 1.734375q0 0.90625 -0.46875 1.65625q-0.453125 0.734375 -1.328125 1.015625l0 0.0625q1.109375 0.203125 1.796875 0.9375q0.703125 0.734375 0.703125 2.0q0 1.1875 -0.59375 2.0q-0.578125 0.796875 -1.625 1.1875q-1.046875 0.390625 -2.421875 0.390625l-3.90625 0zm1.5625 -7.03125l1.796875 0q1.578125 0 2.265625 -0.53125q0.6875 -0.546875 0.6875 -1.484375q0 -1.0625 -0.71875 -1.5q-0.71875 -0.453125 -2.15625 -0.453125l-1.875 0l0 3.96875zm0 5.796875l2.125 0q1.578125 0 2.453125 -0.578125q0.875 -0.59375 0.875 -1.828125q0 -1.140625 -0.875 -1.671875q-0.859375 -0.53125 -2.453125 -0.53125l-2.125 0l0 4.609375zm11.907379 1.453125q-1.421875 0 -2.09375 -0.890625q-0.671875 -0.90625 -0.671875 -2.65625l0 -5.734375l1.546875 0l0 5.53125q0 1.28125 0.390625 1.859375q0.40625 0.578125 1.296875 0.578125q0.71875 0 1.265625 -0.359375q0.546875 -0.375 1.1875 -1.171875l0 -6.4375l1.53125 0l0 9.0625l-1.28125 0l-0.125 -1.421875l-0.0625 0q-0.625 0.75 -1.34375 1.203125q-0.703125 0.4375 -1.640625 0.4375zm13.086502 -0.21875l0 -7.8125l-3.78125 0l0 7.8125l-1.53125 0l0 -7.8125l-1.234375 0l0 -1.15625l1.234375 -0.09375l0 -1.203125q0 -1.40625 0.6875 -2.234375q0.703125 -0.828125 2.125 -0.828125q0.9375 0 1.65625 0.34375l-0.3125 1.15625q-0.5625 -0.25 -1.21875 -0.25q-0.671875 0 -1.046875 0.484375q-0.359375 0.46875 -0.359375 1.375l0 1.15625l3.78125 0l0 -1.4375q0 -1.390625 0.640625 -2.1875q0.640625 -0.8125 2.0 -0.8125q0.4375 0 0.828125 0.078125q0.390625 0.078125 0.6875 0.21875l-0.328125 1.171875q-0.515625 -0.21875 -1.03125 -0.21875q-1.265625 0 -1.265625 1.75l0 1.4375l1.921875 0l0 1.25l-1.921875 0l0 7.8125l-1.53125 0zm8.671753 0.21875q-1.203125 0 -2.203125 -0.5625q-0.984375 -0.578125 -1.5625 -1.640625q-0.578125 -1.0625 -0.578125 -2.53125q0 -1.484375 0.578125 -2.546875q0.59375 -1.078125 1.53125 -1.65625q0.9375 -0.578125 1.953125 -0.578125q1.734375 0 2.671875 1.15625q0.953125 1.15625 0.953125 3.109375q0 0.234375 -0.015625 0.46875q0 0.234375 -0.046875 0.40625l-6.109375 0q0.09375 1.4375 0.890625 2.296875q0.8125 0.859375 2.125 0.859375q0.65625 0 1.203125 -0.203125q0.546875 -0.203125 1.0625 -0.515625l0.53125 1.015625q-0.578125 0.375 -1.3125 0.65625q-0.734375 0.265625 -1.671875 0.265625zm-2.859375 -5.484375l4.859375 0q0 -1.375 -0.59375 -2.09375q-0.578125 -0.71875 -1.640625 -0.71875q-0.953125 0 -1.71875 0.734375q-0.75 0.734375 -0.90625 2.078125zm8.4410095 5.265625l0 -9.0625l1.265625 0l0.125 1.640625l0.0625 0q0.46875 -0.859375 1.140625 -1.359375q0.671875 -0.515625 1.4375 -0.515625q0.53125 0 0.96875 0.1875l-0.296875 1.34375q-0.234375 -0.0625 -0.421875 -0.09375q-0.171875 -0.046875 -0.453125 -0.046875q-0.578125 0 -1.203125 0.46875q-0.625 0.453125 -1.09375 1.609375l0 5.828125l-1.53125 0zm10.142471 0l0 -1.265625l2.734375 0l0 -8.765625l-2.171875 0l0 -1.0q0.828125 -0.140625 1.421875 -0.359375q0.609375 -0.21875 1.09375 -0.515625l1.1875 0l0 10.640625l2.453125 0l0 1.265625l-6.71875 0zm10.131531 -6.515625q-0.46875 0 -0.796875 -0.3125q-0.3125 -0.328125 -0.3125 -0.84375q0 -0.53125 0.3125 -0.859375q0.328125 -0.328125 0.796875 -0.328125q0.453125 0 0.78125 0.328125q0.328125 0.328125 0.328125 0.859375q0 0.515625 -0.328125 0.84375q-0.328125 0.3125 -0.78125 0.3125zm0 6.734375q-0.46875 0 -0.796875 -0.3125q-0.3125 -0.328125 -0.3125 -0.84375q0 -0.53125 0.3125 -0.859375q0.328125 -0.328125 0.796875 -0.328125q0.453125 0 0.78125 0.328125q0.328125 0.328125 0.328125 0.859375q0 0.515625 -0.328125 0.84375q-0.328125 0.3125 -0.78125 0.3125zm9.970398 -0.21875l-3.921875 -12.234375l1.65625 0l1.96875 6.59375q0.328125 1.09375 0.578125 2.03125q0.25 0.9375 0.609375 2.03125l0.078125 0q0.328125 -1.09375 0.59375 -2.03125q0.265625 -0.9375 0.578125 -2.03125l1.953125 -6.59375l1.59375 0l-3.875 12.234375l-1.8125 0zm8.900436 0.21875q-1.140625 0 -1.90625 -0.671875q-0.75 -0.6875 -0.75 -1.890625q0 -1.5 1.328125 -2.28125q1.34375 -0.796875 4.234375 -1.125q0 -0.578125 -0.15625 -1.09375q-0.15625 -0.53125 -0.5625 -0.84375q-0.40625 -0.328125 -1.140625 -0.328125q-0.796875 0 -1.484375 0.296875q-0.6875 0.296875 -1.234375 0.671875l-0.59375 -1.0625q0.640625 -0.421875 1.5625 -0.796875q0.921875 -0.390625 2.0 -0.390625q1.65625 0 2.40625 1.03125q0.75 1.015625 0.75 2.703125l0 5.5625l-1.265625 0l-0.140625 -1.078125l-0.046875 0q-0.640625 0.515625 -1.390625 0.90625q-0.75 0.390625 -1.609375 0.390625zm0.4375 -1.21875q0.65625 0 1.234375 -0.3125q0.578125 -0.328125 1.234375 -0.90625l0 -2.515625q-2.265625 0.28125 -3.171875 0.84375q-0.890625 0.546875 -0.890625 1.421875q0 0.765625 0.453125 1.125q0.46875 0.34375 1.140625 0.34375zm8.496506 1.21875q-0.859375 0 -1.25 -0.53125q-0.375 -0.53125 -0.375 -1.515625l0 -11.453125l1.53125 0l0 11.5625q0 0.359375 0.125 0.515625q0.140625 0.15625 0.296875 0.15625q0.078125 0 0.140625 0q0.0625 -0.015625 0.203125 -0.03125l0.20311737 1.15625q-0.15624237 0.078125 -0.35936737 0.109375q-0.203125 0.03125 -0.515625 0.03125zm3.1323318 -0.21875l0 -9.0625l1.53125 0l0 9.0625l-1.53125 0zm0.78125 -10.9375q-0.453125 0 -0.75 -0.265625q-0.28125 -0.265625 -0.28125 -0.734375q0 -0.453125 0.28125 -0.734375q0.296875 -0.28125 0.75 -0.28125q0.453125 0 0.734375 0.28125q0.296875 0.28125 0.296875 0.734375q0 0.46875 -0.296875 0.734375q-0.28125 0.265625 -0.734375 0.265625zm6.901932 11.15625q-1.703125 0 -2.734375 -1.234375q-1.015625 -1.234375 -1.015625 -3.5q0 -1.46875 0.546875 -2.546875q0.5625 -1.078125 1.453125 -1.65625q0.90625 -0.578125 1.9375 -0.578125q0.78125 0 1.359375 0.28125q0.578125 0.28125 1.171875 0.765625l-0.0625 -1.546875l0 -3.484375l1.546875 0l0 13.28125l-1.265625 0l-0.140625 -1.0625l-0.046875 0q-0.53125 0.515625 -1.25 0.90625q-0.703125 0.375 -1.5 0.375zm0.34375 -1.28125q1.1875 0 2.3125 -1.25l0 -4.734375q-0.578125 -0.53125 -1.109375 -0.734375q-0.53125 -0.21875 -1.09375 -0.21875q-0.734375 0 -1.328125 0.4375q-0.578125 0.4375 -0.9375 1.21875q-0.34375 0.765625 -0.34375 1.8125q0 1.625 0.640625 2.546875q0.65625 0.921875 1.859375 0.921875zm6.9167175 1.0625l0 -9.0625l1.53125 0l0 9.0625l-1.53125 0zm0.78125 -10.9375q-0.453125 0 -0.75 -0.265625q-0.28125 -0.265625 -0.28125 -0.734375q0 -0.453125 0.28125 -0.734375q0.296875 -0.28125 0.75 -0.28125q0.453125 0 0.734375 0.28125q0.296875 0.28125 0.296875 0.734375q0 0.46875 -0.296875 0.734375q-0.28125 0.265625 -0.734375 0.265625zm6.667557 11.15625q-1.46875 0 -2.03125 -0.828125q-0.5625 -0.84375 -0.5625 -2.1875l0 -5.015625l-1.34375 0l0 -1.15625l1.40625 -0.09375l0.1875 -2.546875l1.296875 0l0 2.546875l2.4375 0l0 1.25l-2.4375 0l0 5.03125q0 0.84375 0.296875 1.296875q0.3125 0.453125 1.09375 0.453125q0.25 0 0.53125 -0.078125q0.28125 -0.078125 0.5 -0.15625l0.296875 1.15625q-0.375 0.125 -0.8125 0.21875q-0.4375 0.109375 -0.859375 0.109375zm3.5870667 3.6875q-0.296875 0 -0.5625 -0.0625q-0.265625 -0.0625 -0.5 -0.125l0.3125 -1.21875q0.140625 0.03125 0.328125 0.078125q0.1875 0.046875 0.359375 0.046875q0.765625 0 1.265625 -0.546875q0.5 -0.546875 0.78125 -1.390625l0.203125 -0.671875l-3.640625 -9.078125l1.59375 0l1.84375 5.015625q0.203125 0.578125 0.4375 1.25q0.234375 0.671875 0.4375 1.296875l0.078125 0q0.203125 -0.609375 0.390625 -1.28125q0.1875 -0.671875 0.375 -1.265625l1.625 -5.015625l1.484375 0l-3.40625 9.8125q-0.328125 0.890625 -0.765625 1.59375q-0.4375 0.71875 -1.078125 1.140625q-0.640625 0.421875 -1.5625 0.421875zm14.771835 -0.625q-1.171875 -1.875 -1.828125 -3.9375q-0.640625 -2.0625 -0.640625 -4.53125q0 -2.46875 0.640625 -4.53125q0.65625 -2.078125 1.828125 -3.9375l0.9375 0.453125q-1.078125 1.765625 -1.609375 3.828125q-0.53125 2.0625 -0.53125 4.1875q0 2.125 0.53125 4.1875q0.53125 2.0625 1.609375 3.828125l-0.9375 0.453125zm7.1997223 -3.0625q-0.640625 0 -1.328125 -0.296875q-0.671875 -0.3125 -1.265625 -0.859375l-0.0625 0l-0.125 0.9375l-1.234375 0l0 -13.28125l1.53125 0l0 3.625l-0.046875 1.640625q0.625 -0.546875 1.359375 -0.90625q0.734375 -0.375 1.484375 -0.375q1.765625 0 2.671875 1.25q0.921875 1.25 0.921875 3.359375q0 1.546875 -0.546875 2.65625q-0.546875 1.09375 -1.4375 1.671875q-0.890625 0.578125 -1.921875 0.578125zm-0.265625 -1.28125q1.125 0 1.859375 -0.953125q0.734375 -0.96875 0.734375 -2.65625q0 -1.484375 -0.5625 -2.40625q-0.546875 -0.921875 -1.828125 -0.921875q-0.578125 0 -1.171875 0.3125q-0.59375 0.3125 -1.25 0.921875l0 4.75q0.59375 0.515625 1.171875 0.734375q0.59375 0.21875 1.046875 0.21875zm6.56691 1.0625l0 -9.0625l1.53125 0l0 9.0625l-1.53125 0zm0.78125 -10.9375q-0.453125 0 -0.75 -0.265625q-0.28125 -0.265625 -0.28125 -0.734375q0 -0.453125 0.28125 -0.734375q0.296875 -0.28125 0.75 -0.28125q0.453125 0 0.734375 0.28125q0.296875 0.28125 0.296875 0.734375q0 0.46875 -0.296875 0.734375q-0.28125 0.265625 -0.734375 0.265625zm6.667557 11.15625q-1.46875 0 -2.03125 -0.828125q-0.5625 -0.84375 -0.5625 -2.1875l0 -5.015625l-1.34375 0l0 -1.15625l1.40625 -0.09375l0.1875 -2.546875l1.296875 0l0 2.546875l2.4375 0l0 1.25l-2.4375 0l0 5.03125q0 0.84375 0.296875 1.296875q0.3125 0.453125 1.09375 0.453125q0.25 0 0.53125 -0.078125q0.28125 -0.078125 0.5 -0.15625l0.296875 1.15625q-0.375 0.125 -0.8125 0.21875q-0.4375 0.109375 -0.859375 0.109375zm3.4464417 -0.21875l0 -9.0625l1.265625 0l0.125 1.296875l0.0625 0q0.59375 -0.640625 1.296875 -1.078125q0.71875 -0.453125 1.515625 -0.453125q1.046875 0 1.625 0.46875q0.59375 0.453125 0.875 1.265625q0.71875 -0.765625 1.4375 -1.25q0.734375 -0.484375 1.546875 -0.484375q1.40625 0 2.078125 0.90625q0.6875 0.90625 0.6875 2.640625l0 5.75l-1.53125 0l0 -5.546875q0 -1.265625 -0.40625 -1.84375q-0.40625 -0.578125 -1.265625 -0.578125q-1.015625 0 -2.28125 1.40625l0 6.5625l-1.53125 0l0 -5.546875q0 -1.265625 -0.40625 -1.84375q-0.40625 -0.578125 -1.296875 -0.578125q-1.0 0 -2.265625 1.40625l0 6.5625l-1.53125 0zm17.559784 0.21875q-1.140625 0 -1.90625 -0.671875q-0.75 -0.6875 -0.75 -1.890625q0 -1.5 1.328125 -2.28125q1.34375 -0.796875 4.234375 -1.125q0 -0.578125 -0.15625 -1.09375q-0.15625 -0.53125 -0.5625 -0.84375q-0.40625 -0.328125 -1.140625 -0.328125q-0.796875 0 -1.484375 0.296875q-0.6875 0.296875 -1.234375 0.671875l-0.59375 -1.0625q0.640625 -0.421875 1.5625 -0.796875q0.921875 -0.390625 2.0 -0.390625q1.65625 0 2.40625 1.03125q0.75 1.015625 0.75 2.703125l0 5.5625l-1.265625 0l-0.140625 -1.078125l-0.046875 0q-0.640625 0.515625 -1.390625 0.90625q-0.75 0.390625 -1.609375 0.390625zm0.4375 -1.21875q0.65625 0 1.234375 -0.3125q0.578125 -0.328125 1.234375 -0.90625l0 -2.515625q-2.265625 0.28125 -3.171875 0.84375q-0.890625 0.546875 -0.890625 1.421875q0 0.765625 0.453125 1.125q0.46875 0.34375 1.140625 0.34375zm6.8715057 4.828125l0 -12.890625l1.265625 0l0.125 1.046875l0.0625 0q0.609375 -0.53125 1.34375 -0.90625q0.75 -0.375 1.546875 -0.375q1.75 0 2.65625 1.265625q0.921875 1.265625 0.921875 3.359375q0 1.53125 -0.546875 2.640625q-0.546875 1.09375 -1.4375 1.671875q-0.890625 0.578125 -1.921875 0.578125q-0.640625 0 -1.265625 -0.265625q-0.625 -0.28125 -1.265625 -0.78125l0.046875 1.59375l0 3.0625l-1.53125 0zm3.75 -4.890625q1.125 0 1.859375 -0.953125q0.734375 -0.96875 0.734375 -2.65625q0 -1.484375 -0.5625 -2.40625q-0.546875 -0.921875 -1.828125 -0.921875q-0.578125 0 -1.171875 0.3125q-0.578125 0.3125 -1.25 0.921875l0 4.75q0.609375 0.515625 1.1875 0.734375q0.578125 0.21875 1.03125 0.21875zm6.7292175 4.34375l-0.953125 -0.453125q1.09375 -1.765625 1.625 -3.828125q0.53125 -2.0625 0.53125 -4.1875q0 -2.125 -0.53125 -4.1875q-0.53125 -2.0625 -1.625 -3.828125l0.953125 -0.453125q1.15625 1.859375 1.8125 3.9375q0.65625 2.0625 0.65625 4.53125q0 2.46875 -0.65625 4.53125q-0.65625 2.0625 -1.8125 3.9375z" fill-rule="nonzero"/><path fill="#eeeeee" d="m27.593176 311.7848l224.12599 0l0 42.015747l-224.12599 0z" fill-rule="evenodd"/><path stroke="#595959" stroke-width="1.0" stroke-linejoin="round" stroke-linecap="butt" d="m27.593176 311.7848l224.12599 0l0 42.015747l-224.12599 0z" fill-rule="evenodd"/><path fill="#000000" d="m38.26505 339.71265l0 -12.234375l3.640625 0q1.25 0 2.1875 0.296875q0.953125 0.296875 1.484375 0.953125q0.53125 0.65625 0.53125 1.734375q0 0.90625 -0.46875 1.65625q-0.453125 0.734375 -1.328125 1.015625l0 0.0625q1.109375 0.203125 1.796875 0.9375q0.703125 0.734375 0.703125 2.0q0 1.1875 -0.59375 2.0q-0.578125 0.796875 -1.625 1.1875q-1.046875 0.390625 -2.421875 0.390625l-3.90625 0zm1.5625 -7.03125l1.796875 0q1.578125 0 2.265625 -0.53125q0.6875 -0.546875 0.6875 -1.484375q0 -1.0625 -0.71875 -1.5q-0.71875 -0.453125 -2.15625 -0.453125l-1.875 0l0 3.96875zm0 5.796875l2.125 0q1.578125 0 2.453125 -0.578125q0.875 -0.59375 0.875 -1.828125q0 -1.140625 -0.875 -1.671875q-0.859375 -0.53125 -2.453125 -0.53125l-2.125 0l0 4.609375zm11.907379 1.453125q-1.421875 0 -2.09375 -0.890625q-0.671875 -0.90625 -0.671875 -2.65625l0 -5.734375l1.546875 0l0 5.53125q0 1.28125 0.390625 1.859375q0.40625 0.578125 1.296875 0.578125q0.71875 0 1.265625 -0.359375q0.546875 -0.375 1.1875 -1.171875l0 -6.4375l1.53125 0l0 9.0625l-1.28125 0l-0.125 -1.421875l-0.0625 0q-0.625 0.75 -1.34375 1.203125q-0.703125 0.4375 -1.640625 0.4375zm13.086506 -0.21875l0 -7.8125l-3.7812538 0l0 7.8125l-1.53125 0l0 -7.8125l-1.234375 0l0 -1.15625l1.234375 -0.09375l0 -1.203125q0 -1.40625 0.6875 -2.234375q0.703125 -0.828125 2.125 -0.828125q0.9375 0 1.65625 0.34375l-0.3125 1.15625q-0.5625 -0.25 -1.21875 -0.25q-0.671875 0 -1.046875 0.484375q-0.359375 0.46875 -0.359375 1.375l0 1.15625l3.7812538 0l0 -1.4375q0 -1.390625 0.640625 -2.1875q0.640625 -0.8125 2.0 -0.8125q0.4375 0 0.828125 0.078125q0.390625 0.078125 0.6875 0.21875l-0.328125 1.171875q-0.515625 -0.21875 -1.03125 -0.21875q-1.265625 0 -1.265625 1.75l0 1.4375l1.921875 0l0 1.25l-1.921875 0l0 7.8125l-1.53125 0zm8.671753 0.21875q-1.203125 0 -2.203125 -0.5625q-0.984375 -0.578125 -1.5625 -1.640625q-0.578125 -1.0625 -0.578125 -2.53125q0 -1.484375 0.578125 -2.546875q0.59375 -1.078125 1.53125 -1.65625q0.9375 -0.578125 1.953125 -0.578125q1.734375 0 2.671875 1.15625q0.953125 1.15625 0.953125 3.109375q0 0.234375 -0.015625 0.46875q0 0.234375 -0.046875 0.40625l-6.109375 0q0.09375 1.4375 0.890625 2.296875q0.8125 0.859375 2.125 0.859375q0.65625 0 1.203125 -0.203125q0.546875 -0.203125 1.0625 -0.515625l0.53125 1.015625q-0.578125 0.375 -1.3125 0.65625q-0.734375 0.265625 -1.671875 0.265625zm-2.859375 -5.484375l4.859375 0q0 -1.375 -0.59375 -2.09375q-0.578125 -0.71875 -1.640625 -0.71875q-0.953125 0 -1.71875 0.734375q-0.75 0.734375 -0.90625 2.078125zm8.4410095 5.265625l0 -9.0625l1.265625 0l0.125 1.640625l0.0625 0q0.46875 -0.859375 1.140625 -1.359375q0.671875 -0.515625 1.4375 -0.515625q0.53125 0 0.96875 0.1875l-0.296875 1.34375q-0.234375 -0.0625 -0.421875 -0.09375q-0.171875 -0.046875 -0.453125 -0.046875q-0.578125 0 -1.203125 0.46875q-0.625 0.453125 -1.09375 1.609375l0 5.828125l-1.53125 0zm9.423721 0l0 -0.921875q1.78125 -1.78125 3.03125 -3.125q1.25 -1.359375 1.90625 -2.453125q0.65625 -1.09375 0.65625 -2.046875q0 -1.03125 -0.5625 -1.671875q-0.5625 -0.65625 -1.703125 -0.65625q-0.734375 0 -1.375 0.421875q-0.625 0.421875 -1.15625 1.015625l-0.875 -0.875q0.75 -0.828125 1.59375 -1.3125q0.84375 -0.5 2.0 -0.5q1.671875 0 2.609375 0.96875q0.953125 0.953125 0.953125 2.53125q0 1.125 -0.625 2.28125q-0.625 1.140625 -1.71875 2.40625q-1.078125 1.25 -2.5 2.71875q0.484375 -0.03125 1.0 -0.0625q0.53125 -0.046875 1.0 -0.046875l3.453125 0l0 1.328125l-7.6875 0zm10.850281 -6.515625q-0.46875 0 -0.796875 -0.3125q-0.3125 -0.328125 -0.3125 -0.84375q0 -0.53125 0.3125 -0.859375q0.328125 -0.328125 0.796875 -0.328125q0.453125 0 0.78125 0.328125q0.328125 0.328125 0.328125 0.859375q0 0.515625 -0.328125 0.84375q-0.328125 0.3125 -0.78125 0.3125zm0 6.734375q-0.46875 0 -0.796875 -0.3125q-0.3125 -0.328125 -0.3125 -0.84375q0 -0.53125 0.3125 -0.859375q0.328125 -0.328125 0.796875 -0.328125q0.453125 0 0.78125 0.328125q0.328125 0.328125 0.328125 0.859375q0 0.515625 -0.328125 0.84375q-0.328125 0.3125 -0.78125 0.3125zm12.236023 0q-1.515625 0 -2.703125 -0.78125q-1.1875 -0.78125 -1.859375 -2.21875q-0.65625 -1.4375 -0.65625 -3.390625q0 -1.96875 0.65625 -3.375q0.671875 -1.40625 1.859375 -2.15625q1.1875 -0.765625 2.703125 -0.765625q1.5625 0 2.734375 0.765625q1.171875 0.75 1.84375 2.15625q0.671875 1.40625 0.671875 3.375q0 1.953125 -0.671875 3.390625q-0.671875 1.4375 -1.84375 2.21875q-1.171875 0.78125 -2.734375 0.78125zm0 -1.359375q1.109375 0 1.921875 -0.625q0.8125 -0.625 1.25 -1.75q0.453125 -1.125 0.453125 -2.65625q0 -2.28125 -1.0 -3.59375q-0.984375 -1.328125 -2.625 -1.328125q-1.640625 0 -2.625 1.328125q-0.984375 1.3125 -0.984375 3.59375q0 1.53125 0.4375 2.65625q0.453125 1.125 1.265625 1.75q0.828125 0.625 1.90625 0.625zm13.309631 1.140625l0 -7.8125l-3.78125 0l0 7.8125l-1.53125 0l0 -7.8125l-1.234375 0l0 -1.15625l1.234375 -0.09375l0 -1.203125q0 -1.40625 0.6875 -2.234375q0.703125 -0.828125 2.125 -0.828125q0.9375 0 1.65625 0.34375l-0.3125 1.15625q-0.5625 -0.25 -1.21875 -0.25q-0.671875 0 -1.046875 0.484375q-0.359375 0.46875 -0.359375 1.375l0 1.15625l3.78125 0l0 -1.4375q0 -1.390625 0.640625 -2.1875q0.640625 -0.8125 2.0 -0.8125q0.4375 0 0.8281174 0.078125q0.390625 0.078125 0.6875 0.21875l-0.328125 1.171875q-0.515625 -0.21875 -1.0312424 -0.21875q-1.265625 0 -1.265625 1.75l0 1.4375l1.9218674 0l0 1.25l-1.9218674 0l0 7.8125l-1.53125 0zm7.48687 0.21875q-0.984375 0 -1.859375 -0.359375q-0.875 -0.359375 -1.53125 -0.890625l0.765625 -1.015625q0.609375 0.46875 1.234375 0.78125q0.640625 0.296875 1.4375 0.296875q0.890625 0 1.34375 -0.421875q0.453125 -0.421875 0.453125 -1.0q0 -0.46875 -0.3125 -0.78125q-0.3125 -0.3125 -0.796875 -0.53125q-0.46875 -0.21875 -0.96875 -0.40625q-0.625 -0.234375 -1.25 -0.546875q-0.609375 -0.3125 -1.0 -0.796875q-0.390625 -0.5 -0.390625 -1.265625q0 -1.09375 0.828125 -1.828125q0.828125 -0.75 2.296875 -0.75q0.84375 0 1.5625 0.3125q0.734375 0.296875 1.265625 0.71875l-0.75 0.96875q-0.46875 -0.359375 -0.984375 -0.578125q-0.5 -0.21875 -1.09375 -0.21875q-0.859375 0 -1.265625 0.390625q-0.390625 0.390625 -0.390625 0.90625q0 0.4375 0.28125 0.703125q0.28125 0.265625 0.71875 0.46875q0.453125 0.203125 0.953125 0.40625q0.65625 0.234375 1.28125 0.546875q0.640625 0.3125 1.0625 0.828125q0.421875 0.5 0.421875 1.359375q0 0.734375 -0.390625 1.359375q-0.375 0.609375 -1.109375 0.984375q-0.734375 0.359375 -1.8125 0.359375zm9.113846 0q-1.203125 0 -2.203125 -0.5625q-0.984375 -0.578125 -1.5625 -1.640625q-0.578125 -1.0625 -0.578125 -2.53125q0 -1.484375 0.578125 -2.546875q0.59375 -1.078125 1.53125 -1.65625q0.9375 -0.578125 1.953125 -0.578125q1.734375 0 2.671875 1.15625q0.953125 1.15625 0.953125 3.109375q0 0.234375 -0.015625 0.46875q0 0.234375 -0.046875 0.40625l-6.109375 0q0.09375 1.4375 0.890625 2.296875q0.8125 0.859375 2.125 0.859375q0.65625 0 1.203125 -0.203125q0.546875 -0.203125 1.0625 -0.515625l0.53125 1.015625q-0.578125 0.375 -1.3125 0.65625q-0.734375 0.265625 -1.671875 0.265625zm-2.859375 -5.484375l4.859375 0q0 -1.375 -0.59375 -2.09375q-0.578125 -0.71875 -1.640625 -0.71875q-0.953125 0 -1.71875 0.734375q-0.75 0.734375 -0.90625 2.078125zm11.113724 5.484375q-1.46875 0 -2.03125 -0.828125q-0.5625 -0.84375 -0.5625 -2.1875l0 -5.015625l-1.34375 0l0 -1.15625l1.40625 -0.09375l0.1875 -2.546875l1.296875 0l0 2.546875l2.4375 0l0 1.25l-2.4375 0l0 5.03125q0 0.84375 0.296875 1.296875q0.3125 0.453125 1.09375 0.453125q0.25 0 0.53125 -0.078125q0.28125 -0.078125 0.5 -0.15625l0.296875 1.15625q-0.375 0.125 -0.8125 0.21875q-0.4375 0.109375 -0.859375 0.109375zm5.634781 0q-0.984375 0 -1.859375 -0.359375q-0.875 -0.359375 -1.53125 -0.890625l0.765625 -1.015625q0.609375 0.46875 1.234375 0.78125q0.640625 0.296875 1.4375 0.296875q0.890625 0 1.34375 -0.421875q0.453125 -0.421875 0.453125 -1.0q0 -0.46875 -0.3125 -0.78125q-0.3125 -0.3125 -0.796875 -0.53125q-0.46875 -0.21875 -0.96875 -0.40625q-0.625 -0.234375 -1.25 -0.546875q-0.609375 -0.3125 -1.0 -0.796875q-0.390625 -0.5 -0.390625 -1.265625q0 -1.09375 0.828125 -1.828125q0.828125 -0.75 2.296875 -0.75q0.84375 0 1.5625 0.3125q0.734375 0.296875 1.265625 0.71875l-0.75 0.96875q-0.46875 -0.359375 -0.984375 -0.578125q-0.5 -0.21875 -1.09375 -0.21875q-0.859375 0 -1.265625 0.390625q-0.390625 0.390625 -0.390625 0.90625q0 0.4375 0.28125 0.703125q0.28125 0.265625 0.71875 0.46875q0.453125 0.203125 0.953125 0.40625q0.65625 0.234375 1.28125 0.546875q0.640625 0.3125 1.0625 0.828125q0.421875 0.5 0.421875 1.359375q0 0.734375 -0.390625 1.359375q-0.375 0.609375 -1.109375 0.984375q-0.734375 0.359375 -1.8125 0.359375zm11.641968 3.0625q-1.171875 -1.875 -1.828125 -3.9375q-0.640625 -2.0625 -0.640625 -4.53125q0 -2.46875 0.640625 -4.53125q0.65625 -2.078125 1.828125 -3.9375l0.9375 0.453125q-1.078125 1.765625 -1.609375 3.828125q-0.53125 2.0625 -0.53125 4.1875q0 2.125 0.53125 4.1875q0.53125 2.0625 1.609375 3.828125l-0.9375 0.453125zm3.1840973 -3.28125l0 -9.0625l1.53125 0l0 9.0625l-1.53125 0zm0.78125 -10.9375q-0.453125 0 -0.75 -0.265625q-0.28125 -0.265625 -0.28125 -0.734375q0 -0.453125 0.28125 -0.734375q0.296875 -0.28125 0.75 -0.28125q0.453125 0 0.734375 0.28125q0.296875 0.28125 0.296875 0.734375q0 0.46875 -0.296875 0.734375q-0.28125 0.265625 -0.734375 0.265625zm3.8081818 10.9375l0 -9.0625l1.265625 0l0.125 1.296875l0.0625 0q0.65625 -0.640625 1.375 -1.078125q0.734375 -0.453125 1.671875 -0.453125q1.4375 0 2.09375 0.90625q0.65625 0.90625 0.65625 2.640625l0 5.75l-1.53125 0l0 -5.546875q0 -1.265625 -0.40625 -1.84375q-0.40625 -0.578125 -1.296875 -0.578125q-0.703125 0 -1.25 0.359375q-0.546875 0.359375 -1.234375 1.046875l0 6.5625l-1.53125 0zm13.064346 0.21875q-1.46875 0 -2.03125 -0.828125q-0.5625 -0.84375 -0.5625 -2.1875l0 -5.015625l-1.34375 0l0 -1.15625l1.40625 -0.09375l0.1875 -2.546875l1.296875 0l0 2.546875l2.4375 0l0 1.25l-2.4375 0l0 5.03125q0 0.84375 0.296875 1.296875q0.3125 0.453125 1.09375 0.453125q0.25 0 0.53125 -0.078125q0.28125 -0.078125 0.5 -0.15625l0.296875 1.15625q-0.375 0.125 -0.8125 0.21875q-0.4375 0.109375 -0.859375 0.109375zm6.3214417 0q-1.421875 0 -2.375 -0.5q-0.953125 -0.515625 -1.546875 -1.171875l0.78125 -1.015625q0.546875 0.5625 1.265625 1.0q0.734375 0.421875 1.78125 0.421875q1.078125 0 1.765625 -0.59375q0.6875 -0.59375 0.6875 -1.59375q0 -0.703125 -0.359375 -1.234375q-0.359375 -0.53125 -1.1875 -0.828125q-0.828125 -0.296875 -2.25 -0.296875l0 -1.171875q1.265625 0 2.0 -0.296875q0.734375 -0.3125 1.046875 -0.8125q0.328125 -0.5 0.328125 -1.125q0 -0.875 -0.546875 -1.375q-0.546875 -0.5 -1.5 -0.5q-0.75 0 -1.375 0.34375q-0.625 0.328125 -1.171875 0.875l-0.8125 -0.984375q0.6875 -0.640625 1.515625 -1.0625q0.84375 -0.421875 1.890625 -0.421875q1.546875 0 2.546875 0.796875q1.015625 0.78125 1.015625 2.21875q0 1.09375 -0.59375 1.78125q-0.59375 0.6875 -1.5625 1.0625l0 0.078125q1.078125 0.234375 1.828125 1.015625q0.75 0.765625 0.75 2.0q0 1.046875 -0.53125 1.8125q-0.515625 0.765625 -1.40625 1.171875q-0.890625 0.40625 -1.984375 0.40625zm5.615906 -0.21875l0 -0.921875q1.78125 -1.78125 3.03125 -3.125q1.25 -1.359375 1.90625 -2.453125q0.65625 -1.09375 0.65625 -2.046875q0 -1.03125 -0.5625 -1.671875q-0.5625 -0.65625 -1.703125 -0.65625q-0.734375 0 -1.375 0.421875q-0.625 0.421875 -1.15625 1.015625l-0.875 -0.875q0.75 -0.828125 1.59375 -1.3125q0.84375 -0.5 2.0 -0.5q1.671875 0 2.609375 0.96875q0.953125 0.953125 0.953125 2.53125q0 1.125 -0.625 2.28125q-0.625 1.140625 -1.71875 2.40625q-1.078125 1.25 -2.5 2.71875q0.484375 -0.03125 1.0 -0.0625q0.53125 -0.046875 1.0 -0.046875l3.453125 0l0 1.328125l-7.6875 0zm10.178406 3.28125l-0.953125 -0.453125q1.09375 -1.765625 1.625 -3.828125q0.53125 -2.0625 0.53125 -4.1875q0 -2.125 -0.53125 -4.1875q-0.53125 -2.0625 -1.625 -3.828125l0.953125 -0.453125q1.15625 1.859375 1.8125 3.9375q0.65625 2.0625 0.65625 4.53125q0 2.46875 -0.65625 4.53125q-0.65625 2.0625 -1.8125 3.9375z" fill-rule="nonzero"/><path fill="#eeeeee" d="m27.593176 425.7848l224.12599 0l0 42.015747l-224.12599 0z" fill-rule="evenodd"/><path stroke="#595959" stroke-width="1.0" stroke-linejoin="round" stroke-linecap="butt" d="m27.593176 425.7848l224.12599 0l0 42.015747l-224.12599 0z" fill-rule="evenodd"/><path fill="#000000" d="m38.26505 453.71265l0 -12.234375l3.640625 0q1.25 0 2.1875 0.296875q0.953125 0.296875 1.484375 0.953125q0.53125 0.65625 0.53125 1.734375q0 0.90625 -0.46875 1.65625q-0.453125 0.734375 -1.328125 1.015625l0 0.0625q1.109375 0.203125 1.796875 0.9375q0.703125 0.734375 0.703125 2.0q0 1.1875 -0.59375 2.0q-0.578125 0.796875 -1.625 1.1875q-1.046875 0.390625 -2.421875 0.390625l-3.90625 0zm1.5625 -7.03125l1.796875 0q1.578125 0 2.265625 -0.53125q0.6875 -0.546875 0.6875 -1.484375q0 -1.0625 -0.71875 -1.5q-0.71875 -0.453125 -2.15625 -0.453125l-1.875 0l0 3.96875zm0 5.796875l2.125 0q1.578125 0 2.453125 -0.578125q0.875 -0.59375 0.875 -1.828125q0 -1.140625 -0.875 -1.671875q-0.859375 -0.53125 -2.453125 -0.53125l-2.125 0l0 4.609375zm11.907379 1.453125q-1.421875 0 -2.09375 -0.890625q-0.671875 -0.90625 -0.671875 -2.65625l0 -5.734375l1.546875 0l0 5.53125q0 1.28125 0.390625 1.859375q0.40625 0.578125 1.296875 0.578125q0.71875 0 1.265625 -0.359375q0.546875 -0.375 1.1875 -1.171875l0 -6.4375l1.53125 0l0 9.0625l-1.28125 0l-0.125 -1.421875l-0.0625 0q-0.625 0.75 -1.34375 1.203125q-0.703125 0.4375 -1.640625 0.4375zm13.086506 -0.21875l0 -7.8125l-3.7812538 0l0 7.8125l-1.53125 0l0 -7.8125l-1.234375 0l0 -1.15625l1.234375 -0.09375l0 -1.203125q0 -1.40625 0.6875 -2.234375q0.703125 -0.828125 2.125 -0.828125q0.9375 0 1.65625 0.34375l-0.3125 1.15625q-0.5625 -0.25 -1.21875 -0.25q-0.671875 0 -1.046875 0.484375q-0.359375 0.46875 -0.359375 1.375l0 1.15625l3.7812538 0l0 -1.4375q0 -1.390625 0.640625 -2.1875q0.640625 -0.8125 2.0 -0.8125q0.4375 0 0.828125 0.078125q0.390625 0.078125 0.6875 0.21875l-0.328125 1.171875q-0.515625 -0.21875 -1.03125 -0.21875q-1.265625 0 -1.265625 1.75l0 1.4375l1.921875 0l0 1.25l-1.921875 0l0 7.8125l-1.53125 0zm8.671753 0.21875q-1.203125 0 -2.203125 -0.5625q-0.984375 -0.578125 -1.5625 -1.640625q-0.578125 -1.0625 -0.578125 -2.53125q0 -1.484375 0.578125 -2.546875q0.59375 -1.078125 1.53125 -1.65625q0.9375 -0.578125 1.953125 -0.578125q1.734375 0 2.671875 1.15625q0.953125 1.15625 0.953125 3.109375q0 0.234375 -0.015625 0.46875q0 0.234375 -0.046875 0.40625l-6.109375 0q0.09375 1.4375 0.890625 2.296875q0.8125 0.859375 2.125 0.859375q0.65625 0 1.203125 -0.203125q0.546875 -0.203125 1.0625 -0.515625l0.53125 1.015625q-0.578125 0.375 -1.3125 0.65625q-0.734375 0.265625 -1.671875 0.265625zm-2.859375 -5.484375l4.859375 0q0 -1.375 -0.59375 -2.09375q-0.578125 -0.71875 -1.640625 -0.71875q-0.953125 0 -1.71875 0.734375q-0.75 0.734375 -0.90625 2.078125zm8.4410095 5.265625l0 -9.0625l1.265625 0l0.125 1.640625l0.0625 0q0.46875 -0.859375 1.140625 -1.359375q0.671875 -0.515625 1.4375 -0.515625q0.53125 0 0.96875 0.1875l-0.296875 1.34375q-0.234375 -0.0625 -0.421875 -0.09375q-0.171875 -0.046875 -0.453125 -0.046875q-0.578125 0 -1.203125 0.46875q-0.625 0.453125 -1.09375 1.609375l0 5.828125l-1.53125 0zm13.079971 0.21875q-1.421875 0 -2.375 -0.5q-0.953125 -0.515625 -1.546875 -1.171875l0.78125 -1.015625q0.546875 0.5625 1.265625 1.0q0.734375 0.421875 1.78125 0.421875q1.078125 0 1.765625 -0.59375q0.6875 -0.59375 0.6875 -1.59375q0 -0.703125 -0.359375 -1.234375q-0.359375 -0.53125 -1.1875 -0.828125q-0.828125 -0.296875 -2.25 -0.296875l0 -1.171875q1.265625 0 2.0 -0.296875q0.734375 -0.3125 1.046875 -0.8125q0.328125 -0.5 0.328125 -1.125q0 -0.875 -0.546875 -1.375q-0.546875 -0.5 -1.5 -0.5q-0.75 0 -1.375 0.34375q-0.625 0.328125 -1.171875 0.875l-0.8125 -0.984375q0.6875 -0.640625 1.515625 -1.0625q0.84375 -0.421875 1.890625 -0.421875q1.546875 0 2.546875 0.796875q1.015625 0.78125 1.015625 2.21875q0 1.09375 -0.59375 1.78125q-0.59375 0.6875 -1.5625 1.0625l0 0.078125q1.078125 0.234375 1.828125 1.015625q0.75 0.765625 0.75 2.0q0 1.046875 -0.53125 1.8125q-0.515625 0.765625 -1.40625 1.171875q-0.890625 0.40625 -1.984375 0.40625zm7.194031 -6.734375q-0.46875 0 -0.796875 -0.3125q-0.3125 -0.328125 -0.3125 -0.84375q0 -0.53125 0.3125 -0.859375q0.328125 -0.328125 0.796875 -0.328125q0.453125 0 0.78125 0.328125q0.328125 0.328125 0.328125 0.859375q0 0.515625 -0.328125 0.84375q-0.328125 0.3125 -0.78125 0.3125zm0 6.734375q-0.46875 0 -0.796875 -0.3125q-0.3125 -0.328125 -0.3125 -0.84375q0 -0.53125 0.3125 -0.859375q0.328125 -0.328125 0.796875 -0.328125q0.453125 0 0.78125 0.328125q0.328125 0.328125 0.328125 0.859375q0 0.515625 -0.328125 0.84375q-0.328125 0.3125 -0.78125 0.3125zm7.720398 -0.21875l0 -12.234375l3.0625 0q2.84375 0 4.3125 1.578125q1.46875 1.578125 1.46875 4.484375q0 2.921875 -1.46875 4.546875q-1.453125 1.625 -4.234375 1.625l-3.140625 0zm1.5625 -1.265625l1.390625 0q2.140625 0 3.21875 -1.296875q1.078125 -1.296875 1.078125 -3.609375q0 -2.3125 -1.078125 -3.546875q-1.078125 -1.25 -3.21875 -1.25l-1.390625 0l0 9.703125zm11.864227 1.484375q-1.140625 0 -1.90625 -0.671875q-0.75 -0.6875 -0.75 -1.890625q0 -1.5 1.328125 -2.28125q1.34375 -0.796875 4.234375 -1.125q0 -0.578125 -0.15625 -1.09375q-0.15625 -0.53125 -0.5625 -0.84375q-0.40625 -0.328125 -1.140625 -0.328125q-0.796875 0 -1.484375 0.296875q-0.6875 0.296875 -1.234375 0.671875l-0.59375 -1.0625q0.640625 -0.421875 1.5625 -0.796875q0.921875 -0.390625 2.0 -0.390625q1.65625 0 2.40625 1.03125q0.75 1.015625 0.75 2.703125l0 5.5625l-1.265625 0l-0.140625 -1.078125l-0.046875 0q-0.640625 0.515625 -1.390625 0.90625q-0.75 0.390625 -1.609375 0.390625zm0.4375 -1.21875q0.65625 0 1.234375 -0.3125q0.578125 -0.328125 1.234375 -0.90625l0 -2.515625q-2.265625 0.28125 -3.171875 0.84375q-0.890625 0.546875 -0.890625 1.421875q0 0.765625 0.453125 1.125q0.46875 0.34375 1.140625 0.34375zm9.469536 1.21875q-1.46875 0 -2.03125 -0.828125q-0.5624924 -0.84375 -0.5624924 -2.1875l0 -5.015625l-1.34375 0l0 -1.15625l1.40625 -0.09375l0.18749237 -2.546875l1.296875 0l0 2.546875l2.4375 0l0 1.25l-2.4375 0l0 5.03125q0 0.84375 0.296875 1.296875q0.3125 0.453125 1.09375 0.453125q0.25 0 0.53125 -0.078125q0.28125 -0.078125 0.5 -0.15625l0.296875 1.15625q-0.375 0.125 -0.8125 0.21875q-0.4375 0.109375 -0.859375 0.109375zm5.1481934 0q-1.140625 0 -1.90625 -0.671875q-0.75 -0.6875 -0.75 -1.890625q0 -1.5 1.328125 -2.28125q1.34375 -0.796875 4.234375 -1.125q0 -0.578125 -0.15625 -1.09375q-0.15625 -0.53125 -0.5625 -0.84375q-0.40625 -0.328125 -1.140625 -0.328125q-0.796875 0 -1.484375 0.296875q-0.6875 0.296875 -1.234375 0.671875l-0.59375 -1.0625q0.640625 -0.421875 1.5625 -0.796875q0.921875 -0.390625 2.0 -0.390625q1.65625 0 2.40625 1.03125q0.75 1.015625 0.75 2.703125l0 5.5625l-1.265625 0l-0.140625 -1.078125l-0.046875 0q-0.640625 0.515625 -1.390625 0.90625q-0.75 0.390625 -1.609375 0.390625zm0.4375 -1.21875q0.65625 0 1.234375 -0.3125q0.578125 -0.328125 1.234375 -0.90625l0 -2.515625q-2.265625 0.28125 -3.171875 0.84375q-0.890625 0.546875 -0.890625 1.421875q0 0.765625 0.453125 1.125q0.46875 0.34375 1.140625 0.34375zm13.071503 4.28125q-1.171875 -1.875 -1.828125 -3.9375q-0.640625 -2.0625 -0.640625 -4.53125q0 -2.46875 0.640625 -4.53125q0.65625 -2.078125 1.828125 -3.9375l0.9375 0.453125q-1.078125 1.765625 -1.609375 3.828125q-0.53125 2.0625 -0.53125 4.1875q0 2.125 0.53125 4.1875q0.53125 2.0625 1.609375 3.828125l-0.9375 0.453125zm5.8247223 -3.0625q-1.421875 0 -2.09375 -0.890625q-0.671875 -0.90625 -0.671875 -2.65625l0 -5.734375l1.546875 0l0 5.53125q0 1.28125 0.390625 1.859375q0.40625 0.578125 1.296875 0.578125q0.71875 0 1.265625 -0.359375q0.546875 -0.375 1.1875 -1.171875l0 -6.4375l1.53125 0l0 9.0625l-1.28125 0l-0.125 -1.421875l-0.0625 0q-0.625 0.75 -1.34375 1.203125q-0.703125 0.4375 -1.640625 0.4375zm10.367752 0q-1.46875 0 -2.03125 -0.828125q-0.5625 -0.84375 -0.5625 -2.1875l0 -5.015625l-1.34375 0l0 -1.15625l1.40625 -0.09375l0.1875 -2.546875l1.296875 0l0 2.546875l2.4375 0l0 1.25l-2.4375 0l0 5.03125q0 0.84375 0.296875 1.296875q0.3125 0.453125 1.09375 0.453125q0.25 0 0.53125 -0.078125q0.28125 -0.078125 0.5 -0.15625l0.296875 1.15625q-0.375 0.125 -0.8125 0.21875q-0.4375 0.109375 -0.859375 0.109375zm3.7120667 -0.21875l0 -7.8125l-1.234375 0l0 -1.15625l1.234375 -0.09375l0 -1.4375q0 -1.390625 0.640625 -2.1875q0.640625 -0.8125 2.0 -0.8125q0.4375 0 0.828125 0.078125q0.390625 0.078125 0.6875 0.21875l-0.34375 1.171875q-0.5 -0.21875 -1.015625 -0.21875q-1.265625 0 -1.265625 1.75l0 1.4375l1.921875 0l0 1.25l-1.921875 0l0 7.8125l-1.53125 0zm8.322632 0.21875q-1.125 0 -2.0 -0.40625q-0.875 -0.421875 -1.390625 -1.171875q-0.515625 -0.75 -0.515625 -1.6875q0 -0.78125 0.328125 -1.375q0.328125 -0.609375 0.828125 -1.0625q0.515625 -0.46875 1.078125 -0.765625l0 -0.078125q-0.65625 -0.46875 -1.15625 -1.140625q-0.5 -0.671875 -0.5 -1.59375q0 -0.921875 0.4375 -1.609375q0.453125 -0.6875 1.21875 -1.0625q0.765625 -0.390625 1.71875 -0.390625q1.546875 0 2.453125 0.90625q0.90625 0.890625 0.90625 2.265625q0 0.609375 -0.265625 1.171875q-0.25 0.546875 -0.625 0.984375q-0.375 0.4375 -0.75 0.71875l0 0.078125q0.546875 0.296875 1.0 0.703125q0.46875 0.40625 0.765625 0.984375q0.296875 0.5625 0.296875 1.359375q0 0.875 -0.46875 1.609375q-0.46875 0.734375 -1.34375 1.15625q-0.859375 0.40625 -2.015625 0.40625zm0.828125 -6.71875q0.59375 -0.53125 0.921875 -1.125q0.328125 -0.609375 0.328125 -1.25q0 -0.875 -0.546875 -1.484375q-0.53125 -0.625 -1.515625 -0.625q-0.828125 0 -1.375 0.53125q-0.546875 0.515625 -0.546875 1.390625q0 0.703125 0.375 1.171875q0.390625 0.46875 1.015625 0.796875q0.640625 0.328125 1.34375 0.59375zm-0.796875 5.578125q1.046875 0 1.6875 -0.578125q0.640625 -0.59375 0.640625 -1.5q0 -0.765625 -0.453125 -1.25q-0.4375 -0.484375 -1.171875 -0.84375q-0.734375 -0.359375 -1.59375 -0.6875q-0.71875 0.46875 -1.203125 1.125q-0.46875 0.640625 -0.46875 1.46875q0 0.984375 0.734375 1.625q0.75 0.640625 1.828125 0.640625zm6.225281 4.203125l-0.953125 -0.453125q1.09375 -1.765625 1.625 -3.828125q0.53125 -2.0625 0.53125 -4.1875q0 -2.125 -0.53125 -4.1875q-0.53125 -2.0625 -1.625 -3.828125l0.953125 -0.453125q1.15625 1.859375 1.8125 3.9375q0.65625 2.0625 0.65625 4.53125q0 2.46875 -0.65625 4.53125q-0.65625 2.0625 -1.8125 3.9375z" fill-rule="nonzero"/><path fill="#5b0f00" d="m472.90552 123.56431l132.06299 0l0 42.01574l-132.06299 0z" fill-rule="evenodd"/><path stroke="#ffffff" stroke-width="1.0" stroke-linejoin="round" stroke-linecap="butt" d="m472.90552 123.56431l132.06299 0l0 42.01574l-132.06299 0z" fill-rule="evenodd"/><path fill="#ffffff" d="m483.5774 151.49217l0 -12.234375l1.609375 0l4.421875 7.6875l1.328125 2.53125l0.078125 0q-0.0625 -0.9375 -0.125 -1.921875q-0.0625 -1.0 -0.0625 -1.96875l0 -6.328125l1.46875 0l0 12.234375l-1.609375 0l-4.4375 -7.703125l-1.328125 -2.515625l-0.0625 0q0.0625 0.90625 0.125 1.875q0.078125 0.96875 0.078125 1.9375l0 6.40625l-1.484375 0zm15.601837 0.21875q-1.203125 0 -2.203125 -0.5625q-0.984375 -0.578125 -1.5625 -1.640625q-0.578125 -1.0625 -0.578125 -2.53125q0 -1.484375 0.578125 -2.546875q0.59375 -1.078125 1.53125 -1.65625q0.9375 -0.578125 1.953125 -0.578125q1.734375 0 2.671875 1.15625q0.953125 1.15625 0.953125 3.109375q0 0.234375 -0.015625 0.46875q0 0.234375 -0.046875 0.40625l-6.109375 0q0.09375 1.4375 0.890625 2.296875q0.8125 0.859375 2.125 0.859375q0.65625 0 1.203125 -0.203125q0.546875 -0.203125 1.0625 -0.515625l0.53125 1.015625q-0.578125 0.375 -1.3125 0.65625q-0.734375 0.265625 -1.671875 0.265625zm-2.859375 -5.484375l4.859375 0q0 -1.375 -0.59375 -2.09375q-0.578125 -0.71875 -1.640625 -0.71875q-0.953125 0 -1.71875 0.734375q-0.75 0.734375 -0.90625 2.078125zm9.971863 5.265625l-2.515625 -9.0625l1.5625 0l1.34375 5.234375q0.140625 0.640625 0.265625 1.265625q0.140625 0.625 0.28125 1.25l0.0625 0q0.15625 -0.625 0.296875 -1.25q0.15625 -0.625 0.328125 -1.265625l1.390625 -5.234375l1.5 0l1.4218445 5.234375q0.15625 0.640625 0.3125 1.265625q0.171875 0.625 0.3125 1.25l0.078125 0q0.140625 -0.625 0.28125 -1.25q0.140625 -0.625 0.28125 -1.265625l1.328125 -5.234375l1.453125 0l-2.4375 9.0625l-1.8593445 0l-1.3125 -4.875q-0.15625 -0.640625 -0.296875 -1.28125q-0.140625 -0.640625 -0.3125 -1.328125l-0.078125 0q-0.140625 0.6875 -0.296875 1.34375q-0.140625 0.640625 -0.328125 1.296875l-1.28125 4.84375l-1.78125 0zm17.813934 0l0 -4.734375l-3.671875 -7.5l1.65625 0l1.59375 3.453125q0.296875 0.671875 0.578125 1.328125q0.296875 0.640625 0.59375 1.328125l0.078125 0q0.3125 -0.6875 0.625 -1.328125q0.3125 -0.65625 0.59375 -1.328125l1.578125 -3.453125l1.625 0l-3.6875 7.5l0 4.734375l-1.5625 0zm9.521301 0.21875q-1.109375 0 -2.078125 -0.546875q-0.953125 -0.5625 -1.546875 -1.625q-0.578125 -1.0625 -0.578125 -2.5625q0 -1.53125 0.578125 -2.59375q0.59375 -1.0625 1.546875 -1.625q0.96875 -0.5625 2.078125 -0.5625q1.109375 0 2.0625 0.5625q0.953125 0.5625 1.53125 1.625q0.59375 1.0625 0.59375 2.59375q0 1.5 -0.59375 2.5625q-0.578125 1.0625 -1.53125 1.625q-0.953125 0.546875 -2.0625 0.546875zm0 -1.265625q1.171875 0 1.890625 -0.953125q0.71875 -0.96875 0.71875 -2.515625q0 -1.5625 -0.71875 -2.53125q-0.71875 -0.96875 -1.890625 -0.96875q-1.15625 0 -1.890625 0.96875q-0.734375 0.96875 -0.734375 2.53125q0 1.546875 0.734375 2.515625q0.734375 0.953125 1.890625 0.953125zm6.5804443 1.046875l0 -9.0625l1.265625 0l0.125 1.640625l0.0625 0q0.46875 -0.859375 1.140625 -1.359375q0.671875 -0.515625 1.4375 -0.515625q0.53125 0 0.96875 0.1875l-0.296875 1.34375q-0.234375 -0.0625 -0.421875 -0.09375q-0.171875 -0.046875 -0.453125 -0.046875q-0.578125 0 -1.203125 0.46875q-0.625 0.453125 -1.09375 1.609375l0 5.828125l-1.53125 0zm6.473694 0l0 -13.28125l1.515625 0l0 8.984375l0.046875 0l3.859375 -4.765625l1.703125 0l-3.046875 3.640625l3.453125 5.421875l-1.671875 0l-2.65625 -4.359375l-1.6875 1.96875l0 2.390625l-1.515625 0z" fill-rule="nonzero"/><path fill="#5b0f00" d="m472.90552 171.5643l132.06299 0l0 42.015747l-132.06299 0z" fill-rule="evenodd"/><path stroke="#ffffff" stroke-width="1.0" stroke-linejoin="round" stroke-linecap="butt" d="m472.90552 171.5643l132.06299 0l0 42.015747l-132.06299 0z" fill-rule="evenodd"/><path fill="#ffffff" d="m483.34302 199.49217l0 -12.15625l2.8125 0l3.171875 6.03125l1.203125 2.6875l0.0625 0q-0.0625 -0.96875 -0.203125 -2.15625q-0.125 -1.203125 -0.125 -2.28125l0 -4.28125l2.609375 0l0 12.15625l-2.8125 0l-3.171875 -6.0625l-1.203125 -2.65625l-0.0625 0q0.09375 1.015625 0.203125 2.171875q0.125 1.15625 0.125 2.234375l0 4.3125l-2.609375 0zm15.265778 -6.15625l-0.296875 1.125l2.578125 0l-0.265625 -1.125q-0.25 -0.921875 -0.5 -1.9375q-0.25 -1.03125 -0.5 -1.984375l-0.0625 0q-0.234375 0.96875 -0.46875 1.984375q-0.234375 1.015625 -0.484375 1.9375zm-4.40625 6.15625l3.796875 -12.15625l3.3125 0l3.796875 12.15625l-2.90625 0l-0.75 -2.890625l-3.703125 0l-0.75 2.890625l-2.796875 0z" fill-rule="nonzero"/><path fill="#5b0f00" d="m472.90552 219.5643l132.06299 0l0 42.015747l-132.06299 0z" fill-rule="evenodd"/><path stroke="#ffffff" stroke-width="1.0" stroke-linejoin="round" stroke-linecap="butt" d="m472.90552 219.5643l132.06299 0l0 42.015747l-132.06299 0z" fill-rule="evenodd"/><path fill="#ffffff" d="m483.34302 247.49217l0 -12.15625l2.8125 0l3.171875 6.03125l1.203125 2.6875l0.0625 0q-0.0625 -0.96875 -0.203125 -2.15625q-0.125 -1.203125 -0.125 -2.28125l0 -4.28125l2.609375 0l0 12.15625l-2.8125 0l-3.171875 -6.0625l-1.203125 -2.65625l-0.0625 0q0.09375 1.015625 0.203125 2.171875q0.125 1.15625 0.125 2.234375l0 4.3125l-2.609375 0zm15.265778 -6.15625l-0.296875 1.125l2.578125 0l-0.265625 -1.125q-0.25 -0.921875 -0.5 -1.9375q-0.25 -1.03125 -0.5 -1.984375l-0.0625 0q-0.234375 0.96875 -0.46875 1.984375q-0.234375 1.015625 -0.484375 1.9375zm-4.40625 6.15625l3.796875 -12.15625l3.3125 0l3.796875 12.15625l-2.90625 0l-0.75 -2.890625l-3.703125 0l-0.75 2.890625l-2.796875 0z" fill-rule="nonzero"/><path fill="#5b0f00" d="m472.90552 267.5643l132.06299 0l0 42.015747l-132.06299 0z" fill-rule="evenodd"/><path stroke="#ffffff" stroke-width="1.0" stroke-linejoin="round" stroke-linecap="butt" d="m472.90552 267.5643l132.06299 0l0 42.015747l-132.06299 0z" fill-rule="evenodd"/><path fill="#ffffff" d="m483.5774 295.4922l0 -12.234375l3.5 0q1.375 0 2.390625 0.34375q1.03125 0.328125 1.609375 1.125q0.578125 0.78125 0.578125 2.125q0 1.921875 -1.25 2.859375q-1.25 0.9375 -3.25 0.9375l-2.015625 0l0 4.84375l-1.5625 0zm1.5625 -6.125l1.828125 0q1.59375 0 2.359375 -0.59375q0.78125 -0.609375 0.78125 -1.921875q0 -1.328125 -0.8125 -1.828125q-0.8125 -0.515625 -2.40625 -0.515625l-1.75 0l0 4.859375zm8.856293 6.125l0 -13.28125l1.53125 0l0 3.625l-0.0625 1.859375q0.65625 -0.609375 1.375 -1.046875q0.71875 -0.453125 1.65625 -0.453125q1.4375 0 2.09375 0.90625q0.65625 0.90625 0.65625 2.640625l0 5.75l-1.53125 0l0 -5.546875q0 -1.265625 -0.40625 -1.84375q-0.40625 -0.578125 -1.296875 -0.578125q-0.703125 0 -1.25 0.359375q-0.546875 0.359375 -1.234375 1.046875l0 6.5625l-1.53125 0zm10.149017 0l0 -9.0625l1.53125 0l0 9.0625l-1.53125 0zm0.78125 -10.9375q-0.453125 0 -0.75 -0.265625q-0.28125 -0.265625 -0.28125 -0.734375q0 -0.453125 0.28125 -0.734375q0.296875 -0.28125 0.75 -0.28125q0.453125 0 0.734375 0.28125q0.296875 0.28125 0.296875 0.734375q0 0.46875 -0.296875 0.734375q-0.28125 0.265625 -0.734375 0.265625zm5.4331665 11.15625q-0.859375 0 -1.25 -0.53125q-0.375 -0.53125 -0.375 -1.515625l0 -11.453125l1.53125 0l0 11.5625q0 0.359375 0.125 0.515625q0.140625 0.15625 0.296875 0.15625q0.078125 0 0.140625 0q0.0625 -0.015625 0.203125 -0.03125l0.203125 1.15625q-0.15625 0.078125 -0.359375 0.109375q-0.203125 0.03125 -0.515625 0.03125zm5.226074 0q-1.140625 0 -1.90625 -0.671875q-0.75 -0.6875 -0.75 -1.890625q0 -1.5 1.328125 -2.28125q1.34375 -0.796875 4.234375 -1.125q0 -0.578125 -0.15625 -1.09375q-0.15625 -0.53125 -0.5625 -0.84375q-0.40625 -0.328125 -1.140625 -0.328125q-0.796875 0 -1.484375 0.296875q-0.6875 0.296875 -1.234375 0.671875l-0.59375 -1.0625q0.640625 -0.421875 1.5625 -0.796875q0.921875 -0.390625 2.0 -0.390625q1.65625 0 2.40625 1.03125q0.75 1.015625 0.75 2.703125l0 5.5625l-1.265625 0l-0.140625 -1.078125l-0.046875 0q-0.640625 0.515625 -1.390625 0.90625q-0.75 0.390625 -1.609375 0.390625zm0.4375 -1.21875q0.65625 0 1.234375 -0.3125q0.578125 -0.328125 1.234375 -0.90625l0 -2.515625q-2.265625 0.28125 -3.171875 0.84375q-0.890625 0.546875 -0.890625 1.421875q0 0.765625 0.453125 1.125q0.46875 0.34375 1.140625 0.34375zm9.965271 1.21875q-1.703125 0 -2.734375 -1.234375q-1.015625 -1.234375 -1.015625 -3.5q0 -1.46875 0.546875 -2.546875q0.5625 -1.078125 1.453125 -1.65625q0.90625 -0.578125 1.9375 -0.578125q0.78125 0 1.359375 0.28125q0.578125 0.28125 1.171875 0.765625l-0.0625 -1.546875l0 -3.484375l1.546875 0l0 13.28125l-1.265625 0l-0.140625 -1.0625l-0.046875 0q-0.53125 0.515625 -1.25 0.90625q-0.703125 0.375 -1.5 0.375zm0.34375 -1.28125q1.1875 0 2.3125 -1.25l0 -4.734375q-0.578125 -0.53125 -1.109375 -0.734375q-0.53125 -0.21875 -1.09375 -0.21875q-0.734375 0 -1.328125 0.4375q-0.578125 0.4375 -0.9375 1.21875q-0.34375 0.765625 -0.34375 1.8125q0 1.625 0.640625 2.546875q0.65625 0.921875 1.859375 0.921875zm10.588623 1.28125q-1.203125 0 -2.203125 -0.5625q-0.984375 -0.578125 -1.5625 -1.640625q-0.578125 -1.0625 -0.578125 -2.53125q0 -1.484375 0.578125 -2.546875q0.59375 -1.078125 1.53125 -1.65625q0.9375 -0.578125 1.953125 -0.578125q1.734375 0 2.671875 1.15625q0.953125 1.15625 0.953125 3.109375q0 0.234375 -0.015625 0.46875q0 0.234375 -0.046875 0.40625l-6.109375 0q0.09375 1.4375 0.890625 2.296875q0.8125 0.859375 2.125 0.859375q0.65625 0 1.203125 -0.203125q0.546875 -0.203125 1.0625 -0.515625l0.53125 1.015625q-0.578125 0.375 -1.3125 0.65625q-0.734375 0.265625 -1.671875 0.265625zm-2.859375 -5.484375l4.859375 0q0 -1.375 -0.59375 -2.09375q-0.578125 -0.71875 -1.640625 -0.71875q-0.953125 0 -1.71875 0.734375q-0.75 0.734375 -0.90625 2.078125zm10.065979 5.484375q-0.859375 0 -1.25 -0.53125q-0.375 -0.53125 -0.375 -1.515625l0 -11.453125l1.53125 0l0 11.5625q0 0.359375 0.125 0.515625q0.140625 0.15625 0.296875 0.15625q0.078125 0 0.140625 0q0.0625 -0.015625 0.203125 -0.03125l0.203125 1.15625q-0.15625 0.078125 -0.359375 0.109375q-0.203125 0.03125 -0.515625 0.03125zm3.1323242 3.609375l0 -12.890625l1.265625 0l0.125 1.046875l0.0625 0q0.609375 -0.53125 1.34375 -0.90625q0.75 -0.375 1.546875 -0.375q1.75 0 2.65625 1.265625q0.921875 1.265625 0.921875 3.359375q0 1.53125 -0.546875 2.640625q-0.546875 1.09375 -1.4375 1.671875q-0.890625 0.578125 -1.921875 0.578125q-0.640625 0 -1.265625 -0.265625q-0.625 -0.28125 -1.265625 -0.78125l0.046875 1.59375l0 3.0625l-1.53125 0zm3.75 -4.890625q1.125 0 1.859375 -0.953125q0.734375 -0.96875 0.734375 -2.65625q0 -1.484375 -0.5625 -2.40625q-0.546875 -0.921875 -1.828125 -0.921875q-0.578125 0 -1.171875 0.3125q-0.578125 0.3125 -1.25 0.921875l0 4.75q0.609375 0.515625 1.1875 0.734375q0.578125 0.21875 1.03125 0.21875zm6.604248 1.0625l0 -13.28125l1.53125 0l0 3.625l-0.0625 1.859375q0.65625 -0.609375 1.375 -1.046875q0.71875 -0.453125 1.65625 -0.453125q1.4375 0 2.09375 0.90625q0.65625 0.90625 0.65625 2.640625l0 5.75l-1.53125 0l0 -5.546875q0 -1.265625 -0.40625 -1.84375q-0.40625 -0.578125 -1.296875 -0.578125q-0.703125 0 -1.25 0.359375q-0.546875 0.359375 -1.234375 1.046875l0 6.5625l-1.53125 0zm10.148987 0l0 -9.0625l1.53125 0l0 9.0625l-1.53125 0zm0.78125 -10.9375q-0.453125 0 -0.75 -0.265625q-0.28125 -0.265625 -0.28125 -0.734375q0 -0.453125 0.28125 -0.734375q0.296875 -0.28125 0.75 -0.28125q0.453125 0 0.734375 0.28125q0.296875 0.28125 0.296875 0.734375q0 0.46875 -0.296875 0.734375q-0.28125 0.265625 -0.734375 0.265625zm5.9019165 11.15625q-1.140625 0 -1.90625 -0.671875q-0.75 -0.6875 -0.75 -1.890625q0 -1.5 1.328125 -2.28125q1.34375 -0.796875 4.234375 -1.125q0 -0.578125 -0.15625 -1.09375q-0.15625 -0.53125 -0.5625 -0.84375q-0.40625 -0.328125 -1.140625 -0.328125q-0.796875 0 -1.484375 0.296875q-0.6875 0.296875 -1.234375 0.671875l-0.59375 -1.0625q0.640625 -0.421875 1.5625 -0.796875q0.921875 -0.390625 2.0 -0.390625q1.65625 0 2.40625 1.03125q0.75 1.015625 0.75 2.703125l0 5.5625l-1.265625 0l-0.140625 -1.078125l-0.046875 0q-0.640625 0.515625 -1.390625 0.90625q-0.75 0.390625 -1.609375 0.390625zm0.4375 -1.21875q0.65625 0 1.234375 -0.3125q0.578125 -0.328125 1.234375 -0.90625l0 -2.515625q-2.265625 0.28125 -3.171875 0.84375q-0.890625 0.546875 -0.890625 1.421875q0 0.765625 0.453125 1.125q0.46875 0.34375 1.140625 0.34375z" fill-rule="nonzero"/><path fill="#000000" fill-opacity="0.0" d="m472.90552 144.57217l-198.4567 0l0 46.110245" fill-rule="evenodd"/><path stroke="#595959" stroke-width="1.0" stroke-linejoin="round" stroke-linecap="butt" d="m469.11554 144.57217l-194.66672 0l0 42.320236" fill-rule="evenodd"/><path fill="#595959" stroke="#595959" stroke-width="1.0" stroke-linecap="butt" d="m472.40552 144.57217c0 0.9085083 -0.73651123 1.6450043 -1.6450195 1.6450043c-0.9085083 0 -1.644989 -0.736496 -1.644989 -1.6450043c0 -0.9085083 0.7364807 -1.644989 1.644989 -1.644989c0.9085083 0 1.6450195 0.7364807 1.6450195 1.644989z" fill-rule="nonzero"/><path fill="#595959" stroke="#595959" stroke-width="1.0" stroke-linecap="butt" d="m274.44882 190.18242c-0.9085083 0 -1.644989 -0.736496 -1.644989 -1.6450043c0 -0.9085083 0.7364807 -1.6450043 1.644989 -1.6450043c0.9085083 0 1.644989 0.736496 1.644989 1.6450043c0 0.9085083 -0.7364807 1.6450043 -1.644989 1.6450043z" fill-rule="nonzero"/><path stroke="#9e9e9e" stroke-width="1.0" stroke-linecap="butt" d="m258.41733 311.2861l0 43.013123" fill-rule="nonzero"/><path stroke="#9e9e9e" stroke-width="1.0" stroke-linecap="butt" d="m292.10236 311.2861l0 43.013123" fill-rule="nonzero"/><path stroke="#9e9e9e" stroke-width="1.0" stroke-linecap="butt" d="m325.7874 311.2861l0 43.013123" fill-rule="nonzero"/><path stroke="#9e9e9e" stroke-width="1.0" stroke-linecap="butt" d="m359.47244 311.2861l0 43.013123" fill-rule="nonzero"/><path stroke="#9e9e9e" stroke-width="1.0" stroke-linecap="butt" d="m393.15747 311.2861l0 43.013123" fill-rule="nonzero"/><path stroke="#9e9e9e" stroke-width="1.0" stroke-linecap="butt" d="m426.84253 311.2861l0 43.013123" fill-rule="nonzero"/><path stroke="#9e9e9e" stroke-width="1.0" stroke-linecap="butt" d="m257.91864 311.7848l169.42258 0" fill-rule="nonzero"/><path stroke="#9e9e9e" stroke-width="1.0" stroke-linecap="butt" d="m257.91864 353.80054l169.42258 0" fill-rule="nonzero"/><path fill="#000000" d="m275.2567 326.4658q2.078125 0 3.140625 1.71875q1.0625 1.703125 1.0625 4.90625q0 3.1875 -1.0625 4.921875q-1.0625 1.71875 -3.140625 1.71875q-2.0625 0 -3.140625 -1.71875q-1.0625 -1.734375 -1.0625 -4.921875q0 -3.203125 1.0625 -4.90625q1.078125 -1.71875 3.140625 -1.71875zm0 1.25q-1.1875 0 -1.875 1.265625q-0.671875 1.25 -0.671875 4.109375q0 1.4375 0.140625 2.46875q0.15625 1.03125 0.46875 1.671875q0.3125 0.625 0.796875 0.9375q0.484375 0.296875 1.140625 0.296875q0.8125 0 1.375 -0.546875q0.578125 -0.5625 0.875 -1.75q0.3125 -1.1875 0.3125 -3.078125q0 -1.921875 -0.265625 -3.109375q-0.265625 -1.1875 -0.828125 -1.71875q-0.5625 -0.546875 -1.46875 -0.546875zm1.890625 0.46875l0.421875 1.359375l-4.09375 8.28125l-0.578125 -1.09375l4.25 -8.546875z" fill-rule="nonzero"/><path fill="#000000" d="m312.80112 329.7314q0 0.921875 -0.578125 1.609375q-0.578125 0.6875 -1.65625 1.28125q1.265625 0.515625 2.0 1.390625q0.75 0.859375 0.75 2.0625q0 1.046875 -0.546875 1.875q-0.53125 0.828125 -1.515625 1.3125q-0.984375 0.46875 -2.34375 0.46875q-1.375 0 -2.359375 -0.484375q-0.96875 -0.484375 -1.484375 -1.296875q-0.5 -0.828125 -0.5 -1.859375q0 -1.171875 0.703125 -1.984375q0.703125 -0.828125 1.875 -1.359375q-1.015625 -0.484375 -1.53125 -1.171875q-0.515625 -0.6875 -0.515625 -1.765625q0 -0.890625 0.359375 -1.515625q0.359375 -0.625 0.921875 -1.03125q0.578125 -0.421875 1.25 -0.609375q0.6875 -0.1875 1.3125 -0.1875q0.703125 0 1.390625 0.1875q0.6875 0.1875 1.234375 0.59375q0.5625 0.390625 0.890625 1.015625q0.34375 0.609375 0.34375 1.46875zm-1.125 6.359375q0 -0.875 -0.453125 -1.375q-0.4375 -0.5 -1.21875 -0.828125q-0.765625 -0.34375 -1.78125 -0.6875q-0.53125 0.234375 -0.984375 0.609375q-0.453125 0.375 -0.734375 0.9375q-0.28125 0.546875 -0.28125 1.359375q0 1.09375 0.671875 1.734375q0.671875 0.625 2.0 0.625q1.34375 0 2.0625 -0.671875q0.71875 -0.6875 0.71875 -1.703125zm-5.03125 -6.265625q0 0.734375 0.328125 1.15625q0.34375 0.421875 0.984375 0.6875q0.640625 0.265625 1.5 0.5625q0.890625 -0.515625 1.34375 -1.046875q0.453125 -0.53125 0.453125 -1.40625q0 -0.96875 -0.609375 -1.53125q-0.59375 -0.578125 -1.703125 -0.578125q-1.09375 0 -1.703125 0.578125q-0.59375 0.5625 -0.59375 1.578125z" fill-rule="nonzero"/><path fill="#000000" d="m346.48618 329.7314q0 0.921875 -0.578125 1.609375q-0.578125 0.6875 -1.65625 1.28125q1.265625 0.515625 2.0 1.390625q0.75 0.859375 0.75 2.0625q0 1.046875 -0.546875 1.875q-0.53125 0.828125 -1.515625 1.3125q-0.984375 0.46875 -2.34375 0.46875q-1.375 0 -2.359375 -0.484375q-0.96875 -0.484375 -1.484375 -1.296875q-0.5 -0.828125 -0.5 -1.859375q0 -1.171875 0.703125 -1.984375q0.703125 -0.828125 1.875 -1.359375q-1.015625 -0.484375 -1.53125 -1.171875q-0.515625 -0.6875 -0.515625 -1.765625q0 -0.890625 0.359375 -1.515625q0.359375 -0.625 0.921875 -1.03125q0.578125 -0.421875 1.25 -0.609375q0.6875 -0.1875 1.3125 -0.1875q0.703125 0 1.390625 0.1875q0.6875 0.1875 1.234375 0.59375q0.5625 0.390625 0.890625 1.015625q0.34375 0.609375 0.34375 1.46875zm-1.125 6.359375q0 -0.875 -0.453125 -1.375q-0.4375 -0.5 -1.21875 -0.828125q-0.765625 -0.34375 -1.78125 -0.6875q-0.53125 0.234375 -0.984375 0.609375q-0.453125 0.375 -0.734375 0.9375q-0.28125 0.546875 -0.28125 1.359375q0 1.09375 0.671875 1.734375q0.671875 0.625 2.0 0.625q1.34375 0 2.0625 -0.671875q0.71875 -0.6875 0.71875 -1.703125zm-5.03125 -6.265625q0 0.734375 0.328125 1.15625q0.34375 0.421875 0.984375 0.6875q0.640625 0.265625 1.5 0.5625q0.890625 -0.515625 1.34375 -1.046875q0.453125 -0.53125 0.453125 -1.40625q0 -0.96875 -0.609375 -1.53125q-0.59375 -0.578125 -1.703125 -0.578125q-1.09375 0 -1.703125 0.578125q-0.59375 0.5625 -0.59375 1.578125z" fill-rule="nonzero"/><path fill="#000000" d="m380.1712 329.7314q0 0.921875 -0.578125 1.609375q-0.578125 0.6875 -1.65625 1.28125q1.265625 0.515625 2.0 1.390625q0.75 0.859375 0.75 2.0625q0 1.046875 -0.546875 1.875q-0.53125 0.828125 -1.515625 1.3125q-0.984375 0.46875 -2.34375 0.46875q-1.375 0 -2.359375 -0.484375q-0.96875 -0.484375 -1.484375 -1.296875q-0.5 -0.828125 -0.5 -1.859375q0 -1.171875 0.703125 -1.984375q0.703125 -0.828125 1.875 -1.359375q-1.015625 -0.484375 -1.53125 -1.171875q-0.515625 -0.6875 -0.515625 -1.765625q0 -0.890625 0.359375 -1.515625q0.359375 -0.625 0.921875 -1.03125q0.578125 -0.421875 1.25 -0.609375q0.6875 -0.1875 1.3125 -0.1875q0.703125 0 1.390625 0.1875q0.6875 0.1875 1.234375 0.59375q0.5625 0.390625 0.890625 1.015625q0.34375 0.609375 0.34375 1.46875zm-1.125 6.359375q0 -0.875 -0.453125 -1.375q-0.4375 -0.5 -1.21875 -0.828125q-0.765625 -0.34375 -1.78125 -0.6875q-0.53125 0.234375 -0.984375 0.609375q-0.453125 0.375 -0.734375 0.9375q-0.28125 0.546875 -0.28125 1.359375q0 1.09375 0.671875 1.734375q0.671875 0.625 2.0 0.625q1.34375 0 2.0625 -0.671875q0.71875 -0.6875 0.71875 -1.703125zm-5.03125 -6.265625q0 0.734375 0.328125 1.15625q0.34375 0.421875 0.984375 0.6875q0.640625 0.265625 1.5 0.5625q0.890625 -0.515625 1.34375 -1.046875q0.453125 -0.53125 0.453125 -1.40625q0 -0.96875 -0.609375 -1.53125q-0.59375 -0.578125 -1.703125 -0.578125q-1.09375 0 -1.703125 0.578125q-0.59375 0.5625 -0.59375 1.578125z" fill-rule="nonzero"/><path fill="#000000" d="m403.8375 326.4658q1.203125 0 2.0625 0.46875q0.875 0.453125 1.34375 1.265625q0.46875 0.8125 0.46875 1.84375q0 0.890625 -0.3125 1.734375q-0.3125 0.84375 -0.984375 1.78125q-0.671875 0.921875 -1.78125 2.046875q-1.09375 1.125 -2.6875 2.578125l6.0625 0l-0.203125 1.328125l-7.640625 0l0 -1.28125q1.453125 -1.390625 2.46875 -2.421875q1.03125 -1.046875 1.6875 -1.828125q0.671875 -0.796875 1.046875 -1.4375q0.390625 -0.65625 0.53125 -1.234375q0.15625 -0.578125 0.15625 -1.203125q0 -1.09375 -0.609375 -1.71875q-0.609375 -0.625 -1.6875 -0.625q-0.953125 0 -1.5625 0.328125q-0.59375 0.328125 -1.203125 1.046875l-1.09375 -0.84375q0.765625 -0.921875 1.703125 -1.375q0.9375 -0.453125 2.234375 -0.453125zm11.756256 0q2.078125 0 3.140625 1.71875q1.0625 1.703125 1.0625 4.90625q0 3.1875 -1.0625 4.921875q-1.0625 1.71875 -3.140625 1.71875q-2.0625 0 -3.140625 -1.71875q-1.0625 -1.734375 -1.0625 -4.921875q0 -3.203125 1.0625 -4.90625q1.078125 -1.71875 3.140625 -1.71875zm0 1.25q-1.1875 0 -1.875 1.265625q-0.671875 1.25 -0.671875 4.109375q0 1.4375 0.140625 2.46875q0.15625 1.03125 0.46875 1.671875q0.3125 0.625 0.796875 0.9375q0.484375 0.296875 1.140625 0.296875q0.8125 0 1.375 -0.546875q0.578125 -0.5625 0.875 -1.75q0.3125 -1.1875 0.3125 -3.078125q0 -1.921875 -0.265625 -3.109375q-0.265625 -1.1875 -0.828125 -1.71875q-0.5625 -0.546875 -1.46875 -0.546875zm1.890625 0.46875l0.421875 1.359375l-4.09375 8.28125l-0.578125 -1.09375l4.25 -8.546875z" fill-rule="nonzero"/><path fill="#000000" fill-opacity="0.0" d="m472.90552 288.57217l-96.66144 0l0 23.212616" fill-rule="evenodd"/><path stroke="#595959" stroke-width="1.0" stroke-linejoin="round" stroke-linecap="butt" d="m469.11554 288.57217l-92.87146 0l0 19.422607" fill-rule="evenodd"/><path fill="#595959" stroke="#595959" stroke-width="1.0" stroke-linecap="butt" d="m472.40552 288.57217c0 0.9085083 -0.73651123 1.6450195 -1.6450195 1.6450195c-0.9085083 0 -1.644989 -0.73651123 -1.644989 -1.6450195c0 -0.9085083 0.7364807 -1.644989 1.644989 -1.644989c0.9085083 0 1.6450195 0.7364807 1.6450195 1.644989z" fill-rule="nonzero"/><path fill="#595959" stroke="#595959" stroke-width="1.0" stroke-linecap="butt" d="m376.24408 311.2848c-0.9085083 0 -1.644989 -0.73651123 -1.644989 -1.6450195c0 -0.9085083 0.7364807 -1.644989 1.644989 -1.644989c0.9085083 0 1.6450195 0.7364807 1.6450195 1.644989c0 0.9085083 -0.73651123 1.6450195 -1.6450195 1.6450195z" fill-rule="nonzero"/><path fill="#000000" fill-opacity="0.0" d="m472.90552 288.57217l-63.212616 0l0 23.212616" fill-rule="evenodd"/><path stroke="#595959" stroke-width="1.0" stroke-linejoin="round" stroke-linecap="butt" d="m472.90552 288.57217l-63.212616 0l0 19.422607" fill-rule="evenodd"/><path fill="#595959" stroke="#595959" stroke-width="1.0" stroke-linecap="butt" d="m409.6929 311.2848c-0.9085083 0 -1.644989 -0.73651123 -1.644989 -1.6450195c0 -0.9085083 0.7364807 -1.644989 1.644989 -1.644989c0.9085083 0 1.6450195 0.7364807 1.6450195 1.644989c0 0.9085083 -0.73651123 1.6450195 -1.6450195 1.6450195z" fill-rule="nonzero"/><path fill="#000000" fill-opacity="0.0" d="m376.23563 353.80054l0 35.992065l168.00003 0l0 36.007935" fill-rule="evenodd"/><path stroke="#595959" stroke-width="1.0" stroke-linejoin="round" stroke-linecap="butt" d="m376.23566 357.5905l0 32.202087l168.0 0l0 32.217926" fill-rule="evenodd"/><path fill="#595959" stroke="#595959" stroke-width="1.0" stroke-linecap="butt" d="m376.23566 354.30054c0.9085083 0 1.644989 0.7364807 1.644989 1.644989c0 0.9085083 -0.7364807 1.644989 -1.644989 1.644989c-0.9085083 0 -1.6450195 -0.7364807 -1.6450195 -1.644989c0 -0.9085083 0.73651123 -1.644989 1.6450195 -1.644989z" fill-rule="nonzero"/><path fill="#595959" stroke="#595959" stroke-width="1.0" stroke-linecap="butt" d="m544.23566 425.30054c-0.9085083 0 -1.6450195 -0.73651123 -1.6450195 -1.6450195c0 -0.9085083 0.73651123 -1.644989 1.6450195 -1.644989c0.9085083 0 1.6450195 0.7364807 1.6450195 1.644989c0 0.9085083 -0.73651123 1.6450195 -1.6450195 1.6450195z" fill-rule="nonzero"/><path fill="#eeeeee" d="m682.55383 150.67192l182.74011 0l0 42.015747l-182.74011 0z" fill-rule="evenodd"/><path stroke="#595959" stroke-width="1.0" stroke-linejoin="round" stroke-linecap="butt" d="m682.55383 150.67192l182.74011 0l0 42.015747l-182.74011 0z" fill-rule="evenodd"/><path fill="#000000" d="m693.2257 178.5998l0 -12.234375l1.875 0l2.34375 6.53125q0.234375 0.625 0.4375 1.28125q0.21875 0.640625 0.4375 1.265625l0.078125 0q0.234375 -0.625 0.421875 -1.265625q0.203125 -0.65625 0.421875 -1.28125l2.3125 -6.53125l1.890625 0l0 12.234375l-1.46875 0l0 -6.734375q0 -0.828125 0.078125 -1.8125q0.078125 -1.0 0.140625 -1.8125l-0.078125 0l-0.96875 2.78125l-2.3125 6.34375l-1.03125 0l-2.3125 -6.34375l-0.96875 -2.78125l-0.078125 0q0.0625 0.8125 0.125 1.8125q0.0625 0.984375 0.0625 1.8125l0 6.734375l-1.40625 0zm17.0943 0.21875q-1.203125 0 -2.203125 -0.5625q-0.984375 -0.578125 -1.5625 -1.640625q-0.578125 -1.0625 -0.578125 -2.53125q0 -1.484375 0.578125 -2.546875q0.59375 -1.078125 1.53125 -1.65625q0.9375 -0.578125 1.953125 -0.578125q1.734375 0 2.671875 1.15625q0.953125 1.15625 0.953125 3.109375q0 0.234375 -0.015625 0.46875q0 0.234375 -0.046875 0.40625l-6.109375 0q0.09375 1.4375 0.890625 2.296875q0.8125 0.859375 2.125 0.859375q0.65625 0 1.203125 -0.203125q0.546875 -0.203125 1.0625 -0.515625l0.53125 1.015625q-0.578125 0.375 -1.3125 0.65625q-0.734375 0.265625 -1.671875 0.265625zm-2.859375 -5.484375l4.859375 0q0 -1.375 -0.59375 -2.09375q-0.578125 -0.71875 -1.640625 -0.71875q-0.953125 0 -1.71875 0.734375q-0.75 0.734375 -0.90625 2.078125zm11.11377 5.484375q-1.46875 0 -2.03125 -0.828125q-0.5625 -0.84375 -0.5625 -2.1875l0 -5.015625l-1.34375 0l0 -1.15625l1.40625 -0.09375l0.1875 -2.546875l1.296875 0l0 2.546875l2.4375 0l0 1.25l-2.4375 0l0 5.03125q0 0.84375 0.296875 1.296875q0.3125 0.453125 1.09375 0.453125q0.25 0 0.53125 -0.078125q0.28125 -0.078125 0.5 -0.15625l0.296875 1.15625q-0.375 0.125 -0.8125 0.21875q-0.4375 0.109375 -0.859375 0.109375zm5.1481934 0q-1.140625 0 -1.90625 -0.671875q-0.75 -0.6875 -0.75 -1.890625q0 -1.5 1.328125 -2.28125q1.34375 -0.796875 4.234375 -1.125q0 -0.578125 -0.15625 -1.09375q-0.15625 -0.53125 -0.5625 -0.84375q-0.40625 -0.328125 -1.140625 -0.328125q-0.796875 0 -1.484375 0.296875q-0.6875 0.296875 -1.234375 0.671875l-0.59375 -1.0625q0.640625 -0.421875 1.5625 -0.796875q0.921875 -0.390625 2.0 -0.390625q1.65625 0 2.40625 1.03125q0.75 1.015625 0.75 2.703125l0 5.5625l-1.265625 0l-0.140625 -1.078125l-0.046875 0q-0.640625 0.515625 -1.390625 0.90625q-0.75 0.390625 -1.609375 0.390625zm0.4375 -1.21875q0.65625 0 1.234375 -0.3125q0.578125 -0.328125 1.234375 -0.90625l0 -2.515625q-2.265625 0.28125 -3.171875 0.84375q-0.890625 0.546875 -0.890625 1.421875q0 0.765625 0.453125 1.125q0.46875 0.34375 1.140625 0.34375zm9.96521 1.21875q-1.703125 0 -2.734375 -1.234375q-1.015625 -1.234375 -1.015625 -3.5q0 -1.46875 0.546875 -2.546875q0.5625 -1.078125 1.453125 -1.65625q0.90625 -0.578125 1.9375 -0.578125q0.78125 0 1.359375 0.28125q0.578125 0.28125 1.171875 0.765625l-0.0625 -1.546875l0 -3.484375l1.546875 0l0 13.28125l-1.265625 0l-0.140625 -1.0625l-0.046875 0q-0.53125 0.515625 -1.25 0.90625q-0.703125 0.375 -1.5 0.375zm0.34375 -1.28125q1.1875 0 2.3125 -1.25l0 -4.734375q-0.578125 -0.53125 -1.109375 -0.734375q-0.53125 -0.21875 -1.09375 -0.21875q-0.734375 0 -1.328125 0.4375q-0.578125 0.4375 -0.9375 1.21875q-0.34375 0.765625 -0.34375 1.8125q0 1.625 0.640625 2.546875q0.65625 0.921875 1.859375 0.921875zm9.010498 1.28125q-1.140625 0 -1.90625 -0.671875q-0.75 -0.6875 -0.75 -1.890625q0 -1.5 1.328125 -2.28125q1.34375 -0.796875 4.234375 -1.125q0 -0.578125 -0.15625 -1.09375q-0.15625 -0.53125 -0.5625 -0.84375q-0.40625 -0.328125 -1.140625 -0.328125q-0.796875 0 -1.484375 0.296875q-0.6875 0.296875 -1.234375 0.671875l-0.59375 -1.0625q0.640625 -0.421875 1.5625 -0.796875q0.921875 -0.390625 2.0 -0.390625q1.65625 0 2.40625 1.03125q0.75 1.015625 0.75 2.703125l0 5.5625l-1.265625 0l-0.140625 -1.078125l-0.046875 0q-0.640625 0.515625 -1.390625 0.90625q-0.75 0.390625 -1.609375 0.390625zm0.4375 -1.21875q0.65625 0 1.234375 -0.3125q0.578125 -0.328125 1.234375 -0.90625l0 -2.515625q-2.265625 0.28125 -3.171875 0.84375q-0.890625 0.546875 -0.890625 1.421875q0 0.765625 0.453125 1.125q0.46875 0.34375 1.140625 0.34375zm9.469543 1.21875q-1.46875 0 -2.03125 -0.828125q-0.5625 -0.84375 -0.5625 -2.1875l0 -5.015625l-1.34375 0l0 -1.15625l1.40625 -0.09375l0.1875 -2.546875l1.296875 0l0 2.546875l2.4375 0l0 1.25l-2.4375 0l0 5.03125q0 0.84375 0.296875 1.296875q0.3125 0.453125 1.09375 0.453125q0.25 0 0.53125 -0.078125q0.28125 -0.078125 0.5 -0.15625l0.296875 1.15625q-0.375 0.125 -0.8125 0.21875q-0.4375 0.109375 -0.859375 0.109375zm5.1481934 0q-1.140625 0 -1.90625 -0.671875q-0.75 -0.6875 -0.75 -1.890625q0 -1.5 1.328125 -2.28125q1.34375 -0.796875 4.234375 -1.125q0 -0.578125 -0.15625 -1.09375q-0.15625 -0.53125 -0.5625 -0.84375q-0.40625 -0.328125 -1.140625 -0.328125q-0.796875 0 -1.484375 0.296875q-0.6875 0.296875 -1.234375 0.671875l-0.59375 -1.0625q0.640625 -0.421875 1.5625 -0.796875q0.921875 -0.390625 2.0 -0.390625q1.65625 0 2.40625 1.03125q0.75 1.015625 0.75 2.703125l0 5.5625l-1.265625 0l-0.140625 -1.078125l-0.046875 0q-0.640625 0.515625 -1.390625 0.90625q-0.75 0.390625 -1.609375 0.390625zm0.4375 -1.21875q0.65625 0 1.234375 -0.3125q0.578125 -0.328125 1.234375 -0.90625l0 -2.515625q-2.265625 0.28125 -3.171875 0.84375q-0.890625 0.546875 -0.890625 1.421875q0 0.765625 0.453125 1.125q0.46875 0.34375 1.140625 0.34375zm7.668396 -5.515625q-0.46875 0 -0.796875 -0.3125q-0.3125 -0.328125 -0.3125 -0.84375q0 -0.53125 0.3125 -0.859375q0.328125 -0.328125 0.796875 -0.328125q0.453125 0 0.78125 0.328125q0.328125 0.328125 0.328125 0.859375q0 0.515625 -0.328125 0.84375q-0.328125 0.3125 -0.78125 0.3125zm0 6.734375q-0.46875 0 -0.796875 -0.3125q-0.3125 -0.328125 -0.3125 -0.84375q0 -0.53125 0.3125 -0.859375q0.328125 -0.328125 0.796875 -0.328125q0.453125 0 0.78125 0.328125q0.328125 0.328125 0.328125 0.859375q0 0.515625 -0.328125 0.84375q-0.328125 0.3125 -0.78125 0.3125zm7.720398 -0.21875l0 -12.234375l1.5625 0l0 10.90625l5.34375 0l0 1.328125l-6.90625 0zm12.3741455 0.21875q-1.203125 0 -2.203125 -0.5625q-0.984375 -0.578125 -1.5625 -1.640625q-0.578125 -1.0625 -0.578125 -2.53125q0 -1.484375 0.578125 -2.546875q0.59375 -1.078125 1.53125 -1.65625q0.9375 -0.578125 1.953125 -0.578125q1.734375 0 2.671875 1.15625q0.953125 1.15625 0.953125 3.109375q0 0.234375 -0.015625 0.46875q0 0.234375 -0.046875 0.40625l-6.109375 0q0.09375 1.4375 0.890625 2.296875q0.8125 0.859375 2.125 0.859375q0.65625 0 1.203125 -0.203125q0.546875 -0.203125 1.0625 -0.515625l0.53125 1.015625q-0.578125 0.375 -1.3125 0.65625q-0.734375 0.265625 -1.671875 0.265625zm-2.859375 -5.484375l4.859375 0q0 -1.375 -0.59375 -2.09375q-0.578125 -0.71875 -1.640625 -0.71875q-0.953125 0 -1.71875 0.734375q-0.75 0.734375 -0.90625 2.078125zm8.44104 5.265625l0 -9.0625l1.265625 0l0.125 1.296875l0.0625 0q0.65625 -0.640625 1.375 -1.078125q0.734375 -0.453125 1.671875 -0.453125q1.4375 0 2.09375 0.90625q0.65625 0.90625 0.65625 2.640625l0 5.75l-1.53125 0l0 -5.546875q0 -1.265625 -0.40625 -1.84375q-0.40625 -0.578125 -1.296875 -0.578125q-0.703125 0 -1.25 0.359375q-0.546875 0.359375 -1.234375 1.046875l0 6.5625l-1.53125 0zm13.267456 4.171875q-1.671875 0 -2.71875 -0.640625q-1.03125 -0.625 -1.03125 -1.796875q0 -0.578125 0.34375 -1.109375q0.359375 -0.53125 0.984375 -0.9375l0 -0.078125q-0.34375 -0.203125 -0.578125 -0.578125q-0.234375 -0.375 -0.234375 -0.890625q0 -0.578125 0.3125 -1.0q0.328125 -0.4375 0.671875 -0.6875l0 -0.078125q-0.4375 -0.375 -0.8125 -1.0q-0.359375 -0.640625 -0.359375 -1.4375q0 -0.984375 0.46875 -1.703125q0.46875 -0.734375 1.25 -1.125q0.78125 -0.40625 1.703125 -0.40625q0.375 0 0.703125 0.078125q0.34375 0.0625 0.578125 0.15625l3.15625 0l0 1.171875l-1.875 0q0.328125 0.296875 0.53125 0.796875q0.21875 0.484375 0.21875 1.0625q0 0.96875 -0.453125 1.6875q-0.4375 0.703125 -1.1875 1.09375q-0.75 0.375 -1.671875 0.375q-0.734375 0 -1.359375 -0.3125q-0.25 0.203125 -0.421875 0.453125q-0.15625 0.25 -0.15625 0.625q0 0.4375 0.34375 0.71875q0.34375 0.265625 1.25 0.265625l1.75 0q1.59375 0 2.375 0.515625q0.796875 0.515625 0.796875 1.65625q0 0.84375 -0.5625 1.546875q-0.546875 0.703125 -1.578125 1.140625q-1.03125 0.4375 -2.4375 0.4375zm0 -8.078125q0.78125 0 1.34375 -0.578125q0.578125 -0.59375 0.578125 -1.578125q0 -0.984375 -0.5625 -1.546875q-0.5625 -0.5625 -1.359375 -0.5625q-0.8125 0 -1.375 0.5625q-0.546875 0.5625 -0.546875 1.546875q0 0.984375 0.5625 1.578125q0.578125 0.578125 1.359375 0.578125zm0.21875 7.015625q1.3125 0 2.09375 -0.5625q0.78125 -0.5625 0.78125 -1.28125q0 -0.625 -0.484375 -0.875q-0.46875 -0.234375 -1.34375 -0.234375l-1.5625 0q-0.265625 0 -0.578125 -0.046875q-0.296875 -0.03125 -0.609375 -0.109375q-0.484375 0.359375 -0.703125 0.75q-0.21875 0.390625 -0.21875 0.78125q0 0.71875 0.6875 1.140625q0.703125 0.4375 1.9375 0.4375zm8.980896 -2.890625q-1.46875 0 -2.03125 -0.828125q-0.5625 -0.84375 -0.5625 -2.1875l0 -5.015625l-1.34375 0l0 -1.15625l1.40625 -0.09375l0.1875 -2.546875l1.296875 0l0 2.546875l2.4375 0l0 1.25l-2.4375 0l0 5.03125q0 0.84375 0.296875 1.296875q0.3125 0.453125 1.09375 0.453125q0.25 0 0.53125 -0.078125q0.28125 -0.078125 0.5 -0.15625l0.296875 1.15625q-0.375 0.125 -0.8125 0.21875q-0.4375 0.109375 -0.859375 0.109375zm3.4464111 -0.21875l0 -13.28125l1.53125 0l0 3.625l-0.0625 1.859375q0.65625 -0.609375 1.375 -1.046875q0.71875 -0.453125 1.65625 -0.453125q1.4375 0 2.09375 0.90625q0.65625 0.90625 0.65625 2.640625l0 5.75l-1.53125 0l0 -5.546875q0 -1.265625 -0.40625 -1.84375q-0.40625 -0.578125 -1.296875 -0.578125q-0.703125 0 -1.25 0.359375q-0.546875 0.359375 -1.234375 1.046875l0 6.5625l-1.53125 0z" fill-rule="nonzero"/><path fill="#eeeeee" d="m682.55383 206.67192l182.74011 0l0 42.015747l-182.74011 0z" fill-rule="evenodd"/><path stroke="#595959" stroke-width="1.0" stroke-linejoin="round" stroke-linecap="butt" d="m682.55383 206.67192l182.74011 0l0 42.015747l-182.74011 0z" fill-rule="evenodd"/><path fill="#000000" d="m693.2257 234.5998l0 -12.234375l1.875 0l2.34375 6.53125q0.234375 0.625 0.4375 1.28125q0.21875 0.640625 0.4375 1.265625l0.078125 0q0.234375 -0.625 0.421875 -1.265625q0.203125 -0.65625 0.421875 -1.28125l2.3125 -6.53125l1.890625 0l0 12.234375l-1.46875 0l0 -6.734375q0 -0.828125 0.078125 -1.8125q0.078125 -1.0 0.140625 -1.8125l-0.078125 0l-0.96875 2.78125l-2.3125 6.34375l-1.03125 0l-2.3125 -6.34375l-0.96875 -2.78125l-0.078125 0q0.0625 0.8125 0.125 1.8125q0.0625 0.984375 0.0625 1.8125l0 6.734375l-1.40625 0zm17.0943 0.21875q-1.203125 0 -2.203125 -0.5625q-0.984375 -0.578125 -1.5625 -1.640625q-0.578125 -1.0625 -0.578125 -2.53125q0 -1.484375 0.578125 -2.546875q0.59375 -1.078125 1.53125 -1.65625q0.9375 -0.578125 1.953125 -0.578125q1.734375 0 2.671875 1.15625q0.953125 1.15625 0.953125 3.109375q0 0.234375 -0.015625 0.46875q0 0.234375 -0.046875 0.40625l-6.109375 0q0.09375 1.4375 0.890625 2.296875q0.8125 0.859375 2.125 0.859375q0.65625 0 1.203125 -0.203125q0.546875 -0.203125 1.0625 -0.515625l0.53125 1.015625q-0.578125 0.375 -1.3125 0.65625q-0.734375 0.265625 -1.671875 0.265625zm-2.859375 -5.484375l4.859375 0q0 -1.375 -0.59375 -2.09375q-0.578125 -0.71875 -1.640625 -0.71875q-0.953125 0 -1.71875 0.734375q-0.75 0.734375 -0.90625 2.078125zm11.11377 5.484375q-1.46875 0 -2.03125 -0.828125q-0.5625 -0.84375 -0.5625 -2.1875l0 -5.015625l-1.34375 0l0 -1.15625l1.40625 -0.09375l0.1875 -2.546875l1.296875 0l0 2.546875l2.4375 0l0 1.25l-2.4375 0l0 5.03125q0 0.84375 0.296875 1.296875q0.3125 0.453125 1.09375 0.453125q0.25 0 0.53125 -0.078125q0.28125 -0.078125 0.5 -0.15625l0.296875 1.15625q-0.375 0.125 -0.8125 0.21875q-0.4375 0.109375 -0.859375 0.109375zm5.1481934 0q-1.140625 0 -1.90625 -0.671875q-0.75 -0.6875 -0.75 -1.890625q0 -1.5 1.328125 -2.28125q1.34375 -0.796875 4.234375 -1.125q0 -0.578125 -0.15625 -1.09375q-0.15625 -0.53125 -0.5625 -0.84375q-0.40625 -0.328125 -1.140625 -0.328125q-0.796875 0 -1.484375 0.296875q-0.6875 0.296875 -1.234375 0.671875l-0.59375 -1.0625q0.640625 -0.421875 1.5625 -0.796875q0.921875 -0.390625 2.0 -0.390625q1.65625 0 2.40625 1.03125q0.75 1.015625 0.75 2.703125l0 5.5625l-1.265625 0l-0.140625 -1.078125l-0.046875 0q-0.640625 0.515625 -1.390625 0.90625q-0.75 0.390625 -1.609375 0.390625zm0.4375 -1.21875q0.65625 0 1.234375 -0.3125q0.578125 -0.328125 1.234375 -0.90625l0 -2.515625q-2.265625 0.28125 -3.171875 0.84375q-0.890625 0.546875 -0.890625 1.421875q0 0.765625 0.453125 1.125q0.46875 0.34375 1.140625 0.34375zm9.96521 1.21875q-1.703125 0 -2.734375 -1.234375q-1.015625 -1.234375 -1.015625 -3.5q0 -1.46875 0.546875 -2.546875q0.5625 -1.078125 1.453125 -1.65625q0.90625 -0.578125 1.9375 -0.578125q0.78125 0 1.359375 0.28125q0.578125 0.28125 1.171875 0.765625l-0.0625 -1.546875l0 -3.484375l1.546875 0l0 13.28125l-1.265625 0l-0.140625 -1.0625l-0.046875 0q-0.53125 0.515625 -1.25 0.90625q-0.703125 0.375 -1.5 0.375zm0.34375 -1.28125q1.1875 0 2.3125 -1.25l0 -4.734375q-0.578125 -0.53125 -1.109375 -0.734375q-0.53125 -0.21875 -1.09375 -0.21875q-0.734375 0 -1.328125 0.4375q-0.578125 0.4375 -0.9375 1.21875q-0.34375 0.765625 -0.34375 1.8125q0 1.625 0.640625 2.546875q0.65625 0.921875 1.859375 0.921875zm9.010498 1.28125q-1.140625 0 -1.90625 -0.671875q-0.75 -0.6875 -0.75 -1.890625q0 -1.5 1.328125 -2.28125q1.34375 -0.796875 4.234375 -1.125q0 -0.578125 -0.15625 -1.09375q-0.15625 -0.53125 -0.5625 -0.84375q-0.40625 -0.328125 -1.140625 -0.328125q-0.796875 0 -1.484375 0.296875q-0.6875 0.296875 -1.234375 0.671875l-0.59375 -1.0625q0.640625 -0.421875 1.5625 -0.796875q0.921875 -0.390625 2.0 -0.390625q1.65625 0 2.40625 1.03125q0.75 1.015625 0.75 2.703125l0 5.5625l-1.265625 0l-0.140625 -1.078125l-0.046875 0q-0.640625 0.515625 -1.390625 0.90625q-0.75 0.390625 -1.609375 0.390625zm0.4375 -1.21875q0.65625 0 1.234375 -0.3125q0.578125 -0.328125 1.234375 -0.90625l0 -2.515625q-2.265625 0.28125 -3.171875 0.84375q-0.890625 0.546875 -0.890625 1.421875q0 0.765625 0.453125 1.125q0.46875 0.34375 1.140625 0.34375zm9.469543 1.21875q-1.46875 0 -2.03125 -0.828125q-0.5625 -0.84375 -0.5625 -2.1875l0 -5.015625l-1.34375 0l0 -1.15625l1.40625 -0.09375l0.1875 -2.546875l1.296875 0l0 2.546875l2.4375 0l0 1.25l-2.4375 0l0 5.03125q0 0.84375 0.296875 1.296875q0.3125 0.453125 1.09375 0.453125q0.25 0 0.53125 -0.078125q0.28125 -0.078125 0.5 -0.15625l0.296875 1.15625q-0.375 0.125 -0.8125 0.21875q-0.4375 0.109375 -0.859375 0.109375zm5.1481934 0q-1.140625 0 -1.90625 -0.671875q-0.75 -0.6875 -0.75 -1.890625q0 -1.5 1.328125 -2.28125q1.34375 -0.796875 4.234375 -1.125q0 -0.578125 -0.15625 -1.09375q-0.15625 -0.53125 -0.5625 -0.84375q-0.40625 -0.328125 -1.140625 -0.328125q-0.796875 0 -1.484375 0.296875q-0.6875 0.296875 -1.234375 0.671875l-0.59375 -1.0625q0.640625 -0.421875 1.5625 -0.796875q0.921875 -0.390625 2.0 -0.390625q1.65625 0 2.40625 1.03125q0.75 1.015625 0.75 2.703125l0 5.5625l-1.265625 0l-0.140625 -1.078125l-0.046875 0q-0.640625 0.515625 -1.390625 0.90625q-0.75 0.390625 -1.609375 0.390625zm0.4375 -1.21875q0.65625 0 1.234375 -0.3125q0.578125 -0.328125 1.234375 -0.90625l0 -2.515625q-2.265625 0.28125 -3.171875 0.84375q-0.890625 0.546875 -0.890625 1.421875q0 0.765625 0.453125 1.125q0.46875 0.34375 1.140625 0.34375zm7.668396 -5.515625q-0.46875 0 -0.796875 -0.3125q-0.3125 -0.328125 -0.3125 -0.84375q0 -0.53125 0.3125 -0.859375q0.328125 -0.328125 0.796875 -0.328125q0.453125 0 0.78125 0.328125q0.328125 0.328125 0.328125 0.859375q0 0.515625 -0.328125 0.84375q-0.328125 0.3125 -0.78125 0.3125zm0 6.734375q-0.46875 0 -0.796875 -0.3125q-0.3125 -0.328125 -0.3125 -0.84375q0 -0.53125 0.3125 -0.859375q0.328125 -0.328125 0.796875 -0.328125q0.453125 0 0.78125 0.328125q0.328125 0.328125 0.328125 0.859375q0 0.515625 -0.328125 0.84375q-0.328125 0.3125 -0.78125 0.3125zm7.720398 -0.21875l0 -12.234375l1.609375 0l4.421875 7.6875l1.328125 2.53125l0.078125 0q-0.0625 -0.9375 -0.125 -1.921875q-0.0625 -1.0 -0.0625 -1.96875l0 -6.328125l1.46875 0l0 12.234375l-1.609375 0l-4.4375 -7.703125l-1.328125 -2.515625l-0.0625 0q0.0625 0.90625 0.125 1.875q0.078125 0.96875 0.078125 1.9375l0 6.40625l-1.484375 0zm14.570557 0.21875q-1.421875 0 -2.09375 -0.890625q-0.671875 -0.90625 -0.671875 -2.65625l0 -5.734375l1.546875 0l0 5.53125q0 1.28125 0.390625 1.859375q0.40625 0.578125 1.296875 0.578125q0.71875 0 1.265625 -0.359375q0.546875 -0.375 1.1875 -1.171875l0 -6.4375l1.53125 0l0 9.0625l-1.28125 0l-0.125 -1.421875l-0.0625 0q-0.625 0.75 -1.34375 1.203125q-0.703125 0.4375 -1.640625 0.4375zm9.133423 0q-0.859375 0 -1.25 -0.53125q-0.375 -0.53125 -0.375 -1.515625l0 -11.453125l1.53125 0l0 11.5625q0 0.359375 0.125 0.515625q0.140625 0.15625 0.296875 0.15625q0.078125 0 0.140625 0q0.0625 -0.015625 0.203125 -0.03125l0.203125 1.15625q-0.15625 0.078125 -0.359375 0.109375q-0.203125 0.03125 -0.515625 0.03125zm4.757324 0q-0.859375 0 -1.25 -0.53125q-0.375 -0.53125 -0.375 -1.515625l0 -11.453125l1.53125 0l0 11.5625q0 0.359375 0.125 0.515625q0.140625 0.15625 0.296875 0.15625q0.078125 0 0.140625 0q0.0625 -0.015625 0.203125 -0.03125l0.203125 1.15625q-0.15625 0.078125 -0.359375 0.109375q-0.203125 0.03125 -0.515625 0.03125zm10.441711 0q-1.1875 0 -2.15625 -0.546875q-0.96875 -0.5625 -1.53125 -1.625q-0.5625 -1.0625 -0.5625 -2.5625q0 -1.53125 0.609375 -2.59375q0.609375 -1.0625 1.59375 -1.625q1.0 -0.5625 2.15625 -0.5625q0.90625 0 1.546875 0.328125q0.640625 0.3125 1.109375 0.734375l-0.78125 1.015625q-0.390625 -0.359375 -0.828125 -0.578125q-0.4375 -0.21875 -0.984375 -0.21875q-0.828125 0 -1.46875 0.4375q-0.640625 0.4375 -1.015625 1.234375q-0.359375 0.78125 -0.359375 1.828125q0 1.546875 0.78125 2.515625q0.78125 0.953125 2.03125 0.953125q0.625 0 1.15625 -0.265625q0.546875 -0.265625 0.96875 -0.640625l0.671875 1.015625q-0.625 0.546875 -1.375 0.859375q-0.734375 0.296875 -1.5625 0.296875zm8.068359 0q-1.109375 0 -2.078125 -0.546875q-0.953125 -0.5625 -1.546875 -1.625q-0.578125 -1.0625 -0.578125 -2.5625q0 -1.53125 0.578125 -2.59375q0.59375 -1.0625 1.546875 -1.625q0.96875 -0.5625 2.078125 -0.5625q1.109375 0 2.0625 0.5625q0.953125 0.5625 1.53125 1.625q0.59375 1.0625 0.59375 2.59375q0 1.5 -0.59375 2.5625q-0.578125 1.0625 -1.53125 1.625q-0.953125 0.546875 -2.0625 0.546875zm0 -1.265625q1.171875 0 1.890625 -0.953125q0.71875 -0.96875 0.71875 -2.515625q0 -1.5625 -0.71875 -2.53125q-0.71875 -0.96875 -1.890625 -0.96875q-1.15625 0 -1.890625 0.96875q-0.734375 0.96875 -0.734375 2.53125q0 1.546875 0.734375 2.515625q0.734375 0.953125 1.890625 0.953125zm9.221069 1.265625q-1.421875 0 -2.09375 -0.890625q-0.671875 -0.90625 -0.671875 -2.65625l0 -5.734375l1.546875 0l0 5.53125q0 1.28125 0.390625 1.859375q0.40625 0.578125 1.296875 0.578125q0.71875 0 1.265625 -0.359375q0.546875 -0.375 1.1875 -1.171875l0 -6.4375l1.53125 0l0 9.0625l-1.28125 0l-0.125 -1.421875l-0.0625 0q-0.625 0.75 -1.34375 1.203125q-0.703125 0.4375 -1.640625 0.4375zm7.508362 -0.21875l0 -9.0625l1.265625 0l0.125 1.296875l0.0625 0q0.65625 -0.640625 1.375 -1.078125q0.734375 -0.453125 1.671875 -0.453125q1.4375 0 2.09375 0.90625q0.65625 0.90625 0.65625 2.640625l0 5.75l-1.53125 0l0 -5.546875q0 -1.265625 -0.40625 -1.84375q-0.40625 -0.578125 -1.296875 -0.578125q-0.703125 0 -1.25 0.359375q-0.546875 0.359375 -1.234375 1.046875l0 6.5625l-1.53125 0zm13.064392 0.21875q-1.46875 0 -2.03125 -0.828125q-0.5625 -0.84375 -0.5625 -2.1875l0 -5.015625l-1.34375 0l0 -1.15625l1.40625 -0.09375l0.1875 -2.546875l1.296875 0l0 2.546875l2.4375 0l0 1.25l-2.4375 0l0 5.03125q0 0.84375 0.296875 1.296875q0.3125 0.453125 1.09375 0.453125q0.25 0 0.53125 -0.078125q0.28125 -0.078125 0.5 -0.15625l0.296875 1.15625q-0.375 0.125 -0.8125 0.21875q-0.4375 0.109375 -0.859375 0.109375z" fill-rule="nonzero"/><path stroke="#9e9e9e" stroke-width="1.0" stroke-linecap="butt" d="m874.0236 150.17323l0 43.013123" fill-rule="nonzero"/><path stroke="#9e9e9e" stroke-width="1.0" stroke-linecap="butt" d="m907.7087 150.17323l0 43.013123" fill-rule="nonzero"/><path stroke="#9e9e9e" stroke-width="1.0" stroke-linecap="butt" d="m873.52496 150.67192l34.682373 0" fill-rule="nonzero"/><path stroke="#9e9e9e" stroke-width="1.0" stroke-linecap="butt" d="m873.52496 192.68767l34.682373 0" fill-rule="nonzero"/><path fill="#000000" d="m890.37866 165.35292l1.3125 0.546875l-3.421875 8.125l6.859375 0l0 1.25l-8.515625 0l0 -1.140625l3.765625 -8.78125zm3.09375 5.03125l0 8.015625l-1.515625 0l-0.015625 -4.078125l0.21875 -3.9375l1.3125 0z" fill-rule="nonzero"/><path stroke="#9e9e9e" stroke-width="1.0" stroke-linecap="butt" d="m874.0236 206.17323l0 43.013123" fill-rule="nonzero"/><path stroke="#9e9e9e" stroke-width="1.0" stroke-linecap="butt" d="m907.7087 206.17323l0 43.013123" fill-rule="nonzero"/><path stroke="#9e9e9e" stroke-width="1.0" stroke-linecap="butt" d="m873.52496 206.67192l34.682373 0" fill-rule="nonzero"/><path stroke="#9e9e9e" stroke-width="1.0" stroke-linecap="butt" d="m873.52496 248.68767l34.682373 0" fill-rule="nonzero"/><path fill="#000000" d="m890.30054 221.35292q1.203125 0 2.0625 0.46875q0.875 0.453125 1.34375 1.265625q0.46875 0.8125 0.46875 1.84375q0 0.890625 -0.3125 1.734375q-0.3125 0.84375 -0.984375 1.78125q-0.671875 0.921875 -1.78125 2.046875q-1.09375 1.125 -2.6875 2.578125l6.0625 0l-0.203125 1.328125l-7.640625 0l0 -1.28125q1.453125 -1.390625 2.46875 -2.421875q1.03125 -1.046875 1.6875 -1.828125q0.671875 -0.796875 1.046875 -1.4375q0.390625 -0.65625 0.53125 -1.234375q0.15625 -0.578125 0.15625 -1.203125q0 -1.09375 -0.609375 -1.71875q-0.609375 -0.625 -1.6875 -0.625q-0.953125 0 -1.5625 0.328125q-0.59375 0.328125 -1.203125 1.046875l-1.09375 -0.84375q0.765625 -0.921875 1.703125 -1.375q0.9375 -0.453125 2.234375 -0.453125z" fill-rule="nonzero"/><path fill="#000000" fill-opacity="0.0" d="m623.1417 77.25722l29.706116 0l0 94.4252l29.695496 0" fill-rule="evenodd"/><path stroke="#595959" stroke-width="1.0" stroke-linejoin="round" stroke-linecap="butt" d="m626.9317 77.25722l25.916138 0l0 94.4252l25.905457 0" fill-rule="evenodd"/><path fill="#595959" stroke="#595959" stroke-width="1.0" stroke-linecap="butt" d="m623.6417 77.25722c0 -0.9085083 0.73651123 -1.6449966 1.6450195 -1.6449966c0.9085083 0 1.6449585 0.73648834 1.6449585 1.6449966c0 0.9085083 -0.7364502 1.6449966 -1.6449585 1.6449966c-0.9085083 0 -1.6450195 -0.73648834 -1.6450195 -1.6449966z" fill-rule="nonzero"/><path fill="#595959" stroke="#595959" stroke-width="1.0" stroke-linecap="butt" d="m682.04333 171.68242c0 0.9085083 -0.73651123 1.644989 -1.6450195 1.644989c-0.9085083 0 -1.6450195 -0.7364807 -1.6450195 -1.644989c0 -0.9085083 0.73651123 -1.6450043 1.6450195 -1.6450043c0.9085083 0 1.6450195 0.736496 1.6450195 1.6450043z" fill-rule="nonzero"/><path fill="#000000" fill-opacity="0.0" d="m623.1417 77.25722l29.706116 0l0 150.4252l29.695496 0" fill-rule="evenodd"/><path stroke="#595959" stroke-width="1.0" stroke-linejoin="round" stroke-linecap="butt" d="m623.1417 77.25722l29.706116 0l0 150.4252l25.905457 0" fill-rule="evenodd"/><path fill="#595959" stroke="#595959" stroke-width="1.0" stroke-linecap="butt" d="m682.04333 227.68242c0 0.9085083 -0.73651123 1.644989 -1.6450195 1.644989c-0.9085083 0 -1.6450195 -0.7364807 -1.6450195 -1.644989c0 -0.9085083 0.73651123 -1.6450043 1.6450195 -1.6450043c0.9085083 0 1.6450195 0.736496 1.6450195 1.6450043z" fill-rule="nonzero"/></g></svg>