<svg version="1.1" viewBox="0.0 0.0 960.0 540.0" fill="none" stroke="none" stroke-linecap="square" stroke-miterlimit="10" xmlns:xlink="http://www.w3.org/1999/xlink" xmlns="http://www.w3.org/2000/svg"><clipPath id="g134ef82c5a1_0_307.0"><path d="m0 0l960.0 0l0 540.0l-960.0 0l0 -540.0z" clip-rule="nonzero"/></clipPath><g clip-path="url(#g134ef82c5a1_0_307.0)"><path fill="#000000" fill-opacity="0.0" d="m0 0l960.0 0l0 540.0l-960.0 0z" fill-rule="evenodd"/><path fill="#000000" fill-opacity="0.0" d="m170.91339 374.59842l498.36218 0l0 107.1181l-498.36218 0z" fill-rule="evenodd"/><path stroke="#9e9e9e" stroke-width="1.0" stroke-linejoin="round" stroke-linecap="butt" stroke-dasharray="4.0,3.0" d="m170.91339 374.59842l498.36218 0l0 107.1181l-498.36218 0z" fill-rule="evenodd"/><path fill="#000000" fill-opacity="0.0" d="m26.913385 70.59843l246.07874 0l0 107.11811l-246.07874 0z" fill-rule="evenodd"/><path stroke="#9e9e9e" stroke-width="1.0" stroke-linejoin="round" stroke-linecap="butt" stroke-dasharray="4.0,3.0" d="m26.913385 70.59843l246.07874 0l0 107.11811l-246.07874 0z" fill-rule="evenodd"/><path fill="#000000" fill-opacity="0.0" d="m618.9134 214.59842l255.02362 0l0 107.1181l-255.02362 0z" fill-rule="evenodd"/><path stroke="#9e9e9e" stroke-width="1.0" stroke-linejoin="round" stroke-linecap="butt" stroke-dasharray="4.0,3.0" d="m618.9134 214.59842l255.02362 0l0 107.1181l-255.02362 0z" fill-rule="evenodd"/><path fill="#000000" d="m319.75592 402.17847l106.17322 0l0 54.740173l-106.17322 0z" fill-rule="evenodd"/><path stroke="#000000" stroke-width="1.0" stroke-linejoin="round" stroke-linecap="butt" d="m319.75592 402.17847l106.17322 0l0 54.740173l-106.17322 0z" fill-rule="evenodd"/><path fill="#ffffff" d="m332.53717 418.62482l-0.578125 1.859375l3.6875 0l-0.578125 -1.859375q-0.34375 -1.03125 -0.640625 -2.046875q-0.296875 -1.015625 -0.59375 -2.078125l-0.078125 0q-0.28125 1.0625 -0.578125 2.078125q-0.296875 1.015625 -0.640625 2.046875zm-3.71875 6.84375l4.140625 -12.234375l1.75 0l4.140625 12.234375l-1.65625 0l-1.15625 -3.734375l-4.46875 0l-1.171875 3.734375l-1.578125 0zm11.617737 0l0 -9.0625l1.265625 0l0.125 1.640625l0.0625 0q0.46875 -0.859375 1.140625 -1.359375q0.671875 -0.515625 1.4375 -0.515625q0.53125 0 0.96875 0.1875l-0.296875 1.34375q-0.234375 -0.0625 -0.421875 -0.09375q-0.171875 -0.046875 -0.453125 -0.046875q-0.578125 0 -1.203125 0.46875q-0.625 0.453125 -1.09375 1.609375l0 5.828125l-1.53125 0zm6.4737244 0l0 -9.0625l1.265625 0l0.125 1.640625l0.0625 0q0.46875 -0.859375 1.140625 -1.359375q0.671875 -0.515625 1.4375 -0.515625q0.53125 0 0.96875 0.1875l-0.296875 1.34375q-0.234375 -0.0625 -0.421875 -0.09375q-0.171875 -0.046875 -0.453125 -0.046875q-0.578125 0 -1.203125 0.46875q-0.625 0.453125 -1.09375 1.609375l0 5.828125l-1.53125 0zm9.818329 0.21875q-1.109375 0 -2.078125 -0.546875q-0.953125 -0.5625 -1.546875 -1.625q-0.578125 -1.0625 -0.578125 -2.5625q0 -1.53125 0.578125 -2.59375q0.59375 -1.0625 1.546875 -1.625q0.96875 -0.5625 2.078125 -0.5625q1.109375 0 2.0625 0.5625q0.953125 0.5625 1.53125 1.625q0.59375 1.0625 0.59375 2.59375q0 1.5 -0.59375 2.5625q-0.578125 1.0625 -1.53125 1.625q-0.953125 0.546875 -2.0625 0.546875zm0 -1.265625q1.171875 0 1.890625 -0.953125q0.71875 -0.96875 0.71875 -2.515625q0 -1.5625 -0.71875 -2.53125q-0.71875 -0.96875 -1.890625 -0.96875q-1.15625 0 -1.890625 0.96875q-0.734375 0.96875 -0.734375 2.53125q0 1.546875 0.734375 2.515625q0.734375 0.953125 1.890625 0.953125zm7.943268 1.046875l-2.515625 -9.0625l1.5625 0l1.34375 5.234375q0.140625 0.640625 0.265625 1.265625q0.140625 0.625 0.28125 1.25l0.0625 0q0.15625 -0.625 0.296875 -1.25q0.15625 -0.625 0.328125 -1.265625l1.390625 -5.234375l1.5 0l1.421875 5.234375q0.15625 0.640625 0.3125 1.265625q0.171875 0.625 0.3125 1.25l0.078125 0q0.140625 -0.625 0.28125 -1.25q0.140625 -0.625 0.28125 -1.265625l1.328125 -5.234375l1.453125 0l-2.4375 9.0625l-1.859375 0l-1.3125 -4.875q-0.15625 -0.640625 -0.296875 -1.28125q-0.140625 -0.640625 -0.3125 -1.328125l-0.078125 0q-0.140625 0.6875 -0.296875 1.34375q-0.140625 0.640625 -0.328125 1.296875l-1.28125 4.84375l-1.78125 0z" fill-rule="nonzero"/><path fill="#ffffff" d="m332.97467 447.46857l0 -10.9375l-3.703125 0l0 -1.296875l8.96875 0l0 1.296875l-3.703125 0l0 10.9375l-1.5625 0zm8.043335 0.21875q-1.140625 0 -1.90625 -0.671875q-0.75 -0.6875 -0.75 -1.890625q0 -1.5 1.328125 -2.28125q1.34375 -0.796875 4.234375 -1.125q0 -0.578125 -0.15625 -1.09375q-0.15625 -0.53125 -0.5625 -0.84375q-0.40625 -0.328125 -1.140625 -0.328125q-0.796875 0 -1.484375 0.296875q-0.6875 0.296875 -1.234375 0.671875l-0.59375 -1.0625q0.640625 -0.421875 1.5625 -0.796875q0.921875 -0.390625 2.0 -0.390625q1.65625 0 2.40625 1.03125q0.75 1.015625 0.75 2.703125l0 5.5625l-1.265625 0l-0.140625 -1.078125l-0.046875 0q-0.640625 0.515625 -1.390625 0.90625q-0.75 0.390625 -1.609375 0.390625zm0.4375 -1.21875q0.65625 0 1.234375 -0.3125q0.578125 -0.328125 1.234375 -0.90625l0 -2.515625q-2.265625 0.28125 -3.171875 0.84375q-0.890625 0.546875 -0.890625 1.421875q0 0.765625 0.453125 1.125q0.46875 0.34375 1.140625 0.34375zm10.8871155 1.21875q-0.640625 0 -1.328125 -0.296875q-0.671875 -0.3125 -1.265625 -0.859375l-0.0625 0l-0.125 0.9375l-1.234375 0l0 -13.28125l1.53125 0l0 3.625l-0.046875 1.640625q0.625 -0.546875 1.359375 -0.90625q0.734375 -0.375 1.484375 -0.375q1.765625 0 2.671875 1.25q0.921875 1.25 0.921875 3.359375q0 1.546875 -0.546875 2.65625q-0.546875 1.09375 -1.4375 1.671875q-0.890625 0.578125 -1.921875 0.578125zm-0.265625 -1.28125q1.125 0 1.859375 -0.953125q0.734375 -0.96875 0.734375 -2.65625q0 -1.484375 -0.5625 -2.40625q-0.546875 -0.921875 -1.828125 -0.921875q-0.578125 0 -1.171875 0.3125q-0.59375 0.3125 -1.25 0.921875l0 4.75q0.59375 0.515625 1.171875 0.734375q0.59375 0.21875 1.046875 0.21875zm8.191925 1.28125q-0.859375 0 -1.25 -0.53125q-0.375 -0.53125 -0.375 -1.515625l0 -11.453125l1.53125 0l0 11.5625q0 0.359375 0.125 0.515625q0.140625 0.15625 0.296875 0.15625q0.078125 0 0.140625 0q0.0625 -0.015625 0.203125 -0.03125l0.203125 1.15625q-0.15625 0.078125 -0.359375 0.109375q-0.203125 0.03125 -0.515625 0.03125zm6.804199 0q-1.203125 0 -2.203125 -0.5625q-0.984375 -0.578125 -1.5625 -1.640625q-0.578125 -1.0625 -0.578125 -2.53125q0 -1.484375 0.578125 -2.546875q0.59375 -1.078125 1.53125 -1.65625q0.9375 -0.578125 1.953125 -0.578125q1.734375 0 2.671875 1.15625q0.953125 1.15625 0.953125 3.109375q0 0.234375 -0.015625 0.46875q0 0.234375 -0.046875 0.40625l-6.109375 0q0.09375 1.4375 0.890625 2.296875q0.8125 0.859375 2.125 0.859375q0.65625 0 1.203125 -0.203125q0.546875 -0.203125 1.0625 -0.515625l0.53125 1.015625q-0.578125 0.375 -1.3125 0.65625q-0.734375 0.265625 -1.671875 0.265625zm-2.859375 -5.484375l4.859375 0q0 -1.375 -0.59375 -2.09375q-0.578125 -0.71875 -1.640625 -0.71875q-0.953125 0 -1.71875 0.734375q-0.75 0.734375 -0.90625 2.078125z" fill-rule="nonzero"/><path fill="#000000" d="m521.10895 402.17847l106.17322 0l0 54.740173l-106.17322 0z" fill-rule="evenodd"/><path stroke="#000000" stroke-width="1.0" stroke-linejoin="round" stroke-linecap="butt" d="m521.10895 402.17847l106.17322 0l0 54.740173l-106.17322 0z" fill-rule="evenodd"/><path fill="#ffffff" d="m533.8902 418.62482l-0.578125 1.859375l3.6875 0l-0.578125 -1.859375q-0.34375 -1.03125 -0.640625 -2.046875q-0.296875 -1.015625 -0.59375 -2.078125l-0.078125 0q-0.28125 1.0625 -0.578125 2.078125q-0.296875 1.015625 -0.640625 2.046875zm-3.71875 6.84375l4.140625 -12.234375l1.75 0l4.140625 12.234375l-1.65625 0l-1.15625 -3.734375l-4.46875 0l-1.171875 3.734375l-1.578125 0zm11.617737 0l0 -9.0625l1.265625 0l0.125 1.640625l0.0625 0q0.46875 -0.859375 1.140625 -1.359375q0.671875 -0.515625 1.4375 -0.515625q0.53125 0 0.96875 0.1875l-0.296875 1.34375q-0.234375 -0.0625 -0.421875 -0.09375q-0.171875 -0.046875 -0.453125 -0.046875q-0.578125 0 -1.203125 0.46875q-0.625 0.453125 -1.09375 1.609375l0 5.828125l-1.53125 0zm6.473694 0l0 -9.0625l1.265625 0l0.125 1.640625l0.0625 0q0.46875 -0.859375 1.140625 -1.359375q0.671875 -0.515625 1.4375 -0.515625q0.53125 0 0.96875 0.1875l-0.296875 1.34375q-0.234375 -0.0625 -0.421875 -0.09375q-0.171875 -0.046875 -0.453125 -0.046875q-0.578125 0 -1.203125 0.46875q-0.625 0.453125 -1.09375 1.609375l0 5.828125l-1.53125 0zm9.818359 0.21875q-1.109375 0 -2.078125 -0.546875q-0.953125 -0.5625 -1.546875 -1.625q-0.578125 -1.0625 -0.578125 -2.5625q0 -1.53125 0.578125 -2.59375q0.59375 -1.0625 1.546875 -1.625q0.96875 -0.5625 2.078125 -0.5625q1.109375 0 2.0625 0.5625q0.953125 0.5625 1.53125 1.625q0.59375 1.0625 0.59375 2.59375q0 1.5 -0.59375 2.5625q-0.578125 1.0625 -1.53125 1.625q-0.953125 0.546875 -2.0625 0.546875zm0 -1.265625q1.171875 0 1.890625 -0.953125q0.71875 -0.96875 0.71875 -2.515625q0 -1.5625 -0.71875 -2.53125q-0.71875 -0.96875 -1.890625 -0.96875q-1.15625 0 -1.890625 0.96875q-0.734375 0.96875 -0.734375 2.53125q0 1.546875 0.734375 2.515625q0.734375 0.953125 1.890625 0.953125zm7.9432373 1.046875l-2.515625 -9.0625l1.5625 0l1.34375 5.234375q0.140625 0.640625 0.265625 1.265625q0.140625 0.625 0.28125 1.25l0.0625 0q0.15625 -0.625 0.296875 -1.25q0.15625 -0.625 0.328125 -1.265625l1.390625 -5.234375l1.5 0l1.421875 5.234375q0.15625 0.640625 0.3125 1.265625q0.171875 0.625 0.3125 1.25l0.078125 0q0.140625 -0.625 0.28125 -1.25q0.140625 -0.625 0.28125 -1.265625l1.328125 -5.234375l1.453125 0l-2.4375 9.0625l-1.859375 0l-1.3125 -4.875q-0.15625 -0.640625 -0.296875 -1.28125q-0.140625 -0.640625 -0.3125 -1.328125l-0.078125 0q-0.140625 0.6875 -0.296875 1.34375q-0.140625 0.640625 -0.328125 1.296875l-1.28125 4.84375l-1.78125 0z" fill-rule="nonzero"/><path fill="#ffffff" d="m534.3277 447.46857l0 -10.9375l-3.703125 0l0 -1.296875l8.96875 0l0 1.296875l-3.703125 0l0 10.9375l-1.5625 0zm8.043335 0.21875q-1.140625 0 -1.90625 -0.671875q-0.75 -0.6875 -0.75 -1.890625q0 -1.5 1.328125 -2.28125q1.34375 -0.796875 4.234375 -1.125q0 -0.578125 -0.15625 -1.09375q-0.15625 -0.53125 -0.5625 -0.84375q-0.40625 -0.328125 -1.140625 -0.328125q-0.796875 0 -1.484375 0.296875q-0.6875 0.296875 -1.234375 0.671875l-0.59375 -1.0625q0.640625 -0.421875 1.5625 -0.796875q0.921875 -0.390625 2.0 -0.390625q1.65625 0 2.40625 1.03125q0.75 1.015625 0.75 2.703125l0 5.5625l-1.265625 0l-0.140625 -1.078125l-0.046875 0q-0.640625 0.515625 -1.390625 0.90625q-0.75 0.390625 -1.609375 0.390625zm0.4375 -1.21875q0.65625 0 1.234375 -0.3125q0.578125 -0.328125 1.234375 -0.90625l0 -2.515625q-2.265625 0.28125 -3.171875 0.84375q-0.890625 0.546875 -0.890625 1.421875q0 0.765625 0.453125 1.125q0.46875 0.34375 1.140625 0.34375zm10.887085 1.21875q-0.640625 0 -1.328125 -0.296875q-0.671875 -0.3125 -1.265625 -0.859375l-0.0625 0l-0.125 0.9375l-1.234375 0l0 -13.28125l1.53125 0l0 3.625l-0.046875 1.640625q0.625 -0.546875 1.359375 -0.90625q0.734375 -0.375 1.484375 -0.375q1.765625 0 2.671875 1.25q0.921875 1.25 0.921875 3.359375q0 1.546875 -0.546875 2.65625q-0.546875 1.09375 -1.4375 1.671875q-0.890625 0.578125 -1.921875 0.578125zm-0.265625 -1.28125q1.125 0 1.859375 -0.953125q0.734375 -0.96875 0.734375 -2.65625q0 -1.484375 -0.5625 -2.40625q-0.546875 -0.921875 -1.828125 -0.921875q-0.578125 0 -1.171875 0.3125q-0.59375 0.3125 -1.25 0.921875l0 4.75q0.59375 0.515625 1.171875 0.734375q0.59375 0.21875 1.046875 0.21875zm8.191956 1.28125q-0.859375 0 -1.25 -0.53125q-0.375 -0.53125 -0.375 -1.515625l0 -11.453125l1.53125 0l0 11.5625q0 0.359375 0.125 0.515625q0.140625 0.15625 0.296875 0.15625q0.078125 0 0.140625 0q0.0625 -0.015625 0.203125 -0.03125l0.203125 1.15625q-0.15625 0.078125 -0.359375 0.109375q-0.203125 0.03125 -0.515625 0.03125zm6.804199 0q-1.203125 0 -2.203125 -0.5625q-0.984375 -0.578125 -1.5625 -1.640625q-0.578125 -1.0625 -0.578125 -2.53125q0 -1.484375 0.578125 -2.546875q0.59375 -1.078125 1.53125 -1.65625q0.9375 -0.578125 1.953125 -0.578125q1.734375 0 2.671875 1.15625q0.953125 1.15625 0.953125 3.109375q0 0.234375 -0.015625 0.46875q0 0.234375 -0.046875 0.40625l-6.109375 0q0.09375 1.4375 0.890625 2.296875q0.8125 0.859375 2.125 0.859375q0.65625 0 1.203125 -0.203125q0.546875 -0.203125 1.0625 -0.515625l0.53125 1.015625q-0.578125 0.375 -1.3125 0.65625q-0.734375 0.265625 -1.671875 0.265625zm-2.859375 -5.484375l4.859375 0q0 -1.375 -0.59375 -2.09375q-0.578125 -0.71875 -1.640625 -0.71875q-0.953125 0 -1.71875 0.734375q-0.75 0.734375 -0.90625 2.078125z" fill-rule="nonzero"/><path fill="#000000" fill-opacity="0.0" d="m619.30707 216.7979l181.7323 0l0 42.015762l-181.7323 0z" fill-rule="evenodd"/><path fill="#9e9e9e" d="m629.97894 243.7179l0 -12.234375l3.828125 0q1.25 0 2.21875 0.328125q0.96875 0.328125 1.515625 1.078125q0.5625 0.75 0.5625 2.015625q0 1.421875 -0.75 2.296875q-0.75 0.859375 -2.015625 1.1875l3.125 5.328125l-1.765625 0l-2.9375 -5.171875l-2.21875 0l0 5.171875l-1.5625 0zm1.5625 -6.4375l2.046875 0q1.4375 0 2.203125 -0.578125q0.765625 -0.59375 0.765625 -1.796875q0 -1.203125 -0.765625 -1.6875q-0.765625 -0.484375 -2.203125 -0.484375l-2.046875 0l0 4.546875zm12.643555 6.4375l0 -9.0625l1.265625 0l0.125 1.296875l0.0625 0q0.59375 -0.640625 1.296875 -1.078125q0.71875 -0.453125 1.515625 -0.453125q1.046875 0 1.625 0.46875q0.59375 0.453125 0.875 1.265625q0.71875 -0.765625 1.4375 -1.25q0.734375 -0.484375 1.546875 -0.484375q1.40625 0 2.078125 0.90625q0.6875 0.90625 0.6875 2.640625l0 5.75l-1.53125 0l0 -5.546875q0 -1.265625 -0.40625 -1.84375q-0.40625 -0.578125 -1.265625 -0.578125q-1.015625 0 -2.28125 1.40625l0 6.5625l-1.53125 0l0 -5.546875q0 -1.265625 -0.40625 -1.84375q-0.40625 -0.578125 -1.296875 -0.578125q-1.0 0 -2.265625 1.40625l0 6.5625l-1.53125 0zm19.137878 0.21875q-1.203125 0 -2.203125 -0.5625q-0.984375 -0.578125 -1.5625 -1.640625q-0.578125 -1.0625 -0.578125 -2.53125q0 -1.484375 0.578125 -2.546875q0.59375 -1.078125 1.53125 -1.65625q0.9375 -0.578125 1.953125 -0.578125q1.734375 0 2.671875 1.15625q0.953125 1.15625 0.953125 3.109375q0 0.234375 -0.015625 0.46875q0 0.234375 -0.046875 0.40625l-6.109375 0q0.09375 1.4375 0.890625 2.296875q0.8125 0.859375 2.125 0.859375q0.65625 0 1.203125 -0.203125q0.546875 -0.203125 1.0625 -0.515625l0.53125 1.015625q-0.578125 0.375 -1.3125 0.65625q-0.734375 0.265625 -1.671875 0.265625zm-2.859375 -5.484375l4.859375 0q0 -1.375 -0.59375 -2.09375q-0.578125 -0.71875 -1.640625 -0.71875q-0.953125 0 -1.71875 0.734375q-0.75 0.734375 -0.90625 2.078125zm8.44104 5.265625l0 -9.0625l1.265625 0l0.125 1.296875l0.0625 0q0.59375 -0.640625 1.296875 -1.078125q0.71875 -0.453125 1.515625 -0.453125q1.046875 0 1.625 0.46875q0.59375 0.453125 0.875 1.265625q0.71875 -0.765625 1.4375 -1.25q0.734375 -0.484375 1.546875 -0.484375q1.40625 0 2.078125 0.90625q0.6875 0.90625 0.6875 2.640625l0 5.75l-1.53125 0l0 -5.546875q0 -1.265625 -0.40625 -1.84375q-0.40625 -0.578125 -1.265625 -0.578125q-1.015625 0 -2.28125 1.40625l0 6.5625l-1.53125 0l0 -5.546875q0 -1.265625 -0.40625 -1.84375q-0.40625 -0.578125 -1.296875 -0.578125q-1.0 0 -2.265625 1.40625l0 6.5625l-1.53125 0zm18.997253 0.21875q-1.109375 0 -2.078125 -0.546875q-0.953125 -0.5625 -1.546875 -1.625q-0.578125 -1.0625 -0.578125 -2.5625q0 -1.53125 0.578125 -2.59375q0.59375 -1.0625 1.546875 -1.625q0.96875 -0.5625 2.078125 -0.5625q1.109375 0 2.0625 0.5625q0.953125 0.5625 1.53125 1.625q0.59375 1.0625 0.59375 2.59375q0 1.5 -0.59375 2.5625q-0.578125 1.0625 -1.53125 1.625q-0.953125 0.546875 -2.0625 0.546875zm0 -1.265625q1.171875 0 1.890625 -0.953125q0.71875 -0.96875 0.71875 -2.515625q0 -1.5625 -0.71875 -2.53125q-0.71875 -0.96875 -1.890625 -0.96875q-1.15625 0 -1.890625 0.96875q-0.734375 0.96875 -0.734375 2.53125q0 1.546875 0.734375 2.515625q0.734375 0.953125 1.890625 0.953125zm6.5804443 1.046875l0 -9.0625l1.265625 0l0.125 1.640625l0.0625 0q0.46875 -0.859375 1.140625 -1.359375q0.671875 -0.515625 1.4375 -0.515625q0.53125 0 0.96875 0.1875l-0.296875 1.34375q-0.234375 -0.0625 -0.421875 -0.09375q-0.171875 -0.046875 -0.453125 -0.046875q-0.578125 0 -1.203125 0.46875q-0.625 0.453125 -1.09375 1.609375l0 5.828125l-1.53125 0zm7.0810547 3.90625q-0.296875 0 -0.5625 -0.0625q-0.265625 -0.0625 -0.5 -0.125l0.3125 -1.21875q0.140625 0.03125 0.328125 0.078125q0.1875 0.046875 0.359375 0.046875q0.765625 0 1.265625 -0.546875q0.5 -0.546875 0.78125 -1.390625l0.203125 -0.671875l-3.640625 -9.078125l1.59375 0l1.84375 5.015625q0.203125 0.578125 0.4375 1.25q0.234375 0.671875 0.4375 1.296875l0.078125 0q0.203125 -0.609375 0.390625 -1.28125q0.1875 -0.671875 0.375 -1.265625l1.625 -5.015625l1.484375 0l-3.40625 9.8125q-0.328125 0.890625 -0.765625 1.59375q-0.4375 0.71875 -1.078125 1.140625q-0.640625 0.421875 -1.5625 0.421875z" fill-rule="nonzero"/><path fill="#000000" fill-opacity="0.0" d="m351.0 178.57742l0 0c0 -3.6181183 0.7826233 -6.551178 1.7480164 -6.551178l0 0c0.46362305 0 0.90823364 0.69021606 1.2360535 1.9187927c0.32781982 1.2285919 0.5119934 2.8949127 0.5119934 4.6323853l0 0c0 3.6181183 -0.7826233 6.551193 -1.7480469 6.551193l0 0c-0.46359253 0 -0.9082031 -0.69021606 -1.236023 -1.918808c-0.32781982 -1.2285767 -0.5119934 -2.8948975 -0.5119934 -4.6323853z" fill-rule="evenodd"/><path fill="#000000" fill-opacity="0.0" d="m27.307087 72.7979l181.73228 0l0 42.015755l-181.73228 0z" fill-rule="evenodd"/><path fill="#9e9e9e" d="m42.494587 99.936646q-1.515625 0 -2.703125 -0.78125q-1.1875 -0.78125 -1.859375 -2.21875q-0.65625 -1.4375 -0.65625 -3.390625q0 -1.96875 0.65625 -3.375q0.671875 -1.40625 1.859375 -2.15625q1.1875 -0.765625 2.703125 -0.765625q1.5625 0 2.734375 0.765625q1.171875 0.75 1.84375 2.15625q0.671875 1.40625 0.671875 3.375q0 1.953125 -0.671875 3.390625q-0.671875 1.4375 -1.84375 2.21875q-1.171875 0.78125 -2.734375 0.78125zm0 -1.359375q1.109375 0 1.921875 -0.625q0.8125 -0.625 1.25 -1.75q0.453125 -1.125 0.453125 -2.65625q0 -2.28125 -1.0 -3.59375q-0.984375 -1.328125 -2.625 -1.328125q-1.640625 0 -2.625 1.328125q-0.984375 1.3125 -0.984375 3.59375q0 1.53125 0.4375 2.65625q0.453125 1.125 1.265625 1.75q0.828125 0.625 1.90625 0.625zm7.7315063 1.140625l0 -9.0625l1.265625 0l0.125 1.296875l0.0625 0q0.65625 -0.640625 1.375 -1.078125q0.734375 -0.453125 1.671875 -0.453125q1.4375 0 2.09375 0.90625q0.65625 0.90625 0.65625 2.640625l0 5.75l-1.53125 0l0 -5.546875q0 -1.265625 -0.40625 -1.84375q-0.40625 -0.578125 -1.296875 -0.578125q-0.703125 0 -1.25 0.359375q-0.546875 0.359375 -1.234375 1.046875l0 6.5625l-1.53125 0zm17.029964 0.21875q-1.703125 0 -2.734375 -1.234375q-1.0156212 -1.234375 -1.0156212 -3.5q0 -1.46875 0.5468712 -2.546875q0.5625 -1.078125 1.453125 -1.65625q0.90625 -0.578125 1.9375 -0.578125q0.78125 0 1.359375 0.28125q0.578125 0.28125 1.171875 0.765625l-0.0625 -1.546875l0 -3.484375l1.546875 0l0 13.28125l-1.265625 0l-0.140625 -1.0625l-0.046875 0q-0.53125 0.515625 -1.25 0.90625q-0.703125 0.375 -1.5 0.375zm0.34375 -1.28125q1.1875 0 2.3125 -1.25l0 -4.734375q-0.578125 -0.53125 -1.109375 -0.734375q-0.53125 -0.21875 -1.09375 -0.21875q-0.734375 0 -1.328125 0.4375q-0.578125 0.4375 -0.9375 1.21875q-0.34375 0.765625 -0.34375 1.8125q0 1.625 0.640625 2.546875q0.65625 0.921875 1.859375 0.921875zm6.9167175 1.0625l0 -9.0625l1.53125 0l0 9.0625l-1.53125 0zm0.78125 -10.9375q-0.453125 0 -0.75 -0.265625q-0.28125 -0.265625 -0.28125 -0.734375q0 -0.453125 0.28125 -0.734375q0.296875 -0.28125 0.75 -0.28125q0.453125 0 0.734375 0.28125q0.296875 0.28125 0.296875 0.734375q0 0.46875 -0.296875 0.734375q-0.28125 0.265625 -0.734375 0.265625zm6.183182 11.15625q-0.984375 0 -1.859375 -0.359375q-0.875 -0.359375 -1.53125 -0.890625l0.765625 -1.015625q0.609375 0.46875 1.234375 0.78125q0.640625 0.296875 1.4375 0.296875q0.890625 0 1.34375 -0.421875q0.453125 -0.421875 0.453125 -1.0q0 -0.46875 -0.3125 -0.78125q-0.3125 -0.3125 -0.796875 -0.53125q-0.46875 -0.21875 -0.96875 -0.40625q-0.625 -0.234375 -1.25 -0.546875q-0.609375 -0.3125 -1.0 -0.796875q-0.390625 -0.5 -0.390625 -1.265625q0 -1.09375 0.828125 -1.828125q0.828125 -0.75 2.296875 -0.75q0.84375 0 1.5625 0.3125q0.734375 0.296875 1.265625 0.71875l-0.75 0.96875q-0.46875 -0.359375 -0.984375 -0.578125q-0.5 -0.21875 -1.09375 -0.21875q-0.859375 0 -1.265625 0.390625q-0.390625 0.390625 -0.390625 0.90625q0 0.4375 0.28125 0.703125q0.28125 0.265625 0.71875 0.46875q0.453125 0.203125 0.953125 0.40625q0.65625 0.234375 1.28125 0.546875q0.640625 0.3125 1.0625 0.828125q0.421875 0.5 0.421875 1.359375q0 0.734375 -0.390625 1.359375q-0.375 0.609375 -1.109375 0.984375q-0.734375 0.359375 -1.8125 0.359375zm5.441971 -0.21875l0 -13.28125l1.515625 0l0 8.984375l0.046875 0l3.859375 -4.765625l1.703125 0l-3.046875 3.640625l3.453125 5.421875l-1.671875 0l-2.65625 -4.359375l-1.6875 1.96875l0 2.390625l-1.515625 0z" fill-rule="nonzero"/><path fill="#000000" d="m127.144356 96.7874l106.173225 0l0 54.740158l-106.173225 0z" fill-rule="evenodd"/><path stroke="#000000" stroke-width="1.0" stroke-linejoin="round" stroke-linecap="butt" d="m127.144356 96.7874l106.173225 0l0 54.740158l-106.173225 0z" fill-rule="evenodd"/><path fill="#ffffff" d="m142.45686 131.29623q-1.53125 0 -2.734375 -0.75q-1.203125 -0.75 -1.90625 -2.171875q-0.703125 -1.4218826 -0.703125 -3.4218826q0 -1.96875 0.703125 -3.390625q0.71875 -1.421875 1.9375 -2.1875q1.234375 -0.765625 2.796875 -0.765625q1.109375 0 1.96875 0.46875q0.859375 0.453125 1.375 1.046875l-0.828125 1.015625q-0.484375 -0.53125 -1.109375 -0.84375q-0.609375 -0.3125 -1.390625 -0.3125q-1.15625 0 -2.03125 0.609375q-0.859375 0.59375 -1.34375 1.703125q-0.46875 1.09375 -0.46875 2.625q0 1.53125 0.453125 2.65625q0.46875 1.1250076 1.3125 1.7500076q0.859375 0.609375 2.015625 0.609375q0.875 0 1.5625 -0.375q0.703125 -0.375 1.28125 -1.0l0.859375 0.96875q-0.734375 0.84375 -1.65625 1.3125q-0.90625 0.453125 -2.09375 0.453125zm8.970352 0q-1.296875 0 -2.40625 -0.484375q-1.09375 -0.5 -1.890625 -1.3125l0.9375 -1.09375q0.65625 0.6875 1.53125 1.109375q0.890625 0.421875 1.84375 0.421875q1.21875 0 1.890625 -0.546875q0.671875 -0.546875 0.671875 -1.4531326q0 -0.625 -0.28125 -1.0q-0.265625 -0.375 -0.734375 -0.625q-0.453125 -0.265625 -1.03125 -0.53125l-1.75 -0.765625q-0.578125 -0.25 -1.15625 -0.640625q-0.5625 -0.390625 -0.953125 -1.0q-0.375 -0.625 -0.375 -1.515625q0 -0.9375 0.5 -1.671875q0.5 -0.734375 1.375 -1.15625q0.875 -0.421875 1.96875 -0.421875q1.109375 0 2.03125 0.421875q0.9375 0.421875 1.59375 1.09375l-0.84375 1.015625q-0.5625 -0.546875 -1.25 -0.84375q-0.671875 -0.3125 -1.53125 -0.3125q-1.015625 0 -1.640625 0.484375q-0.625 0.484375 -0.625 1.296875q0 0.578125 0.296875 0.96875q0.3125 0.375 0.78125 0.625q0.46875 0.234375 0.953125 0.4375l1.734375 0.75q0.703125 0.296875 1.265625 0.71875q0.578125 0.421875 0.90625 1.03125q0.34375 0.609375 0.34375 1.515625q0 0.9687576 -0.5 1.7656326q-0.5 0.796875 -1.4375 1.265625q-0.9375 0.453125 -2.21875 0.453125zm8.806183 -0.21875l-3.921875 -12.234383l1.65625 0l1.96875 6.59375q0.328125 1.09375 0.578125 2.03125q0.25 0.9375076 0.609375 2.0312576l0.078125 0q0.328125 -1.09375 0.59375 -2.0312576q0.265625 -0.9375 0.578125 -2.03125l1.953125 -6.59375l1.59375 0l-3.875 12.234383l-1.8125 0zm11.214218 0l0 -7.8125076l-1.234375 0l0 -1.15625l1.234375 -0.09375l0 -1.4375q0 -1.390625 0.640625 -2.1875q0.640625 -0.8125 2.0 -0.8125q0.4375 0 0.828125 0.078125q0.390625 0.078125 0.6875 0.21875l-0.34375 1.171875q-0.5 -0.21875 -1.015625 -0.21875q-1.265625 0 -1.265625 1.75l0 1.4375l1.921875 0l0 1.25l-1.921875 0l0 7.8125076l-1.53125 0zm5.182007 0l0 -9.062508l1.53125 0l0 9.062508l-1.53125 0zm0.78125 -10.937508q-0.453125 0 -0.75 -0.265625q-0.28125 -0.265625 -0.28125 -0.734375q0 -0.453125 0.28125 -0.734375q0.296875 -0.28125 0.75 -0.28125q0.453125 0 0.734375 0.28125q0.296875 0.28125 0.296875 0.734375q0 0.46875 -0.296875 0.734375q-0.28125 0.265625 -0.734375 0.265625zm5.433182 11.156258q-0.859375 0 -1.25 -0.53125q-0.375 -0.53125 -0.375 -1.515625l0 -11.453133l1.53125 0l0 11.562508q0 0.359375 0.125 0.515625q0.140625 0.15625 0.296875 0.15625q0.078125 0 0.140625 0q0.0625 -0.015625 0.203125 -0.03125l0.203125 1.15625q-0.15625 0.078125 -0.359375 0.109375q-0.203125 0.03125 -0.515625 0.03125zm6.8042145 0q-1.203125 0 -2.203125 -0.5625q-0.984375 -0.578125 -1.5625 -1.640625q-0.578125 -1.0625 -0.578125 -2.5312576q0 -1.484375 0.578125 -2.546875q0.59375 -1.078125 1.53125 -1.65625q0.9375 -0.578125 1.953125 -0.578125q1.734375 0 2.671875 1.15625q0.953125 1.15625 0.953125 3.109375q0 0.234375 -0.015625 0.46875q0 0.234375 -0.046875 0.40625l-6.109375 0q0.09375 1.4375076 0.890625 2.2968826q0.8125 0.859375 2.125 0.859375q0.65625 0 1.203125 -0.203125q0.546875 -0.203125 1.0625 -0.515625l0.53125 1.015625q-0.578125 0.375 -1.3125 0.65625q-0.734375 0.265625 -1.671875 0.265625zm-2.859375 -5.4843826l4.859375 0q0 -1.375 -0.59375 -2.09375q-0.578125 -0.71875 -1.640625 -0.71875q-0.953125 0 -1.71875 0.734375q-0.75 0.734375 -0.90625 2.078125z" fill-rule="nonzero"/><path fill="#000000" fill-opacity="0.0" d="m171.30708 376.7979l181.73228 0l0 42.015747l-181.73228 0z" fill-rule="evenodd"/><path fill="#9e9e9e" d="m184.08833 396.87415l-0.578125 1.859375l3.6875 0l-0.578125 -1.859375q-0.34375 -1.03125 -0.640625 -2.046875q-0.296875 -1.015625 -0.59375 -2.078125l-0.078125 0q-0.28125 1.0625 -0.578125 2.078125q-0.296875 1.015625 -0.640625 2.046875zm-3.71875 6.84375l4.140625 -12.234375l1.75 0l4.140625 12.234375l-1.65625 0l-1.15625 -3.734375l-4.46875 0l-1.171875 3.734375l-1.578125 0zm11.617752 0l0 -9.0625l1.265625 0l0.125 1.640625l0.0625 0q0.46875 -0.859375 1.140625 -1.359375q0.671875 -0.515625 1.4375 -0.515625q0.53125 0 0.96875 0.1875l-0.296875 1.34375q-0.234375 -0.0625 -0.421875 -0.09375q-0.171875 -0.046875 -0.453125 -0.046875q-0.578125 0 -1.203125 0.46875q-0.625 0.453125 -1.09375 1.609375l0 5.828125l-1.53125 0zm6.4737244 0l0 -9.0625l1.265625 0l0.125 1.640625l0.0625 0q0.46875 -0.859375 1.140625 -1.359375q0.671875 -0.515625 1.4375 -0.515625q0.53125 0 0.96875 0.1875l-0.296875 1.34375q-0.234375 -0.0625 -0.421875 -0.09375q-0.171875 -0.046875 -0.453125 -0.046875q-0.578125 0 -1.203125 0.46875q-0.625 0.453125 -1.09375 1.609375l0 5.828125l-1.53125 0zm9.818314 0.21875q-1.109375 0 -2.078125 -0.546875q-0.953125 -0.5625 -1.546875 -1.625q-0.578125 -1.0625 -0.578125 -2.5625q0 -1.53125 0.578125 -2.59375q0.59375 -1.0625 1.546875 -1.625q0.96875 -0.5625 2.078125 -0.5625q1.109375 0 2.0625 0.5625q0.953125 0.5625 1.53125 1.625q0.59375 1.0625 0.59375 2.59375q0 1.5 -0.59375 2.5625q-0.578125 1.0625 -1.53125 1.625q-0.953125 0.546875 -2.0625 0.546875zm0 -1.265625q1.171875 0 1.890625 -0.953125q0.71875 -0.96875 0.71875 -2.515625q0 -1.5625 -0.71875 -2.53125q-0.71875 -0.96875 -1.890625 -0.96875q-1.15625 0 -1.890625 0.96875q-0.734375 0.96875 -0.734375 2.53125q0 1.546875 0.734375 2.515625q0.734375 0.953125 1.890625 0.953125zm7.943283 1.046875l-2.515625 -9.0625l1.5625 0l1.34375 5.234375q0.140625 0.640625 0.265625 1.265625q0.140625 0.625 0.28125 1.25l0.0625 0q0.15625 -0.625 0.296875 -1.25q0.15625 -0.625 0.328125 -1.265625l1.390625 -5.234375l1.5 0l1.421875 5.234375q0.15625 0.640625 0.3125 1.265625q0.171875 0.625 0.3125 1.25l0.078125 0q0.140625 -0.625 0.28125 -1.25q0.140625 -0.625 0.28125 -1.265625l1.328125 -5.234375l1.453125 0l-2.4375 9.0625l-1.859375 0l-1.3125 -4.875q-0.15625 -0.640625 -0.296875 -1.28125q-0.140625 -0.640625 -0.3125 -1.328125l-0.078125 0q-0.140625 0.6875 -0.296875 1.34375q-0.140625 0.640625 -0.328125 1.296875l-1.28125 4.84375l-1.78125 0zm15.688934 0l0 -9.0625l1.265625 0l0.125 1.296875l0.0625 0q0.59375 -0.640625 1.296875 -1.078125q0.71875 -0.453125 1.515625 -0.453125q1.046875 0 1.625 0.46875q0.59375 0.453125 0.875 1.265625q0.71875 -0.765625 1.4375 -1.25q0.734375 -0.484375 1.546875 -0.484375q1.40625 0 2.078125 0.90625q0.6875 0.90625 0.6875 2.640625l0 5.75l-1.53125 0l0 -5.546875q0 -1.265625 -0.40625 -1.84375q-0.40625 -0.578125 -1.265625 -0.578125q-1.015625 0 -2.28125 1.40625l0 6.5625l-1.53125 0l0 -5.546875q0 -1.265625 -0.40625 -1.84375q-0.40625 -0.578125 -1.296875 -0.578125q-1.0 0 -2.265625 1.40625l0 6.5625l-1.53125 0zm19.137909 0.21875q-1.203125 0 -2.203125 -0.5625q-0.984375 -0.578125 -1.5625 -1.640625q-0.578125 -1.0625 -0.578125 -2.53125q0 -1.484375 0.578125 -2.546875q0.59375 -1.078125 1.53125 -1.65625q0.9375 -0.578125 1.953125 -0.578125q1.734375 0 2.671875 1.15625q0.953125 1.15625 0.953125 3.109375q0 0.234375 -0.015625 0.46875q0 0.234375 -0.046875 0.40625l-6.109375 0q0.09375 1.4375 0.890625 2.296875q0.8125 0.859375 2.125 0.859375q0.65625 0 1.203125 -0.203125q0.546875 -0.203125 1.0625 -0.515625l0.53125 1.015625q-0.578125 0.375 -1.3125 0.65625q-0.734375 0.265625 -1.671875 0.265625zm-2.859375 -5.484375l4.859375 0q0 -1.375 -0.59375 -2.09375q-0.578125 -0.71875 -1.640625 -0.71875q-0.953125 0 -1.71875 0.734375q-0.75 0.734375 -0.90625 2.078125zm8.4410095 5.265625l0 -9.0625l1.265625 0l0.125 1.296875l0.0625 0q0.59375 -0.640625 1.296875 -1.078125q0.71875 -0.453125 1.515625 -0.453125q1.046875 0 1.625 0.46875q0.59375 0.453125 0.875 1.265625q0.71875 -0.765625 1.4375 -1.25q0.734375 -0.484375 1.546875 -0.484375q1.40625 0 2.078125 0.90625q0.6875 0.90625 0.6875 2.640625l0 5.75l-1.53125 0l0 -5.546875q0 -1.265625 -0.40625 -1.84375q-0.40625 -0.578125 -1.265625 -0.578125q-1.015625 0 -2.28125 1.40625l0 6.5625l-1.53125 0l0 -5.546875q0 -1.265625 -0.40625 -1.84375q-0.40625 -0.578125 -1.296875 -0.578125q-1.0 0 -2.265625 1.40625l0 6.5625l-1.53125 0zm18.997284 0.21875q-1.109375 0 -2.078125 -0.546875q-0.953125 -0.5625 -1.546875 -1.625q-0.578125 -1.0625 -0.578125 -2.5625q0 -1.53125 0.578125 -2.59375q0.59375 -1.0625 1.546875 -1.625q0.96875 -0.5625 2.078125 -0.5625q1.109375 0 2.0625 0.5625q0.953125 0.5625 1.53125 1.625q0.59375 1.0625 0.59375 2.59375q0 1.5 -0.59375 2.5625q-0.578125 1.0625 -1.53125 1.625q-0.953125 0.546875 -2.0625 0.546875zm0 -1.265625q1.171875 0 1.890625 -0.953125q0.71875 -0.96875 0.71875 -2.515625q0 -1.5625 -0.71875 -2.53125q-0.71875 -0.96875 -1.890625 -0.96875q-1.15625 0 -1.890625 0.96875q-0.734375 0.96875 -0.734375 2.53125q0 1.546875 0.734375 2.515625q0.734375 0.953125 1.890625 0.953125zm6.5804443 1.046875l0 -9.0625l1.265625 0l0.125 1.640625l0.0625 0q0.46875 -0.859375 1.140625 -1.359375q0.671875 -0.515625 1.4375 -0.515625q0.53125 0 0.96875 0.1875l-0.296875 1.34375q-0.234375 -0.0625 -0.421875 -0.09375q-0.171875 -0.046875 -0.453125 -0.046875q-0.578125 0 -1.203125 0.46875q-0.625 0.453125 -1.09375 1.609375l0 5.828125l-1.53125 0zm7.081024 3.90625q-0.296875 0 -0.5625 -0.0625q-0.265625 -0.0625 -0.5 -0.125l0.3125 -1.21875q0.140625 0.03125 0.328125 0.078125q0.1875 0.046875 0.359375 0.046875q0.765625 0 1.265625 -0.546875q0.5 -0.546875 0.78125 -1.390625l0.203125 -0.671875l-3.640625 -9.078125l1.59375 0l1.84375 5.015625q0.203125 0.578125 0.4375 1.25q0.234375 0.671875 0.4375 1.296875l0.078125 0q0.203125 -0.609375 0.390625 -1.28125q0.1875 -0.671875 0.375 -1.265625l1.625 -5.015625l1.484375 0l-3.40625 9.8125q-0.328125 0.890625 -0.765625 1.59375q-0.4375 0.71875 -1.078125 1.140625q-0.640625 0.421875 -1.5625 0.421875z" fill-rule="nonzero"/><path fill="#000000" d="m743.14435 240.7874l106.17322 0l0 54.740158l-106.17322 0z" fill-rule="evenodd"/><path stroke="#000000" stroke-width="1.0" stroke-linejoin="round" stroke-linecap="butt" d="m743.14435 240.7874l106.17322 0l0 54.740158l-106.17322 0z" fill-rule="evenodd"/><path fill="#ffffff" d="m753.8162 275.07748l0 -12.234375l3.0625 0q2.84375 0 4.3125 1.578125q1.46875 1.578125 1.46875 4.484375q0 2.921875 -1.46875 4.546875q-1.453125 1.625 -4.234375 1.625l-3.140625 0zm1.5625 -1.265625l1.390625 0q2.140625 0 3.21875 -1.296875q1.078125 -1.296875 1.078125 -3.609375q0 -2.3125 -1.078125 -3.546875q-1.078125 -1.25 -3.21875 -1.25l-1.390625 0l0 9.703125zm11.864258 1.484375q-1.140625 0 -1.90625 -0.671875q-0.75 -0.6875 -0.75 -1.890625q0 -1.5 1.328125 -2.28125q1.34375 -0.796875 4.234375 -1.125q0 -0.578125 -0.15625 -1.09375q-0.15625 -0.53125 -0.5625 -0.84375q-0.40625 -0.328125 -1.140625 -0.328125q-0.796875 0 -1.484375 0.296875q-0.6875 0.296875 -1.234375 0.671875l-0.59375 -1.0625q0.640625 -0.421875 1.5625 -0.796875q0.921875 -0.390625 2.0 -0.390625q1.65625 0 2.40625 1.03125q0.75 1.015625 0.75 2.703125l0 5.5625l-1.265625 0l-0.140625 -1.078125l-0.046875 0q-0.640625 0.515625 -1.390625 0.90625q-0.75 0.390625 -1.609375 0.390625zm0.4375 -1.21875q0.65625 0 1.234375 -0.3125q0.578125 -0.328125 1.234375 -0.90625l0 -2.515625q-2.265625 0.28125 -3.171875 0.84375q-0.890625 0.546875 -0.890625 1.421875q0 0.765625 0.453125 1.125q0.46875 0.34375 1.140625 0.34375zm9.469543 1.21875q-1.46875 0 -2.03125 -0.828125q-0.5625 -0.84375 -0.5625 -2.1875l0 -5.015625l-1.34375 0l0 -1.15625l1.40625 -0.09375l0.1875 -2.546875l1.296875 0l0 2.546875l2.4375 0l0 1.25l-2.4375 0l0 5.03125q0 0.84375 0.296875 1.296875q0.3125 0.453125 1.09375 0.453125q0.25 0 0.53125 -0.078125q0.28125 -0.078125 0.5 -0.15625l0.296875 1.15625q-0.375 0.125 -0.8125 0.21875q-0.4375 0.109375 -0.859375 0.109375zm5.1481934 0q-1.140625 0 -1.90625 -0.671875q-0.75 -0.6875 -0.75 -1.890625q0 -1.5 1.328125 -2.28125q1.34375 -0.796875 4.234375 -1.125q0 -0.578125 -0.15625 -1.09375q-0.15625 -0.53125 -0.5625 -0.84375q-0.40625 -0.328125 -1.140625 -0.328125q-0.796875 0 -1.484375 0.296875q-0.6875 0.296875 -1.234375 0.671875l-0.59375 -1.0625q0.640625 -0.421875 1.5625 -0.796875q0.921875 -0.390625 2.0 -0.390625q1.65625 0 2.40625 1.03125q0.75 1.015625 0.75 2.703125l0 5.5625l-1.265625 0l-0.140625 -1.078125l-0.046875 0q-0.640625 0.515625 -1.390625 0.90625q-0.75 0.390625 -1.609375 0.390625zm0.4375 -1.21875q0.65625 0 1.234375 -0.3125q0.578125 -0.328125 1.234375 -0.90625l0 -2.515625q-2.265625 0.28125 -3.171875 0.84375q-0.890625 0.546875 -0.890625 1.421875q0 0.765625 0.453125 1.125q0.46875 0.34375 1.140625 0.34375zm10.868347 1.0l0 -7.8125l-1.234375 0l0 -1.15625l1.234375 -0.09375l0 -1.4375q0 -1.390625 0.640625 -2.1875q0.640625 -0.8125 2.0 -0.8125q0.4375 0 0.828125 0.078125q0.390625 0.078125 0.6875 0.21875l-0.34375 1.171875q-0.5 -0.21875 -1.015625 -0.21875q-1.265625 0 -1.265625 1.75l0 1.4375l1.921875 0l0 1.25l-1.921875 0l0 7.8125l-1.53125 0zm5.182007 0l0 -9.0625l1.265625 0l0.125 1.640625l0.0625 0q0.46875 -0.859375 1.140625 -1.359375q0.671875 -0.515625 1.4375 -0.515625q0.53125 0 0.96875 0.1875l-0.296875 1.34375q-0.234375 -0.0625 -0.421875 -0.09375q-0.171875 -0.046875 -0.453125 -0.046875q-0.578125 0 -1.203125 0.46875q-0.625 0.453125 -1.09375 1.609375l0 5.828125l-1.53125 0zm8.119507 0.21875q-1.140625 0 -1.90625 -0.671875q-0.75 -0.6875 -0.75 -1.890625q0 -1.5 1.328125 -2.28125q1.34375 -0.796875 4.234375 -1.125q0 -0.578125 -0.15625 -1.09375q-0.15625 -0.53125 -0.5625 -0.84375q-0.40625 -0.328125 -1.140625 -0.328125q-0.796875 0 -1.484375 0.296875q-0.6875 0.296875 -1.234375 0.671875l-0.59375 -1.0625q0.640625 -0.421875 1.5625 -0.796875q0.921875 -0.390625 2.0 -0.390625q1.65625 0 2.40625 1.03125q0.75 1.015625 0.75 2.703125l0 5.5625l-1.265625 0l-0.140625 -1.078125l-0.046875 0q-0.640625 0.515625 -1.390625 0.90625q-0.75 0.390625 -1.609375 0.390625zm0.4375 -1.21875q0.65625 0 1.234375 -0.3125q0.578125 -0.328125 1.234375 -0.90625l0 -2.515625q-2.265625 0.28125 -3.171875 0.84375q-0.890625 0.546875 -0.890625 1.421875q0 0.765625 0.453125 1.125q0.46875 0.34375 1.140625 0.34375zm6.87146 1.0l0 -9.0625l1.265625 0l0.125 1.296875l0.0625 0q0.59375 -0.640625 1.296875 -1.078125q0.71875 -0.453125 1.515625 -0.453125q1.046875 0 1.625 0.46875q0.59375 0.453125 0.875 1.265625q0.71875 -0.765625 1.4375 -1.25q0.734375 -0.484375 1.546875 -0.484375q1.40625 0 2.078125 0.90625q0.6875 0.90625 0.6875 2.640625l0 5.75l-1.53125 0l0 -5.546875q0 -1.265625 -0.40625 -1.84375q-0.40625 -0.578125 -1.265625 -0.578125q-1.015625 0 -2.28125 1.40625l0 6.5625l-1.53125 0l0 -5.546875q0 -1.265625 -0.40625 -1.84375q-0.40625 -0.578125 -1.296875 -0.578125q-1.0 0 -2.265625 1.40625l0 6.5625l-1.53125 0zm19.13794 0.21875q-1.203125 0 -2.203125 -0.5625q-0.984375 -0.578125 -1.5625 -1.640625q-0.578125 -1.0625 -0.578125 -2.53125q0 -1.484375 0.578125 -2.546875q0.59375 -1.078125 1.53125 -1.65625q0.9375 -0.578125 1.953125 -0.578125q1.734375 0 2.671875 1.15625q0.953125 1.15625 0.953125 3.109375q0 0.234375 -0.015625 0.46875q0 0.234375 -0.046875 0.40625l-6.109375 0q0.09375 1.4375 0.890625 2.296875q0.8125 0.859375 2.125 0.859375q0.65625 0 1.203125 -0.203125q0.546875 -0.203125 1.0625 -0.515625l0.53125 1.015625q-0.578125 0.375 -1.3125 0.65625q-0.734375 0.265625 -1.671875 0.265625zm-2.859375 -5.484375l4.859375 0q0 -1.375 -0.59375 -2.09375q-0.578125 -0.71875 -1.640625 -0.71875q-0.953125 0 -1.71875 0.734375q-0.75 0.734375 -0.90625 2.078125z" fill-rule="nonzero"/><path fill="#000000" fill-opacity="0.0" d="m233.31758 124.15748c21.609756 0 32.416367 76.34646 43.21953 152.69293c10.803131 76.346436 21.602844 152.6929 43.205658 152.6929" fill-rule="evenodd"/><path stroke="#0000ff" stroke-width="2.0" stroke-linejoin="round" stroke-linecap="butt" d="m240.32716 127.042336l0.15991211 0.13765717c0.15020752 0.13160706 0.29981995 0.26731873 0.4488678 0.40711212c2.3847198 2.2367172 4.6217194 5.5172195 6.7321167 9.692421c4.2207794 8.350403 7.9351196 20.279526 11.311768 34.594482c6.7532654 28.629929 12.155701 66.80316 17.557251 104.976395c5.401581 38.173218 10.802307 76.346436 17.552979 104.97638c3.3753357 14.314941 7.0881653 26.24408 11.307343 34.594482c1.054779 2.0875854 2.1412354 3.9515076 3.2619324 5.5731506c0.2802124 0.4053955 0.5625 0.7956543 0.8470154 1.1705017l0.039733887 0.05166626" fill-rule="evenodd"/><path fill="#0000ff" stroke="#0000ff" stroke-width="2.0" stroke-linecap="butt" d="m234.24232 124.53807c0.6915436 -1.6802826 2.614273 -2.4818115 4.2945557 -1.7902832c1.6802673 0.69153595 2.4818115 2.614273 1.790268 4.294548c-0.6915283 1.680275 -2.6142578 2.481804 -4.2945404 1.7902756c-1.6802826 -0.6915283 -2.4818115 -2.6142654 -1.7902832 -4.2945404z" fill-rule="nonzero"/><path fill="#0000ff" stroke="#0000ff" stroke-width="2.0" stroke-linecap="butt" d="m307.8044 426.02362l9.453949 1.9781799l-5.9706116 -7.5922546z" fill-rule="evenodd"/><path fill="#000000" fill-opacity="0.0" d="m425.92914 429.54855c23.7948 0 35.691956 0.01574707 47.5896 0.03149414c11.897644 0.01574707 23.795746 0.03149414 47.59149 0.03149414" fill-rule="evenodd"/><path stroke="#9900ff" stroke-width="2.0" stroke-linejoin="round" stroke-linecap="butt" d="m433.50916 429.54987l8.221161 0.0014038086c4.6474304 0.0017089844 8.737122 0.004180908 12.455048 0.0071411133c7.435852 0.0058898926 13.384552 0.013763428 19.333374 0.021636963c5.948822 0.007873535 11.897766 0.01574707 19.333954 0.02166748c3.7180786 0.0029296875 7.808014 0.0054016113 12.455627 0.0071411133l3.8019104 6.4086914E-4" fill-rule="evenodd"/><path fill="#9900ff" stroke="#9900ff" stroke-width="2.0" stroke-linecap="butt" d="m426.92914 429.54874c3.0517578E-4 -1.8170166 1.4735413 -3.2897644 3.2905579 -3.2894592c1.8170166 3.3569336E-4 3.289734 1.4735718 3.2894287 3.2905884c-3.0517578E-4 1.8170166 -1.4735413 3.289734 -3.2905579 3.2894287c-1.8170166 -3.0517578E-4 -3.289734 -1.4735413 -3.2894287 -3.2905579z" fill-rule="nonzero"/><path fill="#9900ff" stroke="#9900ff" stroke-width="2.0" stroke-linecap="butt" d="m509.10968 432.91296l9.076721 -3.3019104l-9.075592 -3.3050232z" fill-rule="evenodd"/><path fill="#000000" fill-opacity="0.0" d="m627.28217 429.54855c28.965576 0 43.44696 -40.346466 57.931213 -80.6929c14.484253 -40.346466 28.971375 -80.69293 57.94281 -80.69293" fill-rule="evenodd"/><path stroke="#ff00ff" stroke-width="2.0" stroke-linejoin="round" stroke-linecap="butt" d="m634.8007 428.58548l0.25805664 -0.06750488c0.8242798 -0.22531128 1.6357422 -0.48635864 2.4348145 -0.78182983c3.19635 -1.1820374 6.194702 -2.91568 9.023376 -5.1221313c5.6571655 -4.412903 10.635498 -10.717041 15.161316 -18.281982c9.051514 -15.129944 16.292969 -35.30316 23.535095 -55.47638c7.2420654 -20.173248 14.484924 -40.346466 23.538696 -55.47638c4.5268555 -7.564972 9.50647 -13.86911 15.1651 -18.281982c1.4146118 -1.103241 2.871704 -2.0882568 4.374756 -2.945221c0.7515259 -0.4284668 1.5145874 -0.8249817 2.2894897 -1.1881714c0.19378662 -0.09082031 0.38824463 -0.17956543 0.5834961 -0.26617432l0.24017334 -0.10357666" fill-rule="evenodd"/><path fill="#ff00ff" stroke="#ff00ff" stroke-width="2.0" stroke-linecap="butt" d="m628.27405 429.4215c-0.230896 -1.8023071 1.0430298 -3.4505005 2.845337 -3.681366c1.8022461 -0.23086548 3.4504395 1.0430298 3.6813354 2.8453064c0.23083496 1.8022766 -1.0430298 3.4505005 -2.845337 3.681366c-1.8022461 0.23086548 -3.4504395 -1.0430298 -3.6813354 -2.8453064z" fill-rule="nonzero"/><path fill="#ff00ff" stroke="#ff00ff" stroke-width="2.0" stroke-linecap="butt" d="m732.0744 273.82907l8.218628 -5.0739136l-9.557312 -1.3959656z" fill-rule="evenodd"/><path fill="#000000" fill-opacity="0.0" d="m277.99475 185.12862l300.4724 0l0 42.015747l-300.4724 0z" fill-rule="evenodd"/><path fill="#0000ff" d="m295.901 209.90799q0 0.578125 0.1875 0.859375q0.203125 0.265625 0.609375 0.390625l-0.375 1.109375q-0.640625 -0.09375 -1.109375 -0.40625q-0.46875 -0.328125 -0.6875 -0.984375q-0.53125 0.6875 -1.328125 1.046875q-0.796875 0.34375 -1.75 0.34375q-1.484375 0 -2.328125 -0.828125q-0.84375 -0.84375 -0.84375 -2.203125q0 -1.53125 1.171875 -2.328125q1.1875 -0.8125 3.4375 -0.8125l1.4375 0l0 -0.828125q0 -1.0625 -0.625 -1.5q-0.609375 -0.453125 -1.71875 -0.453125q-0.484375 0 -1.140625 0.125q-0.640625 0.109375 -1.40625 0.375l-0.40625 -1.171875q0.890625 -0.34375 1.6875 -0.484375q0.796875 -0.140625 1.515625 -0.140625q1.84375 0 2.75 0.859375q0.921875 0.84375 0.921875 2.3125l0 4.71875zm-4.0625 1.15625q0.734375 0 1.390625 -0.359375q0.671875 -0.375 1.09375 -1.03125l0 -2.515625l-1.421875 0q-1.609375 0 -2.28125 0.5625q-0.671875 0.546875 -0.671875 1.5q0 0.90625 0.46875 1.375q0.484375 0.46875 1.421875 0.46875zm8.318756 0.984375l0 -1.203125l1.53125 0l0 -7.421875l-1.53125 0l0 -1.203125l2.71875 0l0.296875 2.328125q0.5625 -1.21875 1.375 -1.875q0.8125 -0.65625 2.140625 -0.65625q0.421875 0 0.734375 0.0625q0.328125 0.046875 0.65625 0.140625l-0.453125 1.40625q-0.3125 -0.078125 -0.5625 -0.125q-0.25 -0.046875 -0.578125 -0.046875q-1.125 0 -1.9375 0.8125q-0.8125 0.796875 -1.296875 2.421875l0 4.15625l2.0 0l0 1.203125l-5.09375 0zm6.421875 -6.5l0 -2.140625l0.15625 -1.1875l1.34375 0l-0.21875 3.328125l-1.28125 0zm4.771881 6.5l0 -1.203125l1.53125 0l0 -7.421875l-1.53125 0l0 -1.203125l2.71875 0l0.296875 2.328125q0.5625 -1.21875 1.375 -1.875q0.8125 -0.65625 2.140625 -0.65625q0.421875 0 0.734375 0.0625q0.328125 0.046875 0.65625 0.140625l-0.453125 1.40625q-0.3125 -0.078125 -0.5625 -0.125q-0.25 -0.046875 -0.578125 -0.046875q-1.125 0 -1.9375 0.8125q-0.8125 0.796875 -1.296875 2.421875l0 4.15625l2.0 0l0 1.203125l-5.09375 0zm6.421875 -6.5l0 -2.140625l0.15625 -1.1875l1.34375 0l-0.21875 3.328125l-1.28125 0zm8.412506 -3.53125q1.390625 0 2.328125 0.640625q0.9375 0.625 1.40625 1.78125q0.484375 1.140625 0.484375 2.6875q0 1.5 -0.484375 2.671875q-0.484375 1.15625 -1.421875 1.8125q-0.9375 0.65625 -2.328125 0.65625q-1.375 0 -2.328125 -0.625q-0.9375 -0.640625 -1.421875 -1.796875q-0.46875 -1.15625 -0.46875 -2.6875q0 -1.53125 0.484375 -2.6875q0.484375 -1.15625 1.421875 -1.796875q0.953125 -0.65625 2.328125 -0.65625zm0 1.28125q-1.265625 0 -1.921875 0.9375q-0.640625 0.9375 -0.640625 2.921875q0 1.9375 0.640625 2.875q0.640625 0.9375 1.90625 0.9375q1.265625 0 1.90625 -0.9375q0.640625 -0.9375 0.640625 -2.90625q0 -1.953125 -0.640625 -2.890625q-0.625 -0.9375 -1.890625 -0.9375zm14.740631 8.75l-2.21875 0l-1.28125 -7.203125l-1.375 7.203125l-2.15625 0l-1.796875 -9.828125l1.609375 0l1.25 8.859375l1.5625 -7.609375l1.859375 0l1.484375 7.609375l1.25 -8.859375l1.53125 0l-1.71875 9.828125zm15.450012 -1.3125q0 -0.59375 0.421875 -1.046875q0.4375 -0.453125 1.078125 -0.453125q0.65625 0 1.078125 0.453125q0.4375 0.453125 0.4375 1.046875q0 0.640625 -0.4375 1.09375q-0.421875 0.4375 -1.078125 0.4375q-0.640625 0 -1.078125 -0.4375q-0.421875 -0.453125 -0.421875 -1.09375zm0 -6.71875q0 -0.421875 0.1875 -0.75q0.203125 -0.34375 0.546875 -0.546875q0.34375 -0.203125 0.765625 -0.203125q0.65625 0 1.078125 0.4375q0.4375 0.4375 0.4375 1.0625q0 0.609375 -0.4375 1.0625q-0.421875 0.453125 -1.078125 0.453125q-0.640625 0 -1.078125 -0.453125q-0.421875 -0.453125 -0.421875 -1.0625zm-7.46875 6.71875q0 -0.59375 0.4375 -1.046875q0.421875 -0.453125 1.0625 -0.453125q0.65625 0 1.09375 0.453125q0.421875 0.453125 0.421875 1.046875q0 0.640625 -0.421875 1.09375q-0.4375 0.4375 -1.09375 0.4375q-0.640625 0 -1.0625 -0.4375q-0.4375 -0.453125 -0.4375 -1.09375zm0 -6.71875q0 -0.421875 0.203125 -0.75q0.1875 -0.34375 0.53125 -0.546875q0.34375 -0.203125 0.765625 -0.203125q0.65625 0 1.09375 0.4375q0.421875 0.4375 0.421875 1.0625q0 0.609375 -0.421875 1.0625q-0.4375 0.453125 -1.09375 0.453125q-0.640625 0 -1.0625 -0.453125q-0.4375 -0.453125 -0.4375 -1.0625zm18.412506 8.03125l0 -1.203125l1.53125 0l0 -7.421875l-1.53125 0l0 -1.203125l2.71875 0l0.296875 2.328125q0.5625 -1.21875 1.375 -1.875q0.8125 -0.65625 2.140625 -0.65625q0.421875 0 0.734375 0.0625q0.328125 0.046875 0.65625 0.140625l-0.453125 1.40625q-0.3125 -0.078125 -0.5625 -0.125q-0.25 -0.046875 -0.578125 -0.046875q-1.125 0 -1.9375 0.8125q-0.8125 0.796875 -1.296875 2.421875l0 4.15625l2.0 0l0 1.203125l-5.09375 0zm6.421875 -6.5l0 -2.140625l0.15625 -1.1875l1.34375 0l-0.21875 3.328125l-1.28125 0zm5.912506 2.140625q0.046875 1.140625 0.4375 1.875q0.390625 0.71875 1.03125 1.0625q0.640625 0.328125 1.40625 0.328125q0.75 0 1.359375 -0.21875q0.609375 -0.234375 1.25 -0.671875l0.75 1.046875q-0.703125 0.53125 -1.578125 0.84375q-0.875 0.3125 -1.8125 0.3125q-1.421875 0 -2.4375 -0.640625q-1.0 -0.65625 -1.53125 -1.796875q-0.515625 -1.15625 -0.515625 -2.671875q0 -1.5 0.53125 -2.65625q0.53125 -1.15625 1.484375 -1.8125q0.96875 -0.671875 2.265625 -0.671875q1.25 0 2.140625 0.59375q0.890625 0.578125 1.375 1.65625q0.484375 1.078125 0.484375 2.5625q0 0.25 -0.015625 0.46875q0 0.21875 -0.03125 0.390625l-6.59375 0zm2.671875 -4.375q-1.09375 0 -1.828125 0.78125q-0.734375 0.765625 -0.84375 2.390625l5.125 0q-0.03125 -1.578125 -0.6875 -2.375q-0.65625 -0.796875 -1.765625 -0.796875zm14.318756 6.59375q0 0.578125 0.1875 0.859375q0.203125 0.265625 0.609375 0.390625l-0.375 1.109375q-0.640625 -0.09375 -1.109375 -0.40625q-0.46875 -0.328125 -0.6875 -0.984375q-0.53125 0.6875 -1.328125 1.046875q-0.796875 0.34375 -1.75 0.34375q-1.484375 0 -2.328125 -0.828125q-0.84375 -0.84375 -0.84375 -2.203125q0 -1.53125 1.171875 -2.328125q1.1875 -0.8125 3.4375 -0.8125l1.4375 0l0 -0.828125q0 -1.0625 -0.625 -1.5q-0.609375 -0.453125 -1.71875 -0.453125q-0.484375 0 -1.140625 0.125q-0.640625 0.109375 -1.40625 0.375l-0.40625 -1.171875q0.890625 -0.34375 1.6875 -0.484375q0.796875 -0.140625 1.515625 -0.140625q1.84375 0 2.75 0.859375q0.921875 0.84375 0.921875 2.3125l0 4.71875zm-4.0625 1.15625q0.734375 0 1.390625 -0.359375q0.671875 -0.375 1.09375 -1.03125l0 -2.515625l-1.421875 0q-1.609375 0 -2.28125 0.5625q-0.671875 0.546875 -0.671875 1.5q0 0.90625 0.46875 1.375q0.484375 0.46875 1.421875 0.46875zm14.100006 -12.984375l1.5625 0.1875l0 13.78125l-1.359375 0l-0.15625 -1.296875q-0.546875 0.78125 -1.265625 1.15625q-0.703125 0.359375 -1.515625 0.359375q-1.28125 0 -2.109375 -0.640625q-0.828125 -0.65625 -1.234375 -1.796875q-0.40625 -1.15625 -0.40625 -2.671875q0 -1.484375 0.453125 -2.640625q0.46875 -1.15625 1.328125 -1.828125q0.859375 -0.671875 2.078125 -0.671875q0.84375 0 1.484375 0.296875q0.640625 0.296875 1.140625 0.859375l0 -5.09375zm-2.21875 5.203125q-1.234375 0 -1.90625 0.96875q-0.65625 0.953125 -0.65625 2.90625q0 1.265625 0.265625 2.125q0.28125 0.859375 0.8125 1.296875q0.53125 0.421875 1.28125 0.421875q0.84375 0 1.4375 -0.46875q0.59375 -0.484375 0.984375 -1.09375l0 -4.90625q-0.40625 -0.59375 -0.96875 -0.921875q-0.5625 -0.328125 -1.25 -0.328125zm6.600006 12.15625l0 -1.375l9.328125 0l0 1.375l-9.328125 0zm16.568756 -4.53125q0.734375 0 1.375 -0.234375q0.640625 -0.25 1.1875 -0.625l0.765625 1.03125q-0.640625 0.546875 -1.546875 0.875q-0.90625 0.3125 -1.78125 0.3125q-1.46875 0 -2.5 -0.625q-1.015625 -0.640625 -1.5625 -1.78125q-0.546875 -1.140625 -0.546875 -2.6875q0 -1.46875 0.546875 -2.640625q0.546875 -1.171875 1.578125 -1.84375q1.03125 -0.671875 2.5 -0.671875q0.953125 0 1.765625 0.296875q0.828125 0.28125 1.53125 0.84375l-0.765625 1.046875q-0.625 -0.4375 -1.265625 -0.65625q-0.625 -0.21875 -1.28125 -0.21875q-1.265625 0 -2.09375 0.953125q-0.8125 0.953125 -0.8125 2.890625q0 1.3125 0.375 2.140625q0.375 0.828125 1.03125 1.21875q0.65625 0.375 1.5 0.375zm10.100006 0.0625q1.125 0 1.78125 -0.421875q0.65625 -0.4375 0.65625 -1.140625q0 -0.453125 -0.171875 -0.765625q-0.15625 -0.328125 -0.65625 -0.59375q-0.5 -0.265625 -1.546875 -0.53125q-1.015625 -0.25 -1.765625 -0.578125q-0.75 -0.328125 -1.171875 -0.859375q-0.40625 -0.53125 -0.40625 -1.375q0 -0.84375 0.46875 -1.4375q0.46875 -0.609375 1.296875 -0.921875q0.84375 -0.328125 1.953125 -0.328125q1.1875 0 2.0625 0.3125q0.890625 0.3125 1.5 0.765625l-0.6875 1.078125q-0.5625 -0.390625 -1.234375 -0.640625q-0.671875 -0.25 -1.609375 -0.25q-1.15625 0 -1.65625 0.359375q-0.484375 0.359375 -0.484375 0.9375q0 0.421875 0.234375 0.71875q0.25 0.28125 0.8125 0.515625q0.578125 0.21875 1.578125 0.484375q0.953125 0.25 1.65625 0.609375q0.71875 0.359375 1.125 0.9375q0.40625 0.578125 0.40625 1.484375q0 1.046875 -0.609375 1.703125q-0.59375 0.640625 -1.546875 0.9375q-0.9375 0.296875 -1.984375 0.296875q-1.34375 0 -2.28125 -0.390625q-0.9375 -0.390625 -1.5625 -0.9375l0.890625 -1.03125q0.578125 0.46875 1.328125 0.765625q0.75 0.296875 1.625 0.296875zm16.037506 -8.75l-3.5625 9.828125l-1.828125 0l-3.546875 -9.828125l1.671875 0l2.84375 8.40625l2.796875 -8.40625l1.625 0zm2.068756 13.21875l0 -1.375l9.328125 0l0 1.375l-9.328125 0zm19.162506 -5.53125q0 0.578125 0.1875 0.859375q0.203125 0.265625 0.609375 0.390625l-0.375 1.109375q-0.640625 -0.09375 -1.109375 -0.40625q-0.46875 -0.328125 -0.6875 -0.984375q-0.53125 0.6875 -1.328125 1.046875q-0.796875 0.34375 -1.75 0.34375q-1.484375 0 -2.328125 -0.828125q-0.84375 -0.84375 -0.84375 -2.203125q0 -1.53125 1.171875 -2.328125q1.1875 -0.8125 3.4375 -0.8125l1.4375 0l0 -0.828125q0 -1.0625 -0.625 -1.5q-0.609375 -0.453125 -1.71875 -0.453125q-0.484375 0 -1.140625 0.125q-0.640625 0.109375 -1.40625 0.375l-0.40625 -1.171875q0.890625 -0.34375 1.6875 -0.484375q0.796875 -0.140625 1.515625 -0.140625q1.84375 0 2.75 0.859375q0.921875 0.84375 0.921875 2.3125l0 4.71875zm-4.0625 1.15625q0.734375 0 1.390625 -0.359375q0.671875 -0.375 1.09375 -1.03125l0 -2.515625l-1.421875 0q-1.609375 0 -2.28125 0.5625q-0.671875 0.546875 -0.671875 1.5q0 0.90625 0.46875 1.375q0.484375 0.46875 1.421875 0.46875zm8.318756 0.984375l0 -1.203125l1.53125 0l0 -7.421875l-1.53125 0l0 -1.203125l2.71875 0l0.296875 2.328125q0.5625 -1.21875 1.375 -1.875q0.8125 -0.65625 2.140625 -0.65625q0.421875 0 0.734375 0.0625q0.328125 0.046875 0.65625 0.140625l-0.453125 1.40625q-0.3125 -0.078125 -0.5625 -0.125q-0.25 -0.046875 -0.578125 -0.046875q-1.125 0 -1.9375 0.8125q-0.8125 0.796875 -1.296875 2.421875l0 4.15625l2.0 0l0 1.203125l-5.09375 0zm6.421875 -6.5l0 -2.140625l0.15625 -1.1875l1.34375 0l-0.21875 3.328125l-1.28125 0zm4.771881 6.5l0 -1.203125l1.53125 0l0 -7.421875l-1.53125 0l0 -1.203125l2.71875 0l0.296875 2.328125q0.5625 -1.21875 1.375 -1.875q0.8125 -0.65625 2.140625 -0.65625q0.421875 0 0.734375 0.0625q0.328125 0.046875 0.65625 0.140625l-0.453125 1.40625q-0.3125 -0.078125 -0.5625 -0.125q-0.25 -0.046875 -0.578125 -0.046875q-1.125 0 -1.9375 0.8125q-0.8125 0.796875 -1.296875 2.421875l0 4.15625l2.0 0l0 1.203125l-5.09375 0zm6.421875 -6.5l0 -2.140625l0.15625 -1.1875l1.34375 0l-0.21875 3.328125l-1.28125 0zm8.412506 -3.53125q1.390625 0 2.328125 0.640625q0.9375 0.625 1.40625 1.78125q0.484375 1.140625 0.484375 2.6875q0 1.5 -0.484375 2.671875q-0.484375 1.15625 -1.421875 1.8125q-0.9375 0.65625 -2.328125 0.65625q-1.375 0 -2.328125 -0.625q-0.9375 -0.640625 -1.421875 -1.796875q-0.46875 -1.15625 -0.46875 -2.6875q0 -1.53125 0.484375 -2.6875q0.484375 -1.15625 1.421875 -1.796875q0.953125 -0.65625 2.328125 -0.65625zm0 1.28125q-1.265625 0 -1.921875 0.9375q-0.640625 0.9375 -0.640625 2.921875q0 1.9375 0.640625 2.875q0.640625 0.9375 1.90625 0.9375q1.265625 0 1.90625 -0.9375q0.640625 -0.9375 0.640625 -2.90625q0 -1.953125 -0.640625 -2.890625q-0.625 -0.9375 -1.890625 -0.9375zm14.740631 8.75l-2.21875 0l-1.28125 -7.203125l-1.375 7.203125l-2.15625 0l-1.796875 -9.828125l1.609375 0l1.25 8.859375l1.5625 -7.609375l1.859375 0l1.484375 7.609375l1.25 -8.859375l1.53125 0l-1.71875 9.828125zm6.0062256 -6.53125q0 1.453125 0.25 2.609375q0.25 1.15625 0.734375 2.109375q0.5 0.953125 1.25 1.8125q0.75 0.875 1.75 1.75l-0.8125 0.859375q-1.515625 -1.234375 -2.59375 -2.53125q-1.078125 -1.296875 -1.65625 -2.890625q-0.5625 -1.59375 -0.5625 -3.71875q0 -2.125 0.5625 -3.71875q0.578125 -1.59375 1.65625 -2.890625q1.078125 -1.296875 2.59375 -2.53125l0.8125 0.859375q-1.0 0.890625 -1.75 1.765625q-0.75 0.859375 -1.25 1.8125q-0.5 0.9375 -0.75 2.09375q-0.234375 1.140625 -0.234375 2.609375zm14.459412 0q0 -1.46875 -0.25 -2.609375q-0.25 -1.15625 -0.75 -2.09375q-0.484375 -0.953125 -1.234375 -1.8125q-0.75 -0.875 -1.765625 -1.765625l0.828125 -0.859375q1.515625 1.234375 2.578125 2.53125q1.078125 1.296875 1.65625 2.890625q0.578125 1.59375 0.578125 3.71875q0 2.125 -0.578125 3.71875q-0.578125 1.59375 -1.65625 2.890625q-1.0625 1.296875 -2.578125 2.53125l-0.828125 -0.859375q1.0 -0.875 1.75 -1.75q0.75 -0.859375 1.234375 -1.8125q0.5 -0.953125 0.75 -2.109375q0.265625 -1.15625 0.265625 -2.609375z" fill-rule="nonzero"/><path fill="#000000" fill-opacity="0.0" d="m351.41733 311.063l300.47244 0l0 64.62991l-300.47244 0z" fill-rule="evenodd"/><path fill="#9900ff" d="m368.16733 324.01425l1.5625 0.1875l0 13.78125l-1.359375 0l-0.15625 -1.296875q-0.546875 0.78125 -1.265625 1.15625q-0.703125 0.359375 -1.515625 0.359375q-1.28125 0 -2.109375 -0.640625q-0.828125 -0.65625 -1.234375 -1.796875q-0.40625 -1.15625 -0.40625 -2.671875q0 -1.484375 0.453125 -2.640625q0.46875 -1.15625 1.328125 -1.828125q0.859375 -0.671875 2.078125 -0.671875q0.84375 0 1.484375 0.296875q0.640625 0.296875 1.140625 0.859375l0 -5.09375zm-2.21875 5.203125q-1.234375 0 -1.90625 0.96875q-0.65625 0.953125 -0.65625 2.90625q0 1.265625 0.265625 2.125q0.28125 0.859375 0.8125 1.296875q0.53125 0.421875 1.28125 0.421875q0.84375 0 1.4375 -0.46875q0.59375 -0.484375 0.984375 -1.09375l0 -4.90625q-0.40625 -0.59375 -0.96875 -0.921875q-0.5625 -0.328125 -1.25 -0.328125zm11.928131 -1.265625q1.3125 0 2.078125 0.640625q0.78125 0.625 1.125 1.78125q0.359375 1.15625 0.359375 2.6875q0 1.484375 -0.421875 2.65625q-0.40625 1.15625 -1.25 1.828125q-0.84375 0.65625 -2.125 0.65625q-1.609375 0 -2.59375 -1.140625l0 4.6875l-1.5625 0.1875l0 -13.78125l1.328125 0l0.140625 1.375q0.53125 -0.75 1.28125 -1.15625q0.75 -0.421875 1.640625 -0.421875zm-0.375 1.265625q-0.8125 0 -1.4375 0.5q-0.609375 0.484375 -1.015625 1.078125l0 4.859375q0.390625 0.578125 0.96875 0.90625q0.578125 0.328125 1.28125 0.328125q1.21875 0 1.828125 -0.921875q0.625 -0.9375 0.625 -2.90625q0 -1.296875 -0.25 -2.140625q-0.234375 -0.859375 -0.734375 -1.28125q-0.484375 -0.421875 -1.265625 -0.421875zm11.006256 -5.015625l0 11.359375q0 0.71875 0.453125 1.03125q0.453125 0.296875 1.171875 0.296875q0.4375 0 0.84375 -0.09375q0.40625 -0.09375 0.796875 -0.25l0.421875 1.140625q-0.390625 0.203125 -0.984375 0.359375q-0.59375 0.15625 -1.34375 0.15625q-1.3125 0 -2.125 -0.71875q-0.8125 -0.734375 -0.8125 -2.015625l0 -10.015625l-3.0 0l0 -1.25l4.578125 0zm15.537506 3.953125l-3.453125 9.890625q-0.34375 1.0 -0.875 1.828125q-0.515625 0.828125 -1.375 1.375q-0.84375 0.546875 -2.140625 0.6875l-0.234375 -1.25q1.015625 -0.171875 1.59375 -0.515625q0.59375 -0.34375 0.9375 -0.890625q0.34375 -0.546875 0.609375 -1.296875l-0.53125 0l-3.4375 -9.828125l1.6875 0l2.8125 8.640625l2.78125 -8.640625l1.625 0zm3.115631 9.828125l0 -1.203125l1.53125 0l0 -7.421875l-1.53125 0l0 -1.203125l2.71875 0l0.296875 2.328125q0.5625 -1.21875 1.375 -1.875q0.8125 -0.65625 2.140625 -0.65625q0.421875 0 0.734375 0.0625q0.328125 0.046875 0.65625 0.140625l-0.453125 1.40625q-0.3125 -0.078125 -0.5625 -0.125q-0.25 -0.046875 -0.578125 -0.046875q-1.125 0 -1.9375 0.8125q-0.8125 0.796875 -1.296875 2.421875l0 4.15625l2.0 0l0 1.203125l-5.09375 0zm6.421875 -6.5l0 -2.140625l0.15625 -1.1875l1.34375 0l-0.21875 3.328125l-1.28125 0zm16.215637 5.1875q0 -0.59375 0.421875 -1.046875q0.4375 -0.453125 1.078125 -0.453125q0.65625 0 1.078125 0.453125q0.4375 0.453125 0.4375 1.046875q0 0.640625 -0.4375 1.09375q-0.421875 0.4375 -1.078125 0.4375q-0.640625 0 -1.078125 -0.4375q-0.421875 -0.453125 -0.421875 -1.09375zm0 -6.71875q0 -0.421875 0.1875 -0.75q0.203125 -0.34375 0.546875 -0.546875q0.34375 -0.203125 0.765625 -0.203125q0.65625 0 1.078125 0.4375q0.4375 0.4375 0.4375 1.0625q0 0.609375 -0.4375 1.0625q-0.421875 0.453125 -1.078125 0.453125q-0.640625 0 -1.078125 -0.453125q-0.421875 -0.453125 -0.421875 -1.0625zm-7.46875 6.71875q0 -0.59375 0.4375 -1.046875q0.421875 -0.453125 1.0625 -0.453125q0.65625 0 1.09375 0.453125q0.421875 0.453125 0.421875 1.046875q0 0.640625 -0.421875 1.09375q-0.4375 0.4375 -1.09375 0.4375q-0.640625 0 -1.0625 -0.4375q-0.4375 -0.453125 -0.4375 -1.09375zm0 -6.71875q0 -0.421875 0.203125 -0.75q0.1875 -0.34375 0.53125 -0.546875q0.34375 -0.203125 0.765625 -0.203125q0.65625 0 1.09375 0.4375q0.421875 0.4375 0.421875 1.0625q0 0.609375 -0.421875 1.0625q-0.4375 0.453125 -1.09375 0.453125q-0.640625 0 -1.0625 -0.453125q-0.4375 -0.453125 -0.4375 -1.0625zm18.412506 8.03125l0 -1.203125l1.53125 0l0 -7.421875l-1.53125 0l0 -1.203125l2.71875 0l0.296875 2.328125q0.5625 -1.21875 1.375 -1.875q0.8125 -0.65625 2.140625 -0.65625q0.421875 0 0.734375 0.0625q0.328125 0.046875 0.65625 0.140625l-0.453125 1.40625q-0.3125 -0.078125 -0.5625 -0.125q-0.25 -0.046875 -0.578125 -0.046875q-1.125 0 -1.9375 0.8125q-0.8125 0.796875 -1.296875 2.421875l0 4.15625l2.0 0l0 1.203125l-5.09375 0zm6.421875 -6.5l0 -2.140625l0.15625 -1.1875l1.34375 0l-0.21875 3.328125l-1.28125 0zm5.912506 2.140625q0.046875 1.140625 0.4375 1.875q0.390625 0.71875 1.03125 1.0625q0.640625 0.328125 1.40625 0.328125q0.75 0 1.359375 -0.21875q0.609375 -0.234375 1.25 -0.671875l0.75 1.046875q-0.703125 0.53125 -1.578125 0.84375q-0.875 0.3125 -1.8125 0.3125q-1.421875 0 -2.4375 -0.640625q-1.0 -0.65625 -1.53125 -1.796875q-0.515625 -1.15625 -0.515625 -2.671875q0 -1.5 0.53125 -2.65625q0.53125 -1.15625 1.484375 -1.8125q0.96875 -0.671875 2.265625 -0.671875q1.25 0 2.140625 0.59375q0.890625 0.578125 1.375 1.65625q0.484375 1.078125 0.484375 2.5625q0 0.25 -0.015625 0.46875q0 0.21875 -0.03125 0.390625l-6.59375 0zm2.671875 -4.375q-1.09375 0 -1.828125 0.78125q-0.734375 0.765625 -0.84375 2.390625l5.125 0q-0.03125 -1.578125 -0.6875 -2.375q-0.65625 -0.796875 -1.765625 -0.796875zm7.287506 8.734375l0 -9.828125l1.328125 0l0.125 1.375q0.59375 -0.765625 1.5 -1.171875q0.90625 -0.40625 1.75 -0.40625q1.4375 0 2.09375 0.765625q0.671875 0.765625 0.671875 2.125l0 7.140625l-1.578125 0l0 -5.984375q0 -1.0 -0.109375 -1.625q-0.109375 -0.625 -0.46875 -0.90625q-0.34375 -0.28125 -1.09375 -0.28125q-0.578125 0 -1.09375 0.25q-0.5 0.25 -0.90625 0.640625q-0.390625 0.375 -0.65625 0.75l0 7.15625l-1.5625 0zm18.225006 -2.140625q0 0.578125 0.1875 0.859375q0.203125 0.265625 0.609375 0.390625l-0.375 1.109375q-0.640625 -0.09375 -1.109375 -0.40625q-0.46875 -0.328125 -0.6875 -0.984375q-0.53125 0.6875 -1.328125 1.046875q-0.796875 0.34375 -1.75 0.34375q-1.484375 0 -2.328125 -0.828125q-0.84375 -0.84375 -0.84375 -2.203125q0 -1.53125 1.171875 -2.328125q1.1875 -0.8125 3.4375 -0.8125l1.4375 0l0 -0.828125q0 -1.0625 -0.625 -1.5q-0.609375 -0.453125 -1.71875 -0.453125q-0.484375 0 -1.140625 0.125q-0.640625 0.109375 -1.40625 0.375l-0.40625 -1.171875q0.890625 -0.34375 1.6875 -0.484375q0.796875 -0.140625 1.515625 -0.140625q1.84375 0 2.75 0.859375q0.921875 0.84375 0.921875 2.3125l0 4.71875zm-4.0625 1.15625q0.734375 0 1.390625 -0.359375q0.671875 -0.375 1.09375 -1.03125l0 -2.515625l-1.421875 0q-1.609375 0 -2.28125 0.5625q-0.671875 0.546875 -0.671875 1.5q0 0.90625 0.46875 1.375q0.484375 0.46875 1.421875 0.46875zm14.693756 -9.046875q0.484375 0 0.90625 0.203125q0.4375 0.203125 0.71875 0.796875q0.28125 0.59375 0.28125 1.71875l0 7.3125l-1.453125 0l0 -7.0625q0 -0.921875 -0.109375 -1.328125q-0.109375 -0.421875 -0.640625 -0.421875q-0.4375 0 -0.875 0.28125q-0.4375 0.28125 -0.84375 0.90625l0 7.625l-1.46875 0l0 -7.0625q0 -0.921875 -0.109375 -1.328125q-0.109375 -0.421875 -0.640625 -0.421875q-0.46875 0 -0.890625 0.28125q-0.421875 0.28125 -0.828125 0.90625l0 7.625l-1.453125 0l0 -9.828125l1.234375 0l0.09375 1.140625q0.40625 -0.5625 0.90625 -0.953125q0.5 -0.390625 1.234375 -0.390625q0.5625 0 1.046875 0.265625q0.5 0.265625 0.734375 1.03125q0.390625 -0.578125 0.890625 -0.9375q0.515625 -0.359375 1.265625 -0.359375zm5.959381 5.671875q0.046875 1.140625 0.4375 1.875q0.390625 0.71875 1.03125 1.0625q0.640625 0.328125 1.40625 0.328125q0.75 0 1.359375 -0.21875q0.609375 -0.234375 1.25 -0.671875l0.75 1.046875q-0.703125 0.53125 -1.578125 0.84375q-0.875 0.3125 -1.8125 0.3125q-1.421875 0 -2.4375 -0.640625q-1.0 -0.65625 -1.53125 -1.796875q-0.515625 -1.15625 -0.515625 -2.671875q0 -1.5 0.53125 -2.65625q0.53125 -1.15625 1.484375 -1.8125q0.96875 -0.671875 2.265625 -0.671875q1.25 0 2.140625 0.59375q0.890625 0.578125 1.375 1.65625q0.484375 1.078125 0.484375 2.5625q0 0.25 -0.015625 0.46875q0 0.21875 -0.03125 0.390625l-6.59375 0zm2.671875 -4.375q-1.09375 0 -1.828125 0.78125q-0.734375 0.765625 -0.84375 2.390625l5.125 0q-0.03125 -1.578125 -0.6875 -2.375q-0.65625 -0.796875 -1.765625 -0.796875zm9.381256 2.203125q0 1.453125 0.25 2.609375q0.25 1.15625 0.734375 2.109375q0.5 0.953125 1.25 1.8125q0.75 0.875 1.75 1.75l-0.8125 0.859375q-1.515625 -1.234375 -2.59375 -2.53125q-1.078125 -1.296875 -1.65625 -2.890625q-0.5625 -1.59375 -0.5625 -3.71875q0 -2.125 0.5625 -3.71875q0.578125 -1.59375 1.65625 -2.890625q1.078125 -1.296875 2.59375 -2.53125l0.8125 0.859375q-1.0 0.890625 -1.75 1.765625q-0.75 0.859375 -1.25 1.8125q-0.5 0.9375 -0.75 2.09375q-0.234375 1.140625 -0.234375 2.609375zm14.459351 0q0 -1.46875 -0.25 -2.609375q-0.25 -1.15625 -0.75 -2.09375q-0.484375 -0.953125 -1.234375 -1.8125q-0.75 -0.875 -1.765625 -1.765625l0.828125 -0.859375q1.515625 1.234375 2.578125 2.53125q1.078125 1.296875 1.65625 2.890625q0.578125 1.59375 0.578125 3.71875q0 2.125 -0.578125 3.71875q-0.578125 1.59375 -1.65625 2.890625q-1.0625 1.296875 -2.578125 2.53125l-0.828125 -0.859375q1.0 -0.875 1.75 -1.75q0.75 -0.859375 1.234375 -1.8125q0.5 -0.953125 0.75 -2.109375q0.265625 -1.15625 0.265625 -2.609375zm9.553162 3.46875q0.640625 0 1.078125 0.4375q0.4375 0.4375 0.4375 1.046875q0 0.34375 -0.078125 0.6875q-0.078125 0.34375 -0.28125 0.78125l-1.515625 3.453125l-1.421875 0l0.890625 -3.671875q-0.265625 -0.21875 -0.4375 -0.546875q-0.15625 -0.328125 -0.15625 -0.703125q0 -0.625 0.421875 -1.046875q0.4375 -0.4375 1.0625 -0.4375z" fill-rule="nonzero"/><path fill="#9900ff" d="m368.16733 346.41425l1.5625 0.1875l0 13.78125l-1.359375 0l-0.15625 -1.296875q-0.546875 0.78125 -1.265625 1.15625q-0.703125 0.359375 -1.515625 0.359375q-1.28125 0 -2.109375 -0.640625q-0.828125 -0.65625 -1.234375 -1.796875q-0.40625 -1.15625 -0.40625 -2.671875q0 -1.484375 0.453125 -2.640625q0.46875 -1.15625 1.328125 -1.828125q0.859375 -0.671875 2.078125 -0.671875q0.84375 0 1.484375 0.296875q0.640625 0.296875 1.140625 0.859375l0 -5.09375zm-2.21875 5.203125q-1.234375 0 -1.90625 0.96875q-0.65625 0.953125 -0.65625 2.90625q0 1.265625 0.265625 2.125q0.28125 0.859375 0.8125 1.296875q0.53125 0.421875 1.28125 0.421875q0.84375 0 1.4375 -0.46875q0.59375 -0.484375 0.984375 -1.09375l0 -4.90625q-0.40625 -0.59375 -0.96875 -0.921875q-0.5625 -0.328125 -1.25 -0.328125zm11.928131 -1.265625q1.3125 0 2.078125 0.640625q0.78125 0.625 1.125 1.78125q0.359375 1.15625 0.359375 2.6875q0 1.484375 -0.421875 2.65625q-0.40625 1.15625 -1.25 1.828125q-0.84375 0.65625 -2.125 0.65625q-1.609375 0 -2.59375 -1.140625l0 4.6875l-1.5625 0.1875l0 -13.78125l1.328125 0l0.140625 1.375q0.53125 -0.75 1.28125 -1.15625q0.75 -0.421875 1.640625 -0.421875zm-0.375 1.265625q-0.8125 0 -1.4375 0.5q-0.609375 0.484375 -1.015625 1.078125l0 4.859375q0.390625 0.578125 0.96875 0.90625q0.578125 0.328125 1.28125 0.328125q1.21875 0 1.828125 -0.921875q0.625 -0.9375 0.625 -2.90625q0 -1.296875 -0.25 -2.140625q-0.234375 -0.859375 -0.734375 -1.28125q-0.484375 -0.421875 -1.265625 -0.421875zm11.006256 -5.015625l0 11.359375q0 0.71875 0.453125 1.03125q0.453125 0.296875 1.171875 0.296875q0.4375 0 0.84375 -0.09375q0.40625 -0.09375 0.796875 -0.25l0.421875 1.140625q-0.390625 0.203125 -0.984375 0.359375q-0.59375 0.15625 -1.34375 0.15625q-1.3125 0 -2.125 -0.71875q-0.8125 -0.734375 -0.8125 -2.015625l0 -10.015625l-3.0 0l0 -1.25l4.578125 0zm15.537506 3.953125l-3.453125 9.890625q-0.34375 1.0 -0.875 1.828125q-0.515625 0.828125 -1.375 1.375q-0.84375 0.546875 -2.140625 0.6875l-0.234375 -1.25q1.015625 -0.171875 1.59375 -0.515625q0.59375 -0.34375 0.9375 -0.890625q0.34375 -0.546875 0.609375 -1.296875l-0.53125 0l-3.4375 -9.828125l1.6875 0l2.8125 8.640625l2.78125 -8.640625l1.625 0zm3.115631 9.828125l0 -1.203125l1.53125 0l0 -7.421875l-1.53125 0l0 -1.203125l2.71875 0l0.296875 2.328125q0.5625 -1.21875 1.375 -1.875q0.8125 -0.65625 2.140625 -0.65625q0.421875 0 0.734375 0.0625q0.328125 0.046875 0.65625 0.140625l-0.453125 1.40625q-0.3125 -0.078125 -0.5625 -0.125q-0.25 -0.046875 -0.578125 -0.046875q-1.125 0 -1.9375 0.8125q-0.8125 0.796875 -1.296875 2.421875l0 4.15625l2.0 0l0 1.203125l-5.09375 0zm6.421875 -6.5l0 -2.140625l0.15625 -1.1875l1.34375 0l-0.21875 3.328125l-1.28125 0zm16.215637 5.1875q0 -0.59375 0.421875 -1.046875q0.4375 -0.453125 1.078125 -0.453125q0.65625 0 1.078125 0.453125q0.4375 0.453125 0.4375 1.046875q0 0.640625 -0.4375 1.09375q-0.421875 0.4375 -1.078125 0.4375q-0.640625 0 -1.078125 -0.4375q-0.421875 -0.453125 -0.421875 -1.09375zm0 -6.71875q0 -0.421875 0.1875 -0.75q0.203125 -0.34375 0.546875 -0.546875q0.34375 -0.203125 0.765625 -0.203125q0.65625 0 1.078125 0.4375q0.4375 0.4375 0.4375 1.0625q0 0.609375 -0.4375 1.0625q-0.421875 0.453125 -1.078125 0.453125q-0.640625 0 -1.078125 -0.453125q-0.421875 -0.453125 -0.421875 -1.0625zm-7.46875 6.71875q0 -0.59375 0.4375 -1.046875q0.421875 -0.453125 1.0625 -0.453125q0.65625 0 1.09375 0.453125q0.421875 0.453125 0.421875 1.046875q0 0.640625 -0.421875 1.09375q-0.4375 0.4375 -1.09375 0.4375q-0.640625 0 -1.0625 -0.4375q-0.4375 -0.453125 -0.4375 -1.09375zm0 -6.71875q0 -0.421875 0.203125 -0.75q0.1875 -0.34375 0.53125 -0.546875q0.34375 -0.203125 0.765625 -0.203125q0.65625 0 1.09375 0.4375q0.421875 0.4375 0.421875 1.0625q0 0.609375 -0.421875 1.0625q-0.4375 0.453125 -1.09375 0.453125q-0.640625 0 -1.0625 -0.453125q-0.4375 -0.453125 -0.4375 -1.0625zm24.787506 -2.0q0.484375 0 0.90625 0.203125q0.4375 0.203125 0.71875 0.796875q0.28125 0.59375 0.28125 1.71875l0 7.3125l-1.453125 0l0 -7.0625q0 -0.921875 -0.109375 -1.328125q-0.109375 -0.421875 -0.640625 -0.421875q-0.4375 0 -0.875 0.28125q-0.4375 0.28125 -0.84375 0.90625l0 7.625l-1.46875 0l0 -7.0625q0 -0.921875 -0.109375 -1.328125q-0.109375 -0.421875 -0.640625 -0.421875q-0.46875 0 -0.890625 0.28125q-0.421875 0.28125 -0.828125 0.90625l0 7.625l-1.453125 0l0 -9.828125l1.234375 0l0.09375 1.140625q0.40625 -0.5625 0.90625 -0.953125q0.5 -0.390625 1.234375 -0.390625q0.5625 0 1.046875 0.265625q0.5 0.265625 0.734375 1.03125q0.390625 -0.578125 0.890625 -0.9375q0.515625 -0.359375 1.265625 -0.359375zm6.287506 0.203125l0 6.96875q0 0.96875 0.40625 1.40625q0.40625 0.421875 1.25 0.421875q0.8125 0 1.53125 -0.453125q0.71875 -0.46875 1.125 -1.109375l0 -7.234375l1.5625 0l0 9.828125l-1.328125 0l-0.125 -1.328125q-0.578125 0.75 -1.4375 1.15625q-0.84375 0.390625 -1.71875 0.390625q-1.421875 0 -2.125 -0.765625q-0.703125 -0.765625 -0.703125 -2.125l0 -7.15625l1.5625 0zm17.428131 9.328125q-0.5 0.34375 -1.21875 0.53125q-0.71875 0.1875 -1.40625 0.1875q-1.59375 0 -2.453125 -0.828125q-0.859375 -0.84375 -0.859375 -2.140625l0 -5.859375l-2.25 0l0 -1.21875l2.25 0l0 -2.21875l1.578125 -0.1875l0 2.40625l3.390625 0l-0.1875 1.21875l-3.203125 0l0 5.84375q0 0.8125 0.421875 1.25q0.4375 0.421875 1.453125 0.421875q0.546875 0 1.015625 -0.125q0.46875 -0.140625 0.859375 -0.34375l0.609375 1.0625zm10.428131 -1.640625q0 0.578125 0.1875 0.859375q0.203125 0.265625 0.609375 0.390625l-0.375 1.109375q-0.640625 -0.09375 -1.109375 -0.40625q-0.46875 -0.328125 -0.6875 -0.984375q-0.53125 0.6875 -1.328125 1.046875q-0.796875 0.34375 -1.75 0.34375q-1.484375 0 -2.328125 -0.828125q-0.84375 -0.84375 -0.84375 -2.203125q0 -1.53125 1.171875 -2.328125q1.1875 -0.8125 3.4375 -0.8125l1.4375 0l0 -0.828125q0 -1.0625 -0.625 -1.5q-0.609375 -0.453125 -1.71875 -0.453125q-0.484375 0 -1.140625 0.125q-0.640625 0.109375 -1.40625 0.375l-0.40625 -1.171875q0.890625 -0.34375 1.6875 -0.484375q0.796875 -0.140625 1.515625 -0.140625q1.84375 0 2.75 0.859375q0.921875 0.84375 0.921875 2.3125l0 4.71875zm-4.0625 1.15625q0.734375 0 1.390625 -0.359375q0.671875 -0.375 1.09375 -1.03125l0 -2.515625l-1.421875 0q-1.609375 0 -2.28125 0.5625q-0.671875 0.546875 -0.671875 1.5q0 0.90625 0.46875 1.375q0.484375 0.46875 1.421875 0.46875zm16.021881 0.484375q-0.5 0.34375 -1.21875 0.53125q-0.71875 0.1875 -1.40625 0.1875q-1.59375 0 -2.453125 -0.828125q-0.859375 -0.84375 -0.859375 -2.140625l0 -5.859375l-2.25 0l0 -1.21875l2.25 0l0 -2.21875l1.578125 -0.1875l0 2.40625l3.390625 0l-0.1875 1.21875l-3.203125 0l0 5.84375q0 0.8125 0.421875 1.25q0.4375 0.421875 1.453125 0.421875q0.546875 0 1.015625 -0.125q0.46875 -0.140625 0.859375 -0.34375l0.609375 1.0625zm4.631256 -3.859375q0.046875 1.140625 0.4375 1.875q0.390625 0.71875 1.03125 1.0625q0.640625 0.328125 1.40625 0.328125q0.75 0 1.359375 -0.21875q0.609375 -0.234375 1.25 -0.671875l0.75 1.046875q-0.703125 0.53125 -1.578125 0.84375q-0.875 0.3125 -1.8125 0.3125q-1.421875 0 -2.4375 -0.640625q-1.0 -0.65625 -1.53125 -1.796875q-0.515625 -1.15625 -0.515625 -2.671875q0 -1.5 0.53125 -2.65625q0.53125 -1.15625 1.484375 -1.8125q0.96875 -0.671875 2.265625 -0.671875q1.25 0 2.140625 0.59375q0.890625 0.578125 1.375 1.65625q0.484375 1.078125 0.484375 2.5625q0 0.25 -0.015625 0.46875q0 0.21875 -0.03125 0.390625l-6.59375 0zm2.671875 -4.375q-1.09375 0 -1.828125 0.78125q-0.734375 0.765625 -0.84375 2.390625l5.125 0q-0.03125 -1.578125 -0.6875 -2.375q-0.65625 -0.796875 -1.765625 -0.796875zm9.381256 2.203125q0 1.453125 0.25 2.609375q0.25 1.15625 0.734375 2.109375q0.5 0.953125 1.25 1.8125q0.75 0.875 1.75 1.75l-0.8125 0.859375q-1.515625 -1.234375 -2.59375 -2.53125q-1.078125 -1.296875 -1.65625 -2.890625q-0.5625 -1.59375 -0.5625 -3.71875q0 -2.125 0.5625 -3.71875q0.578125 -1.59375 1.65625 -2.890625q1.078125 -1.296875 2.59375 -2.53125l0.8125 0.859375q-1.0 0.890625 -1.75 1.765625q-0.75 0.859375 -1.25 1.8125q-0.5 0.9375 -0.75 2.09375q-0.234375 1.140625 -0.234375 2.609375zm14.459351 0q0 -1.46875 -0.25 -2.609375q-0.25 -1.15625 -0.75 -2.09375q-0.484375 -0.953125 -1.234375 -1.8125q-0.75 -0.875 -1.765625 -1.765625l0.828125 -0.859375q1.515625 1.234375 2.578125 2.53125q1.078125 1.296875 1.65625 2.890625q0.578125 1.59375 0.578125 3.71875q0 2.125 -0.578125 3.71875q-0.578125 1.59375 -1.65625 2.890625q-1.0625 1.296875 -2.578125 2.53125l-0.828125 -0.859375q1.0 -0.875 1.75 -1.75q0.75 -0.859375 1.234375 -1.8125q0.5 -0.953125 0.75 -2.109375q0.265625 -1.15625 0.265625 -2.609375zm9.553162 3.46875q0.640625 0 1.078125 0.4375q0.4375 0.4375 0.4375 1.046875q0 0.34375 -0.078125 0.6875q-0.078125 0.34375 -0.28125 0.78125l-1.515625 3.453125l-1.421875 0l0.890625 -3.671875q-0.265625 -0.21875 -0.4375 -0.546875q-0.15625 -0.328125 -0.15625 -0.703125q0 -0.625 0.421875 -1.046875q0.4375 -0.4375 1.0625 -0.4375zm19.903137 -1.296875q0.046875 1.140625 0.4375 1.875q0.390625 0.71875 1.03125 1.0625q0.640625 0.328125 1.40625 0.328125q0.75 0 1.359375 -0.21875q0.609375 -0.234375 1.25 -0.671875l0.75 1.046875q-0.703125 0.53125 -1.578125 0.84375q-0.875 0.3125 -1.8125 0.3125q-1.421875 0 -2.4375 -0.640625q-1.0 -0.65625 -1.53125 -1.796875q-0.515625 -1.15625 -0.515625 -2.671875q0 -1.5 0.53125 -2.65625q0.53125 -1.15625 1.484375 -1.8125q0.96875 -0.671875 2.265625 -0.671875q1.25 0 2.140625 0.59375q0.890625 0.578125 1.375 1.65625q0.484375 1.078125 0.484375 2.5625q0 0.25 -0.015625 0.46875q0 0.21875 -0.03125 0.390625l-6.59375 0zm2.671875 -4.375q-1.09375 0 -1.828125 0.78125q-0.734375 0.765625 -0.84375 2.390625l5.125 0q-0.03125 -1.578125 -0.6875 -2.375q-0.65625 -0.796875 -1.765625 -0.796875zm15.084351 8.234375q-0.5 0.34375 -1.21875 0.53125q-0.71875 0.1875 -1.40625 0.1875q-1.59375 0 -2.453125 -0.828125q-0.859375 -0.84375 -0.859375 -2.140625l0 -5.859375l-2.25 0l0 -1.21875l2.25 0l0 -2.21875l1.578125 -0.1875l0 2.40625l3.390625 0l-0.1875 1.21875l-3.203125 0l0 5.84375q0 0.8125 0.421875 1.25q0.4375 0.421875 1.453125 0.421875q0.546875 0 1.015625 -0.125q0.46875 -0.140625 0.859375 -0.34375l0.609375 1.0625zm7.8344116 -0.640625q0.734375 0 1.375 -0.234375q0.640625 -0.25 1.1875 -0.625l0.765625 1.03125q-0.640625 0.546875 -1.546875 0.875q-0.90625 0.3125 -1.78125 0.3125q-1.46875 0 -2.5 -0.625q-1.015625 -0.640625 -1.5625 -1.78125q-0.546875 -1.140625 -0.546875 -2.6875q0 -1.46875 0.546875 -2.640625q0.546875 -1.171875 1.578125 -1.84375q1.03125 -0.671875 2.5 -0.671875q0.953125 0 1.765625 0.296875q0.828125 0.28125 1.53125 0.84375l-0.765625 1.046875q-0.625 -0.4375 -1.265625 -0.65625q-0.625 -0.21875 -1.28125 -0.21875q-1.265625 0 -2.09375 0.953125q-0.8125 0.953125 -0.8125 2.890625q0 1.3125 0.375 2.140625q0.375 0.828125 1.03125 1.21875q0.65625 0.375 1.5 0.375z" fill-rule="nonzero"/><path fill="#000000" fill-opacity="0.0" d="m693.2756 344.91864l212.3465 0l0 42.015747l-212.3465 0z" fill-rule="evenodd"/><path fill="#ff00ff" d="m710.0256 357.86987l1.5625 0.1875l0 13.78125l-1.359375 0l-0.15625 -1.296875q-0.546875 0.78125 -1.265625 1.15625q-0.703125 0.359375 -1.515625 0.359375q-1.28125 0 -2.109375 -0.640625q-0.828125 -0.65625 -1.234375 -1.796875q-0.40625 -1.15625 -0.40625 -2.671875q0 -1.484375 0.453125 -2.640625q0.46875 -1.15625 1.328125 -1.828125q0.859375 -0.671875 2.078125 -0.671875q0.84375 0 1.484375 0.296875q0.640625 0.296875 1.140625 0.859375l0 -5.09375zm-2.21875 5.203125q-1.234375 0 -1.90625 0.96875q-0.65625 0.953125 -0.65625 2.90625q0 1.265625 0.265625 2.125q0.28125 0.859375 0.8125 1.296875q0.53125 0.421875 1.28125 0.421875q0.84375 0 1.4375 -0.46875q0.59375 -0.484375 0.984375 -1.09375l0 -4.90625q-0.40625 -0.59375 -0.96875 -0.921875q-0.5625 -0.328125 -1.25 -0.328125zm11.928162 -1.265625q1.3125 0 2.078125 0.640625q0.78125 0.625 1.125 1.78125q0.359375 1.15625 0.359375 2.6875q0 1.484375 -0.421875 2.65625q-0.40625 1.15625 -1.25 1.828125q-0.84375 0.65625 -2.125 0.65625q-1.609375 0 -2.59375 -1.140625l0 4.6875l-1.5625 0.1875l0 -13.78125l1.328125 0l0.140625 1.375q0.53125 -0.75 1.28125 -1.15625q0.75 -0.421875 1.640625 -0.421875zm-0.375 1.265625q-0.8125 0 -1.4375 0.5q-0.609375 0.484375 -1.015625 1.078125l0 4.859375q0.390625 0.578125 0.96875 0.90625q0.578125 0.328125 1.28125 0.328125q1.21875 0 1.828125 -0.921875q0.625 -0.9375 0.625 -2.90625q0 -1.296875 -0.25 -2.140625q-0.234375 -0.859375 -0.734375 -1.28125q-0.484375 -0.421875 -1.265625 -0.421875zm11.006226 -5.015625l0 11.359375q0 0.71875 0.453125 1.03125q0.453125 0.296875 1.171875 0.296875q0.4375 0 0.84375 -0.09375q0.40625 -0.09375 0.796875 -0.25l0.421875 1.140625q-0.390625 0.203125 -0.984375 0.359375q-0.59375 0.15625 -1.34375 0.15625q-1.3125 0 -2.125 -0.71875q-0.8125 -0.734375 -0.8125 -2.015625l0 -10.015625l-3.0 0l0 -1.25l4.578125 0zm15.537537 3.953125l-3.453125 9.890625q-0.34375 1.0 -0.875 1.828125q-0.515625 0.828125 -1.375 1.375q-0.84375 0.546875 -2.140625 0.6875l-0.234375 -1.25q1.015625 -0.171875 1.59375 -0.515625q0.59375 -0.34375 0.9375 -0.890625q0.34375 -0.546875 0.609375 -1.296875l-0.53125 0l-3.4375 -9.828125l1.6875 0l2.8125 8.640625l2.78125 -8.640625l1.625 0zm3.1156006 9.828125l0 -1.203125l1.53125 0l0 -7.421875l-1.53125 0l0 -1.203125l2.71875 0l0.296875 2.328125q0.5625 -1.21875 1.375 -1.875q0.8125 -0.65625 2.140625 -0.65625q0.421875 0 0.734375 0.0625q0.328125 0.046875 0.65625 0.140625l-0.453125 1.40625q-0.3125 -0.078125 -0.5625 -0.125q-0.25 -0.046875 -0.578125 -0.046875q-1.125 0 -1.9375 0.8125q-0.8125 0.796875 -1.296875 2.421875l0 4.15625l2.0 0l0 1.203125l-5.09375 0zm6.421875 -6.5l0 -2.140625l0.15625 -1.1875l1.34375 0l-0.21875 3.328125l-1.28125 0zm16.215637 5.1875q0 -0.59375 0.421875 -1.046875q0.4375 -0.453125 1.078125 -0.453125q0.65625 0 1.078125 0.453125q0.4375 0.453125 0.4375 1.046875q0 0.640625 -0.4375 1.09375q-0.421875 0.4375 -1.078125 0.4375q-0.640625 0 -1.078125 -0.4375q-0.421875 -0.453125 -0.421875 -1.09375zm0 -6.71875q0 -0.421875 0.1875 -0.75q0.203125 -0.34375 0.546875 -0.546875q0.34375 -0.203125 0.765625 -0.203125q0.65625 0 1.078125 0.4375q0.4375 0.4375 0.4375 1.0625q0 0.609375 -0.4375 1.0625q-0.421875 0.453125 -1.078125 0.453125q-0.640625 0 -1.078125 -0.453125q-0.421875 -0.453125 -0.421875 -1.0625zm-7.46875 6.71875q0 -0.59375 0.4375 -1.046875q0.421875 -0.453125 1.0625 -0.453125q0.65625 0 1.09375 0.453125q0.421875 0.453125 0.421875 1.046875q0 0.640625 -0.421875 1.09375q-0.4375 0.4375 -1.09375 0.4375q-0.640625 0 -1.0625 -0.4375q-0.4375 -0.453125 -0.4375 -1.09375zm0 -6.71875q0 -0.421875 0.203125 -0.75q0.1875 -0.34375 0.53125 -0.546875q0.34375 -0.203125 0.765625 -0.203125q0.65625 0 1.09375 0.4375q0.421875 0.4375 0.421875 1.0625q0 0.609375 -0.421875 1.0625q-0.4375 0.453125 -1.09375 0.453125q-0.640625 0 -1.0625 -0.453125q-0.4375 -0.453125 -0.4375 -1.0625zm22.756287 6.890625q0.734375 0 1.375 -0.234375q0.640625 -0.25 1.1875 -0.625l0.765625 1.03125q-0.640625 0.546875 -1.546875 0.875q-0.90625 0.3125 -1.78125 0.3125q-1.46875 0 -2.5 -0.625q-1.015625 -0.640625 -1.5625 -1.78125q-0.546875 -1.140625 -0.546875 -2.6875q0 -1.46875 0.546875 -2.640625q0.546875 -1.171875 1.578125 -1.84375q1.03125 -0.671875 2.5 -0.671875q0.953125 0 1.765625 0.296875q0.828125 0.28125 1.53125 0.84375l-0.765625 1.046875q-0.625 -0.4375 -1.265625 -0.65625q-0.625 -0.21875 -1.28125 -0.21875q-1.265625 0 -2.09375 0.953125q-0.8125 0.953125 -0.8125 2.890625q0 1.3125 0.375 2.140625q0.375 0.828125 1.03125 1.21875q0.65625 0.375 1.5 0.375zm10.490601 -8.890625q1.390625 0 2.328125 0.640625q0.9375 0.625 1.40625 1.78125q0.484375 1.140625 0.484375 2.6875q0 1.5 -0.484375 2.671875q-0.484375 1.15625 -1.421875 1.8125q-0.9375 0.65625 -2.328125 0.65625q-1.375 0 -2.328125 -0.625q-0.9375 -0.640625 -1.421875 -1.796875q-0.46875 -1.15625 -0.46875 -2.6875q0 -1.53125 0.484375 -2.6875q0.484375 -1.15625 1.421875 -1.796875q0.953125 -0.65625 2.328125 -0.65625zm0 1.28125q-1.265625 0 -1.921875 0.9375q-0.640625 0.9375 -0.640625 2.921875q0 1.9375 0.640625 2.875q0.640625 0.9375 1.90625 0.9375q1.265625 0 1.90625 -0.9375q0.640625 -0.9375 0.640625 -2.90625q0 -1.953125 -0.640625 -2.890625q-0.625 -0.9375 -1.890625 -0.9375zm11.287537 -5.03125l0 11.359375q0 0.71875 0.453125 1.03125q0.453125 0.296875 1.171875 0.296875q0.4375 0 0.84375 -0.09375q0.40625 -0.09375 0.796875 -0.25l0.421875 1.140625q-0.390625 0.203125 -0.984375 0.359375q-0.59375 0.15625 -1.34375 0.15625q-1.3125 0 -2.125 -0.71875q-0.8125 -0.734375 -0.8125 -2.015625l0 -10.015625l-3.0 0l0 -1.25l4.578125 0zm11.193726 0l0 11.359375q0 0.71875 0.453125 1.03125q0.453125 0.296875 1.171875 0.296875q0.4375 0 0.84375 -0.09375q0.40625 -0.09375 0.796875 -0.25l0.421875 1.140625q-0.390625 0.203125 -0.984375 0.359375q-0.59375 0.15625 -1.34375 0.15625q-1.3125 0 -2.125 -0.71875q-0.8125 -0.734375 -0.8125 -2.015625l0 -10.015625l-3.0 0l0 -1.25l4.578125 0zm8.600037 9.421875q0.046875 1.140625 0.4375 1.875q0.390625 0.71875 1.03125 1.0625q0.640625 0.328125 1.40625 0.328125q0.75 0 1.359375 -0.21875q0.609375 -0.234375 1.25 -0.671875l0.75 1.046875q-0.703125 0.53125 -1.578125 0.84375q-0.875 0.3125 -1.8125 0.3125q-1.421875 0 -2.4375 -0.640625q-1.0 -0.65625 -1.53125 -1.796875q-0.515625 -1.15625 -0.515625 -2.671875q0 -1.5 0.53125 -2.65625q0.53125 -1.15625 1.484375 -1.8125q0.96875 -0.671875 2.265625 -0.671875q1.25 0 2.140625 0.59375q0.890625 0.578125 1.375 1.65625q0.484375 1.078125 0.484375 2.5625q0 0.25 -0.015625 0.46875q0 0.21875 -0.03125 0.390625l-6.59375 0zm2.671875 -4.375q-1.09375 0 -1.828125 0.78125q-0.734375 0.765625 -0.84375 2.390625l5.125 0q-0.03125 -1.578125 -0.6875 -2.375q-0.65625 -0.796875 -1.765625 -0.796875zm11.724976 7.59375q0.734375 0 1.375 -0.234375q0.640625 -0.25 1.1875 -0.625l0.765625 1.03125q-0.640625 0.546875 -1.546875 0.875q-0.90625 0.3125 -1.78125 0.3125q-1.46875 0 -2.5 -0.625q-1.015625 -0.640625 -1.5625 -1.78125q-0.546875 -1.140625 -0.546875 -2.6875q0 -1.46875 0.546875 -2.640625q0.546875 -1.171875 1.578125 -1.84375q1.03125 -0.671875 2.5 -0.671875q0.953125 0 1.765625 0.296875q0.828125 0.28125 1.53125 0.84375l-0.765625 1.046875q-0.625 -0.4375 -1.265625 -0.65625q-0.625 -0.21875 -1.28125 -0.21875q-1.265625 0 -2.09375 0.953125q-0.8125 0.953125 -0.8125 2.890625q0 1.3125 0.375 2.140625q0.375 0.828125 1.03125 1.21875q0.65625 0.375 1.5 0.375zm14.553162 0.640625q-0.5 0.34375 -1.21875 0.53125q-0.71875 0.1875 -1.40625 0.1875q-1.59375 0 -2.453125 -0.828125q-0.859375 -0.84375 -0.859375 -2.140625l0 -5.859375l-2.25 0l0 -1.21875l2.25 0l0 -2.21875l1.578125 -0.1875l0 2.40625l3.390625 0l-0.1875 1.21875l-3.203125 0l0 5.84375q0 0.8125 0.421875 1.25q0.4375 0.421875 1.453125 0.421875q0.546875 0 1.015625 -0.125q0.46875 -0.140625 0.859375 -0.34375l0.609375 1.0625zm5.4906006 -6.03125q0 1.453125 0.25 2.609375q0.25 1.15625 0.734375 2.109375q0.5 0.953125 1.25 1.8125q0.75 0.875 1.75 1.75l-0.8125 0.859375q-1.515625 -1.234375 -2.59375 -2.53125q-1.078125 -1.296875 -1.65625 -2.890625q-0.5625 -1.59375 -0.5625 -3.71875q0 -2.125 0.5625 -3.71875q0.578125 -1.59375 1.65625 -2.890625q1.078125 -1.296875 2.59375 -2.53125l0.8125 0.859375q-1.0 0.890625 -1.75 1.765625q-0.75 0.859375 -1.25 1.8125q-0.5 0.9375 -0.75 2.09375q-0.234375 1.140625 -0.234375 2.609375zm14.459412 0q0 -1.46875 -0.25 -2.609375q-0.25 -1.15625 -0.75 -2.09375q-0.484375 -0.953125 -1.234375 -1.8125q-0.75 -0.875 -1.765625 -1.765625l0.828125 -0.859375q1.515625 1.234375 2.578125 2.53125q1.078125 1.296875 1.65625 2.890625q0.578125 1.59375 0.578125 3.71875q0 2.125 -0.578125 3.71875q-0.578125 1.59375 -1.65625 2.890625q-1.0625 1.296875 -2.578125 2.53125l-0.828125 -0.859375q1.0 -0.875 1.75 -1.75q0.75 -0.859375 1.234375 -1.8125q0.5 -0.953125 0.75 -2.109375q0.265625 -1.15625 0.265625 -2.609375z" fill-rule="nonzero"/></g></svg>