<svg version="1.1" viewBox="0.0 0.0 960.0 540.0" fill="none" stroke="none" stroke-linecap="square" stroke-miterlimit="10" xmlns:xlink="http://www.w3.org/1999/xlink" xmlns="http://www.w3.org/2000/svg"><clipPath id="g1327d504b9f_0_712.0"><path d="m0 0l960.0 0l0 540.0l-960.0 0l0 -540.0z" clip-rule="nonzero"/></clipPath><g clip-path="url(#g1327d504b9f_0_712.0)"><path fill="#ffffff" d="m0 0l960.0 0l0 540.0l-960.0 0z" fill-rule="evenodd"/><path fill="#d9d9d9" d="m508.13385 23.774279l410.14172 0l0 383.96848l-410.14172 0z" fill-rule="evenodd"/><path fill="#000000" d="m532.4488 94.65092l150.48822 0l0 55.811028l-150.48822 0z" fill-rule="evenodd"/><path stroke="#000000" stroke-width="1.0" stroke-linejoin="round" stroke-linecap="butt" d="m532.4488 94.65092l150.48822 0l0 55.811028l-150.48822 0z" fill-rule="evenodd"/><path fill="#ffffff" d="m543.12067 129.47643l0 -12.234375l3.0625 0q2.84375 0 4.3125 1.578125q1.46875 1.578125 1.46875 4.484375q0 2.921875 -1.46875 4.546875q-1.453125 1.625 -4.234375 1.625l-3.140625 0zm1.5625 -1.265625l1.390625 0q2.140625 0 3.21875 -1.296875q1.078125 -1.296875 1.078125 -3.609375q0 -2.3125 -1.078125 -3.546875q-1.078125 -1.25 -3.21875 -1.25l-1.390625 0l0 9.703125zm11.864258 1.484375q-1.140625 0 -1.90625 -0.671875q-0.75 -0.6875 -0.75 -1.890625q0 -1.5 1.328125 -2.28125q1.34375 -0.796875 4.234375 -1.125q0 -0.578125 -0.15625 -1.09375q-0.15625 -0.53125 -0.5625 -0.84375q-0.40625 -0.328125 -1.140625 -0.328125q-0.796875 0 -1.484375 0.296875q-0.6875 0.296875 -1.234375 0.671875l-0.59375 -1.0625q0.640625 -0.421875 1.5625 -0.796875q0.921875 -0.390625 2.0 -0.390625q1.65625 0 2.40625 1.03125q0.75 1.015625 0.75 2.703125l0 5.5625l-1.265625 0l-0.140625 -1.078125l-0.046875 0q-0.640625 0.515625 -1.390625 0.90625q-0.75 0.390625 -1.609375 0.390625zm0.4375 -1.21875q0.65625 0 1.234375 -0.3125q0.578125 -0.328125 1.234375 -0.90625l0 -2.515625q-2.265625 0.28125 -3.171875 0.84375q-0.890625 0.546875 -0.890625 1.421875q0 0.765625 0.453125 1.125q0.46875 0.34375 1.140625 0.34375zm9.469543 1.21875q-1.46875 0 -2.03125 -0.828125q-0.5625 -0.84375 -0.5625 -2.1875l0 -5.015625l-1.34375 0l0 -1.15625l1.40625 -0.09375l0.1875 -2.546875l1.296875 0l0 2.546875l2.4375 0l0 1.25l-2.4375 0l0 5.03125q0 0.84375 0.296875 1.296875q0.3125 0.453125 1.09375 0.453125q0.25 0 0.53125 -0.078125q0.28125 -0.078125 0.5 -0.15625l0.296875 1.15625q-0.375 0.125 -0.8125 0.21875q-0.4375 0.109375 -0.859375 0.109375zm6.8569946 0q-1.203125 0 -2.203125 -0.5625q-0.984375 -0.578125 -1.5625 -1.640625q-0.578125 -1.0625 -0.578125 -2.53125q0 -1.484375 0.578125 -2.546875q0.59375 -1.078125 1.53125 -1.65625q0.9375 -0.578125 1.953125 -0.578125q1.734375 0 2.671875 1.15625q0.953125 1.15625 0.953125 3.109375q0 0.234375 -0.015625 0.46875q0 0.234375 -0.046875 0.40625l-6.109375 0q0.09375 1.4375 0.890625 2.296875q0.8125 0.859375 2.125 0.859375q0.65625 0 1.203125 -0.203125q0.546875 -0.203125 1.0625 -0.515625l0.53125 1.015625q-0.578125 0.375 -1.3125 0.65625q-0.734375 0.265625 -1.671875 0.265625zm-2.859375 -5.484375l4.859375 0q0 -1.375 -0.59375 -2.09375q-0.578125 -0.71875 -1.640625 -0.71875q-0.953125 0 -1.71875 0.734375q-0.75 0.734375 -0.90625 2.078125z" fill-rule="nonzero"/><path fill="#eeeeee" d="m720.9869 94.65092l151.40155 0l0 55.811028l-151.40155 0z" fill-rule="evenodd"/><path stroke="#595959" stroke-width="1.0" stroke-linejoin="round" stroke-linecap="butt" d="m720.9869 94.65092l151.40155 0l0 55.811028l-151.40155 0z" fill-rule="evenodd"/><path fill="#000000" d="m734.6119 129.69518q-1.703125 0 -2.734375 -1.234375q-1.015625 -1.234375 -1.015625 -3.5q0 -1.46875 0.546875 -2.546875q0.5625 -1.078125 1.453125 -1.65625q0.90625 -0.578125 1.9375 -0.578125q0.78125 0 1.359375 0.28125q0.578125 0.28125 1.171875 0.765625l-0.0625 -1.546875l0 -3.484375l1.546875 0l0 13.28125l-1.265625 0l-0.140625 -1.0625l-0.046875 0q-0.53125 0.515625 -1.25 0.90625q-0.703125 0.375 -1.5 0.375zm0.34375 -1.28125q1.1875 0 2.3125 -1.25l0 -4.734375q-0.578125 -0.53125 -1.109375 -0.734375q-0.53125 -0.21875 -1.09375 -0.21875q-0.734375 0 -1.328125 0.4375q-0.578125 0.4375 -0.9375 1.21875q-0.34375 0.765625 -0.34375 1.8125q0 1.625 0.640625 2.546875q0.65625 0.921875 1.859375 0.921875zm9.010437 1.28125q-1.140625 0 -1.90625 -0.671875q-0.75 -0.6875 -0.75 -1.890625q0 -1.5 1.328125 -2.28125q1.34375 -0.796875 4.234375 -1.125q0 -0.578125 -0.15625 -1.09375q-0.15625 -0.53125 -0.5625 -0.84375q-0.40625 -0.328125 -1.140625 -0.328125q-0.796875 0 -1.484375 0.296875q-0.6875 0.296875 -1.234375 0.671875l-0.59375 -1.0625q0.640625 -0.421875 1.5625 -0.796875q0.921875 -0.390625 2.0 -0.390625q1.65625 0 2.40625 1.03125q0.75 1.015625 0.75 2.703125l0 5.5625l-1.265625 0l-0.140625 -1.078125l-0.046875 0q-0.640625 0.515625 -1.390625 0.90625q-0.75 0.390625 -1.609375 0.390625zm0.4375 -1.21875q0.65625 0 1.234375 -0.3125q0.578125 -0.328125 1.234375 -0.90625l0 -2.515625q-2.265625 0.28125 -3.171875 0.84375q-0.890625 0.546875 -0.890625 1.421875q0 0.765625 0.453125 1.125q0.46875 0.34375 1.140625 0.34375zm9.469543 1.21875q-1.46875 0 -2.03125 -0.828125q-0.5625 -0.84375 -0.5625 -2.1875l0 -5.015625l-1.34375 0l0 -1.15625l1.40625 -0.09375l0.1875 -2.546875l1.296875 0l0 2.546875l2.4375 0l0 1.25l-2.4375 0l0 5.03125q0 0.84375 0.296875 1.296875q0.3125 0.453125 1.09375 0.453125q0.25 0 0.53125 -0.078125q0.28125 -0.078125 0.5 -0.15625l0.296875 1.15625q-0.375 0.125 -0.8125 0.21875q-0.4375 0.109375 -0.859375 0.109375zm6.8569946 0q-1.203125 0 -2.203125 -0.5625q-0.984375 -0.578125 -1.5625 -1.640625q-0.578125 -1.0625 -0.578125 -2.53125q0 -1.484375 0.578125 -2.546875q0.59375 -1.078125 1.53125 -1.65625q0.9375 -0.578125 1.953125 -0.578125q1.734375 0 2.671875 1.15625q0.953125 1.15625 0.953125 3.109375q0 0.234375 -0.015625 0.46875q0 0.234375 -0.046875 0.40625l-6.109375 0q0.09375 1.4375 0.890625 2.296875q0.8125 0.859375 2.125 0.859375q0.65625 0 1.203125 -0.203125q0.546875 -0.203125 1.0625 -0.515625l0.53125 1.015625q-0.578125 0.375 -1.3125 0.65625q-0.734375 0.265625 -1.671875 0.265625zm-2.859375 -5.484375l4.859375 0q0 -1.375 -0.59375 -2.09375q-0.578125 -0.71875 -1.640625 -0.71875q-0.953125 0 -1.71875 0.734375q-0.75 0.734375 -0.90625 2.078125zm11.31604 5.484375q-1.421875 0 -2.375 -0.5q-0.953125 -0.515625 -1.546875 -1.171875l0.78125 -1.015625q0.546875 0.5625 1.265625 1.0q0.734375 0.421875 1.78125 0.421875q1.078125 0 1.765625 -0.59375q0.6875 -0.59375 0.6875 -1.59375q0 -0.703125 -0.359375 -1.234375q-0.359375 -0.53125 -1.1875 -0.828125q-0.828125 -0.296875 -2.25 -0.296875l0 -1.171875q1.265625 0 2.0 -0.296875q0.734375 -0.3125 1.046875 -0.8125q0.328125 -0.5 0.328125 -1.125q0 -0.875 -0.546875 -1.375q-0.546875 -0.5 -1.5 -0.5q-0.75 0 -1.375 0.34375q-0.625 0.328125 -1.171875 0.875l-0.8125 -0.984375q0.6875 -0.640625 1.515625 -1.0625q0.84375 -0.421875 1.890625 -0.421875q1.546875 0 2.546875 0.796875q1.015625 0.78125 1.015625 2.21875q0 1.09375 -0.59375 1.78125q-0.59375 0.6875 -1.5625 1.0625l0 0.078125q1.078125 0.234375 1.828125 1.015625q0.75 0.765625 0.75 2.0q0 1.046875 -0.53125 1.8125q-0.515625 0.765625 -1.40625 1.171875q-0.890625 0.40625 -1.984375 0.40625zm5.615906 -0.21875l0 -0.921875q1.78125 -1.78125 3.03125 -3.125q1.25 -1.359375 1.90625 -2.453125q0.65625 -1.09375 0.65625 -2.046875q0 -1.03125 -0.5625 -1.671875q-0.5625 -0.65625 -1.703125 -0.65625q-0.734375 0 -1.375 0.421875q-0.625 0.421875 -1.15625 1.015625l-0.875 -0.875q0.75 -0.828125 1.59375 -1.3125q0.84375 -0.5 2.0 -0.5q1.671875 0 2.609375 0.96875q0.953125 0.953125 0.953125 2.53125q0 1.125 -0.625 2.28125q-0.625 1.140625 -1.71875 2.40625q-1.078125 1.25 -2.5 2.71875q0.484375 -0.03125 1.0 -0.0625q0.53125 -0.046875 1.0 -0.046875l3.453125 0l0 1.328125l-7.6875 0z" fill-rule="nonzero"/><path fill="#eeeeee" d="m720.9869 254.65092l151.40155 0l0 55.81102l-151.40155 0z" fill-rule="evenodd"/><path stroke="#595959" stroke-width="1.0" stroke-linejoin="round" stroke-linecap="butt" d="m720.9869 254.65092l151.40155 0l0 55.81102l-151.40155 0z" fill-rule="evenodd"/><path fill="#000000" d="m734.3775 289.6952q-1.46875 0 -2.03125 -0.828125q-0.5625 -0.84375 -0.5625 -2.1875l0 -5.015625l-1.34375 0l0 -1.15625l1.40625 -0.09375l0.1875 -2.546875l1.296875 0l0 2.546875l2.4375 0l0 1.25l-2.4375 0l0 5.03125q0 0.84375 0.296875 1.296875q0.3125 0.453125 1.09375 0.453125q0.25 0 0.53125 -0.078125q0.28125 -0.078125 0.5 -0.15625l0.296875 1.15625q-0.375 0.125 -0.8125 0.21875q-0.4375 0.109375 -0.859375 0.109375zm3.4464111 -0.21875l0 -9.0625l1.53125 0l0 9.0625l-1.53125 0zm0.78125 -10.9375q-0.453125 0 -0.75 -0.265625q-0.28125 -0.265625 -0.28125 -0.734375q0 -0.453125 0.28125 -0.734375q0.296875 -0.28125 0.75 -0.28125q0.453125 0 0.734375 0.28125q0.296875 0.28125 0.296875 0.734375q0 0.46875 -0.296875 0.734375q-0.28125 0.265625 -0.734375 0.265625zm3.8082275 10.9375l0 -9.0625l1.265625 0l0.125 1.296875l0.0625 0q0.59375 -0.640625 1.296875 -1.078125q0.71875 -0.453125 1.515625 -0.453125q1.046875 0 1.625 0.46875q0.59375 0.453125 0.875 1.265625q0.71875 -0.765625 1.4375 -1.25q0.734375 -0.484375 1.546875 -0.484375q1.40625 0 2.078125 0.90625q0.6875 0.90625 0.6875 2.640625l0 5.75l-1.53125 0l0 -5.546875q0 -1.265625 -0.40625 -1.84375q-0.40625 -0.578125 -1.265625 -0.578125q-1.015625 0 -2.28125 1.40625l0 6.5625l-1.53125 0l0 -5.546875q0 -1.265625 -0.40625 -1.84375q-0.40625 -0.578125 -1.296875 -0.578125q-1.0 0 -2.265625 1.40625l0 6.5625l-1.53125 0zm19.137878 0.21875q-1.203125 0 -2.203125 -0.5625q-0.984375 -0.578125 -1.5625 -1.640625q-0.578125 -1.0625 -0.578125 -2.53125q0 -1.484375 0.578125 -2.546875q0.59375 -1.078125 1.53125 -1.65625q0.9375 -0.578125 1.953125 -0.578125q1.734375 0 2.671875 1.15625q0.953125 1.15625 0.953125 3.109375q0 0.234375 -0.015625 0.46875q0 0.234375 -0.046875 0.40625l-6.109375 0q0.09375 1.4375 0.890625 2.296875q0.8125 0.859375 2.125 0.859375q0.65625 0 1.203125 -0.203125q0.546875 -0.203125 1.0625 -0.515625l0.53125 1.015625q-0.578125 0.375 -1.3125 0.65625q-0.734375 0.265625 -1.671875 0.265625zm-2.859375 -5.484375l4.859375 0q0 -1.375 -0.59375 -2.09375q-0.578125 -0.71875 -1.640625 -0.71875q-0.953125 0 -1.71875 0.734375q-0.75 0.734375 -0.90625 2.078125zm10.81604 5.484375q-0.984375 0 -1.859375 -0.359375q-0.875 -0.359375 -1.53125 -0.890625l0.765625 -1.015625q0.609375 0.46875 1.234375 0.78125q0.640625 0.296875 1.4375 0.296875q0.890625 0 1.34375 -0.421875q0.453125 -0.421875 0.453125 -1.0q0 -0.46875 -0.3125 -0.78125q-0.3125 -0.3125 -0.796875 -0.53125q-0.46875 -0.21875 -0.96875 -0.40625q-0.625 -0.234375 -1.25 -0.546875q-0.609375 -0.3125 -1.0 -0.796875q-0.390625 -0.5 -0.390625 -1.265625q0 -1.09375 0.828125 -1.828125q0.828125 -0.75 2.296875 -0.75q0.84375 0 1.5625 0.3125q0.734375 0.296875 1.265625 0.71875l-0.75 0.96875q-0.46875 -0.359375 -0.984375 -0.578125q-0.5 -0.21875 -1.09375 -0.21875q-0.859375 0 -1.265625 0.390625q-0.390625 0.390625 -0.390625 0.90625q0 0.4375 0.28125 0.703125q0.28125 0.265625 0.71875 0.46875q0.453125 0.203125 0.953125 0.40625q0.65625 0.234375 1.28125 0.546875q0.640625 0.3125 1.0625 0.828125q0.421875 0.5 0.421875 1.359375q0 0.734375 -0.390625 1.359375q-0.375 0.609375 -1.109375 0.984375q-0.734375 0.359375 -1.8125 0.359375zm7.9279785 0q-1.46875 0 -2.03125 -0.828125q-0.5625 -0.84375 -0.5625 -2.1875l0 -5.015625l-1.34375 0l0 -1.15625l1.40625 -0.09375l0.1875 -2.546875l1.296875 0l0 2.546875l2.4375 0l0 1.25l-2.4375 0l0 5.03125q0 0.84375 0.296875 1.296875q0.3125 0.453125 1.09375 0.453125q0.25 0 0.53125 -0.078125q0.28125 -0.078125 0.5 -0.15625l0.296875 1.15625q-0.375 0.125 -0.8125 0.21875q-0.4375 0.109375 -0.859375 0.109375zm5.1481934 0q-1.140625 0 -1.90625 -0.671875q-0.75 -0.6875 -0.75 -1.890625q0 -1.5 1.328125 -2.28125q1.34375 -0.796875 4.234375 -1.125q0 -0.578125 -0.15625 -1.09375q-0.15625 -0.53125 -0.5625 -0.84375q-0.40625 -0.328125 -1.140625 -0.328125q-0.796875 0 -1.484375 0.296875q-0.6875 0.296875 -1.234375 0.671875l-0.59375 -1.0625q0.640625 -0.421875 1.5625 -0.796875q0.921875 -0.390625 2.0 -0.390625q1.65625 0 2.40625 1.03125q0.75 1.015625 0.75 2.703125l0 5.5625l-1.265625 0l-0.140625 -1.078125l-0.046875 0q-0.640625 0.515625 -1.390625 0.90625q-0.75 0.390625 -1.609375 0.390625zm0.4375 -1.21875q0.65625 0 1.234375 -0.3125q0.578125 -0.328125 1.234375 -0.90625l0 -2.515625q-2.265625 0.28125 -3.171875 0.84375q-0.890625 0.546875 -0.890625 1.421875q0 0.765625 0.453125 1.125q0.46875 0.34375 1.140625 0.34375zm6.871521 1.0l0 -9.0625l1.265625 0l0.125 1.296875l0.0625 0q0.59375 -0.640625 1.296875 -1.078125q0.71875 -0.453125 1.515625 -0.453125q1.046875 0 1.625 0.46875q0.59375 0.453125 0.875 1.265625q0.71875 -0.765625 1.4375 -1.25q0.734375 -0.484375 1.546875 -0.484375q1.40625 0 2.078125 0.90625q0.6875 0.90625 0.6875 2.640625l0 5.75l-1.53125 0l0 -5.546875q0 -1.265625 -0.40625 -1.84375q-0.40625 -0.578125 -1.265625 -0.578125q-1.015625 0 -2.28125 1.40625l0 6.5625l-1.53125 0l0 -5.546875q0 -1.265625 -0.40625 -1.84375q-0.40625 -0.578125 -1.296875 -0.578125q-1.0 0 -2.265625 1.40625l0 6.5625l-1.53125 0zm15.466003 3.828125l0 -12.890625l1.265625 0l0.125 1.046875l0.0625 0q0.609375 -0.53125 1.34375 -0.90625q0.75 -0.375 1.546875 -0.375q1.75 0 2.65625 1.265625q0.921875 1.265625 0.921875 3.359375q0 1.53125 -0.546875 2.640625q-0.546875 1.09375 -1.4375 1.671875q-0.890625 0.578125 -1.921875 0.578125q-0.640625 0 -1.265625 -0.265625q-0.625 -0.28125 -1.265625 -0.78125l0.046875 1.59375l0 3.0625l-1.53125 0zm3.75 -4.890625q1.125 0 1.859375 -0.953125q0.734375 -0.96875 0.734375 -2.65625q0 -1.484375 -0.5625 -2.40625q-0.546875 -0.921875 -1.828125 -0.921875q-0.578125 0 -1.171875 0.3125q-0.578125 0.3125 -1.25 0.921875l0 4.75q0.609375 0.515625 1.1875 0.734375q0.578125 0.21875 1.03125 0.21875z" fill-rule="nonzero"/><path fill="#000000" d="m532.4488 254.65092l150.48822 0l0 55.81102l-150.48822 0z" fill-rule="evenodd"/><path stroke="#000000" stroke-width="1.0" stroke-linejoin="round" stroke-linecap="butt" d="m532.4488 254.65092l150.48822 0l0 55.81102l-150.48822 0z" fill-rule="evenodd"/><path fill="#ffffff" d="m543.12067 289.47644l0 -12.234375l3.5 0q1.375 0 2.390625 0.34375q1.03125 0.328125 1.609375 1.125q0.578125 0.78125 0.578125 2.125q0 1.921875 -1.25 2.859375q-1.25 0.9375 -3.25 0.9375l-2.015625 0l0 4.84375l-1.5625 0zm1.5625 -6.125l1.828125 0q1.59375 0 2.359375 -0.59375q0.78125 -0.609375 0.78125 -1.921875q0 -1.328125 -0.8125 -1.828125q-0.8125 -0.515625 -2.40625 -0.515625l-1.75 0l0 4.859375zm13.512573 6.34375q-1.515625 0 -2.703125 -0.78125q-1.1875 -0.78125 -1.859375 -2.21875q-0.65625 -1.4375 -0.65625 -3.390625q0 -1.96875 0.65625 -3.375q0.671875 -1.40625 1.859375 -2.15625q1.1875 -0.765625 2.703125 -0.765625q1.5625 0 2.734375 0.765625q1.171875 0.75 1.84375 2.15625q0.671875 1.40625 0.671875 3.375q0 1.953125 -0.671875 3.390625q-0.671875 1.4375 -1.84375 2.21875q-1.171875 0.78125 -2.734375 0.78125zm0 -1.359375q1.109375 0 1.921875 -0.625q0.8125 -0.625 1.25 -1.75q0.453125 -1.125 0.453125 -2.65625q0 -2.28125 -1.0 -3.59375q-0.984375 -1.328125 -2.625 -1.328125q-1.640625 0 -2.625 1.328125q-0.984375 1.3125 -0.984375 3.59375q0 1.53125 0.4375 2.65625q0.453125 1.125 1.265625 1.75q0.828125 0.625 1.90625 0.625zm11.278381 1.359375q-1.296875 0 -2.40625 -0.484375q-1.09375 -0.5 -1.890625 -1.3125l0.9375 -1.09375q0.65625 0.6875 1.53125 1.109375q0.890625 0.421875 1.84375 0.421875q1.21875 0 1.890625 -0.546875q0.671875 -0.546875 0.671875 -1.453125q0 -0.625 -0.28125 -1.0q-0.265625 -0.375 -0.734375 -0.625q-0.453125 -0.265625 -1.03125 -0.53125l-1.75 -0.765625q-0.578125 -0.25 -1.15625 -0.640625q-0.5625 -0.390625 -0.953125 -1.0q-0.375 -0.625 -0.375 -1.515625q0 -0.9375 0.5 -1.671875q0.5 -0.734375 1.375 -1.15625q0.875 -0.421875 1.96875 -0.421875q1.109375 0 2.03125 0.421875q0.9375 0.421875 1.59375 1.09375l-0.84375 1.015625q-0.5625 -0.546875 -1.25 -0.84375q-0.671875 -0.3125 -1.53125 -0.3125q-1.015625 0 -1.640625 0.484375q-0.625 0.484375 -0.625 1.296875q0 0.578125 0.296875 0.96875q0.3125 0.375 0.78125 0.625q0.46875 0.234375 0.953125 0.4375l1.734375 0.75q0.703125 0.296875 1.265625 0.71875q0.578125 0.421875 0.90625 1.03125q0.34375 0.609375 0.34375 1.515625q0 0.96875 -0.5 1.765625q-0.5 0.796875 -1.4375 1.265625q-0.9375 0.453125 -2.21875 0.453125zm6.5562134 -0.21875l0 -12.234375l1.5625 0l0 12.234375l-1.5625 0zm3.5159302 0l3.5625 -6.328125l-3.328125 -5.90625l1.71875 0l1.671875 3.125q0.234375 0.421875 0.453125 0.828125q0.21875 0.40625 0.484375 0.953125l0.078125 0q0.265625 -0.546875 0.453125 -0.953125q0.203125 -0.40625 0.421875 -0.828125l1.625 -3.125l1.640625 0l-3.328125 5.984375l3.5625 6.25l-1.71875 0l-1.796875 -3.296875q-0.234375 -0.453125 -0.5 -0.921875q-0.25 -0.484375 -0.546875 -1.046875l-0.0625 0q-0.265625 0.5625 -0.515625 1.046875q-0.234375 0.46875 -0.46875 0.921875l-1.765625 3.296875l-1.640625 0zm14.268127 0.21875q-1.1875 0 -2.15625 -0.546875q-0.96875 -0.5625 -1.53125 -1.625q-0.5625 -1.0625 -0.5625 -2.5625q0 -1.53125 0.609375 -2.59375q0.609375 -1.0625 1.59375 -1.625q1.0 -0.5625 2.15625 -0.5625q0.90625 0 1.546875 0.328125q0.640625 0.3125 1.109375 0.734375l-0.78125 1.015625q-0.390625 -0.359375 -0.828125 -0.578125q-0.4375 -0.21875 -0.984375 -0.21875q-0.828125 0 -1.46875 0.4375q-0.640625 0.4375 -1.015625 1.234375q-0.359375 0.78125 -0.359375 1.828125q0 1.546875 0.78125 2.515625q0.78125 0.953125 2.03125 0.953125q0.625 0 1.15625 -0.265625q0.546875 -0.265625 0.96875 -0.640625l0.671875 1.015625q-0.625 0.546875 -1.375 0.859375q-0.734375 0.296875 -1.5625 0.296875zm7.6018677 0q-1.46875 0 -2.03125 -0.828125q-0.5625 -0.84375 -0.5625 -2.1875l0 -5.015625l-1.34375 0l0 -1.15625l1.40625 -0.09375l0.1875 -2.546875l1.296875 0l0 2.546875l2.4375 0l0 1.25l-2.4375 0l0 5.03125q0 0.84375 0.296875 1.296875q0.3125 0.453125 1.09375 0.453125q0.25 0 0.53125 -0.078125q0.28125 -0.078125 0.5 -0.15625l0.296875 1.15625q-0.375 0.125 -0.8125 0.21875q-0.4375 0.109375 -0.859375 0.109375z" fill-rule="nonzero"/><path fill="#000000" fill-opacity="0.0" d="m720.9869 122.55643l-19.02478 0l0 0.06299591l-19.02246 0" fill-rule="evenodd"/><path stroke="#595959" stroke-width="1.0" stroke-linejoin="round" stroke-linecap="butt" d="m714.9869 122.55643l-13.02478 0l0 0.06299591l-13.022461 0" fill-rule="evenodd"/><path fill="#595959" stroke="#595959" stroke-width="1.0" stroke-linecap="butt" d="m714.9869 124.20816l4.538086 -1.6517334l-4.538086 -1.6517258z" fill-rule="evenodd"/><path fill="#595959" stroke="#595959" stroke-width="1.0" stroke-linecap="butt" d="m688.93964 120.96769l-4.538086 1.6517334l4.538086 1.6517334z" fill-rule="evenodd"/><path fill="#000000" fill-opacity="0.0" d="m508.13385 24.729658l189.29132 0l0 42.015747l-189.29132 0z" fill-rule="evenodd"/><path fill="#000000" d="m518.57135 51.64966l0 -12.15625l3.4375 0q1.859375 0 3.21875 0.640625q1.359375 0.625 2.109375 1.953125q0.765625 1.328125 0.765625 3.421875q0 2.09375 -0.75 3.453125q-0.734375 1.359375 -2.078125 2.03125q-1.328125 0.65625 -3.125 0.65625l-3.578125 0zm2.734375 -2.21875l0.53125 0q1.046875 0 1.8125 -0.375q0.78125 -0.375 1.203125 -1.234375q0.4375 -0.859375 0.4375 -2.3125q0 -1.453125 -0.4375 -2.28125q-0.421875 -0.828125 -1.203125 -1.171875q-0.765625 -0.34375 -1.8125 -0.34375l-0.53125 0l0 7.71875zm11.221741 2.4375q-1.265625 0 -2.015625 -0.8125q-0.75 -0.8125 -0.75 -1.984375q0 -1.453125 1.234375 -2.265625q1.234375 -0.828125 3.96875 -1.109375q-0.03125 -0.609375 -0.359375 -0.96875q-0.328125 -0.375 -1.09375 -0.375q-0.578125 0 -1.171875 0.234375q-0.59375 0.21875 -1.265625 0.609375l-1.0 -1.8125q0.890625 -0.546875 1.875 -0.875q1.0 -0.34375 2.09375 -0.34375q1.765625 0 2.71875 1.03125q0.953125 1.03125 0.953125 3.15625l0 5.296875l-2.234375 0l-0.1875 -0.953125l-0.078125 0q-0.578125 0.53125 -1.25 0.859375q-0.65625 0.3125 -1.4375 0.3125zm0.9375 -2.125q0.453125 0 0.796875 -0.203125q0.359375 -0.21875 0.703125 -0.578125l0 -1.625q-1.453125 0.1875 -2.015625 0.59375q-0.546875 0.390625 -0.546875 0.9375q0 0.453125 0.28125 0.671875q0.296875 0.203125 0.78125 0.203125zm9.792725 2.125q-1.71875 0 -2.46875 -0.984375q-0.734375 -0.984375 -0.734375 -2.59375l0 -3.75l-1.265625 0l0 -2.03125l1.421875 -0.109375l0.3125 -2.46875l2.28125 0l0 2.46875l2.21875 0l0 2.140625l-2.21875 0l0 3.71875q0 0.78125 0.328125 1.125q0.328125 0.34375 0.859375 0.34375q0.234375 0 0.46875 -0.046875q0.234375 -0.0625 0.421875 -0.140625l0.421875 2.0q-0.359375 0.109375 -0.875 0.21875q-0.5 0.109375 -1.171875 0.109375zm7.387451 0q-1.328125 0 -2.390625 -0.578125q-1.0625 -0.578125 -1.6875 -1.65625q-0.609375 -1.078125 -0.609375 -2.609375q0 -1.515625 0.625 -2.59375q0.625 -1.078125 1.625 -1.671875q1.015625 -0.59375 2.109375 -0.59375q1.328125 0 2.1875 0.59375q0.875 0.59375 1.3125 1.59375q0.4375 0.984375 0.4375 2.265625q0 0.34375 -0.03125 0.6875q-0.03125 0.34375 -0.078125 0.515625l-5.53125 0q0.171875 1.015625 0.828125 1.5q0.65625 0.46875 1.578125 0.46875q0.984375 0 1.984375 -0.625l0.921875 1.65625q-0.71875 0.5 -1.59375 0.78125q-0.875 0.265625 -1.6875 0.265625zm-2.0625 -5.859375l3.34375 0q0 -0.765625 -0.375 -1.25q-0.359375 -0.5 -1.171875 -0.5q-0.640625 0 -1.140625 0.4375q-0.5 0.4375 -0.65625 1.3125zm6.6170654 8.625l3.75 -16.234375l1.78125 0l-3.75 16.234375l-1.78125 0zm10.76239 -2.765625q-1.71875 0 -2.46875 -0.984375q-0.734375 -0.984375 -0.734375 -2.59375l0 -3.75l-1.265625 0l0 -2.03125l1.421875 -0.109375l0.3125 -2.46875l2.28125 0l0 2.46875l2.21875 0l0 2.140625l-2.21875 0l0 3.71875q0 0.78125 0.328125 1.125q0.328125 0.34375 0.859375 0.34375q0.234375 0 0.46875 -0.046875q0.234375 -0.0625 0.421875 -0.140625l0.421875 2.0q-0.359375 0.109375 -0.875 0.21875q-0.5 0.109375 -1.171875 0.109375zm3.5828247 -0.21875l0 -9.25l2.734375 0l0 9.25l-2.734375 0zm1.359375 -10.609375q-0.6875 0 -1.125 -0.390625q-0.421875 -0.40625 -0.421875 -1.046875q0 -0.65625 0.421875 -1.046875q0.4375 -0.390625 1.125 -0.390625q0.6875 0 1.109375 0.390625q0.4375 0.390625 0.4375 1.046875q0 0.640625 -0.4375 1.046875q-0.421875 0.390625 -1.109375 0.390625zm3.789734 10.609375l0 -9.25l2.234375 0l0.1875 1.1875l0.078125 0q0.578125 -0.578125 1.21875 -1.0q0.65625 -0.421875 1.578125 -0.421875q0.984375 0 1.59375 0.40625q0.609375 0.40625 0.953125 1.15625q0.625 -0.640625 1.3125 -1.09375q0.6875 -0.46875 1.609375 -0.46875q1.484375 0 2.1875 1.0q0.703125 1.0 0.703125 2.734375l0 5.75l-2.75 0l0 -5.390625q0 -1.015625 -0.28125 -1.375q-0.265625 -0.375 -0.859375 -0.375q-0.6875 0 -1.578125 0.890625l0 6.25l-2.75 0l0 -5.390625q0 -1.015625 -0.265625 -1.375q-0.265625 -0.375 -0.875 -0.375q-0.6875 0 -1.5625 0.890625l0 6.25l-2.734375 0zm20.129028 0.21875q-1.328125 0 -2.390625 -0.578125q-1.0625 -0.578125 -1.6875 -1.65625q-0.609375 -1.078125 -0.609375 -2.609375q0 -1.515625 0.625 -2.59375q0.625 -1.078125 1.625 -1.671875q1.015625 -0.59375 2.109375 -0.59375q1.328125 0 2.1875 0.59375q0.875 0.59375 1.3125 1.59375q0.4375 0.984375 0.4375 2.265625q0 0.34375 -0.03125 0.6875q-0.03125 0.34375 -0.078125 0.515625l-5.53125 0q0.171875 1.015625 0.828125 1.5q0.65625 0.46875 1.578125 0.46875q0.984375 0 1.984375 -0.625l0.921875 1.65625q-0.71875 0.5 -1.59375 0.78125q-0.875 0.265625 -1.6875 0.265625zm-2.0625 -5.859375l3.34375 0q0 -0.765625 -0.375 -1.25q-0.359375 -0.5 -1.171875 -0.5q-0.640625 0 -1.140625 0.4375q-0.5 0.4375 -0.65625 1.3125zm14.879578 5.859375q-1.71875 0 -2.46875 -0.984375q-0.734375 -0.984375 -0.734375 -2.59375l0 -3.75l-1.265625 0l0 -2.03125l1.421875 -0.109375l0.3125 -2.46875l2.28125 0l0 2.46875l2.21875 0l0 2.140625l-2.21875 0l0 3.71875q0 0.78125 0.328125 1.125q0.328125 0.34375 0.859375 0.34375q0.234375 0 0.46875 -0.046875q0.234375 -0.0625 0.421875 -0.140625l0.421875 2.0q-0.359375 0.109375 -0.875 0.21875q-0.5 0.109375 -1.171875 0.109375zm4.5984497 3.40625q-0.40625 0 -0.71875 -0.0625q-0.296875 -0.0625 -0.578125 -0.125l0.484375 -2.09375q0.125 0.015625 0.296875 0.0625q0.171875 0.046875 0.3125 0.046875q0.6875 0 1.0625 -0.34375q0.375 -0.328125 0.5625 -0.859375l0.125 -0.5l-3.5625 -9.0l2.765625 0l1.328125 3.96875q0.203125 0.640625 0.359375 1.296875q0.171875 0.640625 0.359375 1.328125l0.078125 0q0.15625 -0.640625 0.3125 -1.296875q0.15625 -0.671875 0.328125 -1.328125l1.109375 -3.96875l2.640625 0l-3.21875 9.34375q-0.421875 1.15625 -0.953125 1.9375q-0.515625 0.796875 -1.25 1.1875q-0.734375 0.40625 -1.84375 0.40625zm8.704285 -0.1875l0 -12.6875l2.234375 0l0.1875 0.90625l0.078125 0q0.53125 -0.484375 1.203125 -0.8125q0.6875 -0.328125 1.421875 -0.328125q1.671875 0 2.640625 1.28125q0.984375 1.28125 0.984375 3.421875q0 1.59375 -0.5625 2.71875q-0.5625 1.109375 -1.453125 1.703125q-0.875 0.578125 -1.890625 0.578125q-0.59375 0 -1.15625 -0.25q-0.5625 -0.25 -1.046875 -0.71875l0.09375 1.484375l0 2.703125l-2.734375 0zm4.203125 -5.453125q0.71875 0 1.21875 -0.65625q0.5 -0.65625 0.5 -2.0625q0 -2.5 -1.59375 -2.5q-0.8125 0 -1.59375 0.828125l0 3.796875q0.375 0.328125 0.75 0.46875q0.375 0.125 0.71875 0.125zm10.627563 2.234375q-1.328125 0 -2.390625 -0.578125q-1.0625 -0.578125 -1.6875 -1.65625q-0.609375 -1.078125 -0.609375 -2.609375q0 -1.515625 0.625 -2.59375q0.625 -1.078125 1.625 -1.671875q1.015625 -0.59375 2.109375 -0.59375q1.328125 0 2.1875 0.59375q0.875 0.59375 1.3125 1.59375q0.4375 0.984375 0.4375 2.265625q0 0.34375 -0.03125 0.6875q-0.03125 0.34375 -0.078125 0.515625l-5.53125 0q0.171875 1.015625 0.828125 1.5q0.65625 0.46875 1.578125 0.46875q0.984375 0 1.984375 -0.625l0.921875 1.65625q-0.71875 0.5 -1.59375 0.78125q-0.875 0.265625 -1.6875 0.265625zm-2.0625 -5.859375l3.34375 0q0 -0.765625 -0.375 -1.25q-0.359375 -0.5 -1.171875 -0.5q-0.640625 0 -1.140625 0.4375q-0.5 0.4375 -0.65625 1.3125zm10.304565 5.859375q-0.921875 0 -1.890625 -0.34375q-0.953125 -0.359375 -1.65625 -0.9375l1.234375 -1.71875q0.625 0.46875 1.21875 0.71875q0.59375 0.25 1.171875 0.25q0.609375 0 0.890625 -0.203125q0.28125 -0.21875 0.28125 -0.578125q0 -0.3125 -0.28125 -0.515625q-0.265625 -0.21875 -0.703125 -0.390625q-0.421875 -0.171875 -0.90625 -0.359375q-0.546875 -0.21875 -1.109375 -0.546875q-0.546875 -0.34375 -0.921875 -0.875q-0.375 -0.546875 -0.375 -1.296875q0 -1.296875 0.984375 -2.09375q0.984375 -0.8125 2.5625 -0.8125q1.0625 0 1.875 0.375q0.8125 0.359375 1.390625 0.8125l-1.234375 1.640625q-0.484375 -0.375 -0.96875 -0.578125q-0.484375 -0.203125 -0.96875 -0.203125q-1.0625 0 -1.0625 0.71875q0 0.453125 0.53125 0.6875q0.53125 0.234375 1.25 0.484375q0.59375 0.21875 1.15625 0.546875q0.578125 0.3125 0.953125 0.84375q0.390625 0.53125 0.390625 1.390625q0 1.25 -0.984375 2.125q-0.96875 0.859375 -2.828125 0.859375z" fill-rule="nonzero"/><path fill="#eeeeee" d="m720.9869 166.65092l151.40155 0l0 55.81102l-151.40155 0z" fill-rule="evenodd"/><path stroke="#595959" stroke-width="1.0" stroke-linejoin="round" stroke-linecap="butt" d="m720.9869 166.65092l151.40155 0l0 55.81102l-151.40155 0z" fill-rule="evenodd"/><path fill="#000000" d="m734.6119 201.69518q-1.703125 0 -2.734375 -1.234375q-1.015625 -1.234375 -1.015625 -3.5q0 -1.46875 0.546875 -2.546875q0.5625 -1.078125 1.453125 -1.65625q0.90625 -0.578125 1.9375 -0.578125q0.78125 0 1.359375 0.28125q0.578125 0.28125 1.171875 0.765625l-0.0625 -1.546875l0 -3.484375l1.546875 0l0 13.28125l-1.265625 0l-0.140625 -1.0625l-0.046875 0q-0.53125 0.515625 -1.25 0.90625q-0.703125 0.375 -1.5 0.375zm0.34375 -1.28125q1.1875 0 2.3125 -1.25l0 -4.734375q-0.578125 -0.53125 -1.109375 -0.734375q-0.53125 -0.21875 -1.09375 -0.21875q-0.734375 0 -1.328125 0.4375q-0.578125 0.4375 -0.9375 1.21875q-0.34375 0.765625 -0.34375 1.8125q0 1.625 0.640625 2.546875q0.65625 0.921875 1.859375 0.921875zm9.010437 1.28125q-1.140625 0 -1.90625 -0.671875q-0.75 -0.6875 -0.75 -1.890625q0 -1.5 1.328125 -2.28125q1.34375 -0.796875 4.234375 -1.125q0 -0.578125 -0.15625 -1.09375q-0.15625 -0.53125 -0.5625 -0.84375q-0.40625 -0.328125 -1.140625 -0.328125q-0.796875 0 -1.484375 0.296875q-0.6875 0.296875 -1.234375 0.671875l-0.59375 -1.0625q0.640625 -0.421875 1.5625 -0.796875q0.921875 -0.390625 2.0 -0.390625q1.65625 0 2.40625 1.03125q0.75 1.015625 0.75 2.703125l0 5.5625l-1.265625 0l-0.140625 -1.078125l-0.046875 0q-0.640625 0.515625 -1.390625 0.90625q-0.75 0.390625 -1.609375 0.390625zm0.4375 -1.21875q0.65625 0 1.234375 -0.3125q0.578125 -0.328125 1.234375 -0.90625l0 -2.515625q-2.265625 0.28125 -3.171875 0.84375q-0.890625 0.546875 -0.890625 1.421875q0 0.765625 0.453125 1.125q0.46875 0.34375 1.140625 0.34375zm9.469543 1.21875q-1.46875 0 -2.03125 -0.828125q-0.5625 -0.84375 -0.5625 -2.1875l0 -5.015625l-1.34375 0l0 -1.15625l1.40625 -0.09375l0.1875 -2.546875l1.296875 0l0 2.546875l2.4375 0l0 1.25l-2.4375 0l0 5.03125q0 0.84375 0.296875 1.296875q0.3125 0.453125 1.09375 0.453125q0.25 0 0.53125 -0.078125q0.28125 -0.078125 0.5 -0.15625l0.296875 1.15625q-0.375 0.125 -0.8125 0.21875q-0.4375 0.109375 -0.859375 0.109375zm6.8569946 0q-1.203125 0 -2.203125 -0.5625q-0.984375 -0.578125 -1.5625 -1.640625q-0.578125 -1.0625 -0.578125 -2.53125q0 -1.484375 0.578125 -2.546875q0.59375 -1.078125 1.53125 -1.65625q0.9375 -0.578125 1.953125 -0.578125q1.734375 0 2.671875 1.15625q0.953125 1.15625 0.953125 3.109375q0 0.234375 -0.015625 0.46875q0 0.234375 -0.046875 0.40625l-6.109375 0q0.09375 1.4375 0.890625 2.296875q0.8125 0.859375 2.125 0.859375q0.65625 0 1.203125 -0.203125q0.546875 -0.203125 1.0625 -0.515625l0.53125 1.015625q-0.578125 0.375 -1.3125 0.65625q-0.734375 0.265625 -1.671875 0.265625zm-2.859375 -5.484375l4.859375 0q0 -1.375 -0.59375 -2.09375q-0.578125 -0.71875 -1.640625 -0.71875q-0.953125 0 -1.71875 0.734375q-0.75 0.734375 -0.90625 2.078125zm11.78479 -0.859375q-0.578125 0 -1.25 0.375q-0.671875 0.375 -1.234375 1.203125q0.140625 1.734375 0.796875 2.65625q0.671875 0.90625 1.8125 0.90625q0.875 0 1.46875 -0.71875q0.609375 -0.71875 0.609375 -1.890625q0 -1.15625 -0.5625 -1.84375q-0.546875 -0.6875 -1.640625 -0.6875zm0.125 6.34375q-1.15625 0 -2.09375 -0.625q-0.921875 -0.640625 -1.46875 -1.90625q-0.546875 -1.28125 -0.546875 -3.1875q0 -2.390625 0.640625 -3.84375q0.65625 -1.453125 1.6875 -2.109375q1.03125 -0.671875 2.203125 -0.671875q0.984375 0 1.671875 0.359375q0.703125 0.359375 1.203125 0.90625l-0.859375 0.953125q-0.34375 -0.421875 -0.875 -0.671875q-0.515625 -0.265625 -1.078125 -0.265625q-0.84375 0 -1.53125 0.484375q-0.6875 0.46875 -1.125 1.578125q-0.4375 1.109375 -0.484375 3.0q0.5625 -0.6875 1.3125 -1.09375q0.75 -0.40625 1.46875 -0.40625q1.546875 0 2.46875 0.9375q0.9375 0.921875 0.9375 2.75q0 1.125 -0.484375 1.984375q-0.484375 0.859375 -1.28125 1.34375q-0.796875 0.484375 -1.765625 0.484375zm6.209656 -4.734375l3.734375 0l0 -3.453125q0 -0.484375 0.03125 -1.15625q0.046875 -0.671875 0.0625 -1.140625l-0.078125 0q-0.21875 0.4375 -0.46875 0.84375q-0.234375 0.40625 -0.5 0.84375l-2.78125 4.0625zm3.734375 4.515625l0 -3.28125l-5.359375 0l0 -1.015625l5.09375 -7.609375l1.71875 0l0 7.390625l1.625 0l0 1.234375l-1.625 0l0 3.28125l-1.453125 0z" fill-rule="nonzero"/><path fill="#000000" d="m532.4488 331.2362l150.48822 0l0 55.811035l-150.48822 0z" fill-rule="evenodd"/><path stroke="#000000" stroke-width="1.0" stroke-linejoin="round" stroke-linecap="butt" d="m532.4488 331.2362l150.48822 0l0 55.811035l-150.48822 0z" fill-rule="evenodd"/><path fill="#ffffff" d="m543.12067 366.06174l0 -12.234375l3.5 0q1.375 0 2.390625 0.34375q1.03125 0.328125 1.609375 1.125q0.578125 0.78125 0.578125 2.125q0 1.921875 -1.25 2.859375q-1.25 0.9375 -3.25 0.9375l-2.015625 0l0 4.84375l-1.5625 0zm1.5625 -6.125l1.828125 0q1.59375 0 2.359375 -0.59375q0.78125 -0.609375 0.78125 -1.921875q0 -1.328125 -0.8125 -1.828125q-0.8125 -0.515625 -2.40625 -0.515625l-1.75 0l0 4.859375zm13.512573 6.34375q-1.515625 0 -2.703125 -0.78125q-1.1875 -0.78125 -1.859375 -2.21875q-0.65625 -1.4375 -0.65625 -3.390625q0 -1.96875 0.65625 -3.375q0.671875 -1.40625 1.859375 -2.15625q1.1875 -0.765625 2.703125 -0.765625q1.5625 0 2.734375 0.765625q1.171875 0.75 1.84375 2.15625q0.671875 1.40625 0.671875 3.375q0 1.953125 -0.671875 3.390625q-0.671875 1.4375 -1.84375 2.21875q-1.171875 0.78125 -2.734375 0.78125zm0 -1.359375q1.109375 0 1.921875 -0.625q0.8125 -0.625 1.25 -1.75q0.453125 -1.125 0.453125 -2.65625q0 -2.28125 -1.0 -3.59375q-0.984375 -1.328125 -2.625 -1.328125q-1.640625 0 -2.625 1.328125q-0.984375 1.3125 -0.984375 3.59375q0 1.53125 0.4375 2.65625q0.453125 1.125 1.265625 1.75q0.828125 0.625 1.90625 0.625zm11.278381 1.359375q-1.296875 0 -2.40625 -0.484375q-1.09375 -0.5 -1.890625 -1.3125l0.9375 -1.09375q0.65625 0.6875 1.53125 1.109375q0.890625 0.421875 1.84375 0.421875q1.21875 0 1.890625 -0.546875q0.671875 -0.546875 0.671875 -1.453125q0 -0.625 -0.28125 -1.0q-0.265625 -0.375 -0.734375 -0.625q-0.453125 -0.265625 -1.03125 -0.53125l-1.75 -0.765625q-0.578125 -0.25 -1.15625 -0.640625q-0.5625 -0.390625 -0.953125 -1.0q-0.375 -0.625 -0.375 -1.515625q0 -0.9375 0.5 -1.671875q0.5 -0.734375 1.375 -1.15625q0.875 -0.421875 1.96875 -0.421875q1.109375 0 2.03125 0.421875q0.9375 0.421875 1.59375 1.09375l-0.84375 1.015625q-0.5625 -0.546875 -1.25 -0.84375q-0.671875 -0.3125 -1.53125 -0.3125q-1.015625 0 -1.640625 0.484375q-0.625 0.484375 -0.625 1.296875q0 0.578125 0.296875 0.96875q0.3125 0.375 0.78125 0.625q0.46875 0.234375 0.953125 0.4375l1.734375 0.75q0.703125 0.296875 1.265625 0.71875q0.578125 0.421875 0.90625 1.03125q0.34375 0.609375 0.34375 1.515625q0 0.96875 -0.5 1.765625q-0.5 0.796875 -1.4375 1.265625q-0.9375 0.453125 -2.21875 0.453125zm6.5562134 -0.21875l0 -12.234375l1.5625 0l0 12.234375l-1.5625 0zm3.5159302 0l3.5625 -6.328125l-3.328125 -5.90625l1.71875 0l1.671875 3.125q0.234375 0.421875 0.453125 0.828125q0.21875 0.40625 0.484375 0.953125l0.078125 0q0.265625 -0.546875 0.453125 -0.953125q0.203125 -0.40625 0.421875 -0.828125l1.625 -3.125l1.640625 0l-3.328125 5.984375l3.5625 6.25l-1.71875 0l-1.796875 -3.296875q-0.234375 -0.453125 -0.5 -0.921875q-0.25 -0.484375 -0.546875 -1.046875l-0.0625 0q-0.265625 0.5625 -0.515625 1.046875q-0.234375 0.46875 -0.46875 0.921875l-1.765625 3.296875l-1.640625 0zm12.445679 0.21875q-0.859375 0 -1.25 -0.53125q-0.375 -0.53125 -0.375 -1.515625l0 -11.453125l1.53125 0l0 11.5625q0 0.359375 0.125 0.515625q0.140625 0.15625 0.296875 0.15625q0.078125 0 0.140625 0q0.0625 -0.015625 0.203125 -0.03125l0.203125 1.15625q-0.15625 0.078125 -0.359375 0.109375q-0.203125 0.03125 -0.515625 0.03125zm5.991699 0q-1.46875 0 -2.03125 -0.828125q-0.5625 -0.84375 -0.5625 -2.1875l0 -5.015625l-1.34375 0l0 -1.15625l1.40625 -0.09375l0.1875 -2.546875l1.296875 0l0 2.546875l2.4375 0l0 1.25l-2.4375 0l0 5.03125q0 0.84375 0.296875 1.296875q0.3125 0.453125 1.09375 0.453125q0.25 0 0.53125 -0.078125q0.28125 -0.078125 0.5 -0.15625l0.296875 1.15625q-0.375 0.125 -0.8125 0.21875q-0.4375 0.109375 -0.859375 0.109375z" fill-rule="nonzero"/><path fill="#eeeeee" d="m720.9869 451.74014l151.40155 0l0 55.811035l-151.40155 0z" fill-rule="evenodd"/><path stroke="#595959" stroke-width="1.0" stroke-linejoin="round" stroke-linecap="butt" d="m720.9869 451.74014l151.40155 0l0 55.811035l-151.40155 0z" fill-rule="evenodd"/><path fill="#000000" d="m733.8931 486.78442q-0.984375 0 -1.859375 -0.359375q-0.875 -0.359375 -1.53125 -0.890625l0.765625 -1.015625q0.609375 0.46875 1.234375 0.78125q0.640625 0.296875 1.4375 0.296875q0.890625 0 1.34375 -0.421875q0.453125 -0.421875 0.453125 -1.0q0 -0.46875 -0.3125 -0.78125q-0.3125 -0.3125 -0.796875 -0.53125q-0.46875 -0.21875 -0.96875 -0.40625q-0.625 -0.234375 -1.25 -0.546875q-0.609375 -0.3125 -1.0 -0.796875q-0.390625 -0.5 -0.390625 -1.265625q0 -1.09375 0.828125 -1.828125q0.828125 -0.75 2.296875 -0.75q0.84375 0 1.5625 0.3125q0.734375 0.296875 1.265625 0.71875l-0.75 0.96875q-0.46875 -0.359375 -0.984375 -0.578125q-0.5 -0.21875 -1.09375 -0.21875q-0.859375 0 -1.265625 0.390625q-0.390625 0.390625 -0.390625 0.90625q0 0.4375 0.28125 0.703125q0.28125 0.265625 0.71875 0.46875q0.453125 0.203125 0.953125 0.40625q0.65625 0.234375 1.28125 0.546875q0.640625 0.3125 1.0625 0.828125q0.421875 0.5 0.421875 1.359375q0 0.734375 -0.390625 1.359375q-0.375 0.609375 -1.109375 0.984375q-0.734375 0.359375 -1.8125 0.359375zm7.9279785 0q-1.46875 0 -2.03125 -0.828125q-0.5625 -0.84375 -0.5625 -2.1875l0 -5.015625l-1.34375 0l0 -1.15625l1.40625 -0.09375l0.1875 -2.546875l1.296875 0l0 2.546875l2.4375 0l0 1.25l-2.4375 0l0 5.03125q0 0.84375 0.296875 1.296875q0.3125 0.453125 1.09375 0.453125q0.25 0 0.53125 -0.078125q0.28125 -0.078125 0.5 -0.15625l0.296875 1.15625q-0.375 0.125 -0.8125 0.21875q-0.4375 0.109375 -0.859375 0.109375zm3.4464722 -0.21875l0 -9.0625l1.265625 0l0.125 1.640625l0.0625 0q0.46875 -0.859375 1.140625 -1.359375q0.671875 -0.515625 1.4375 -0.515625q0.53125 0 0.96875 0.1875l-0.296875 1.34375q-0.234375 -0.0625 -0.421875 -0.09375q-0.171875 -0.046875 -0.453125 -0.046875q-0.578125 0 -1.203125 0.46875q-0.625 0.453125 -1.09375 1.609375l0 5.828125l-1.53125 0zm9.114319 0.21875q-1.421875 0 -2.09375 -0.890625q-0.671875 -0.90625 -0.671875 -2.65625l0 -5.734375l1.546875 0l0 5.53125q0 1.28125 0.390625 1.859375q0.40625 0.578125 1.296875 0.578125q0.71875 0 1.265625 -0.359375q0.546875 -0.375 1.1875 -1.171875l0 -6.4375l1.53125 0l0 9.0625l-1.28125 0l-0.125 -1.421875l-0.0625 0q-0.625 0.75 -1.34375 1.203125q-0.703125 0.4375 -1.640625 0.4375zm11.086548 0q-1.1875 0 -2.15625 -0.546875q-0.96875 -0.5625 -1.53125 -1.625q-0.5625 -1.0625 -0.5625 -2.5625q0 -1.53125 0.609375 -2.59375q0.609375 -1.0625 1.59375 -1.625q1.0 -0.5625 2.15625 -0.5625q0.90625 0 1.546875 0.328125q0.640625 0.3125 1.109375 0.734375l-0.78125 1.015625q-0.390625 -0.359375 -0.828125 -0.578125q-0.4375 -0.21875 -0.984375 -0.21875q-0.828125 0 -1.46875 0.4375q-0.640625 0.4375 -1.015625 1.234375q-0.359375 0.78125 -0.359375 1.828125q0 1.546875 0.78125 2.515625q0.78125 0.953125 2.03125 0.953125q0.625 0 1.15625 -0.265625q0.546875 -0.265625 0.96875 -0.640625l0.671875 1.015625q-0.625 0.546875 -1.375 0.859375q-0.734375 0.296875 -1.5625 0.296875zm7.6018066 0q-1.46875 0 -2.03125 -0.828125q-0.5625 -0.84375 -0.5625 -2.1875l0 -5.015625l-1.34375 0l0 -1.15625l1.40625 -0.09375l0.1875 -2.546875l1.296875 0l0 2.546875l2.4375 0l0 1.25l-2.4375 0l0 5.03125q0 0.84375 0.296875 1.296875q0.3125 0.453125 1.09375 0.453125q0.25 0 0.53125 -0.078125q0.28125 -0.078125 0.5 -0.15625l0.296875 1.15625q-0.375 0.125 -0.8125 0.21875q-0.4375 0.109375 -0.859375 0.109375z" fill-rule="nonzero"/><path fill="#000000" fill-opacity="0.0" d="m720.9869 194.55643l-113.29132 0l0 -44.094482" fill-rule="evenodd"/><path stroke="#595959" stroke-width="1.0" stroke-linejoin="round" stroke-linecap="butt" d="m720.9869 194.55643l-113.29132 0l0 -38.094482" fill-rule="evenodd"/><path fill="#595959" stroke="#595959" stroke-width="1.0" stroke-linecap="butt" d="m609.3473 156.46194l-1.6517334 -4.538101l-1.6517334 4.538101z" fill-rule="evenodd"/><path fill="#000000" fill-opacity="0.0" d="m682.937 359.14172l113.763794 0l0 92.59842" fill-rule="evenodd"/><path stroke="#595959" stroke-width="1.0" stroke-linejoin="round" stroke-linecap="butt" d="m682.937 359.14172l113.763794 0l0 86.59842" fill-rule="evenodd"/><path fill="#595959" stroke="#595959" stroke-width="1.0" stroke-linecap="butt" d="m795.0491 445.74014l1.6517334 4.5381165l1.6517334 -4.5381165z" fill-rule="evenodd"/><path fill="#000000" fill-opacity="0.0" d="m682.937 282.55643l38.04724 0" fill-rule="evenodd"/><path stroke="#595959" stroke-width="1.0" stroke-linejoin="round" stroke-linecap="butt" d="m688.937 282.55643l26.047241 0" fill-rule="evenodd"/><path fill="#595959" stroke="#595959" stroke-width="1.0" stroke-linecap="butt" d="m688.937 280.9047l-4.538086 1.6517334l4.538086 1.6517334z" fill-rule="evenodd"/><path fill="#595959" stroke="#595959" stroke-width="1.0" stroke-linecap="butt" d="m714.98425 284.20816l4.538086 -1.6517334l-4.538086 -1.6517334z" fill-rule="evenodd"/><path fill="#d9d9d9" d="m60.133858 255.77428l410.14175 0l0 274.77167l-410.14175 0z" fill-rule="evenodd"/><path fill="#000000" d="m104.46457 310.6509l150.48819 0l0 55.811035l-150.48819 0z" fill-rule="evenodd"/><path stroke="#000000" stroke-width="1.0" stroke-linejoin="round" stroke-linecap="butt" d="m104.46457 310.6509l150.48819 0l0 55.811035l-150.48819 0z" fill-rule="evenodd"/><path fill="#ffffff" d="m118.08957 345.6952q-1.703125 0 -2.734375 -1.234375q-1.015625 -1.234375 -1.015625 -3.5q0 -1.46875 0.546875 -2.546875q0.5625 -1.078125 1.453125 -1.65625q0.90625 -0.578125 1.9375 -0.578125q0.78125 0 1.359375 0.28125q0.578125 0.28125 1.171875 0.765625l-0.0625 -1.546875l0 -3.484375l1.546875 0l0 13.28125l-1.265625 0l-0.140625 -1.0625l-0.046875 0q-0.53125 0.515625 -1.25 0.90625q-0.703125 0.375 -1.5 0.375zm0.34375 -1.28125q1.1875 0 2.3125 -1.25l0 -4.734375q-0.578125 -0.53125 -1.109375 -0.734375q-0.53125 -0.21875 -1.09375 -0.21875q-0.734375 0 -1.328125 0.4375q-0.578125 0.4375 -0.9375 1.21875q-0.34375 0.765625 -0.34375 1.8125q0 1.625 0.640625 2.546875q0.65625 0.921875 1.859375 0.921875zm6.9167175 1.0625l0 -9.0625l1.53125 0l0 9.0625l-1.53125 0zm0.78125 -10.9375q-0.453125 0 -0.75 -0.265625q-0.28125 -0.265625 -0.28125 -0.734375q0 -0.453125 0.28125 -0.734375q0.296875 -0.28125 0.75 -0.28125q0.453125 0 0.734375 0.28125q0.296875 0.28125 0.296875 0.734375q0 0.46875 -0.296875 0.734375q-0.28125 0.265625 -0.734375 0.265625zm9.386307 10.9375l0 -7.8125l-3.78125 0l0 7.8125l-1.53125 0l0 -7.8125l-1.234375 0l0 -1.15625l1.234375 -0.09375l0 -1.203125q0 -1.40625 0.6875 -2.234375q0.703125 -0.828125 2.125 -0.828125q0.9375 0 1.65625 0.34375l-0.3125 1.15625q-0.5625 -0.25 -1.21875 -0.25q-0.671875 0 -1.046875 0.484375q-0.359375 0.46875 -0.359375 1.375l0 1.15625l3.78125 0l0 -1.4375q0 -1.390625 0.640625 -2.1875q0.640625 -0.8125 2.0 -0.8125q0.4375 0 0.828125 0.078125q0.390625 0.078125 0.6875 0.21875l-0.328125 1.171875q-0.515625 -0.21875 -1.03125 -0.21875q-1.265625 0 -1.265625 1.75l0 1.4375l3.3125 0l0.1875 -2.546875l1.265625 0l0 2.546875l2.46875 0l0 1.25l-2.46875 0l0 5.03125q0 0.84375 0.3125 1.296875q0.328125 0.453125 1.109375 0.453125q0.25 0 0.53125 -0.078125q0.28125 -0.078125 0.5 -0.15625l0.296875 1.15625q-0.375 0.125 -0.8125 0.21875q-0.4375 0.109375 -0.859375 0.109375q-1.46875 0 -2.03125 -0.828125q-0.5625 -0.84375 -0.5625 -2.1875l0 -5.015625l-3.25 0l0 7.8125l-1.53125 0zm10.8207245 0l0 -9.0625l1.53125 0l0 9.0625l-1.53125 0zm0.78125 -10.9375q-0.453125 0 -0.75 -0.265625q-0.28125 -0.265625 -0.28125 -0.734375q0 -0.453125 0.28125 -0.734375q0.296875 -0.28125 0.75 -0.28125q0.453125 0 0.734375 0.28125q0.296875 0.28125 0.296875 0.734375q0 0.46875 -0.296875 0.734375q-0.28125 0.265625 -0.734375 0.265625zm3.8081818 10.9375l0 -9.0625l1.265625 0l0.125 1.296875l0.0625 0q0.59375 -0.640625 1.296875 -1.078125q0.71875 -0.453125 1.515625 -0.453125q1.046875 0 1.625 0.46875q0.59375 0.453125 0.875 1.265625q0.71875 -0.765625 1.4375 -1.25q0.734375 -0.484375 1.546875 -0.484375q1.40625 0 2.078125 0.90625q0.6875 0.90625 0.6875 2.640625l0 5.75l-1.53125 0l0 -5.546875q0 -1.265625 -0.40625 -1.84375q-0.40625 -0.578125 -1.265625 -0.578125q-1.015625 0 -2.28125 1.40625l0 6.5625l-1.53125 0l0 -5.546875q0 -1.265625 -0.40625 -1.84375q-0.40625 -0.578125 -1.296875 -0.578125q-1.0 0 -2.265625 1.40625l0 6.5625l-1.53125 0zm19.137909 0.21875q-1.203125 0 -2.203125 -0.5625q-0.984375 -0.578125 -1.5625 -1.640625q-0.578125 -1.0625 -0.578125 -2.53125q0 -1.484375 0.578125 -2.546875q0.59375 -1.078125 1.53125 -1.65625q0.9375 -0.578125 1.953125 -0.578125q1.734375 0 2.671875 1.15625q0.953125 1.15625 0.953125 3.109375q0 0.234375 -0.015625 0.46875q0 0.234375 -0.046875 0.40625l-6.109375 0q0.09375 1.4375 0.890625 2.296875q0.8125 0.859375 2.125 0.859375q0.65625 0 1.203125 -0.203125q0.546875 -0.203125 1.0625 -0.515625l0.53125 1.015625q-0.578125 0.375 -1.3125 0.65625q-0.734375 0.265625 -1.671875 0.265625zm-2.859375 -5.484375l4.859375 0q0 -1.375 -0.59375 -2.09375q-0.578125 -0.71875 -1.640625 -0.71875q-0.953125 0 -1.71875 0.734375q-0.75 0.734375 -0.90625 2.078125z" fill-rule="nonzero"/><path fill="#eeeeee" d="m296.46457 310.6509l129.48032 0l0 55.811035l-129.48032 0z" fill-rule="evenodd"/><path stroke="#595959" stroke-width="1.0" stroke-linejoin="round" stroke-linecap="butt" d="m296.46457 310.6509l129.48032 0l0 55.811035l-129.48032 0z" fill-rule="evenodd"/><path fill="#000000" d="m310.08957 345.6952q-1.703125 0 -2.734375 -1.234375q-1.015625 -1.234375 -1.015625 -3.5q0 -1.46875 0.546875 -2.546875q0.5625 -1.078125 1.453125 -1.65625q0.90625 -0.578125 1.9375 -0.578125q0.78125 0 1.359375 0.28125q0.578125 0.28125 1.171875 0.765625l-0.0625 -1.546875l0 -3.484375l1.546875 0l0 13.28125l-1.265625 0l-0.140625 -1.0625l-0.046875 0q-0.53125 0.515625 -1.25 0.90625q-0.703125 0.375 -1.5 0.375zm0.34375 -1.28125q1.1875 0 2.3125 -1.25l0 -4.734375q-0.578125 -0.53125 -1.109375 -0.734375q-0.53125 -0.21875 -1.09375 -0.21875q-0.734375 0 -1.328125 0.4375q-0.578125 0.4375 -0.9375 1.21875q-0.34375 0.765625 -0.34375 1.8125q0 1.625 0.640625 2.546875q0.65625 0.921875 1.859375 0.921875zm9.557343 1.28125q-1.421875 0 -2.09375 -0.890625q-0.671875 -0.90625 -0.671875 -2.65625l0 -5.734375l1.546875 0l0 5.53125q0 1.28125 0.390625 1.859375q0.40625 0.578125 1.296875 0.578125q0.71875 0 1.265625 -0.359375q0.546875 -0.375 1.1875 -1.171875l0 -6.4375l1.53125 0l0 9.0625l-1.28125 0l-0.125 -1.421875l-0.0625 0q-0.625 0.75 -1.34375 1.203125q-0.703125 0.4375 -1.640625 0.4375zm7.508362 -0.21875l0 -9.0625l1.265625 0l0.125 1.640625l0.0625 0q0.46875 -0.859375 1.140625 -1.359375q0.671875 -0.515625 1.4375 -0.515625q0.53125 0 0.96875 0.1875l-0.296875 1.34375q-0.234375 -0.0625 -0.421875 -0.09375q-0.171875 -0.046875 -0.453125 -0.046875q-0.578125 0 -1.203125 0.46875q-0.625 0.453125 -1.09375 1.609375l0 5.828125l-1.53125 0zm8.119476 0.21875q-1.140625 0 -1.90625 -0.671875q-0.75 -0.6875 -0.75 -1.890625q0 -1.5 1.328125 -2.28125q1.34375 -0.796875 4.234375 -1.125q0 -0.578125 -0.15625 -1.09375q-0.15625 -0.53125 -0.5625 -0.84375q-0.40625 -0.328125 -1.140625 -0.328125q-0.796875 0 -1.484375 0.296875q-0.6875 0.296875 -1.234375 0.671875l-0.59375 -1.0625q0.640625 -0.421875 1.5625 -0.796875q0.921875 -0.390625 2.0 -0.390625q1.65625 0 2.40625 1.03125q0.75 1.015625 0.75 2.703125l0 5.5625l-1.265625 0l-0.140625 -1.078125l-0.046875 0q-0.640625 0.515625 -1.390625 0.90625q-0.75 0.390625 -1.609375 0.390625zm0.4375 -1.21875q0.65625 0 1.234375 -0.3125q0.578125 -0.328125 1.234375 -0.90625l0 -2.515625q-2.265625 0.28125 -3.171875 0.84375q-0.890625 0.546875 -0.890625 1.421875q0 0.765625 0.453125 1.125q0.46875 0.34375 1.140625 0.34375zm9.469543 1.21875q-1.46875 0 -2.03125 -0.828125q-0.5625 -0.84375 -0.5625 -2.1875l0 -5.015625l-1.34375 0l0 -1.15625l1.40625 -0.09375l0.1875 -2.546875l1.296875 0l0 2.546875l2.4375 0l0 1.25l-2.4375 0l0 5.03125q0 0.84375 0.296875 1.296875q0.3125 0.453125 1.09375 0.453125q0.25 0 0.53125 -0.078125q0.28125 -0.078125 0.5 -0.15625l0.296875 1.15625q-0.375 0.125 -0.8125 0.21875q-0.4375 0.109375 -0.859375 0.109375zm3.4464417 -0.21875l0 -9.0625l1.53125 0l0 9.0625l-1.53125 0zm0.78125 -10.9375q-0.453125 0 -0.75 -0.265625q-0.28125 -0.265625 -0.28125 -0.734375q0 -0.453125 0.28125 -0.734375q0.296875 -0.28125 0.75 -0.28125q0.453125 0 0.734375 0.28125q0.296875 0.28125 0.296875 0.734375q0 0.46875 -0.296875 0.734375q-0.28125 0.265625 -0.734375 0.265625zm7.339447 11.15625q-1.109375 0 -2.078125 -0.546875q-0.953125 -0.5625 -1.546875 -1.625q-0.578125 -1.0625 -0.578125 -2.5625q0 -1.53125 0.578125 -2.59375q0.59375 -1.0625 1.546875 -1.625q0.96875 -0.5625 2.078125 -0.5625q1.109375 0 2.0625 0.5625q0.953125 0.5625 1.53125 1.625q0.59375 1.0625 0.59375 2.59375q0 1.5 -0.59375 2.5625q-0.578125 1.0625 -1.53125 1.625q-0.953125 0.546875 -2.0625 0.546875zm0 -1.265625q1.171875 0 1.890625 -0.953125q0.71875 -0.96875 0.71875 -2.515625q0 -1.5625 -0.71875 -2.53125q-0.71875 -0.96875 -1.890625 -0.96875q-1.15625 0 -1.890625 0.96875q-0.734375 0.96875 -0.734375 2.53125q0 1.546875 0.734375 2.515625q0.734375 0.953125 1.890625 0.953125zm6.5804443 1.046875l0 -9.0625l1.265625 0l0.125 1.296875l0.0625 0q0.65625 -0.640625 1.375 -1.078125q0.734375 -0.453125 1.671875 -0.453125q1.4375 0 2.09375 0.90625q0.65625 0.90625 0.65625 2.640625l0 5.75l-1.53125 0l0 -5.546875q0 -1.265625 -0.40625 -1.84375q-0.40625 -0.578125 -1.296875 -0.578125q-0.703125 0 -1.25 0.359375q-0.546875 0.359375 -1.234375 1.046875l0 6.5625l-1.53125 0z" fill-rule="nonzero"/><path fill="#000000" fill-opacity="0.0" d="m254.95276 338.55643l41.51181 0" fill-rule="evenodd"/><path stroke="#595959" stroke-width="1.0" stroke-linejoin="round" stroke-linecap="butt" d="m260.95276 338.55643l29.51181 0" fill-rule="evenodd"/><path fill="#595959" stroke="#595959" stroke-width="1.0" stroke-linecap="butt" d="m260.95276 336.9047l-4.538086 1.6517334l4.538086 1.6517334z" fill-rule="evenodd"/><path fill="#595959" stroke="#595959" stroke-width="1.0" stroke-linecap="butt" d="m290.46457 340.20816l4.538086 -1.6517334l-4.538086 -1.6517334z" fill-rule="evenodd"/><path fill="#000000" fill-opacity="0.0" d="m60.133858 256.72964l189.29135 0l0 42.015747l-189.29135 0z" fill-rule="evenodd"/><path fill="#000000" d="m70.57136 283.64966l0 -12.15625l3.4375 0q1.859375 0 3.21875 0.640625q1.359375 0.625 2.109375 1.953125q0.765625 1.328125 0.765625 3.421875q0 2.09375 -0.75 3.453125q-0.734375 1.359375 -2.078125 2.03125q-1.328125 0.65625 -3.125 0.65625l-3.578125 0zm2.734375 -2.21875l0.53125 0q1.046875 0 1.8125 -0.375q0.78125 -0.375 1.203125 -1.234375q0.4375 -0.859375 0.4375 -2.3125q0 -1.453125 -0.4375 -2.28125q-0.421875 -0.828125 -1.203125 -1.171875q-0.765625 -0.34375 -1.8125 -0.34375l-0.53125 0l0 7.71875zm11.67485 2.4375q-1.515625 0 -2.203125 -0.984375q-0.671875 -1.0 -0.671875 -2.734375l0 -5.75l2.734375 0l0 5.390625q0 0.984375 0.28125 1.375q0.28125 0.375 0.875 0.375q0.53125 0 0.875 -0.234375q0.359375 -0.25 0.765625 -0.796875l0 -6.109375l2.75 0l0 9.25l-2.25 0l-0.203125 -1.28125l-0.046875 0q-0.578125 0.6875 -1.28125 1.09375q-0.6875 0.40625 -1.625 0.40625zm7.815506 -0.21875l0 -9.25l2.234375 0l0.1875 1.625l0.078125 0q0.5 -0.9375 1.203125 -1.390625q0.71875 -0.46875 1.421875 -0.46875q0.390625 0 0.640625 0.046875q0.265625 0.046875 0.453125 0.140625l-0.4375 2.375q-0.25 -0.078125 -0.484375 -0.109375q-0.234375 -0.046875 -0.53125 -0.046875q-0.515625 0 -1.09375 0.390625q-0.5625 0.375 -0.9375 1.3125l0 5.375l-2.734375 0zm9.230652 0.21875q-1.265625 0 -2.015625 -0.8125q-0.75 -0.8125 -0.75 -1.984375q0 -1.453125 1.234375 -2.265625q1.234375 -0.828125 3.96875 -1.109375q-0.03125 -0.609375 -0.359375 -0.96875q-0.328125 -0.375 -1.09375 -0.375q-0.578125 0 -1.171875 0.234375q-0.59375 0.21875 -1.265625 0.609375l-1.0 -1.8125q0.890625 -0.546875 1.875 -0.875q1.0 -0.34375 2.09375 -0.34375q1.765625 0 2.71875 1.03125q0.953125 1.03125 0.953125 3.15625l0 5.296875l-2.234375 0l-0.1875 -0.953125l-0.078125 0q-0.578125 0.53125 -1.25 0.859375q-0.65625 0.3125 -1.4375 0.3125zm0.9375 -2.125q0.453125 0 0.796875 -0.203125q0.359375 -0.21875 0.703125 -0.578125l0 -1.625q-1.453125 0.1875 -2.015625 0.59375q-0.546875 0.390625 -0.546875 0.9375q0 0.453125 0.28125 0.671875q0.296875 0.203125 0.78125 0.203125zm9.792725 2.125q-1.71875 0 -2.46875 -0.984375q-0.734375 -0.984375 -0.734375 -2.59375l0 -3.75l-1.265625 0l0 -2.03125l1.421875 -0.109375l0.3125 -2.46875l2.28125 0l0 2.46875l2.21875 0l0 2.140625l-2.21875 0l0 3.71875q0 0.78125 0.328125 1.125q0.328125 0.34375 0.859375 0.34375q0.234375 0 0.46875 -0.046875q0.234375 -0.0625 0.421875 -0.140625l0.421875 2.0q-0.359375 0.109375 -0.875 0.21875q-0.5 0.109375 -1.171875 0.109375zm3.58284 -0.21875l0 -9.25l2.734375 0l0 9.25l-2.734375 0zm1.359375 -10.609375q-0.6875 0 -1.125 -0.390625q-0.421875 -0.40625 -0.421875 -1.046875q0 -0.65625 0.421875 -1.046875q0.4375 -0.390625 1.125 -0.390625q0.6875 0 1.109375 0.390625q0.4375 0.390625 0.4375 1.046875q0 0.640625 -0.4375 1.046875q-0.421875 0.390625 -1.109375 0.390625zm7.758499 10.828125q-1.171875 0 -2.21875 -0.5625q-1.03125 -0.578125 -1.671875 -1.65625q-0.625 -1.09375 -0.625 -2.625q0 -1.546875 0.625 -2.625q0.640625 -1.09375 1.671875 -1.65625q1.046875 -0.578125 2.21875 -0.578125q1.171875 0 2.1875 0.578125q1.0312576 0.5625 1.6718826 1.65625q0.640625 1.078125 0.640625 2.625q0 1.53125 -0.640625 2.625q-0.640625 1.078125 -1.6718826 1.65625q-1.015625 0.5625 -2.1875 0.5625zm0 -2.21875q0.84375 0 1.265625 -0.71875q0.4375 -0.71875 0.4375 -1.90625q0 -1.21875 -0.4375 -1.921875q-0.421875 -0.703125 -1.265625 -0.703125q-0.859375 0 -1.28125 0.703125q-0.421875 0.703125 -0.421875 1.921875q0 1.1875 0.421875 1.90625q0.421875 0.71875 1.28125 0.71875zm6.385475 2.0l0 -9.25l2.234375 0l0.1875 1.171875l0.078125 0q0.59375 -0.5625 1.3125 -0.984375q0.71875 -0.421875 1.640625 -0.421875q1.515625 0 2.1875 1.0q0.6875 1.0 0.6875 2.734375l0 5.75l-2.734375 0l0 -5.390625q0 -1.015625 -0.28125 -1.375q-0.265625 -0.375 -0.859375 -0.375q-0.515625 0 -0.890625 0.234375q-0.375 0.234375 -0.828125 0.65625l0 6.25l-2.734375 0zm21.696365 0.21875q-1.71875 0 -2.46875 -0.984375q-0.734375 -0.984375 -0.734375 -2.59375l0 -3.75l-1.265625 0l0 -2.03125l1.421875 -0.109375l0.3125 -2.46875l2.28125 0l0 2.46875l2.21875 0l0 2.140625l-2.21875 0l0 3.71875q0 0.78125 0.328125 1.125q0.328125 0.34375 0.859375 0.34375q0.234375 0 0.46875 -0.046875q0.234375 -0.0625 0.421875 -0.140625l0.421875 2.0q-0.359375 0.109375 -0.875 0.21875q-0.5 0.109375 -1.171875 0.109375zm4.598465 3.40625q-0.40625 0 -0.71875 -0.0625q-0.296875 -0.0625 -0.578125 -0.125l0.484375 -2.09375q0.125 0.015625 0.296875 0.0625q0.171875 0.046875 0.3125 0.046875q0.6875 0 1.0625 -0.34375q0.375 -0.328125 0.5625 -0.859375l0.125 -0.5l-3.5625 -9.0l2.765625 0l1.328125 3.96875q0.203125 0.640625 0.359375 1.296875q0.171875 0.640625 0.359375 1.328125l0.078125 0q0.15625 -0.640625 0.3125 -1.296875q0.15625 -0.671875 0.328125 -1.328125l1.109375 -3.96875l2.640625 0l-3.21875 9.34375q-0.421875 1.15625 -0.953125 1.9375q-0.515625 0.796875 -1.25 1.1875q-0.734375 0.40625 -1.84375 0.40625zm8.704285 -0.1875l0 -12.6875l2.234375 0l0.1875 0.90625l0.078125 0q0.53125 -0.484375 1.203125 -0.8125q0.6875 -0.328125 1.421875 -0.328125q1.671875 0 2.640625 1.28125q0.984375 1.28125 0.984375 3.421875q0 1.59375 -0.5625 2.71875q-0.5625 1.109375 -1.453125 1.703125q-0.875 0.578125 -1.890625 0.578125q-0.59375 0 -1.15625 -0.25q-0.5625 -0.25 -1.046875 -0.71875l0.09375 1.484375l0 2.703125l-2.734375 0zm4.203125 -5.453125q0.71875 0 1.21875 -0.65625q0.5 -0.65625 0.5 -2.0625q0 -2.5 -1.59375 -2.5q-0.8125 0 -1.59375 0.828125l0 3.796875q0.375 0.328125 0.75 0.46875q0.375 0.125 0.71875 0.125zm10.627533 2.234375q-1.328125 0 -2.390625 -0.578125q-1.0625 -0.578125 -1.6875 -1.65625q-0.609375 -1.078125 -0.609375 -2.609375q0 -1.515625 0.625 -2.59375q0.625 -1.078125 1.625 -1.671875q1.015625 -0.59375 2.109375 -0.59375q1.328125 0 2.1875 0.59375q0.875 0.59375 1.3125 1.59375q0.4375 0.984375 0.4375 2.265625q0 0.34375 -0.03125 0.6875q-0.03125 0.34375 -0.078125 0.515625l-5.53125 0q0.171875 1.015625 0.828125 1.5q0.65625 0.46875 1.578125 0.46875q0.984375 0 1.984375 -0.625l0.921875 1.65625q-0.71875 0.5 -1.59375 0.78125q-0.875 0.265625 -1.6875 0.265625zm-2.0625 -5.859375l3.34375 0q0 -0.765625 -0.375 -1.25q-0.359375 -0.5 -1.171875 -0.5q-0.640625 0 -1.140625 0.4375q-0.5 0.4375 -0.65625 1.3125zm10.304565 5.859375q-0.921875 0 -1.890625 -0.34375q-0.953125 -0.359375 -1.65625 -0.9375l1.234375 -1.71875q0.625 0.46875 1.21875 0.71875q0.59375 0.25 1.171875 0.25q0.609375 0 0.890625 -0.203125q0.28125 -0.21875 0.28125 -0.578125q0 -0.3125 -0.28125 -0.515625q-0.265625 -0.21875 -0.703125 -0.390625q-0.421875 -0.171875 -0.90625 -0.359375q-0.546875 -0.21875 -1.109375 -0.546875q-0.546875 -0.34375 -0.921875 -0.875q-0.375 -0.546875 -0.375 -1.296875q0 -1.296875 0.984375 -2.09375q0.984375 -0.8125 2.5625 -0.8125q1.0625 0 1.875 0.375q0.8125 0.359375 1.390625 0.8125l-1.234375 1.640625q-0.484375 -0.375 -0.96875 -0.578125q-0.484375 -0.203125 -0.96875 -0.203125q-1.0625 0 -1.0625 0.71875q0 0.453125 0.53125 0.6875q0.53125 0.234375 1.25 0.484375q0.59375 0.21875 1.15625 0.546875q0.578125 0.3125 0.953125 0.84375q0.390625 0.53125 0.390625 1.390625q0 1.25 -0.984375 2.125q-0.96875 0.859375 -2.828125 0.859375z" fill-rule="nonzero"/><path fill="#000000" d="m104.46457 386.09448l150.48819 0l0 55.811035l-150.48819 0z" fill-rule="evenodd"/><path stroke="#000000" stroke-width="1.0" stroke-linejoin="round" stroke-linecap="butt" d="m104.46457 386.09448l150.48819 0l0 55.811035l-150.48819 0z" fill-rule="evenodd"/><path fill="#ffffff" d="m114.99582 420.91998l0 -13.28125l1.53125 0l0 3.625l-0.0625 1.859375q0.65625 -0.609375 1.375 -1.046875q0.71875 -0.453125 1.65625 -0.453125q1.4375 0 2.09375 0.90625q0.65625 0.90625 0.65625 2.640625l0 5.75l-1.53125 0l0 -5.546875q0 -1.265625 -0.40625 -1.84375q-0.40625 -0.578125 -1.296875 -0.578125q-0.703125 0 -1.25 0.359375q-0.546875 0.359375 -1.234375 1.046875l0 6.5625l-1.53125 0zm10.149002 0l0 -9.0625l1.265625 0l0.125 1.296875l0.0625 0q0.59375 -0.640625 1.296875 -1.078125q0.71875 -0.453125 1.515625 -0.453125q1.046875 0 1.625 0.46875q0.59375 0.453125 0.875 1.265625q0.71875 -0.765625 1.4375 -1.25q0.734375 -0.484375 1.546875 -0.484375q1.40625 0 2.078125 0.90625q0.6875 0.90625 0.6875 2.640625l0 5.75l-1.53125 0l0 -5.546875q0 -1.265625 -0.40625 -1.84375q-0.40625 -0.578125 -1.265625 -0.578125q-1.015625 0 -2.28125 1.40625l0 6.5625l-1.53125 0l0 -5.546875q0 -1.265625 -0.40625 -1.84375q-0.40625 -0.578125 -1.296875 -0.578125q-1.0 0 -2.265625 1.40625l0 6.5625l-1.53125 0zm17.841034 0.21875q-0.984375 0 -1.859375 -0.359375q-0.875 -0.359375 -1.53125 -0.890625l0.765625 -1.015625q0.609375 0.46875 1.234375 0.78125q0.640625 0.296875 1.4375 0.296875q0.890625 0 1.34375 -0.421875q0.453125 -0.421875 0.453125 -1.0q0 -0.46875 -0.3125 -0.78125q-0.3125 -0.3125 -0.796875 -0.53125q-0.46875 -0.21875 -0.96875 -0.40625q-0.625 -0.234375 -1.25 -0.546875q-0.609375 -0.3125 -1.0 -0.796875q-0.390625 -0.5 -0.390625 -1.265625q0 -1.09375 0.828125 -1.828125q0.828125 -0.75 2.296875 -0.75q0.84375 0 1.5625 0.3125q0.734375 0.296875 1.265625 0.71875l-0.75 0.96875q-0.46875 -0.359375 -0.984375 -0.578125q-0.5 -0.21875 -1.09375 -0.21875q-0.859375 0 -1.265625 0.390625q-0.390625 0.390625 -0.390625 0.90625q0 0.4375 0.28125 0.703125q0.28125 0.265625 0.71875 0.46875q0.453125 0.203125 0.953125 0.40625q0.65625 0.234375 1.28125 0.546875q0.640625 0.3125 1.0625 0.828125q0.421875 0.5 0.421875 1.359375q0 0.734375 -0.390625 1.359375q-0.375 0.609375 -1.109375 0.984375q-0.734375 0.359375 -1.8125 0.359375zm6.238846 -6.734375q-0.46875 0 -0.796875 -0.3125q-0.3125 -0.328125 -0.3125 -0.84375q0 -0.53125 0.3125 -0.859375q0.328125 -0.328125 0.796875 -0.328125q0.453125 0 0.78125 0.328125q0.328125 0.328125 0.328125 0.859375q0 0.515625 -0.328125 0.84375q-0.328125 0.3125 -0.78125 0.3125zm0 6.734375q-0.46875 0 -0.796875 -0.3125q-0.3125 -0.328125 -0.3125 -0.84375q0 -0.53125 0.3125 -0.859375q0.328125 -0.328125 0.796875 -0.328125q0.453125 0 0.78125 0.328125q0.328125 0.328125 0.328125 0.859375q0 0.515625 -0.328125 0.84375q-0.328125 0.3125 -0.78125 0.3125zm4.645401 -6.734375q-0.46875 0 -0.796875 -0.3125q-0.3125 -0.328125 -0.3125 -0.84375q0 -0.53125 0.3125 -0.859375q0.328125 -0.328125 0.796875 -0.328125q0.453125 0 0.78125 0.328125q0.328125 0.328125 0.328125 0.859375q0 0.515625 -0.328125 0.84375q-0.328125 0.3125 -0.78125 0.3125zm0 6.734375q-0.46875 0 -0.796875 -0.3125q-0.3125 -0.328125 -0.3125 -0.84375q0 -0.53125 0.3125 -0.859375q0.328125 -0.328125 0.796875 -0.328125q0.453125 0 0.78125 0.328125q0.328125 0.328125 0.328125 0.859375q0 0.515625 -0.328125 0.84375q-0.328125 0.3125 -0.78125 0.3125zm3.848526 -0.21875l0 -13.28125l1.53125 0l0 3.625l-0.0625 1.859375q0.65625 -0.609375 1.375 -1.046875q0.71875 -0.453125 1.65625 -0.453125q1.4375 0 2.09375 0.90625q0.65625 0.90625 0.65625 2.640625l0 5.75l-1.53125 0l0 -5.546875q0 -1.265625 -0.40625 -1.84375q-0.40625 -0.578125 -1.296875 -0.578125q-0.703125 0 -1.25 0.359375q-0.546875 0.359375 -1.234375 1.046875l0 6.5625l-1.53125 0zm10.149002 0l0 -9.0625l1.265625 0l0.125 1.296875l0.0625 0q0.59375 -0.640625 1.296875 -1.078125q0.71875 -0.453125 1.515625 -0.453125q1.046875 0 1.625 0.46875q0.59375 0.453125 0.875 1.265625q0.71875 -0.765625 1.4375 -1.25q0.734375 -0.484375 1.546875 -0.484375q1.40625 0 2.078125 0.90625q0.6875 0.90625 0.6875 2.640625l0 5.75l-1.53125 0l0 -5.546875q0 -1.265625 -0.40625 -1.84375q-0.40625 -0.578125 -1.265625 -0.578125q-1.015625 0 -2.28125 1.40625l0 6.5625l-1.53125 0l0 -5.546875q0 -1.265625 -0.40625 -1.84375q-0.40625 -0.578125 -1.296875 -0.578125q-1.0 0 -2.265625 1.40625l0 6.5625l-1.53125 0zm17.841034 0.21875q-0.984375 0 -1.859375 -0.359375q-0.875 -0.359375 -1.53125 -0.890625l0.765625 -1.015625q0.609375 0.46875 1.234375 0.78125q0.640625 0.296875 1.4375 0.296875q0.890625 0 1.34375 -0.421875q0.453125 -0.421875 0.453125 -1.0q0 -0.46875 -0.3125 -0.78125q-0.3125 -0.3125 -0.796875 -0.53125q-0.46875 -0.21875 -0.96875 -0.40625q-0.625 -0.234375 -1.25 -0.546875q-0.609375 -0.3125 -1.0 -0.796875q-0.390625 -0.5 -0.390625 -1.265625q0 -1.09375 0.828125 -1.828125q0.828125 -0.75 2.296875 -0.75q0.84375 0 1.5625 0.3125q0.734375 0.296875 1.265625 0.71875l-0.75 0.96875q-0.46875 -0.359375 -0.984375 -0.578125q-0.5 -0.21875 -1.09375 -0.21875q-0.859375 0 -1.265625 0.390625q-0.390625 0.390625 -0.390625 0.90625q0 0.4375 0.28125 0.703125q0.28125 0.265625 0.71875 0.46875q0.453125 0.203125 0.953125 0.40625q0.65625 0.234375 1.28125 0.546875q0.640625 0.3125 1.0625 0.828125q0.421875 0.5 0.421875 1.359375q0 0.734375 -0.390625 1.359375q-0.375 0.609375 -1.109375 0.984375q-0.734375 0.359375 -1.8125 0.359375z" fill-rule="nonzero"/><path fill="#eeeeee" d="m296.46457 386.09448l129.48032 0l0 55.811035l-129.48032 0z" fill-rule="evenodd"/><path stroke="#595959" stroke-width="1.0" stroke-linejoin="round" stroke-linecap="butt" d="m296.46457 386.09448l129.48032 0l0 55.811035l-129.48032 0z" fill-rule="evenodd"/><path fill="#000000" d="m309.8552 421.13873q-1.46875 0 -2.03125 -0.828125q-0.5625 -0.84375 -0.5625 -2.1875l0 -5.015625l-1.34375 0l0 -1.15625l1.40625 -0.09375l0.1875 -2.546875l1.296875 0l0 2.546875l2.4375 0l0 1.25l-2.4375 0l0 5.03125q0 0.84375 0.296875 1.296875q0.3125 0.453125 1.09375 0.453125q0.25 0 0.53125 -0.078125q0.28125 -0.078125 0.5 -0.15625l0.296875 1.15625q-0.375 0.125 -0.8125 0.21875q-0.4375 0.109375 -0.859375 0.109375zm3.4464417 -0.21875l0 -9.0625l1.53125 0l0 9.0625l-1.53125 0zm0.78125 -10.9375q-0.453125 0 -0.75 -0.265625q-0.28125 -0.265625 -0.28125 -0.734375q0 -0.453125 0.28125 -0.734375q0.296875 -0.28125 0.75 -0.28125q0.453125 0 0.734375 0.28125q0.296875 0.28125 0.296875 0.734375q0 0.46875 -0.296875 0.734375q-0.28125 0.265625 -0.734375 0.265625zm3.8081665 10.9375l0 -9.0625l1.265625 0l0.125 1.296875l0.0625 0q0.59375 -0.640625 1.296875 -1.078125q0.71875 -0.453125 1.515625 -0.453125q1.046875 0 1.625 0.46875q0.59375 0.453125 0.875 1.265625q0.71875 -0.765625 1.4375 -1.25q0.734375 -0.484375 1.546875 -0.484375q1.40625 0 2.078125 0.90625q0.6875 0.90625 0.6875 2.640625l0 5.75l-1.53125 0l0 -5.546875q0 -1.265625 -0.40625 -1.84375q-0.40625 -0.578125 -1.265625 -0.578125q-1.015625 0 -2.28125 1.40625l0 6.5625l-1.53125 0l0 -5.546875q0 -1.265625 -0.40625 -1.84375q-0.40625 -0.578125 -1.296875 -0.578125q-1.0 0 -2.265625 1.40625l0 6.5625l-1.53125 0zm19.137909 0.21875q-1.203125 0 -2.203125 -0.5625q-0.984375 -0.578125 -1.5625 -1.640625q-0.578125 -1.0625 -0.578125 -2.53125q0 -1.484375 0.578125 -2.546875q0.59375 -1.078125 1.53125 -1.65625q0.9375 -0.578125 1.953125 -0.578125q1.734375 0 2.671875 1.15625q0.953125 1.15625 0.953125 3.109375q0 0.234375 -0.015625 0.46875q0 0.234375 -0.046875 0.40625l-6.109375 0q0.09375 1.4375 0.890625 2.296875q0.8125 0.859375 2.125 0.859375q0.65625 0 1.203125 -0.203125q0.546875 -0.203125 1.0625 -0.515625l0.53125 1.015625q-0.578125 0.375 -1.3125 0.65625q-0.734375 0.265625 -1.671875 0.265625zm-2.859375 -5.484375l4.859375 0q0 -1.375 -0.59375 -2.09375q-0.578125 -0.71875 -1.640625 -0.71875q-0.953125 0 -1.71875 0.734375q-0.75 0.734375 -0.90625 2.078125zm11.3160095 5.484375q-1.421875 0 -2.375 -0.5q-0.953125 -0.515625 -1.546875 -1.171875l0.78125 -1.015625q0.546875 0.5625 1.265625 1.0q0.734375 0.421875 1.78125 0.421875q1.078125 0 1.765625 -0.59375q0.6875 -0.59375 0.6875 -1.59375q0 -0.703125 -0.359375 -1.234375q-0.359375 -0.53125 -1.1875 -0.828125q-0.828125 -0.296875 -2.25 -0.296875l0 -1.171875q1.265625 0 2.0 -0.296875q0.734375 -0.3125 1.046875 -0.8125q0.328125 -0.5 0.328125 -1.125q0 -0.875 -0.546875 -1.375q-0.546875 -0.5 -1.5 -0.5q-0.75 0 -1.375 0.34375q-0.625 0.328125 -1.171875 0.875l-0.8125 -0.984375q0.6875 -0.640625 1.515625 -1.0625q0.84375 -0.421875 1.890625 -0.421875q1.546875 0 2.546875 0.796875q1.015625 0.78125 1.015625 2.21875q0 1.09375 -0.59375 1.78125q-0.59375 0.6875 -1.5625 1.0625l0 0.078125q1.078125 0.234375 1.828125 1.015625q0.75 0.765625 0.75 2.0q0 1.046875 -0.53125 1.8125q-0.515625 0.765625 -1.40625 1.171875q-0.890625 0.40625 -1.984375 0.40625zm5.615906 -0.21875l0 -0.921875q1.78125 -1.78125 3.03125 -3.125q1.25 -1.359375 1.90625 -2.453125q0.65625 -1.09375 0.65625 -2.046875q0 -1.03125 -0.5625 -1.671875q-0.5625 -0.65625 -1.703125 -0.65625q-0.734375 0 -1.375 0.421875q-0.625 0.421875 -1.15625 1.015625l-0.875 -0.875q0.75 -0.828125 1.59375 -1.3125q0.84375 -0.5 2.0 -0.5q1.671875 0 2.609375 0.96875q0.953125 0.953125 0.953125 2.53125q0 1.125 -0.625 2.28125q-0.625 1.140625 -1.71875 2.40625q-1.078125 1.25 -2.5 2.71875q0.484375 -0.03125 1.0 -0.0625q0.53125 -0.046875 1.0 -0.046875l3.453125 0l0 1.328125l-7.6875 0z" fill-rule="nonzero"/><path fill="#000000" fill-opacity="0.0" d="m254.95276 414.0l41.51181 0" fill-rule="evenodd"/><path stroke="#595959" stroke-width="1.0" stroke-linejoin="round" stroke-linecap="butt" d="m260.95276 414.0l29.51181 0" fill-rule="evenodd"/><path fill="#595959" stroke="#595959" stroke-width="1.0" stroke-linecap="butt" d="m260.95276 412.34827l-4.538086 1.6517334l4.538086 1.6517334z" fill-rule="evenodd"/><path fill="#595959" stroke="#595959" stroke-width="1.0" stroke-linecap="butt" d="m290.46457 415.65173l4.538086 -1.6517334l-4.538086 -1.6517334z" fill-rule="evenodd"/><path fill="#eeeeee" d="m296.46457 450.09448l129.48032 0l0 55.811035l-129.48032 0z" fill-rule="evenodd"/><path stroke="#595959" stroke-width="1.0" stroke-linejoin="round" stroke-linecap="butt" d="m296.46457 450.09448l129.48032 0l0 55.811035l-129.48032 0z" fill-rule="evenodd"/><path fill="#000000" d="m309.8552 485.13873q-1.46875 0 -2.03125 -0.828125q-0.5625 -0.84375 -0.5625 -2.1875l0 -5.015625l-1.34375 0l0 -1.15625l1.40625 -0.09375l0.1875 -2.546875l1.296875 0l0 2.546875l2.4375 0l0 1.25l-2.4375 0l0 5.03125q0 0.84375 0.296875 1.296875q0.3125 0.453125 1.09375 0.453125q0.25 0 0.53125 -0.078125q0.28125 -0.078125 0.5 -0.15625l0.296875 1.15625q-0.375 0.125 -0.8125 0.21875q-0.4375 0.109375 -0.859375 0.109375zm3.4464417 -0.21875l0 -9.0625l1.53125 0l0 9.0625l-1.53125 0zm0.78125 -10.9375q-0.453125 0 -0.75 -0.265625q-0.28125 -0.265625 -0.28125 -0.734375q0 -0.453125 0.28125 -0.734375q0.296875 -0.28125 0.75 -0.28125q0.453125 0 0.734375 0.28125q0.296875 0.28125 0.296875 0.734375q0 0.46875 -0.296875 0.734375q-0.28125 0.265625 -0.734375 0.265625zm3.8081665 10.9375l0 -9.0625l1.265625 0l0.125 1.296875l0.0625 0q0.59375 -0.640625 1.296875 -1.078125q0.71875 -0.453125 1.515625 -0.453125q1.046875 0 1.625 0.46875q0.59375 0.453125 0.875 1.265625q0.71875 -0.765625 1.4375 -1.25q0.734375 -0.484375 1.546875 -0.484375q1.40625 0 2.078125 0.90625q0.6875 0.90625 0.6875 2.640625l0 5.75l-1.53125 0l0 -5.546875q0 -1.265625 -0.40625 -1.84375q-0.40625 -0.578125 -1.265625 -0.578125q-1.015625 0 -2.28125 1.40625l0 6.5625l-1.53125 0l0 -5.546875q0 -1.265625 -0.40625 -1.84375q-0.40625 -0.578125 -1.296875 -0.578125q-1.0 0 -2.265625 1.40625l0 6.5625l-1.53125 0zm19.137909 0.21875q-1.203125 0 -2.203125 -0.5625q-0.984375 -0.578125 -1.5625 -1.640625q-0.578125 -1.0625 -0.578125 -2.53125q0 -1.484375 0.578125 -2.546875q0.59375 -1.078125 1.53125 -1.65625q0.9375 -0.578125 1.953125 -0.578125q1.734375 0 2.671875 1.15625q0.953125 1.15625 0.953125 3.109375q0 0.234375 -0.015625 0.46875q0 0.234375 -0.046875 0.40625l-6.109375 0q0.09375 1.4375 0.890625 2.296875q0.8125 0.859375 2.125 0.859375q0.65625 0 1.203125 -0.203125q0.546875 -0.203125 1.0625 -0.515625l0.53125 1.015625q-0.578125 0.375 -1.3125 0.65625q-0.734375 0.265625 -1.671875 0.265625zm-2.859375 -5.484375l4.859375 0q0 -1.375 -0.59375 -2.09375q-0.578125 -0.71875 -1.640625 -0.71875q-0.953125 0 -1.71875 0.734375q-0.75 0.734375 -0.90625 2.078125zm11.7847595 -0.859375q-0.578125 0 -1.25 0.375q-0.671875 0.375 -1.234375 1.203125q0.140625 1.734375 0.796875 2.65625q0.671875 0.90625 1.8125 0.90625q0.875 0 1.46875 -0.71875q0.609375 -0.71875 0.609375 -1.890625q0 -1.15625 -0.5625 -1.84375q-0.546875 -0.6875 -1.640625 -0.6875zm0.125 6.34375q-1.15625 0 -2.09375 -0.625q-0.921875 -0.640625 -1.46875 -1.90625q-0.546875 -1.28125 -0.546875 -3.1875q0 -2.390625 0.640625 -3.84375q0.65625 -1.453125 1.6875 -2.109375q1.03125 -0.671875 2.203125 -0.671875q0.984375 0 1.671875 0.359375q0.703125 0.359375 1.203125 0.90625l-0.859375 0.953125q-0.34375 -0.421875 -0.875 -0.671875q-0.515625 -0.265625 -1.078125 -0.265625q-0.84375 0 -1.53125 0.484375q-0.6875 0.46875 -1.125 1.578125q-0.4375 1.109375 -0.484375 3.0q0.5625 -0.6875 1.3125 -1.09375q0.75 -0.40625 1.46875 -0.40625q1.546875 0 2.46875 0.9375q0.9375 0.921875 0.9375 2.75q0 1.125 -0.484375 1.984375q-0.484375 0.859375 -1.28125 1.34375q-0.796875 0.484375 -1.765625 0.484375zm6.209656 -4.734375l3.734375 0l0 -3.453125q0 -0.484375 0.03125 -1.15625q0.046875 -0.671875 0.0625 -1.140625l-0.078125 0q-0.21875 0.4375 -0.46875 0.84375q-0.234375 0.40625 -0.5 0.84375l-2.78125 4.0625zm3.734375 4.515625l0 -3.28125l-5.359375 0l0 -1.015625l5.09375 -7.609375l1.71875 0l0 7.390625l1.625 0l0 1.234375l-1.625 0l0 3.28125l-1.453125 0z" fill-rule="nonzero"/><path fill="#000000" fill-opacity="0.0" d="m296.46457 478.0l-116.755905 0l0 -36.094482" fill-rule="evenodd"/><path stroke="#595959" stroke-width="1.0" stroke-linejoin="round" stroke-linecap="butt" d="m296.46457 478.0l-116.755905 0l0 -30.094482" fill-rule="evenodd"/><path fill="#595959" stroke="#595959" stroke-width="1.0" stroke-linecap="butt" d="m181.3604 447.90552l-1.6517334 -4.5381165l-1.6517334 4.5381165z" fill-rule="evenodd"/><path fill="#d9d9d9" d="m60.133858 23.774279l410.14175 0l0 197.82677l-410.14175 0z" fill-rule="evenodd"/><path fill="#000000" fill-opacity="0.0" d="m60.133858 24.729658l189.29135 0l0 42.015747l-189.29135 0z" fill-rule="evenodd"/><path fill="#000000" d="m75.64948 51.86841q-1.53125 0 -2.828125 -0.703125q-1.28125 -0.703125 -2.0625 -2.09375q-0.765625 -1.390625 -0.765625 -3.421875q0 -2.015625 0.78125 -3.4375q0.796875 -1.4375 2.109375 -2.1875q1.328125 -0.765625 2.859375 -0.765625q1.171875 0 2.09375 0.484375q0.9375 0.46875 1.5625 1.109375l-1.453125 1.75q-0.46875 -0.4375 -0.984375 -0.703125q-0.515625 -0.265625 -1.171875 -0.265625q-0.8125 0 -1.5 0.46875q-0.671875 0.46875 -1.078125 1.34375q-0.40625 0.875 -0.40625 2.109375q0 1.859375 0.796875 2.90625q0.8125 1.046875 2.15625 1.046875q0.75 0 1.328125 -0.328125q0.59375 -0.34375 1.046875 -0.8125l1.453125 1.71875q-1.53125 1.78125 -3.9375 1.78125zm5.5610657 -0.21875l0 -13.078125l2.734375 0l0 3.203125l-0.125 1.671875q0.515625 -0.46875 1.21875 -0.875q0.703125 -0.40625 1.625 -0.40625q1.515625 0 2.1875 1.0q0.6875 1.0 0.6875 2.734375l0 5.75l-2.734375 0l0 -5.390625q0 -1.015625 -0.28125 -1.375q-0.265625 -0.375 -0.859375 -0.375q-0.515625 0 -0.890625 0.234375q-0.375 0.234375 -0.828125 0.65625l0 6.25l-2.734375 0zm12.98085 0.21875q-1.265625 0 -2.015625 -0.8125q-0.75 -0.8125 -0.75 -1.984375q0 -1.453125 1.234375 -2.265625q1.234375 -0.828125 3.96875 -1.109375q-0.03125 -0.609375 -0.359375 -0.96875q-0.328125 -0.375 -1.09375 -0.375q-0.578125 0 -1.171875 0.234375q-0.59375 0.21875 -1.265625 0.609375l-1.0 -1.8125q0.890625 -0.546875 1.875 -0.875q1.0 -0.34375 2.09375 -0.34375q1.765625 0 2.71875 1.03125q0.953125 1.03125 0.953125 3.15625l0 5.296875l-2.234375 0l-0.1875 -0.953125l-0.078125 0q-0.578125 0.53125 -1.25 0.859375q-0.65625 0.3125 -1.4375 0.3125zm0.9375 -2.125q0.453125 0 0.796875 -0.203125q0.359375 -0.21875 0.703125 -0.578125l0 -1.625q-1.453125 0.1875 -2.015625 0.59375q-0.546875 0.390625 -0.546875 0.9375q0 0.453125 0.28125 0.671875q0.296875 0.203125 0.78125 0.203125zm6.566223 1.90625l0 -9.25l2.234375 0l0.1875 1.625l0.078125 0q0.5 -0.9375 1.203125 -1.390625q0.71875 -0.46875 1.421875 -0.46875q0.390625 0 0.640625 0.046875q0.265625 0.046875 0.453125 0.140625l-0.4375 2.375q-0.25 -0.078125 -0.484375 -0.109375q-0.234375 -0.046875 -0.53125 -0.046875q-0.515625 0 -1.09375 0.390625q-0.5625 0.375 -0.9375 1.3125l0 5.375l-2.734375 0zm9.230652 0.21875q-1.265625 0 -2.015625 -0.8125q-0.75 -0.8125 -0.75 -1.984375q0 -1.453125 1.234375 -2.265625q1.234375 -0.828125 3.96875 -1.109375q-0.03125 -0.609375 -0.359375 -0.96875q-0.328125 -0.375 -1.09375 -0.375q-0.578125 0 -1.171875 0.234375q-0.59375 0.21875 -1.265625 0.609375l-1.0 -1.8125q0.890625 -0.546875 1.875 -0.875q1.0 -0.34375 2.09375 -0.34375q1.765625 0 2.71875 1.03125q0.953125 1.03125 0.953125 3.15625l0 5.296875l-2.234375 0l-0.1875 -0.953125l-0.078125 0q-0.578125 0.53125 -1.25 0.859375q-0.65625 0.3125 -1.4375 0.3125zm0.9375 -2.125q0.453125 0 0.796875 -0.203125q0.359375 -0.21875 0.703125 -0.578125l0 -1.625q-1.453125 0.1875 -2.015625 0.59375q-0.546875 0.390625 -0.546875 0.9375q0 0.453125 0.28125 0.671875q0.296875 0.203125 0.78125 0.203125zm10.597473 2.125q-1.296875 0 -2.328125 -0.5625q-1.03125 -0.578125 -1.640625 -1.65625q-0.609375 -1.09375 -0.609375 -2.625q0 -1.546875 0.671875 -2.625q0.671875 -1.09375 1.765625 -1.65625q1.109375 -0.578125 2.375 -0.578125q0.859375 0 1.515625 0.28125q0.671875 0.28125 1.1875 0.71875l-1.28125 1.765625q-0.65625 -0.53125 -1.25 -0.53125q-0.984375 0 -1.578125 0.703125q-0.59375 0.703125 -0.59375 1.921875q0 1.1875 0.59375 1.90625q0.59375 0.71875 1.484375 0.71875q0.4375 0 0.859375 -0.1875q0.4375 -0.203125 0.796875 -0.484375l1.078125 1.796875q-0.6875 0.59375 -1.5 0.84375q-0.796875 0.25 -1.546875 0.25zm8.05706 0q-1.71875 0 -2.46875 -0.984375q-0.7343826 -0.984375 -0.7343826 -2.59375l0 -3.75l-1.265625 0l0 -2.03125l1.421875 -0.109375l0.3125 -2.46875l2.2812576 0l0 2.46875l2.21875 0l0 2.140625l-2.21875 0l0 3.71875q0 0.78125 0.328125 1.125q0.328125 0.34375 0.859375 0.34375q0.234375 0 0.46875 -0.046875q0.234375 -0.0625 0.421875 -0.140625l0.421875 2.0q-0.359375 0.109375 -0.875 0.21875q-0.5 0.109375 -1.171875 0.109375zm7.3874664 0q-1.328125 0 -2.390625 -0.578125q-1.0625 -0.578125 -1.6875 -1.65625q-0.609375 -1.078125 -0.609375 -2.609375q0 -1.515625 0.625 -2.59375q0.625 -1.078125 1.625 -1.671875q1.015625 -0.59375 2.109375 -0.59375q1.328125 0 2.1875 0.59375q0.875 0.59375 1.3125 1.59375q0.4375 0.984375 0.4375 2.265625q0 0.34375 -0.03125 0.6875q-0.03125 0.34375 -0.078125 0.515625l-5.53125 0q0.171875 1.015625 0.828125 1.5q0.65625 0.46875 1.578125 0.46875q0.984375 0 1.984375 -0.625l0.921875 1.65625q-0.71875 0.5 -1.59375 0.78125q-0.875 0.265625 -1.6875 0.265625zm-2.0625 -5.859375l3.34375 0q0 -0.765625 -0.375 -1.25q-0.359375 -0.5 -1.171875 -0.5q-0.640625 0 -1.140625 0.4375q-0.5 0.4375 -0.65625 1.3125zm7.5858154 5.640625l0 -9.25l2.234375 0l0.1875 1.625l0.078125 0q0.5 -0.9375 1.203125 -1.390625q0.71875 -0.46875 1.421875 -0.46875q0.390625 0 0.640625 0.046875q0.265625 0.046875 0.453125 0.140625l-0.4375 2.375q-0.25 -0.078125 -0.484375 -0.109375q-0.234375 -0.046875 -0.53125 -0.046875q-0.515625 0 -1.09375 0.390625q-0.5625 0.375 -0.9375 1.3125l0 5.375l-2.734375 0zm18.45018 0.21875q-1.71875 0 -2.46875 -0.984375q-0.734375 -0.984375 -0.734375 -2.59375l0 -3.75l-1.265625 0l0 -2.03125l1.421875 -0.109375l0.3125 -2.46875l2.28125 0l0 2.46875l2.21875 0l0 2.140625l-2.21875 0l0 3.71875q0 0.78125 0.328125 1.125q0.328125 0.34375 0.859375 0.34375q0.234375 0 0.46875 -0.046875q0.234375 -0.0625 0.421875 -0.140625l0.421875 2.0q-0.359375 0.109375 -0.875 0.21875q-0.5 0.109375 -1.171875 0.109375zm4.598465 3.40625q-0.40625 0 -0.71875 -0.0625q-0.296875 -0.0625 -0.578125 -0.125l0.484375 -2.09375q0.125 0.015625 0.296875 0.0625q0.171875 0.046875 0.3125 0.046875q0.6875 0 1.0625 -0.34375q0.375 -0.328125 0.5625 -0.859375l0.125 -0.5l-3.5625 -9.0l2.765625 0l1.328125 3.96875q0.203125 0.640625 0.359375 1.296875q0.171875 0.640625 0.359375 1.328125l0.078125 0q0.15625 -0.640625 0.3125 -1.296875q0.15625 -0.671875 0.328125 -1.328125l1.109375 -3.96875l2.640625 0l-3.21875 9.34375q-0.421875 1.15625 -0.953125 1.9375q-0.515625 0.796875 -1.25 1.1875q-0.734375 0.40625 -1.84375 0.40625zm8.704285 -0.1875l0 -12.6875l2.234375 0l0.1875 0.90625l0.078125 0q0.53125 -0.484375 1.203125 -0.8125q0.6875 -0.328125 1.421875 -0.328125q1.671875 0 2.640625 1.28125q0.984375 1.28125 0.984375 3.421875q0 1.59375 -0.5625 2.71875q-0.5625 1.109375 -1.453125 1.703125q-0.875 0.578125 -1.890625 0.578125q-0.59375 0 -1.15625 -0.25q-0.5625 -0.25 -1.046875 -0.71875l0.09375 1.484375l0 2.703125l-2.734375 0zm4.203125 -5.453125q0.71875 0 1.21875 -0.65625q0.5 -0.65625 0.5 -2.0625q0 -2.5 -1.59375 -2.5q-0.8125 0 -1.59375 0.828125l0 3.796875q0.375 0.328125 0.75 0.46875q0.375 0.125 0.71875 0.125zm10.627533 2.234375q-1.328125 0 -2.390625 -0.578125q-1.0625 -0.578125 -1.6875 -1.65625q-0.609375 -1.078125 -0.609375 -2.609375q0 -1.515625 0.625 -2.59375q0.625 -1.078125 1.625 -1.671875q1.015625 -0.59375 2.109375 -0.59375q1.328125 0 2.1875 0.59375q0.875 0.59375 1.3125 1.59375q0.4375 0.984375 0.4375 2.265625q0 0.34375 -0.03125 0.6875q-0.03125 0.34375 -0.078125 0.515625l-5.53125 0q0.171875 1.015625 0.828125 1.5q0.65625 0.46875 1.578125 0.46875q0.984375 0 1.984375 -0.625l0.921875 1.65625q-0.71875 0.5 -1.59375 0.78125q-0.875 0.265625 -1.6875 0.265625zm-2.0625 -5.859375l3.34375 0q0 -0.765625 -0.375 -1.25q-0.359375 -0.5 -1.171875 -0.5q-0.640625 0 -1.140625 0.4375q-0.5 0.4375 -0.65625 1.3125zm10.304565 5.859375q-0.921875 0 -1.890625 -0.34375q-0.953125 -0.359375 -1.65625 -0.9375l1.234375 -1.71875q0.625 0.46875 1.21875 0.71875q0.59375 0.25 1.171875 0.25q0.609375 0 0.890625 -0.203125q0.28125 -0.21875 0.28125 -0.578125q0 -0.3125 -0.28125 -0.515625q-0.265625 -0.21875 -0.703125 -0.390625q-0.421875 -0.171875 -0.90625 -0.359375q-0.546875 -0.21875 -1.109375 -0.546875q-0.546875 -0.34375 -0.921875 -0.875q-0.375 -0.546875 -0.375 -1.296875q0 -1.296875 0.984375 -2.09375q0.984375 -0.8125 2.5625 -0.8125q1.0625 0 1.875 0.375q0.8125 0.359375 1.390625 0.8125l-1.234375 1.640625q-0.484375 -0.375 -0.96875 -0.578125q-0.484375 -0.203125 -0.96875 -0.203125q-1.0625 0 -1.0625 0.71875q0 0.453125 0.53125 0.6875q0.53125 0.234375 1.25 0.484375q0.59375 0.21875 1.15625 0.546875q0.578125 0.3125 0.953125 0.84375q0.390625 0.53125 0.390625 1.390625q0 1.25 -0.984375 2.125q-0.96875 0.859375 -2.828125 0.859375z" fill-rule="nonzero"/><path fill="#000000" d="m104.46457 74.09449l150.48819 0l0 55.811028l-150.48819 0z" fill-rule="evenodd"/><path stroke="#000000" stroke-width="1.0" stroke-linejoin="round" stroke-linecap="butt" d="m104.46457 74.09449l150.48819 0l0 55.811028l-150.48819 0z" fill-rule="evenodd"/><path fill="#ffffff" d="m118.573944 109.13875q-1.1875 0 -2.15625 -0.546875q-0.96875 -0.5625 -1.53125 -1.625q-0.5625 -1.0625 -0.5625 -2.5625q0 -1.53125 0.609375 -2.59375q0.609375 -1.0625 1.59375 -1.625q1.0 -0.5625 2.15625 -0.5625q0.90625 0 1.546875 0.328125q0.640625 0.3125 1.109375 0.734375l-0.78125 1.015625q-0.390625 -0.359375 -0.828125 -0.578125q-0.4375 -0.21875 -0.984375 -0.21875q-0.828125 0 -1.46875 0.4375q-0.640625 0.4375 -1.015625 1.234375q-0.359375 0.78125 -0.359375 1.828125q0 1.546875 0.78125 2.515625q0.78125 0.953125 2.03125 0.953125q0.625 0 1.15625 -0.265625q0.546875 -0.265625 0.96875 -0.640625l0.671875 1.015625q-0.625 0.546875 -1.375 0.859375q-0.734375 0.296875 -1.5625 0.296875zm4.929123 -0.21875l0 -13.28125l1.53125 0l0 3.625l-0.0625 1.859375q0.65625 -0.609375 1.375 -1.046875q0.71875 -0.453125 1.65625 -0.453125q1.4375 0 2.09375 0.90625q0.65625 0.90625 0.65625 2.640625l0 5.75l-1.53125 0l0 -5.546875q0 -1.265625 -0.40625 -1.84375q-0.40625 -0.578125 -1.296875 -0.578125q-0.703125 0 -1.25 0.359375q-0.546875 0.359375 -1.234375 1.046875l0 6.5625l-1.53125 0zm12.242752 0.21875q-1.140625 0 -1.90625 -0.671875q-0.75 -0.6875 -0.75 -1.890625q0 -1.5 1.328125 -2.28125q1.34375 -0.796875 4.234375 -1.125q0 -0.578125 -0.15625 -1.09375q-0.15625 -0.53125 -0.5625 -0.84375q-0.40625 -0.328125 -1.140625 -0.328125q-0.796875 0 -1.484375 0.296875q-0.6875 0.296875 -1.234375 0.671875l-0.59375 -1.0625q0.640625 -0.421875 1.5625 -0.796875q0.921875 -0.390625 2.0 -0.390625q1.65625 0 2.40625 1.03125q0.75 1.015625 0.75 2.703125l0 5.5625l-1.265625 0l-0.140625 -1.078125l-0.046875 0q-0.640625 0.515625 -1.390625 0.90625q-0.75 0.390625 -1.609375 0.390625zm0.4375 -1.21875q0.65625 0 1.234375 -0.3125q0.578125 -0.328125 1.234375 -0.90625l0 -2.515625q-2.265625 0.28125 -3.171875 0.84375q-0.890625 0.546875 -0.890625 1.421875q0 0.765625 0.453125 1.125q0.46875 0.34375 1.140625 0.34375zm6.8715057 1.0l0 -9.0625l1.265625 0l0.125 1.640625l0.0625 0q0.46875 -0.859375 1.140625 -1.359375q0.671875 -0.515625 1.4375 -0.515625q0.53125 0 0.96875 0.1875l-0.296875 1.34375q-0.234375 -0.0625 -0.421875 -0.09375q-0.171875 -0.046875 -0.453125 -0.046875q-0.578125 0 -1.203125 0.46875q-0.625 0.453125 -1.09375 1.609375l0 5.828125l-1.53125 0zm8.119476 0.21875q-1.140625 0 -1.90625 -0.671875q-0.75 -0.6875 -0.75 -1.890625q0 -1.5 1.328125 -2.28125q1.34375 -0.796875 4.234375 -1.125q0 -0.578125 -0.15625 -1.09375q-0.15625 -0.53125 -0.5625 -0.84375q-0.40625 -0.328125 -1.140625 -0.328125q-0.796875 0 -1.484375 0.296875q-0.6875 0.296875 -1.234375 0.671875l-0.59375 -1.0625q0.640625 -0.421875 1.5625 -0.796875q0.921875 -0.390625 2.0 -0.390625q1.65625 0 2.40625 1.03125q0.75 1.015625 0.75 2.703125l0 5.5625l-1.265625 0l-0.140625 -1.078125l-0.046875 0q-0.640625 0.515625 -1.390625 0.90625q-0.75 0.390625 -1.609375 0.390625zm0.4375 -1.21875q0.65625 0 1.234375 -0.3125q0.578125 -0.328125 1.234375 -0.90625l0 -2.515625q-2.265625 0.28125 -3.171875 0.84375q-0.890625 0.546875 -0.890625 1.421875q0 0.765625 0.453125 1.125q0.46875 0.34375 1.140625 0.34375zm10.449631 1.21875q-1.1875 0 -2.15625 -0.546875q-0.96875 -0.5625 -1.53125 -1.625q-0.5625 -1.0625 -0.5625 -2.5625q0 -1.53125 0.609375 -2.59375q0.609375 -1.0625 1.59375 -1.625q1.0 -0.5625 2.15625 -0.5625q0.90625 0 1.546875 0.328125q0.640625 0.3125 1.109375 0.734375l-0.78125 1.015625q-0.390625 -0.359375 -0.828125 -0.578125q-0.4375 -0.21875 -0.984375 -0.21875q-0.828125 0 -1.46875 0.4375q-0.640625 0.4375 -1.015625 1.234375q-0.359375 0.78125 -0.359375 1.828125q0 1.546875 0.78125 2.515625q0.78125 0.953125 2.03125 0.953125q0.625 0 1.15625 -0.265625q0.546875 -0.265625 0.96875 -0.640625l0.671875 1.015625q-0.625 0.546875 -1.375 0.859375q-0.734375 0.296875 -1.5625 0.296875zm7.601837 0q-1.46875 0 -2.03125 -0.828125q-0.5625 -0.84375 -0.5625 -2.1875l0 -5.015625l-1.34375 0l0 -1.15625l1.40625 -0.09375l0.1875 -2.546875l1.296875 0l0 2.546875l2.4375 0l0 1.25l-2.4375 0l0 5.03125q0 0.84375 0.296875 1.296875q0.3125 0.453125 1.09375 0.453125q0.25 0 0.53125 -0.078125q0.28125 -0.078125 0.5 -0.15625l0.296875 1.15625q-0.375 0.125 -0.8125 0.21875q-0.4375 0.109375 -0.859375 0.109375zm6.8569794 0q-1.203125 0 -2.203125 -0.5625q-0.984375 -0.578125 -1.5625 -1.640625q-0.578125 -1.0625 -0.578125 -2.53125q0 -1.484375 0.578125 -2.546875q0.59375 -1.078125 1.53125 -1.65625q0.9375 -0.578125 1.953125 -0.578125q1.734375 0 2.671875 1.15625q0.953125 1.15625 0.953125 3.109375q0 0.234375 -0.015625 0.46875q0 0.234375 -0.046875 0.40625l-6.109375 0q0.09375 1.4375 0.890625 2.296875q0.8125 0.859375 2.125 0.859375q0.65625 0 1.203125 -0.203125q0.546875 -0.203125 1.0625 -0.515625l0.53125 1.015625q-0.578125 0.375 -1.3125 0.65625q-0.734375 0.265625 -1.671875 0.265625zm-2.859375 -5.484375l4.859375 0q0 -1.375 -0.59375 -2.09375q-0.578125 -0.71875 -1.640625 -0.71875q-0.953125 0 -1.71875 0.734375q-0.75 0.734375 -0.90625 2.078125zm8.4410095 5.265625l0 -9.0625l1.265625 0l0.125 1.640625l0.0625 0q0.46875 -0.859375 1.140625 -1.359375q0.671875 -0.515625 1.4375 -0.515625q0.53125 0 0.96875 0.1875l-0.296875 1.34375q-0.234375 -0.0625 -0.421875 -0.09375q-0.171875 -0.046875 -0.453125 -0.046875q-0.578125 0 -1.203125 0.46875q-0.625 0.453125 -1.09375 1.609375l0 5.828125l-1.53125 0z" fill-rule="nonzero"/><path fill="#eeeeee" d="m296.46457 74.09449l129.48032 0l0 55.811028l-129.48032 0z" fill-rule="evenodd"/><path stroke="#595959" stroke-width="1.0" stroke-linejoin="round" stroke-linecap="butt" d="m296.46457 74.09449l129.48032 0l0 55.811028l-129.48032 0z" fill-rule="evenodd"/><path fill="#000000" d="m309.63644 109.13875q-1.421875 0 -2.09375 -0.890625q-0.671875 -0.90625 -0.671875 -2.65625l0 -5.734375l1.546875 0l0 5.53125q0 1.28125 0.390625 1.859375q0.40625 0.578125 1.296875 0.578125q0.71875 0 1.265625 -0.359375q0.546875 -0.375 1.1875 -1.171875l0 -6.4375l1.53125 0l0 9.0625l-1.28125 0l-0.125 -1.421875l-0.0625 0q-0.625 0.75 -1.34375 1.203125q-0.703125 0.4375 -1.640625 0.4375zm10.367737 0q-1.46875 0 -2.03125 -0.828125q-0.5625 -0.84375 -0.5625 -2.1875l0 -5.015625l-1.34375 0l0 -1.15625l1.40625 -0.09375l0.1875 -2.546875l1.296875 0l0 2.546875l2.4375 0l0 1.25l-2.4375 0l0 5.03125q0 0.84375 0.296875 1.296875q0.3125 0.453125 1.09375 0.453125q0.25 0 0.53125 -0.078125q0.28125 -0.078125 0.5 -0.15625l0.296875 1.15625q-0.375 0.125 -0.8125 0.21875q-0.4375 0.109375 -0.859375 0.109375zm3.7120667 -0.21875l0 -7.8125l-1.234375 0l0 -1.15625l1.234375 -0.09375l0 -1.4375q0 -1.390625 0.640625 -2.1875q0.640625 -0.8125 2.0 -0.8125q0.4375 0 0.828125 0.078125q0.390625 0.078125 0.6875 0.21875l-0.34375 1.171875q-0.5 -0.21875 -1.015625 -0.21875q-1.265625 0 -1.265625 1.75l0 1.4375l1.921875 0l0 1.25l-1.921875 0l0 7.8125l-1.53125 0zm8.322632 0.21875q-1.125 0 -2.0 -0.40625q-0.875 -0.421875 -1.390625 -1.171875q-0.515625 -0.75 -0.515625 -1.6875q0 -0.78125 0.328125 -1.375q0.328125 -0.609375 0.828125 -1.0625q0.515625 -0.46875 1.078125 -0.765625l0 -0.078125q-0.65625 -0.46875 -1.15625 -1.140625q-0.5 -0.671875 -0.5 -1.59375q0 -0.921875 0.4375 -1.609375q0.453125 -0.6875 1.21875 -1.0625q0.765625 -0.390625 1.71875 -0.390625q1.546875 0 2.453125 0.90625q0.90625 0.890625 0.90625 2.265625q0 0.609375 -0.265625 1.171875q-0.25 0.546875 -0.625 0.984375q-0.375 0.4375 -0.75 0.71875l0 0.078125q0.546875 0.296875 1.0 0.703125q0.46875 0.40625 0.765625 0.984375q0.296875 0.5625 0.296875 1.359375q0 0.875 -0.46875 1.609375q-0.46875 0.734375 -1.34375 1.15625q-0.859375 0.40625 -2.015625 0.40625zm0.828125 -6.71875q0.59375 -0.53125 0.921875 -1.125q0.328125 -0.609375 0.328125 -1.25q0 -0.875 -0.546875 -1.484375q-0.53125 -0.625 -1.515625 -0.625q-0.828125 0 -1.375 0.53125q-0.546875 0.515625 -0.546875 1.390625q0 0.703125 0.375 1.171875q0.390625 0.46875 1.015625 0.796875q0.640625 0.328125 1.34375 0.59375zm-0.796875 5.578125q1.046875 0 1.6875 -0.578125q0.640625 -0.59375 0.640625 -1.5q0 -0.765625 -0.453125 -1.25q-0.4375 -0.484375 -1.171875 -0.84375q-0.734375 -0.359375 -1.59375 -0.6875q-0.71875 0.46875 -1.203125 1.125q-0.46875 0.640625 -0.46875 1.46875q0 0.984375 0.734375 1.625q0.75 0.640625 1.828125 0.640625z" fill-rule="nonzero"/><path fill="#000000" fill-opacity="0.0" d="m254.95276 102.0l41.51181 0" fill-rule="evenodd"/><path stroke="#595959" stroke-width="1.0" stroke-linejoin="round" stroke-linecap="butt" d="m260.95276 102.0l29.51181 0" fill-rule="evenodd"/><path fill="#595959" stroke="#595959" stroke-width="1.0" stroke-linecap="butt" d="m260.95276 100.34827l-4.538086 1.6517334l4.538086 1.6517334z" fill-rule="evenodd"/><path fill="#595959" stroke="#595959" stroke-width="1.0" stroke-linecap="butt" d="m290.46457 103.65173l4.538086 -1.6517334l-4.538086 -1.6517334z" fill-rule="evenodd"/><path fill="#eeeeee" d="m296.46457 138.09448l129.48032 0l0 55.811035l-129.48032 0z" fill-rule="evenodd"/><path stroke="#595959" stroke-width="1.0" stroke-linejoin="round" stroke-linecap="butt" d="m296.46457 138.09448l129.48032 0l0 55.811035l-129.48032 0z" fill-rule="evenodd"/><path fill="#000000" d="m308.62082 173.13875q-0.859375 0 -1.25 -0.53125q-0.375 -0.53125 -0.375 -1.515625l0 -11.453125l1.53125 0l0 11.5625q0 0.359375 0.125 0.515625q0.140625 0.15625 0.296875 0.15625q0.078125 0 0.140625 0q0.0625 -0.015625 0.203125 -0.03125l0.203125 1.15625q-0.15625 0.078125 -0.359375 0.109375q-0.203125 0.03125 -0.515625 0.03125zm5.226074 0q-1.140625 0 -1.90625 -0.671875q-0.75 -0.6875 -0.75 -1.890625q0 -1.5 1.328125 -2.28125q1.34375 -0.796875 4.234375 -1.125q0 -0.578125 -0.15625 -1.09375q-0.15625 -0.53125 -0.5625 -0.84375q-0.40625 -0.328125 -1.140625 -0.328125q-0.796875 0 -1.484375 0.296875q-0.6875 0.296875 -1.234375 0.671875l-0.59375 -1.0625q0.640625 -0.421875 1.5625 -0.796875q0.921875 -0.390625 2.0 -0.390625q1.65625 0 2.40625 1.03125q0.75 1.015625 0.75 2.703125l0 5.5625l-1.265625 0l-0.140625 -1.078125l-0.046875 0q-0.640625 0.515625 -1.390625 0.90625q-0.75 0.390625 -1.609375 0.390625zm0.4375 -1.21875q0.65625 0 1.234375 -0.3125q0.578125 -0.328125 1.234375 -0.90625l0 -2.515625q-2.265625 0.28125 -3.171875 0.84375q-0.890625 0.546875 -0.890625 1.421875q0 0.765625 0.453125 1.125q0.46875 0.34375 1.140625 0.34375zm6.871521 1.0l0 -9.0625l1.265625 0l0.125 1.640625l0.0625 0q0.46875 -0.859375 1.140625 -1.359375q0.671875 -0.515625 1.4375 -0.515625q0.53125 0 0.96875 0.1875l-0.296875 1.34375q-0.234375 -0.0625 -0.421875 -0.09375q-0.171875 -0.046875 -0.453125 -0.046875q-0.578125 0 -1.203125 0.46875q-0.625 0.453125 -1.09375 1.609375l0 5.828125l-1.53125 0zm9.349548 4.171875q-1.671875 0 -2.71875 -0.640625q-1.03125 -0.625 -1.03125 -1.796875q0 -0.578125 0.34375 -1.109375q0.359375 -0.53125 0.984375 -0.9375l0 -0.078125q-0.34375 -0.203125 -0.578125 -0.578125q-0.234375 -0.375 -0.234375 -0.890625q0 -0.578125 0.3125 -1.0q0.328125 -0.4375 0.671875 -0.6875l0 -0.078125q-0.4375 -0.375 -0.8125 -1.0q-0.359375 -0.640625 -0.359375 -1.4375q0 -0.984375 0.46875 -1.703125q0.46875 -0.734375 1.25 -1.125q0.78125 -0.40625 1.703125 -0.40625q0.375 0 0.703125 0.078125q0.34375 0.0625 0.578125 0.15625l3.15625 0l0 1.171875l-1.875 0q0.328125 0.296875 0.53125 0.796875q0.21875 0.484375 0.21875 1.0625q0 0.96875 -0.453125 1.6875q-0.4375 0.703125 -1.1875 1.09375q-0.75 0.375 -1.671875 0.375q-0.734375 0 -1.359375 -0.3125q-0.25 0.203125 -0.421875 0.453125q-0.15625 0.25 -0.15625 0.625q0 0.4375 0.34375 0.71875q0.34375 0.265625 1.25 0.265625l1.75 0q1.59375 0 2.375 0.515625q0.796875 0.515625 0.796875 1.65625q0 0.84375 -0.5625 1.546875q-0.546875 0.703125 -1.578125 1.140625q-1.03125 0.4375 -2.4375 0.4375zm0 -8.078125q0.78125 0 1.34375 -0.578125q0.578125 -0.59375 0.578125 -1.578125q0 -0.984375 -0.5625 -1.546875q-0.5625 -0.5625 -1.359375 -0.5625q-0.8125 0 -1.375 0.5625q-0.546875 0.5625 -0.546875 1.546875q0 0.984375 0.5625 1.578125q0.578125 0.578125 1.359375 0.578125zm0.21875 7.015625q1.3125 0 2.09375 -0.5625q0.78125 -0.5625 0.78125 -1.28125q0 -0.625 -0.484375 -0.875q-0.46875 -0.234375 -1.34375 -0.234375l-1.5625 0q-0.265625 0 -0.578125 -0.046875q-0.296875 -0.03125 -0.609375 -0.109375q-0.484375 0.359375 -0.703125 0.75q-0.21875 0.390625 -0.21875 0.78125q0 0.71875 0.6875 1.140625q0.703125 0.4375 1.9375 0.4375zm9.532043 -2.890625q-1.203125 0 -2.203125 -0.5625q-0.984375 -0.578125 -1.5625 -1.640625q-0.578125 -1.0625 -0.578125 -2.53125q0 -1.484375 0.578125 -2.546875q0.59375 -1.078125 1.53125 -1.65625q0.9375 -0.578125 1.953125 -0.578125q1.734375 0 2.671875 1.15625q0.953125 1.15625 0.953125 3.109375q0 0.234375 -0.015625 0.46875q0 0.234375 -0.046875 0.40625l-6.109375 0q0.09375 1.4375 0.890625 2.296875q0.8125 0.859375 2.125 0.859375q0.65625 0 1.203125 -0.203125q0.546875 -0.203125 1.0625 -0.515625l0.53125 1.015625q-0.578125 0.375 -1.3125 0.65625q-0.734375 0.265625 -1.671875 0.265625zm-2.859375 -5.484375l4.859375 0q0 -1.375 -0.59375 -2.09375q-0.578125 -0.71875 -1.640625 -0.71875q-0.953125 0 -1.71875 0.734375q-0.75 0.734375 -0.90625 2.078125zm7.1285095 7.609375l0 -1.015625l8.890625 0l0 1.015625l-8.890625 0zm13.28125 -2.125q-1.421875 0 -2.09375 -0.890625q-0.671875 -0.90625 -0.671875 -2.65625l0 -5.734375l1.546875 0l0 5.53125q0 1.28125 0.390625 1.859375q0.40625 0.578125 1.296875 0.578125q0.71875 0 1.265625 -0.359375q0.546875 -0.375 1.1875 -1.171875l0 -6.4375l1.53125 0l0 9.0625l-1.28125 0l-0.125 -1.421875l-0.0625 0q-0.625 0.75 -1.34375 1.203125q-0.703125 0.4375 -1.640625 0.4375zm10.367767 0q-1.46875 0 -2.03125 -0.828125q-0.5625 -0.84375 -0.5625 -2.1875l0 -5.015625l-1.34375 0l0 -1.15625l1.40625 -0.09375l0.1875 -2.546875l1.296875 0l0 2.546875l2.4375 0l0 1.25l-2.4375 0l0 5.03125q0 0.84375 0.296875 1.296875q0.3125 0.453125 1.09375 0.453125q0.25 0 0.53125 -0.078125q0.28125 -0.078125 0.5 -0.15625l0.296875 1.15625q-0.375 0.125 -0.8125 0.21875q-0.4375 0.109375 -0.859375 0.109375zm3.7120667 -0.21875l0 -7.8125l-1.234375 0l0 -1.15625l1.234375 -0.09375l0 -1.4375q0 -1.390625 0.640625 -2.1875q0.640625 -0.8125 2.0 -0.8125q0.4375 0 0.828125 0.078125q0.390625 0.078125 0.6875 0.21875l-0.34375 1.171875q-0.5 -0.21875 -1.015625 -0.21875q-1.265625 0 -1.265625 1.75l0 1.4375l1.921875 0l0 1.25l-1.921875 0l0 7.8125l-1.53125 0zm8.322632 0.21875q-1.125 0 -2.0 -0.40625q-0.875 -0.421875 -1.390625 -1.171875q-0.515625 -0.75 -0.515625 -1.6875q0 -0.78125 0.328125 -1.375q0.328125 -0.609375 0.828125 -1.0625q0.515625 -0.46875 1.078125 -0.765625l0 -0.078125q-0.65625 -0.46875 -1.15625 -1.140625q-0.5 -0.671875 -0.5 -1.59375q0 -0.921875 0.4375 -1.609375q0.453125 -0.6875 1.21875 -1.0625q0.765625 -0.390625 1.71875 -0.390625q1.546875 0 2.453125 0.90625q0.90625 0.890625 0.90625 2.265625q0 0.609375 -0.265625 1.171875q-0.25 0.546875 -0.625 0.984375q-0.375 0.4375 -0.75 0.71875l0 0.078125q0.546875 0.296875 1.0 0.703125q0.46875 0.40625 0.765625 0.984375q0.296875 0.5625 0.296875 1.359375q0 0.875 -0.46875 1.609375q-0.46875 0.734375 -1.34375 1.15625q-0.859375 0.40625 -2.015625 0.40625zm0.828125 -6.71875q0.59375 -0.53125 0.921875 -1.125q0.328125 -0.609375 0.328125 -1.25q0 -0.875 -0.546875 -1.484375q-0.53125 -0.625 -1.515625 -0.625q-0.828125 0 -1.375 0.53125q-0.546875 0.515625 -0.546875 1.390625q0 0.703125 0.375 1.171875q0.390625 0.46875 1.015625 0.796875q0.640625 0.328125 1.34375 0.59375zm-0.796875 5.578125q1.046875 0 1.6875 -0.578125q0.640625 -0.59375 0.640625 -1.5q0 -0.765625 -0.453125 -1.25q-0.4375 -0.484375 -1.171875 -0.84375q-0.734375 -0.359375 -1.59375 -0.6875q-0.71875 0.46875 -1.203125 1.125q-0.46875 0.640625 -0.46875 1.46875q0 0.984375 0.734375 1.625q0.75 0.640625 1.828125 0.640625z" fill-rule="nonzero"/><path fill="#000000" fill-opacity="0.0" d="m296.46457 166.0l-116.755905 0l0 -36.094482" fill-rule="evenodd"/><path stroke="#595959" stroke-width="1.0" stroke-linejoin="round" stroke-linecap="butt" d="m296.46457 166.0l-116.755905 0l0 -30.094482" fill-rule="evenodd"/><path fill="#595959" stroke="#595959" stroke-width="1.0" stroke-linecap="butt" d="m181.3604 135.90552l-1.6517334 -4.538101l-1.6517334 4.538101z" fill-rule="evenodd"/></g></svg>