<svg version="1.1" viewBox="0.0 0.0 960.0 540.0" fill="none" stroke="none" stroke-linecap="square" stroke-miterlimit="10" xmlns:xlink="http://www.w3.org/1999/xlink" xmlns="http://www.w3.org/2000/svg"><clipPath id="g1327d504b9f_0_526.0"><path d="m0 0l960.0 0l0 540.0l-960.0 0l0 -540.0z" clip-rule="nonzero"/></clipPath><g clip-path="url(#g1327d504b9f_0_526.0)"><path fill="#ffffff" d="m0 0l960.0 0l0 540.0l-960.0 0z" fill-rule="evenodd"/><path fill="#b7b7b7" d="m299.0866 81.908134l530.92914 0l0 271.2126l-530.92914 0z" fill-rule="evenodd"/><path stroke="#000000" stroke-width="1.0" stroke-linejoin="round" stroke-linecap="butt" d="m299.0866 81.908134l530.92914 0l0 271.2126l-530.92914 0z" fill-rule="evenodd"/><path fill="#000000" d="m643.9895 115.56431l132.06299 0l0 42.01574l-132.06299 0z" fill-rule="evenodd"/><path stroke="#000000" stroke-width="1.0" stroke-linejoin="round" stroke-linecap="butt" d="m643.9895 115.56431l132.06299 0l0 42.01574l-132.06299 0z" fill-rule="evenodd"/><path fill="#ffffff" d="m658.0989 143.71092q-1.1875 0 -2.15625 -0.546875q-0.96875 -0.5625 -1.53125 -1.625q-0.5625 -1.0625 -0.5625 -2.5625q0 -1.53125 0.609375 -2.59375q0.609375 -1.0625 1.59375 -1.625q1.0 -0.5625 2.15625 -0.5625q0.90625 0 1.546875 0.328125q0.640625 0.3125 1.109375 0.734375l-0.78125 1.015625q-0.390625 -0.359375 -0.828125 -0.578125q-0.4375 -0.21875 -0.984375 -0.21875q-0.828125 0 -1.46875 0.4375q-0.640625 0.4375 -1.015625 1.234375q-0.359375 0.78125 -0.359375 1.828125q0 1.546875 0.78125 2.515625q0.78125 0.953125 2.03125 0.953125q0.625 0 1.15625 -0.265625q0.546875 -0.265625 0.96875 -0.640625l0.671875 1.015625q-0.625 0.546875 -1.375 0.859375q-0.734375 0.296875 -1.5625 0.296875zm4.929138 -0.21875l0 -9.0625l1.53125 0l0 9.0625l-1.53125 0zm0.78125 -10.9375q-0.453125 0 -0.75 -0.265625q-0.28125 -0.265625 -0.28125 -0.734375q0 -0.453125 0.28125 -0.734375q0.296875 -0.28125 0.75 -0.28125q0.453125 0 0.734375 0.28125q0.296875 0.28125 0.296875 0.734375q0 0.46875 -0.296875 0.734375q-0.28125 0.265625 -0.734375 0.265625zm6.6675415 11.15625q-1.46875 0 -2.03125 -0.828125q-0.5625 -0.84375 -0.5625 -2.1875l0 -5.015625l-1.34375 0l0 -1.15625l1.40625 -0.09375l0.1875 -2.546875l1.296875 0l0 2.546875l2.4375 0l0 1.25l-2.4375 0l0 5.03125q0 0.84375 0.296875 1.296875q0.3125 0.453125 1.09375 0.453125q0.25 0 0.53125 -0.078125q0.28125 -0.078125 0.5 -0.15625l0.296875 1.15625q-0.375 0.125 -0.8125 0.21875q-0.4375 0.109375 -0.859375 0.109375zm3.5870361 3.6875q-0.296875 0 -0.5625 -0.0625q-0.265625 -0.0625 -0.5 -0.125l0.3125 -1.21875q0.140625 0.03125 0.328125 0.078125q0.1875 0.046875 0.359375 0.046875q0.765625 0 1.265625 -0.546875q0.5 -0.546875 0.78125 -1.390625l0.203125 -0.671875l-3.640625 -9.078125l1.59375 0l1.84375 5.015625q0.203125 0.578125 0.4375 1.25q0.234375 0.671875 0.4375 1.296875l0.078125 0q0.203125 -0.609375 0.390625 -1.28125q0.1875 -0.671875 0.375 -1.265625l1.625 -5.015625l1.484375 0l-3.40625 9.8125q-0.328125 0.890625 -0.765625 1.59375q-0.4375 0.71875 -1.078125 1.140625q-0.640625 0.421875 -1.5625 0.421875z" fill-rule="nonzero"/><path fill="#000000" d="m491.3176 115.56431l132.06296 0l0 42.01574l-132.06296 0z" fill-rule="evenodd"/><path stroke="#000000" stroke-width="1.0" stroke-linejoin="round" stroke-linecap="butt" d="m491.3176 115.56431l132.06296 0l0 42.01574l-132.06296 0z" fill-rule="evenodd"/><path fill="#ffffff" d="m501.98947 147.39842q-0.296875 0 -0.5625 -0.0625q-0.265625 -0.0625 -0.5 -0.125l0.3125 -1.21875q0.140625 0.03125 0.328125 0.078125q0.1875 0.046875 0.359375 0.046875q0.765625 0 1.265625 -0.546875q0.5 -0.546875 0.78125 -1.390625l0.203125 -0.671875l-3.640625 -9.078125l1.59375 0l1.84375 5.015625q0.203125 0.578125 0.4375 1.25q0.234375 0.671875 0.4375 1.296875l0.078125 0q0.203125 -0.609375 0.390625 -1.28125q0.1875 -0.671875 0.375 -1.265625l1.625 -5.015625l1.484375 0l-3.40625 9.8125q-0.328125 0.890625 -0.765625 1.59375q-0.4375 0.71875 -1.078125 1.140625q-0.640625 0.421875 -1.5625 0.421875zm12.169037 -3.6875q-1.203125 0 -2.203125 -0.5625q-0.984375 -0.578125 -1.5625 -1.640625q-0.578125 -1.0625 -0.578125 -2.53125q0 -1.484375 0.578125 -2.546875q0.59375 -1.078125 1.53125 -1.65625q0.9375 -0.578125 1.953125 -0.578125q1.734375 0 2.671875 1.15625q0.953125 1.15625 0.953125 3.109375q0 0.234375 -0.015625 0.46875q0 0.234375 -0.046875 0.40625l-6.109375 0q0.09375 1.4375 0.890625 2.296875q0.8125 0.859375 2.125 0.859375q0.65625 0 1.203125 -0.203125q0.546875 -0.203125 1.0625 -0.515625l0.53125 1.015625q-0.578125 0.375 -1.3125 0.65625q-0.734375 0.265625 -1.671875 0.265625zm-2.859375 -5.484375l4.859375 0q0 -1.375 -0.59375 -2.09375q-0.578125 -0.71875 -1.640625 -0.71875q-0.953125 0 -1.71875 0.734375q-0.75 0.734375 -0.90625 2.078125zm10.2734375 5.484375q-1.140625 0 -1.90625 -0.671875q-0.75 -0.6875 -0.75 -1.890625q0 -1.5 1.328125 -2.28125q1.34375 -0.796875 4.234375 -1.125q0 -0.578125 -0.15625 -1.09375q-0.15625 -0.53125 -0.5625 -0.84375q-0.40625 -0.328125 -1.140625 -0.328125q-0.796875 0 -1.484375 0.296875q-0.6875 0.296875 -1.234375 0.671875l-0.59375 -1.0625q0.640625 -0.421875 1.5625 -0.796875q0.921875 -0.390625 2.0 -0.390625q1.65625 0 2.40625 1.03125q0.75 1.015625 0.75 2.703125l0 5.5625l-1.265625 0l-0.140625 -1.078125l-0.046875 0q-0.640625 0.515625 -1.390625 0.90625q-0.75 0.390625 -1.609375 0.390625zm0.4375 -1.21875q0.65625 0 1.234375 -0.3125q0.578125 -0.328125 1.234375 -0.90625l0 -2.515625q-2.265625 0.28125 -3.171875 0.84375q-0.890625 0.546875 -0.890625 1.421875q0 0.765625 0.453125 1.125q0.46875 0.34375 1.140625 0.34375zm6.871521 1.0l0 -9.0625l1.265625 0l0.125 1.640625l0.0625 0q0.46875 -0.859375 1.140625 -1.359375q0.671875 -0.515625 1.4375 -0.515625q0.53125 0 0.96875 0.1875l-0.296875 1.34375q-0.234375 -0.0625 -0.421875 -0.09375q-0.171875 -0.046875 -0.453125 -0.046875q-0.578125 0 -1.203125 0.46875q-0.625 0.453125 -1.09375 1.609375l0 5.828125l-1.53125 0z" fill-rule="nonzero"/><path fill="#000000" fill-opacity="0.0" d="m119.80549 39.892387l132.06299 0l0 42.015747l-132.06299 0z" fill-rule="evenodd"/><path fill="#373a3c" d="m145.17786 66.812386l0 -12.234375l3.828125 0q1.25 0 2.21875 0.328125q0.96875 0.328125 1.515625 1.078125q0.5625 0.75 0.5625 2.015625q0 1.421875 -0.75 2.296875q-0.75 0.859375 -2.015625 1.1875l3.125 5.328125l-1.765625 0l-2.9375 -5.171875l-2.21875 0l0 5.171875l-1.5625 0zm1.5625 -6.4375l2.046875 0q1.4375 0 2.203125 -0.578125q0.765625 -0.59375 0.765625 -1.796875q0 -1.203125 -0.765625 -1.6875q-0.765625 -0.484375 -2.203125 -0.484375l-2.046875 0l0 4.546875zm12.397491 6.65625q-1.203125 0 -2.203125 -0.5625q-0.984375 -0.578125 -1.5625 -1.640625q-0.578125 -1.0625 -0.578125 -2.53125q0 -1.484375 0.578125 -2.546875q0.59375 -1.078125 1.53125 -1.65625q0.9375 -0.578125 1.953125 -0.578125q1.734375 0 2.671875 1.15625q0.953125 1.15625 0.953125 3.109375q0 0.234375 -0.015625 0.46875q0 0.234375 -0.046875 0.40625l-6.109375 0q0.09375 1.4375 0.890625 2.296875q0.8125 0.859375 2.125 0.859375q0.65625 0 1.203125 -0.203125q0.546875 -0.203125 1.0625 -0.515625l0.53125 1.015625q-0.578125 0.375 -1.3125 0.65625q-0.734375 0.265625 -1.671875 0.265625zm-2.859375 -5.484375l4.859375 0q0 -1.375 -0.59375 -2.09375q-0.578125 -0.71875 -1.640625 -0.71875q-0.953125 0 -1.71875 0.734375q-0.75 0.734375 -0.90625 2.078125zm12.0191345 5.484375q-1.1875 0 -2.15625 -0.546875q-0.96875 -0.5625 -1.53125 -1.625q-0.5625 -1.0625 -0.5625 -2.5625q0 -1.53125 0.609375 -2.59375q0.609375 -1.0625 1.59375 -1.625q1.0 -0.5625 2.15625 -0.5625q0.90625 0 1.546875 0.328125q0.640625 0.3125 1.109375 0.734375l-0.78125 1.015625q-0.390625 -0.359375 -0.828125 -0.578125q-0.4375 -0.21875 -0.984375 -0.21875q-0.828125 0 -1.46875 0.4375q-0.640625 0.4375 -1.015625 1.234375q-0.359375 0.78125 -0.359375 1.828125q0 1.546875 0.78125 2.515625q0.78125 0.953125 2.03125 0.953125q0.625 0 1.15625 -0.265625q0.546875 -0.265625 0.96875 -0.640625l0.671875 1.015625q-0.625 0.546875 -1.375 0.859375q-0.734375 0.296875 -1.5625 0.296875zm8.068375 0q-1.109375 0 -2.078125 -0.546875q-0.953125 -0.5625 -1.546875 -1.625q-0.578125 -1.0625 -0.578125 -2.5625q0 -1.53125 0.578125 -2.59375q0.59375 -1.0625 1.546875 -1.625q0.96875 -0.5625 2.078125 -0.5625q1.109375 0 2.0625 0.5625q0.953125 0.5625 1.53125 1.625q0.59375 1.0625 0.59375 2.59375q0 1.5 -0.59375 2.5625q-0.578125 1.0625 -1.53125 1.625q-0.953125 0.546875 -2.0625 0.546875zm0 -1.265625q1.171875 0 1.890625 -0.953125q0.71875 -0.96875 0.71875 -2.515625q0 -1.5625 -0.71875 -2.53125q-0.71875 -0.96875 -1.890625 -0.96875q-1.15625 0 -1.890625 0.96875q-0.734375 0.96875 -0.734375 2.53125q0 1.546875 0.734375 2.515625q0.734375 0.953125 1.890625 0.953125zm6.5804443 1.046875l0 -9.0625l1.265625 0l0.125 1.640625l0.0625 0q0.46875 -0.859375 1.140625 -1.359375q0.671875 -0.515625 1.4375 -0.515625q0.53125 0 0.96875 0.1875l-0.296875 1.34375q-0.234375 -0.0625 -0.421875 -0.09375q-0.171875 -0.046875 -0.453125 -0.046875q-0.578125 0 -1.203125 0.46875q-0.625 0.453125 -1.09375 1.609375l0 5.828125l-1.53125 0zm9.380814 0.21875q-1.703125 0 -2.734375 -1.234375q-1.015625 -1.234375 -1.015625 -3.5q0 -1.46875 0.546875 -2.546875q0.5625 -1.078125 1.453125 -1.65625q0.90625 -0.578125 1.9375 -0.578125q0.78125 0 1.359375 0.28125q0.578125 0.28125 1.171875 0.765625l-0.0625 -1.546875l0 -3.484375l1.546875 0l0 13.28125l-1.265625 0l-0.140625 -1.0625l-0.046875 0q-0.53125 0.515625 -1.25 0.90625q-0.703125 0.375 -1.5 0.375zm0.34375 -1.28125q1.1875 0 2.3125 -1.25l0 -4.734375q-0.578125 -0.53125 -1.109375 -0.734375q-0.53125 -0.21875 -1.09375 -0.21875q-0.734375 0 -1.328125 0.4375q-0.578125 0.4375 -0.9375 1.21875q-0.34375 0.765625 -0.34375 1.8125q0 1.625 0.640625 2.546875q0.65625 0.921875 1.859375 0.921875zm7.0573425 1.0625l0 -12.234375l3.640625 0q1.25 0 2.1875 0.296875q0.953125 0.296875 1.484375 0.953125q0.53125 0.65625 0.53125 1.734375q0 0.90625 -0.46875 1.65625q-0.453125 0.734375 -1.328125 1.015625l0 0.0625q1.109375 0.203125 1.796875 0.9375q0.703125 0.734375 0.703125 2.0q0 1.1875 -0.59375 2.0q-0.578125 0.796875 -1.625 1.1875q-1.046875 0.390625 -2.421875 0.390625l-3.90625 0zm1.5625 -7.03125l1.796875 0q1.578125 0 2.265625 -0.53125q0.6875 -0.546875 0.6875 -1.484375q0 -1.0625 -0.71875 -1.5q-0.71875 -0.453125 -2.15625 -0.453125l-1.875 0l0 3.96875zm0 5.796875l2.125 0q1.578125 0 2.453125 -0.578125q0.875 -0.59375 0.875 -1.828125q0 -1.140625 -0.875 -1.671875q-0.859375 -0.53125 -2.453125 -0.53125l-2.125 0l0 4.609375zm11.360504 1.453125q-1.140625 0 -1.90625 -0.671875q-0.75 -0.6875 -0.75 -1.890625q0 -1.5 1.328125 -2.28125q1.34375 -0.796875 4.234375 -1.125q0 -0.578125 -0.15625 -1.09375q-0.15625 -0.53125 -0.5625 -0.84375q-0.40625 -0.328125 -1.140625 -0.328125q-0.796875 0 -1.484375 0.296875q-0.6875 0.296875 -1.234375 0.671875l-0.59375 -1.0625q0.640625 -0.421875 1.5625 -0.796875q0.921875 -0.390625 2.0 -0.390625q1.65625 0 2.40625 1.03125q0.75 1.015625 0.75 2.703125l0 5.5625l-1.265625 0l-0.140625 -1.078125l-0.046875 0q-0.640625 0.515625 -1.390625 0.90625q-0.75 0.390625 -1.609375 0.390625zm0.4375 -1.21875q0.65625 0 1.234375 -0.3125q0.578125 -0.328125 1.234375 -0.90625l0 -2.515625q-2.265625 0.28125 -3.171875 0.84375q-0.890625 0.546875 -0.890625 1.421875q0 0.765625 0.453125 1.125q0.46875 0.34375 1.140625 0.34375zm9.469543 1.21875q-1.46875 0 -2.03125 -0.828125q-0.5625 -0.84375 -0.5625 -2.1875l0 -5.015625l-1.34375 0l0 -1.15625l1.40625 -0.09375l0.1875 -2.546875l1.296875 0l0 2.546875l2.4375 0l0 1.25l-2.4375 0l0 5.03125q0 0.84375 0.296875 1.296875q0.3125 0.453125 1.09375 0.453125q0.25 0 0.53125 -0.078125q0.28125 -0.078125 0.5 -0.15625l0.296875 1.15625q-0.375 0.125 -0.8125 0.21875q-0.4375 0.109375 -0.859375 0.109375zm6.7632294 0q-1.1875 0 -2.15625 -0.546875q-0.96875 -0.5625 -1.53125 -1.625q-0.5625 -1.0625 -0.5625 -2.5625q0 -1.53125 0.609375 -2.59375q0.609375 -1.0625 1.59375 -1.625q1.0 -0.5625 2.15625 -0.5625q0.90625 0 1.546875 0.328125q0.640625 0.3125 1.109375 0.734375l-0.78125 1.015625q-0.390625 -0.359375 -0.828125 -0.578125q-0.4375 -0.21875 -0.984375 -0.21875q-0.828125 0 -1.46875 0.4375q-0.640625 0.4375 -1.015625 1.234375q-0.359375 0.78125 -0.359375 1.828125q0 1.546875 0.78125 2.515625q0.78125 0.953125 2.03125 0.953125q0.625 0 1.15625 -0.265625q0.546875 -0.265625 0.96875 -0.640625l0.671875 1.015625q-0.625 0.546875 -1.375 0.859375q-0.734375 0.296875 -1.5625 0.296875zm4.929123 -0.21875l0 -13.28125l1.53125 0l0 3.625l-0.0625 1.859375q0.65625 -0.609375 1.375 -1.046875q0.71875 -0.453125 1.65625 -0.453125q1.4375 0 2.09375 0.90625q0.65625 0.90625 0.65625 2.640625l0 5.75l-1.53125 0l0 -5.546875q0 -1.265625 -0.40625 -1.84375q-0.40625 -0.578125 -1.296875 -0.578125q-0.703125 0 -1.25 0.359375q-0.546875 0.359375 -1.234375 1.046875l0 6.5625l-1.53125 0z" fill-rule="nonzero"/><path shape-rendering="crispEdges" fill="#073763" d="m340.0 162.0l132.05249 0l0 38.89502l-132.05249 0l0 -38.89502z" fill-rule="nonzero"/><path shape-rendering="crispEdges" fill="#073763" d="m340.0 200.89502l132.05249 0l0 38.895004l-132.05249 0l0 -38.895004z" fill-rule="nonzero"/><path shape-rendering="crispEdges" fill="#073763" d="m340.0 239.79002l132.05249 0l0 38.895004l-132.05249 0l0 -38.895004z" fill-rule="nonzero"/><path shape-rendering="crispEdges" fill="#073763" d="m340.0 278.68503l132.05249 0l0 38.89502l-132.05249 0l0 -38.89502z" fill-rule="nonzero"/><path stroke="#ffffff" stroke-width="1.0" stroke-linecap="butt" d="m340.0 161.50131l0 156.57742" fill-rule="nonzero"/><path stroke="#ffffff" stroke-width="1.0" stroke-linecap="butt" d="m472.0525 161.50131l0 156.57742" fill-rule="nonzero"/><path stroke="#ffffff" stroke-width="1.0" stroke-linecap="butt" d="m339.5013 162.0l133.04987 0" fill-rule="nonzero"/><path stroke="#ffffff" stroke-width="1.0" stroke-linecap="butt" d="m339.5013 200.89502l133.04987 0" fill-rule="nonzero"/><path stroke="#ffffff" stroke-width="1.0" stroke-linecap="butt" d="m339.5013 239.79002l133.04987 0" fill-rule="nonzero"/><path stroke="#ffffff" stroke-width="1.0" stroke-linecap="butt" d="m339.5013 278.68503l133.04987 0" fill-rule="nonzero"/><path stroke="#ffffff" stroke-width="1.0" stroke-linecap="butt" d="m339.5013 317.58005l133.04987 0" fill-rule="nonzero"/><path fill="#ffffff" d="m356.86572 185.90813q-0.828125 0 -1.546875 -0.3125q-0.703125 -0.3125 -1.21875 -0.84375l0.609375 -0.703125q0.421875 0.453125 0.984375 0.71875q0.5625 0.265625 1.1875 0.265625q0.78125 0 1.203125 -0.34375q0.4375 -0.359375 0.4375 -0.9375q0 -0.40625 -0.171875 -0.640625q-0.171875 -0.25 -0.46875 -0.40625q-0.296875 -0.171875 -0.671875 -0.34375l-1.125 -0.5q-0.375 -0.15625 -0.75 -0.40625q-0.359375 -0.25 -0.609375 -0.640625q-0.234375 -0.40625 -0.234375 -0.96875q0 -0.609375 0.3125 -1.078125q0.328125 -0.46875 0.890625 -0.734375q0.5625 -0.28125 1.265625 -0.28125q0.703125 0 1.296875 0.28125q0.609375 0.265625 1.03125 0.6875l-0.546875 0.65625q-0.359375 -0.359375 -0.796875 -0.546875q-0.4375 -0.203125 -0.984375 -0.203125q-0.65625 0 -1.0625 0.3125q-0.40625 0.3125 -0.40625 0.84375q0 0.375 0.203125 0.625q0.203125 0.234375 0.5 0.390625q0.296875 0.15625 0.609375 0.28125l1.109375 0.484375q0.46875 0.1875 0.828125 0.46875q0.375 0.265625 0.578125 0.65625q0.21875 0.390625 0.21875 0.984375q0 0.625 -0.328125 1.140625q-0.3125 0.5 -0.921875 0.796875q-0.59375 0.296875 -1.421875 0.296875zm5.666931 0q-0.921875 0 -1.296875 -0.53125q-0.359375 -0.546875 -0.359375 -1.40625l0 -3.234375l-0.875 0l0 -0.734375l0.921875 -0.0625l0.109375 -1.640625l0.828125 0l0 1.640625l1.578125 0l0 0.796875l-1.578125 0l0 3.25q0 0.53125 0.203125 0.828125q0.203125 0.296875 0.703125 0.296875q0.15625 0 0.328125 -0.046875q0.1875 -0.0625 0.328125 -0.109375l0.203125 0.734375q-0.25 0.09375 -0.53125 0.15625q-0.28125 0.0625 -0.5625 0.0625zm4.325531 0q-0.703125 0 -1.328125 -0.359375q-0.609375 -0.359375 -1.0 -1.03125q-0.375 -0.6875 -0.375 -1.65625q0 -0.984375 0.375 -1.65625q0.390625 -0.6875 1.0 -1.046875q0.625 -0.359375 1.328125 -0.359375q0.71875 0 1.328125 0.359375q0.625 0.359375 1.0 1.046875q0.375 0.671875 0.375 1.65625q0 0.96875 -0.375 1.65625q-0.375 0.671875 -1.0 1.03125q-0.609375 0.359375 -1.328125 0.359375zm0 -0.8125q0.765625 0 1.21875 -0.609375q0.46875 -0.625 0.46875 -1.625q0 -1.0 -0.46875 -1.625q-0.453125 -0.625 -1.21875 -0.625q-0.734375 0 -1.203125 0.625q-0.46875 0.625 -0.46875 1.625q0 1.0 0.46875 1.625q0.46875 0.609375 1.203125 0.609375zm4.238434 0.671875l0 -5.828125l0.8125 0l0.09375 0.84375l0.03125 0q0.421875 -0.421875 0.890625 -0.703125q0.46875 -0.28125 1.0625 -0.28125q0.921875 0 1.34375 0.578125q0.4375 0.578125 0.4375 1.6875l0 3.703125l-0.984375 0l0 -3.5625q0 -0.8125 -0.265625 -1.1875q-0.265625 -0.375 -0.84375 -0.375q-0.4375 0 -0.796875 0.234375q-0.359375 0.21875 -0.796875 0.671875l0 4.21875l-0.984375 0zm8.923401 0.140625q-0.78125 0 -1.421875 -0.359375q-0.625 -0.375 -1.0 -1.046875q-0.375 -0.6875 -0.375 -1.640625q0 -0.953125 0.375 -1.640625q0.390625 -0.6875 0.984375 -1.046875q0.609375 -0.375 1.265625 -0.375q1.109375 0 1.71875 0.75q0.609375 0.734375 0.609375 1.984375q0 0.15625 -0.015625 0.3125q0 0.140625 -0.03125 0.25l-3.921875 0q0.046875 0.921875 0.5625 1.484375q0.53125 0.546875 1.375 0.546875q0.421875 0 0.765625 -0.125q0.359375 -0.140625 0.6875 -0.34375l0.34375 0.65625q-0.375 0.234375 -0.84375 0.421875q-0.46875 0.171875 -1.078125 0.171875zm-1.828125 -3.53125l3.109375 0q0 -0.875 -0.375 -1.34375q-0.375 -0.46875 -1.0625 -0.46875q-0.609375 0 -1.09375 0.484375q-0.484375 0.46875 -0.578125 1.328125zm6.402649 3.390625l-1.625 -5.828125l1.015625 0l0.859375 3.375q0.09375 0.40625 0.171875 0.8125q0.09375 0.390625 0.1875 0.796875l0.046875 0q0.09375 -0.40625 0.1875 -0.796875q0.09375 -0.40625 0.203125 -0.8125l0.90625 -3.375l0.953125 0l0.90625 3.375q0.109375 0.40625 0.203125 0.8125q0.109375 0.390625 0.203125 0.796875l0.0625 0q0.09375 -0.40625 0.171875 -0.796875q0.09375 -0.40625 0.1875 -0.8125l0.84375 -3.375l0.9375 0l-1.5625 5.828125l-1.203125 0l-0.828125 -3.125q-0.109375 -0.421875 -0.203125 -0.828125q-0.09375 -0.421875 -0.203125 -0.859375l-0.046875 0q-0.09375 0.4375 -0.1875 0.859375q-0.09375 0.40625 -0.21875 0.828125l-0.8125 3.125l-1.15625 0zm8.917969 0.140625q-0.734375 0 -1.21875 -0.4375q-0.484375 -0.4375 -0.484375 -1.21875q0 -0.953125 0.859375 -1.453125q0.859375 -0.515625 2.71875 -0.734375q0 -0.359375 -0.109375 -0.6875q-0.09375 -0.34375 -0.359375 -0.546875q-0.25 -0.21875 -0.734375 -0.21875q-0.5 0 -0.953125 0.1875q-0.4375 0.1875 -0.78125 0.4375l-0.390625 -0.6875q0.40625 -0.265625 1.0 -0.5q0.59375 -0.25 1.296875 -0.25q1.0625 0 1.546875 0.65625q0.484375 0.640625 0.484375 1.734375l0 3.578125l-0.828125 0l-0.078125 -0.703125l-0.03125 0q-0.40625 0.34375 -0.90625 0.59375q-0.484375 0.25 -1.03125 0.25zm0.28125 -0.78125q0.421875 0 0.796875 -0.203125q0.375 -0.21875 0.796875 -0.578125l0 -1.625q-1.453125 0.171875 -2.046875 0.546875q-0.578125 0.359375 -0.578125 0.921875q0 0.484375 0.296875 0.71875q0.3125 0.21875 0.734375 0.21875zm5.4699097 0.78125q-0.5625 0 -0.8125 -0.34375q-0.234375 -0.34375 -0.234375 -0.96875l0 -7.375l0.984375 0l0 7.4375q0 0.234375 0.078125 0.34375q0.09375 0.09375 0.203125 0.09375q0.046875 0 0.078125 0q0.046875 -0.015625 0.125 -0.03125l0.140625 0.75q-0.09375 0.046875 -0.234375 0.0625q-0.125 0.03125 -0.328125 0.03125zm3.060028 0q-0.5625 0 -0.8125 -0.34375q-0.234375 -0.34375 -0.234375 -0.96875l0 -7.375l0.984375 0l0 7.4375q0 0.234375 0.078125 0.34375q0.09375 0.09375 0.203125 0.09375q0.046875 0 0.078125 0q0.046875 -0.015625 0.125 -0.03125l0.140625 0.75q-0.09375 0.046875 -0.234375 0.0625q-0.125 0.03125 -0.328125 0.03125zm4.5069275 -0.140625l0 -7.875l1.0 0l0 7.875l-1.0 0zm3.0622559 0l0 -5.828125l0.8125 0l0.09375 0.84375l0.03125 0q0.421875 -0.421875 0.890625 -0.703125q0.46875 -0.28125 1.0625 -0.28125q0.921875 0 1.34375 0.578125q0.4375 0.578125 0.4375 1.6875l0 3.703125l-0.984375 0l0 -3.5625q0 -0.8125 -0.265625 -1.1875q-0.265625 -0.375 -0.84375 -0.375q-0.4375 0 -0.796875 0.234375q-0.359375 0.21875 -0.796875 0.671875l0 4.21875l-0.984375 0zm6.5640564 0l0 -5.828125l0.8125 0l0.09375 0.84375l0.03125 0q0.421875 -0.421875 0.890625 -0.703125q0.46875 -0.28125 1.0625 -0.28125q0.921875 0 1.34375 0.578125q0.4375 0.578125 0.4375 1.6875l0 3.703125l-0.984375 0l0 -3.5625q0 -0.8125 -0.265625 -1.1875q-0.265625 -0.375 -0.84375 -0.375q-0.4375 0 -0.796875 0.234375q-0.359375 0.21875 -0.796875 0.671875l0 4.21875l-0.984375 0z" fill-rule="nonzero"/><path fill="#ffffff" d="m357.6626 224.80315q-0.984375 0 -1.765625 -0.484375q-0.765625 -0.484375 -1.21875 -1.390625q-0.453125 -0.921875 -0.453125 -2.203125q0 -1.265625 0.453125 -2.171875q0.453125 -0.921875 1.25 -1.40625q0.796875 -0.5 1.78125 -0.5q0.734375 0 1.28125 0.296875q0.546875 0.296875 0.890625 0.671875l-0.546875 0.65625q-0.3125 -0.34375 -0.71875 -0.546875q-0.390625 -0.203125 -0.890625 -0.203125q-0.734375 0 -1.296875 0.390625q-0.5625 0.390625 -0.875 1.109375q-0.296875 0.703125 -0.296875 1.6875q0 0.984375 0.296875 1.703125q0.296875 0.71875 0.84375 1.125q0.546875 0.390625 1.296875 0.390625q0.5625 0 1.0 -0.234375q0.453125 -0.25 0.828125 -0.65625l0.546875 0.625q-0.46875 0.546875 -1.0625 0.84375q-0.578125 0.296875 -1.34375 0.296875zm6.039551 0q-0.703125 0 -1.328125 -0.359375q-0.609375 -0.359375 -1.0 -1.03125q-0.375 -0.6875 -0.375 -1.65625q0 -0.984375 0.375 -1.65625q0.390625 -0.6875 1.0 -1.046875q0.625 -0.359375 1.328125 -0.359375q0.71875 0 1.328125 0.359375q0.625 0.359375 1.0 1.046875q0.375 0.671875 0.375 1.65625q0 0.96875 -0.375 1.65625q-0.375 0.671875 -1.0 1.03125q-0.609375 0.359375 -1.328125 0.359375zm0 -0.8125q0.765625 0 1.21875 -0.609375q0.46875 -0.625 0.46875 -1.625q0 -1.0 -0.46875 -1.625q-0.453125 -0.625 -1.21875 -0.625q-0.734375 0 -1.203125 0.625q-0.46875 0.625 -0.46875 1.625q0 1.0 0.46875 1.625q0.46875 0.609375 1.203125 0.609375zm4.2384033 0.671875l0 -5.828125l0.8125 0l0.09375 0.84375l0.03125 0q0.375 -0.421875 0.828125 -0.703125q0.46875 -0.28125 0.984375 -0.28125q0.671875 0 1.046875 0.296875q0.375 0.28125 0.5625 0.8125q0.453125 -0.5 0.921875 -0.796875q0.46875 -0.3125 1.0 -0.3125q0.890625 0 1.328125 0.578125q0.4375 0.578125 0.4375 1.6875l0 3.703125l-0.984375 0l0 -3.5625q0 -0.8125 -0.265625 -1.1875q-0.25 -0.375 -0.8125 -0.375q-0.640625 0 -1.453125 0.90625l0 4.21875l-0.984375 0l0 -3.5625q0 -0.8125 -0.265625 -1.1875q-0.265625 -0.375 -0.828125 -0.375q-0.65625 0 -1.46875 0.90625l0 4.21875l-0.984375 0zm9.94809 2.453125l0 -8.28125l0.8125 0l0.09375 0.671875l0.03125 0q0.390625 -0.34375 0.859375 -0.578125q0.484375 -0.234375 1.0 -0.234375q1.125 0 1.703125 0.8125q0.59375 0.796875 0.59375 2.15625q0 0.984375 -0.359375 1.703125q-0.34375 0.703125 -0.921875 1.078125q-0.5625 0.359375 -1.234375 0.359375q-0.40625 0 -0.8125 -0.171875q-0.390625 -0.1875 -0.8125 -0.5l0.03125 1.015625l0 1.96875l-0.984375 0zm2.40625 -3.140625q0.71875 0 1.1875 -0.609375q0.484375 -0.625 0.484375 -1.703125q0 -0.953125 -0.359375 -1.546875q-0.34375 -0.59375 -1.171875 -0.59375q-0.375 0 -0.75 0.203125q-0.375 0.203125 -0.8125 0.578125l0 3.0625q0.390625 0.34375 0.765625 0.484375q0.375 0.125 0.65625 0.125zm5.8779297 0.828125q-0.921875 0 -1.296875 -0.53125q-0.359375 -0.546875 -0.359375 -1.40625l0 -3.234375l-0.875 0l0 -0.734375l0.921875 -0.0625l0.109375 -1.640625l0.828125 0l0 1.640625l1.578125 0l0 0.796875l-1.578125 0l0 3.25q0 0.53125 0.203125 0.828125q0.203125 0.296875 0.703125 0.296875q0.15625 0 0.328125 -0.046875q0.1875 -0.0625 0.328125 -0.109375l0.203125 0.734375q-0.25 0.09375 -0.53125 0.15625q-0.28125 0.0625 -0.5625 0.0625zm4.325531 0q-0.703125 0 -1.328125 -0.359375q-0.609375 -0.359375 -1.0 -1.03125q-0.375 -0.6875 -0.375 -1.65625q0 -0.984375 0.375 -1.65625q0.390625 -0.6875 1.0 -1.046875q0.625 -0.359375 1.328125 -0.359375q0.71875 0 1.328125 0.359375q0.625 0.359375 1.0 1.046875q0.375 0.671875 0.375 1.65625q0 0.96875 -0.375 1.65625q-0.375 0.671875 -1.0 1.03125q-0.609375 0.359375 -1.328125 0.359375zm0 -0.8125q0.765625 0 1.21875 -0.609375q0.46875 -0.625 0.46875 -1.625q0 -1.0 -0.46875 -1.625q-0.453125 -0.625 -1.21875 -0.625q-0.734375 0 -1.203125 0.625q-0.46875 0.625 -0.46875 1.625q0 1.0 0.46875 1.625q0.46875 0.609375 1.203125 0.609375zm4.2384033 0.671875l0 -5.828125l0.8125 0l0.09375 0.84375l0.03125 0q0.421875 -0.421875 0.890625 -0.703125q0.46875 -0.28125 1.0625 -0.28125q0.921875 0 1.34375 0.578125q0.4375 0.578125 0.4375 1.6875l0 3.703125l-0.984375 0l0 -3.5625q0 -0.8125 -0.265625 -1.1875q-0.265625 -0.375 -0.84375 -0.375q-0.4375 0 -0.796875 0.234375q-0.359375 0.21875 -0.796875 0.671875l0 4.21875l-0.984375 0zm6.3709106 -5.171875l-0.28125 -0.453125q0.46875 -0.296875 0.6875 -0.640625q0.21875 -0.34375 0.21875 -0.859375q-0.03125 0.015625 -0.09375 0.015625q-0.25 0 -0.453125 -0.15625q-0.1875 -0.15625 -0.1875 -0.453125q0 -0.3125 0.171875 -0.484375q0.1875 -0.1875 0.46875 -0.1875q0.34375 0 0.546875 0.28125q0.203125 0.28125 0.203125 0.8125q0 0.71875 -0.328125 1.25q-0.328125 0.515625 -0.953125 0.875zm3.8843994 5.3125q-0.625 0 -1.203125 -0.234375q-0.5625 -0.234375 -0.96875 -0.5625l0.484375 -0.65625q0.390625 0.296875 0.796875 0.5q0.40625 0.1875 0.921875 0.1875q0.578125 0 0.859375 -0.265625q0.296875 -0.265625 0.296875 -0.640625q0 -0.3125 -0.203125 -0.515625q-0.203125 -0.203125 -0.515625 -0.328125q-0.296875 -0.140625 -0.625 -0.265625q-0.40625 -0.15625 -0.8125 -0.34375q-0.390625 -0.203125 -0.640625 -0.515625q-0.25 -0.328125 -0.25 -0.8125q0 -0.71875 0.53125 -1.1875q0.546875 -0.46875 1.484375 -0.46875q0.546875 0 1.015625 0.1875q0.46875 0.1875 0.796875 0.46875l-0.46875 0.625q-0.3125 -0.234375 -0.640625 -0.375q-0.3125 -0.140625 -0.703125 -0.140625q-0.546875 0 -0.8125 0.25q-0.25 0.25 -0.25 0.578125q0 0.28125 0.171875 0.453125q0.1875 0.171875 0.46875 0.3125q0.296875 0.125 0.625 0.25q0.40625 0.15625 0.8125 0.359375q0.421875 0.1875 0.6875 0.53125q0.265625 0.328125 0.265625 0.875q0 0.46875 -0.25 0.859375q-0.234375 0.390625 -0.71875 0.640625q-0.46875 0.234375 -1.15625 0.234375zm8.974945 0q-0.984375 0 -1.765625 -0.484375q-0.765625 -0.484375 -1.21875 -1.390625q-0.453125 -0.921875 -0.453125 -2.203125q0 -1.265625 0.453125 -2.171875q0.453125 -0.921875 1.25 -1.40625q0.796875 -0.5 1.78125 -0.5q0.734375 0 1.28125 0.296875q0.546875 0.296875 0.890625 0.671875l-0.546875 0.65625q-0.3125 -0.34375 -0.71875 -0.546875q-0.390625 -0.203125 -0.890625 -0.203125q-0.734375 0 -1.296875 0.390625q-0.5625 0.390625 -0.875 1.109375q-0.296875 0.703125 -0.296875 1.6875q0 0.984375 0.296875 1.703125q0.296875 0.71875 0.84375 1.125q0.546875 0.390625 1.296875 0.390625q0.5625 0 1.0 -0.234375q0.453125 -0.25 0.828125 -0.65625l0.546875 0.625q-0.46875 0.546875 -1.0625 0.84375q-0.578125 0.296875 -1.34375 0.296875zm5.117676 0q-0.734375 0 -1.21875 -0.4375q-0.484375 -0.4375 -0.484375 -1.21875q0 -0.953125 0.859375 -1.453125q0.859375 -0.515625 2.71875 -0.734375q0 -0.359375 -0.109375 -0.6875q-0.09375 -0.34375 -0.359375 -0.546875q-0.25 -0.21875 -0.734375 -0.21875q-0.5 0 -0.953125 0.1875q-0.4375 0.1875 -0.78125 0.4375l-0.390625 -0.6875q0.40625 -0.265625 1.0 -0.5q0.59375 -0.25 1.296875 -0.25q1.0625 0 1.546875 0.65625q0.484375 0.640625 0.484375 1.734375l0 3.578125l-0.828125 0l-0.078125 -0.703125l-0.03125 0q-0.40625 0.34375 -0.90625 0.59375q-0.484375 0.25 -1.03125 0.25zm0.28125 -0.78125q0.421875 0 0.796875 -0.203125q0.375 -0.21875 0.796875 -0.578125l0 -1.625q-1.453125 0.171875 -2.046875 0.546875q-0.578125 0.359375 -0.578125 0.921875q0 0.484375 0.296875 0.71875q0.3125 0.21875 0.734375 0.21875zm4.59494 0.640625l0 -5.03125l-0.796875 0l0 -0.734375l0.796875 -0.0625l0 -0.921875q0 -0.890625 0.40625 -1.40625q0.421875 -0.53125 1.296875 -0.53125q0.265625 0 0.515625 0.0625q0.265625 0.046875 0.453125 0.125l-0.21875 0.765625q-0.328125 -0.15625 -0.65625 -0.15625q-0.8125 0 -0.8125 1.140625l0 0.921875l1.234375 0l0 0.796875l-1.234375 0l0 5.03125l-0.984375 0zm5.571533 0.140625q-0.78125 0 -1.421875 -0.359375q-0.625 -0.375 -1.0 -1.046875q-0.375 -0.6875 -0.375 -1.640625q0 -0.953125 0.375 -1.640625q0.390625 -0.6875 0.984375 -1.046875q0.609375 -0.375 1.265625 -0.375q1.109375 0 1.71875 0.75q0.609375 0.734375 0.609375 1.984375q0 0.15625 -0.015625 0.3125q0 0.140625 -0.03125 0.25l-3.921875 0q0.046875 0.921875 0.5625 1.484375q0.53125 0.546875 1.375 0.546875q0.421875 0 0.765625 -0.125q0.359375 -0.140625 0.6875 -0.34375l0.34375 0.65625q-0.375 0.234375 -0.84375 0.421875q-0.46875 0.171875 -1.078125 0.171875zm-1.828125 -3.53125l3.109375 0q0 -0.875 -0.375 -1.34375q-0.375 -0.46875 -1.0625 -0.46875q-0.609375 0 -1.09375 0.484375q-0.484375 0.46875 -0.578125 1.328125zm7.1289062 3.53125q-0.921875 0 -1.296875 -0.53125q-0.359375 -0.546875 -0.359375 -1.40625l0 -3.234375l-0.875 0l0 -0.734375l0.921875 -0.0625l0.109375 -1.640625l0.828125 0l0 1.640625l1.578125 0l0 0.796875l-1.578125 0l0 3.25q0 0.53125 0.203125 0.828125q0.203125 0.296875 0.703125 0.296875q0.15625 0 0.328125 -0.046875q0.1875 -0.0625 0.328125 -0.109375l0.203125 0.734375q-0.25 0.09375 -0.53125 0.15625q-0.28125 0.0625 -0.5625 0.0625zm4.419281 0q-0.78125 0 -1.421875 -0.359375q-0.625 -0.375 -1.0 -1.046875q-0.375 -0.6875 -0.375 -1.640625q0 -0.953125 0.375 -1.640625q0.390625 -0.6875 0.984375 -1.046875q0.609375 -0.375 1.265625 -0.375q1.109375 0 1.71875 0.75q0.609375 0.734375 0.609375 1.984375q0 0.15625 -0.015625 0.3125q0 0.140625 -0.03125 0.25l-3.921875 0q0.046875 0.921875 0.5625 1.484375q0.53125 0.546875 1.375 0.546875q0.421875 0 0.765625 -0.125q0.359375 -0.140625 0.6875 -0.34375l0.34375 0.65625q-0.375 0.234375 -0.84375 0.421875q-0.46875 0.171875 -1.078125 0.171875zm-1.828125 -3.53125l3.109375 0q0 -0.875 -0.375 -1.34375q-0.375 -0.46875 -1.0625 -0.46875q-0.609375 0 -1.09375 0.484375q-0.484375 0.46875 -0.578125 1.328125zm5.420807 3.390625l0 -5.828125l0.8125 0l0.09375 1.046875l0.03125 0q0.296875 -0.546875 0.71875 -0.859375q0.4375 -0.328125 0.9375 -0.328125q0.34375 0 0.625 0.109375l-0.1875 0.875q-0.15625 -0.0625 -0.28125 -0.078125q-0.109375 -0.03125 -0.296875 -0.03125q-0.359375 0 -0.765625 0.3125q-0.40625 0.296875 -0.703125 1.03125l0 3.75l-0.984375 0zm4.1640015 0l0 -5.828125l0.984375 0l0 5.828125l-0.984375 0zm0.5 -7.03125q-0.28125 0 -0.46875 -0.171875q-0.1875 -0.171875 -0.1875 -0.484375q0 -0.28125 0.1875 -0.453125q0.1875 -0.1875 0.46875 -0.1875q0.28125 0 0.46875 0.1875q0.1875 0.171875 0.1875 0.453125q0 0.3125 -0.1875 0.484375q-0.1875 0.171875 -0.46875 0.171875zm3.7957764 7.171875q-0.734375 0 -1.21875 -0.4375q-0.484375 -0.4375 -0.484375 -1.21875q0 -0.953125 0.859375 -1.453125q0.859375 -0.515625 2.71875 -0.734375q0 -0.359375 -0.109375 -0.6875q-0.09375 -0.34375 -0.359375 -0.546875q-0.25 -0.21875 -0.734375 -0.21875q-0.5 0 -0.953125 0.1875q-0.4375 0.1875 -0.78125 0.4375l-0.390625 -0.6875q0.40625 -0.265625 1.0 -0.5q0.59375 -0.25 1.296875 -0.25q1.0625 0 1.546875 0.65625q0.484375 0.640625 0.484375 1.734375l0 3.578125l-0.828125 0l-0.078125 -0.703125l-0.03125 0q-0.40625 0.34375 -0.90625 0.59375q-0.484375 0.25 -1.03125 0.25zm0.28125 -0.78125q0.421875 0 0.796875 -0.203125q0.375 -0.21875 0.796875 -0.578125l0 -1.625q-1.453125 0.171875 -2.046875 0.546875q-0.578125 0.359375 -0.578125 0.921875q0 0.484375 0.296875 0.71875q0.3125 0.21875 0.734375 0.21875z" fill-rule="nonzero"/><path fill="#ffffff" d="m357.6626 263.69815q-0.984375 0 -1.765625 -0.484375q-0.765625 -0.484375 -1.21875 -1.390625q-0.453125 -0.921875 -0.453125 -2.203125q0 -1.265625 0.453125 -2.171875q0.453125 -0.921875 1.25 -1.40625q0.796875 -0.5 1.78125 -0.5q0.734375 0 1.28125 0.296875q0.546875 0.296875 0.890625 0.671875l-0.546875 0.65625q-0.3125 -0.34375 -0.71875 -0.546875q-0.390625 -0.203125 -0.890625 -0.203125q-0.734375 0 -1.296875 0.390625q-0.5625 0.390625 -0.875 1.109375q-0.296875 0.703125 -0.296875 1.6875q0 0.984375 0.296875 1.703125q0.296875 0.71875 0.84375 1.125q0.546875 0.390625 1.296875 0.390625q0.5625 0 1.0 -0.234375q0.453125 -0.25 0.828125 -0.65625l0.546875 0.625q-0.46875 0.546875 -1.0625 0.84375q-0.578125 0.296875 -1.34375 0.296875zm6.039551 0q-0.703125 0 -1.328125 -0.359375q-0.609375 -0.359375 -1.0 -1.03125q-0.375 -0.6875 -0.375 -1.65625q0 -0.984375 0.375 -1.65625q0.390625 -0.6875 1.0 -1.046875q0.625 -0.359375 1.328125 -0.359375q0.71875 0 1.328125 0.359375q0.625 0.359375 1.0 1.046875q0.375 0.671875 0.375 1.65625q0 0.96875 -0.375 1.65625q-0.375 0.671875 -1.0 1.03125q-0.609375 0.359375 -1.328125 0.359375zm0 -0.8125q0.765625 0 1.21875 -0.609375q0.46875 -0.625 0.46875 -1.625q0 -1.0 -0.46875 -1.625q-0.453125 -0.625 -1.21875 -0.625q-0.734375 0 -1.203125 0.625q-0.46875 0.625 -0.46875 1.625q0 1.0 0.46875 1.625q0.46875 0.609375 1.203125 0.609375zm6.5040283 0.8125q-0.703125 0 -1.328125 -0.359375q-0.609375 -0.359375 -1.0 -1.03125q-0.375 -0.6875 -0.375 -1.65625q0 -0.984375 0.375 -1.65625q0.390625 -0.6875 1.0 -1.046875q0.625 -0.359375 1.328125 -0.359375q0.71875 0 1.328125 0.359375q0.625 0.359375 1.0 1.046875q0.375 0.671875 0.375 1.65625q0 0.96875 -0.375 1.65625q-0.375 0.671875 -1.0 1.03125q-0.609375 0.359375 -1.328125 0.359375zm0 -0.8125q0.765625 0 1.21875 -0.609375q0.46875 -0.625 0.46875 -1.625q0 -1.0 -0.46875 -1.625q-0.453125 -0.625 -1.21875 -0.625q-0.734375 0 -1.203125 0.625q-0.46875 0.625 -0.46875 1.625q0 1.0 0.46875 1.625q0.46875 0.609375 1.203125 0.609375zm4.238434 3.125l0 -8.28125l0.8125 0l0.09375 0.671875l0.03125 0q0.390625 -0.34375 0.859375 -0.578125q0.484375 -0.234375 1.0 -0.234375q1.125 0 1.703125 0.8125q0.59375 0.796875 0.59375 2.15625q0 0.984375 -0.359375 1.703125q-0.34375 0.703125 -0.921875 1.078125q-0.5625 0.359375 -1.234375 0.359375q-0.40625 0 -0.8125 -0.171875q-0.390625 -0.1875 -0.8125 -0.5l0.03125 1.015625l0 1.96875l-0.984375 0zm2.40625 -3.140625q0.71875 0 1.1875 -0.609375q0.484375 -0.625 0.484375 -1.703125q0 -0.953125 -0.359375 -1.546875q-0.34375 -0.59375 -1.171875 -0.59375q-0.375 0 -0.75 0.203125q-0.375 0.203125 -0.8125 0.578125l0 3.0625q0.390625 0.34375 0.765625 0.484375q0.375 0.125 0.65625 0.125zm6.6131897 0.828125q-0.78125 0 -1.421875 -0.359375q-0.625 -0.375 -1.0 -1.046875q-0.375 -0.6875 -0.375 -1.640625q0 -0.953125 0.375 -1.640625q0.390625 -0.6875 0.984375 -1.046875q0.609375 -0.375 1.265625 -0.375q1.109375 0 1.71875 0.75q0.609375 0.734375 0.609375 1.984375q0 0.15625 -0.015625 0.3125q0 0.140625 -0.03125 0.25l-3.921875 0q0.046875 0.921875 0.5625 1.484375q0.53125 0.546875 1.375 0.546875q0.421875 0 0.765625 -0.125q0.359375 -0.140625 0.6875 -0.34375l0.34375 0.65625q-0.375 0.234375 -0.84375 0.421875q-0.46875 0.171875 -1.078125 0.171875zm-1.828125 -3.53125l3.109375 0q0 -0.875 -0.375 -1.34375q-0.375 -0.46875 -1.0625 -0.46875q-0.609375 0 -1.09375 0.484375q-0.484375 0.46875 -0.578125 1.328125zm5.4207764 3.390625l0 -5.828125l0.8125 0l0.09375 1.046875l0.03125 0q0.296875 -0.546875 0.71875 -0.859375q0.4375 -0.328125 0.9375 -0.328125q0.34375 0 0.625 0.109375l-0.1875 0.875q-0.15625 -0.0625 -0.28125 -0.078125q-0.109375 -0.03125 -0.296875 -0.03125q-0.359375 0 -0.765625 0.3125q-0.40625 0.296875 -0.703125 1.03125l0 3.75l-0.984375 0zm6.6578064 0l0 -7.875l1.96875 0q1.828125 0 2.765625 1.015625q0.953125 1.015625 0.953125 2.890625q0 1.875 -0.9375 2.921875q-0.9375 1.046875 -2.734375 1.046875l-2.015625 0zm1.0 -0.8125l0.890625 0q1.390625 0 2.078125 -0.828125q0.6875 -0.84375 0.6875 -2.328125q0 -1.484375 -0.6875 -2.28125q-0.6875 -0.8125 -2.078125 -0.8125l-0.890625 0l0 6.25zm8.55191 0.953125q-0.703125 0 -1.328125 -0.359375q-0.609375 -0.359375 -1.0 -1.03125q-0.375 -0.6875 -0.375 -1.65625q0 -0.984375 0.375 -1.65625q0.390625 -0.6875 1.0 -1.046875q0.625 -0.359375 1.328125 -0.359375q0.71875 0 1.328125 0.359375q0.625 0.359375 1.0 1.046875q0.375 0.671875 0.375 1.65625q0 0.96875 -0.375 1.65625q-0.375 0.671875 -1.0 1.03125q-0.609375 0.359375 -1.328125 0.359375zm0 -0.8125q0.765625 0 1.21875 -0.609375q0.46875 -0.625 0.46875 -1.625q0 -1.0 -0.46875 -1.625q-0.453125 -0.625 -1.21875 -0.625q-0.734375 0 -1.203125 0.625q-0.46875 0.625 -0.46875 1.625q0 1.0 0.46875 1.625q0.46875 0.609375 1.203125 0.609375zm3.8104248 -1.953125l0 -0.765625l2.765625 0l0 0.765625l-2.765625 0zm4.2320557 2.625l0 -5.828125l0.8125 0l0.09375 0.84375l0.03125 0q0.421875 -0.421875 0.890625 -0.703125q0.46875 -0.28125 1.0625 -0.28125q0.921875 0 1.34375 0.578125q0.4375 0.578125 0.4375 1.6875l0 3.703125l-0.984375 0l0 -3.5625q0 -0.8125 -0.265625 -1.1875q-0.265625 -0.375 -0.84375 -0.375q-0.4375 0 -0.796875 0.234375q-0.359375 0.21875 -0.796875 0.671875l0 4.21875l-0.984375 0zm8.267151 0.140625q-0.921875 0 -1.359375 -0.578125q-0.421875 -0.578125 -0.421875 -1.703125l0 -3.6875l0.984375 0l0 3.5625q0 0.8125 0.25 1.1875q0.265625 0.375 0.84375 0.375q0.453125 0 0.8125 -0.234375q0.359375 -0.234375 0.765625 -0.75l0 -4.140625l0.984375 0l0 5.828125l-0.8125 0l-0.09375 -0.90625l-0.03125 0q-0.40625 0.46875 -0.875 0.765625q-0.453125 0.28125 -1.046875 0.28125zm6.6530457 0q-0.921875 0 -1.296875 -0.53125q-0.359375 -0.546875 -0.359375 -1.40625l0 -3.234375l-0.875 0l0 -0.734375l0.921875 -0.0625l0.109375 -1.640625l0.828125 0l0 1.640625l1.578125 0l0 0.796875l-1.578125 0l0 3.25q0 0.53125 0.203125 0.828125q0.203125 0.296875 0.703125 0.296875q0.15625 0 0.328125 -0.046875q0.1875 -0.0625 0.328125 -0.109375l0.203125 0.734375q-0.25 0.09375 -0.53125 0.15625q-0.28125 0.0625 -0.5625 0.0625zm3.6391602 0q-0.625 0 -1.203125 -0.234375q-0.5625 -0.234375 -0.96875 -0.5625l0.484375 -0.65625q0.390625 0.296875 0.796875 0.5q0.40625 0.1875 0.921875 0.1875q0.578125 0 0.859375 -0.265625q0.296875 -0.265625 0.296875 -0.640625q0 -0.3125 -0.203125 -0.515625q-0.203125 -0.203125 -0.515625 -0.328125q-0.296875 -0.140625 -0.625 -0.265625q-0.40625 -0.15625 -0.8125 -0.34375q-0.390625 -0.203125 -0.640625 -0.515625q-0.25 -0.328125 -0.25 -0.8125q0 -0.71875 0.53125 -1.1875q0.546875 -0.46875 1.484375 -0.46875q0.546875 0 1.015625 0.1875q0.46875 0.1875 0.796875 0.46875l-0.46875 0.625q-0.3125 -0.234375 -0.640625 -0.375q-0.3125 -0.140625 -0.703125 -0.140625q-0.546875 0 -0.8125 0.25q-0.25 0.25 -0.25 0.578125q0 0.28125 0.171875 0.453125q0.1875 0.171875 0.46875 0.3125q0.296875 0.125 0.625 0.25q0.40625 0.15625 0.8125 0.359375q0.421875 0.1875 0.6875 0.53125q0.265625 0.328125 0.265625 0.875q0 0.46875 -0.25 0.859375q-0.234375 0.390625 -0.71875 0.640625q-0.46875 0.234375 -1.15625 0.234375z" fill-rule="nonzero"/><path fill="#ffffff" d="m354.67822 302.45255l0 -7.875l1.96875 0q1.828125 0 2.765625 1.015625q0.953125 1.015625 0.953125 2.890625q0 1.875 -0.9375 2.921875q-0.9375 1.046875 -2.734375 1.046875l-2.015625 0zm1.0 -0.8125l0.890625 0q1.390625 0 2.078125 -0.828125q0.6875 -0.84375 0.6875 -2.328125q0 -1.484375 -0.6875 -2.28125q-0.6875 -0.8125 -2.078125 -0.8125l-0.890625 0l0 6.25zm8.645691 0.953125q-0.78125 0 -1.421875 -0.359375q-0.625 -0.375 -1.0 -1.046875q-0.375 -0.6875 -0.375 -1.640625q0 -0.953125 0.375 -1.640625q0.390625 -0.6875 0.984375 -1.046875q0.609375 -0.375 1.265625 -0.375q1.109375 0 1.71875 0.75q0.609375 0.734375 0.609375 1.984375q0 0.15625 -0.015625 0.3125q0 0.140625 -0.03125 0.25l-3.921875 0q0.046875 0.921875 0.5625 1.484375q0.53125 0.546875 1.375 0.546875q0.421875 0 0.765625 -0.125q0.359375 -0.140625 0.6875 -0.34375l0.34375 0.65625q-0.375 0.234375 -0.84375 0.421875q-0.46875 0.171875 -1.078125 0.171875zm-1.828125 -3.53125l3.109375 0q0 -0.875 -0.375 -1.34375q-0.375 -0.46875 -1.0625 -0.46875q-0.609375 0 -1.09375 0.484375q-0.484375 0.46875 -0.578125 1.328125zm6.402649 3.390625l-1.625 -5.828125l1.015625 0l0.859375 3.375q0.09375 0.40625 0.171875 0.8125q0.09375 0.390625 0.1875 0.796875l0.046875 0q0.09375 -0.40625 0.1875 -0.796875q0.09375 -0.40625 0.203125 -0.8125l0.90625 -3.375l0.953125 0l0.90625 3.375q0.109375 0.40625 0.203125 0.8125q0.109375 0.390625 0.203125 0.796875l0.0625 0q0.09375 -0.40625 0.171875 -0.796875q0.09375 -0.40625 0.1875 -0.8125l0.84375 -3.375l0.9375 0l-1.5625 5.828125l-1.203125 0l-0.828125 -3.125q-0.109375 -0.421875 -0.203125 -0.828125q-0.09375 -0.421875 -0.203125 -0.859375l-0.046875 0q-0.09375 0.4375 -0.1875 0.859375q-0.09375 0.40625 -0.21875 0.828125l-0.8125 3.125l-1.15625 0zm10.005554 0.140625q-0.78125 0 -1.421875 -0.359375q-0.625 -0.375 -1.0 -1.046875q-0.375 -0.6875 -0.375 -1.640625q0 -0.953125 0.375 -1.640625q0.390625 -0.6875 0.984375 -1.046875q0.609375 -0.375 1.265625 -0.375q1.109375 0 1.71875 0.75q0.609375 0.734375 0.609375 1.984375q0 0.15625 -0.015625 0.3125q0 0.140625 -0.03125 0.25l-3.921875 0q0.046875 0.921875 0.5625 1.484375q0.53125 0.546875 1.375 0.546875q0.421875 0 0.765625 -0.125q0.359375 -0.140625 0.6875 -0.34375l0.34375 0.65625q-0.375 0.234375 -0.84375 0.421875q-0.46875 0.171875 -1.078125 0.171875zm-1.828125 -3.53125l3.109375 0q0 -0.875 -0.375 -1.34375q-0.375 -0.46875 -1.0625 -0.46875q-0.609375 0 -1.09375 0.484375q-0.484375 0.46875 -0.578125 1.328125zm5.574524 5.90625q-0.1875 0 -0.359375 -0.046875q-0.171875 -0.03125 -0.328125 -0.078125l0.203125 -0.78125q0.09375 0.015625 0.203125 0.046875q0.125 0.03125 0.234375 0.03125q0.5 0 0.8125 -0.359375q0.328125 -0.34375 0.515625 -0.890625l0.125 -0.421875l-2.34375 -5.84375l1.015625 0l1.203125 3.21875q0.125 0.375 0.265625 0.8125q0.15625 0.421875 0.296875 0.84375l0.046875 0q0.125 -0.40625 0.25 -0.828125q0.125 -0.4375 0.234375 -0.828125l1.046875 -3.21875l0.953125 0l-2.1875 6.3125q-0.203125 0.578125 -0.484375 1.03125q-0.28125 0.453125 -0.703125 0.71875q-0.40625 0.28125 -1.0 0.28125zm5.55719 -7.6875l-0.28125 -0.453125q0.46875 -0.296875 0.6875 -0.640625q0.21875 -0.34375 0.21875 -0.859375q-0.03125 0.015625 -0.09375 0.015625q-0.25 0 -0.453125 -0.15625q-0.1875 -0.15625 -0.1875 -0.453125q0 -0.3125 0.171875 -0.484375q0.1875 -0.1875 0.46875 -0.1875q0.34375 0 0.546875 0.28125q0.203125 0.28125 0.203125 0.8125q0 0.71875 -0.328125 1.25q-0.328125 0.515625 -0.953125 0.875zm3.8843994 5.3125q-0.625 0 -1.203125 -0.234375q-0.5625 -0.234375 -0.96875 -0.5625l0.484375 -0.65625q0.390625 0.296875 0.796875 0.5q0.40625 0.1875 0.921875 0.1875q0.578125 0 0.859375 -0.265625q0.296875 -0.265625 0.296875 -0.640625q0 -0.3125 -0.203125 -0.515625q-0.203125 -0.203125 -0.515625 -0.328125q-0.296875 -0.140625 -0.625 -0.265625q-0.40625 -0.15625 -0.8125 -0.34375q-0.390625 -0.203125 -0.640625 -0.515625q-0.25 -0.328125 -0.25 -0.8125q0 -0.71875 0.53125 -1.1875q0.546875 -0.46875 1.484375 -0.46875q0.546875 0 1.015625 0.1875q0.46875 0.1875 0.796875 0.46875l-0.46875 0.625q-0.3125 -0.234375 -0.640625 -0.375q-0.3125 -0.140625 -0.703125 -0.140625q-0.546875 0 -0.8125 0.25q-0.25 0.25 -0.25 0.578125q0 0.28125 0.171875 0.453125q0.1875 0.171875 0.46875 0.3125q0.296875 0.125 0.625 0.25q0.40625 0.15625 0.8125 0.359375q0.421875 0.1875 0.6875 0.53125q0.265625 0.328125 0.265625 0.875q0 0.46875 -0.25 0.859375q-0.234375 0.390625 -0.71875 0.640625q-0.46875 0.234375 -1.15625 0.234375z" fill-rule="nonzero"/><path shape-rendering="crispEdges" fill="#274e13" d="m491.3176 162.0l132.05246 0l0 38.89502l-132.05246 0l0 -38.89502z" fill-rule="nonzero"/><path shape-rendering="crispEdges" fill="#274e13" d="m491.3176 200.89502l132.05246 0l0 38.895004l-132.05246 0l0 -38.895004z" fill-rule="nonzero"/><path shape-rendering="crispEdges" fill="#274e13" d="m491.3176 239.79002l132.05246 0l0 38.895004l-132.05246 0l0 -38.895004z" fill-rule="nonzero"/><path shape-rendering="crispEdges" fill="#274e13" d="m491.3176 278.68503l132.05246 0l0 38.89502l-132.05246 0l0 -38.89502z" fill-rule="nonzero"/><path stroke="#ffffff" stroke-width="1.0" stroke-linecap="butt" d="m491.3176 161.50131l0 156.57742" fill-rule="nonzero"/><path stroke="#ffffff" stroke-width="1.0" stroke-linecap="butt" d="m623.37006 161.50131l0 156.57742" fill-rule="nonzero"/><path stroke="#ffffff" stroke-width="1.0" stroke-linecap="butt" d="m490.8189 162.0l133.04987 0" fill-rule="nonzero"/><path stroke="#ffffff" stroke-width="1.0" stroke-linecap="butt" d="m490.8189 200.89502l133.04987 0" fill-rule="nonzero"/><path stroke="#ffffff" stroke-width="1.0" stroke-linecap="butt" d="m490.8189 239.79002l133.04987 0" fill-rule="nonzero"/><path stroke="#ffffff" stroke-width="1.0" stroke-linecap="butt" d="m490.8189 278.68503l133.04987 0" fill-rule="nonzero"/><path stroke="#ffffff" stroke-width="1.0" stroke-linecap="butt" d="m490.8189 317.58005l133.04987 0" fill-rule="nonzero"/><path fill="#ffffff" d="m505.87082 185.7675l0 -0.8125l1.75 0l0 -5.640625l-1.390625 0l0 -0.640625q0.53125 -0.09375 0.90625 -0.234375q0.390625 -0.140625 0.703125 -0.328125l0.765625 0l0 6.84375l1.578125 0l0 0.8125l-4.3125 0zm6.417145 -5.34375q0 0.75 0.34375 1.1875q0.359375 0.4375 1.0625 0.4375q0.390625 0 0.8125 -0.234375q0.4375 -0.25 0.796875 -0.78125q-0.09375 -1.125 -0.53125 -1.703125q-0.421875 -0.578125 -1.15625 -0.578125q-0.546875 0 -0.9375 0.46875q-0.390625 0.453125 -0.390625 1.203125zm1.046875 5.484375q-0.609375 0 -1.078125 -0.234375q-0.453125 -0.234375 -0.765625 -0.5625l0.546875 -0.625q0.25 0.265625 0.578125 0.4375q0.328125 0.171875 0.6875 0.171875q0.546875 0 1.0 -0.3125q0.453125 -0.3125 0.734375 -1.03125q0.28125 -0.71875 0.296875 -1.9375q-0.359375 0.453125 -0.84375 0.71875q-0.484375 0.265625 -0.953125 0.265625q-0.984375 0 -1.578125 -0.59375q-0.59375 -0.59375 -0.59375 -1.78125q0 -0.734375 0.3125 -1.28125q0.3125 -0.546875 0.8125 -0.859375q0.515625 -0.3125 1.125 -0.3125q0.75 0 1.34375 0.40625q0.609375 0.40625 0.953125 1.21875q0.34375 0.8125 0.34375 2.0625q0 1.53125 -0.421875 2.46875q-0.40625 0.9375 -1.0625 1.359375q-0.65625 0.421875 -1.4375 0.421875zm6.6359253 -4.078125q-0.359375 0 -0.796875 0.25q-0.4375 0.234375 -0.796875 0.765625q0.09375 1.109375 0.515625 1.703125q0.4375 0.578125 1.171875 0.578125q0.5625 0 0.9375 -0.453125q0.390625 -0.46875 0.390625 -1.21875q0 -0.75 -0.359375 -1.1875q-0.34375 -0.4375 -1.0625 -0.4375zm0.09375 4.078125q-0.75 0 -1.359375 -0.40625q-0.59375 -0.40625 -0.9375 -1.21875q-0.34375 -0.828125 -0.34375 -2.0625q0 -1.53125 0.40625 -2.46875q0.421875 -0.9375 1.078125 -1.359375q0.671875 -0.421875 1.421875 -0.421875q0.625 0 1.078125 0.234375q0.453125 0.234375 0.78125 0.578125l-0.5625 0.609375q-0.21875 -0.265625 -0.5625 -0.421875q-0.328125 -0.171875 -0.6875 -0.171875q-0.546875 0 -1.0 0.3125q-0.4375 0.296875 -0.71875 1.015625q-0.28125 0.703125 -0.296875 1.921875q0.359375 -0.4375 0.828125 -0.703125q0.484375 -0.265625 0.953125 -0.265625q1.0 0 1.59375 0.609375q0.59375 0.59375 0.59375 1.765625q0 0.734375 -0.3125 1.28125q-0.3125 0.546875 -0.828125 0.859375q-0.5 0.3125 -1.125 0.3125zm4.1515503 -5.484375q0 0.75 0.34375 1.1875q0.359375 0.4375 1.0625 0.4375q0.390625 0 0.8125 -0.234375q0.4375 -0.25 0.796875 -0.78125q-0.09375 -1.125 -0.53125 -1.703125q-0.421875 -0.578125 -1.15625 -0.578125q-0.546875 0 -0.9375 0.46875q-0.390625 0.453125 -0.390625 1.203125zm1.046875 5.484375q-0.609375 0 -1.078125 -0.234375q-0.453125 -0.234375 -0.765625 -0.5625l0.546875 -0.625q0.25 0.265625 0.578125 0.4375q0.328125 0.171875 0.6875 0.171875q0.546875 0 1.0 -0.3125q0.453125 -0.3125 0.734375 -1.03125q0.28125 -0.71875 0.296875 -1.9375q-0.359375 0.453125 -0.84375 0.71875q-0.484375 0.265625 -0.953125 0.265625q-0.984375 0 -1.578125 -0.59375q-0.59375 -0.59375 -0.59375 -1.78125q0 -0.734375 0.3125 -1.28125q0.3125 -0.546875 0.8125 -0.859375q0.515625 -0.3125 1.125 -0.3125q0.75 0 1.34375 0.40625q0.609375 0.40625 0.953125 1.21875q0.34375 0.8125 0.34375 2.0625q0 1.53125 -0.421875 2.46875q-0.40625 0.9375 -1.0625 1.359375q-0.65625 0.421875 -1.4375 0.421875z" fill-rule="nonzero"/><path fill="#ffffff" d="m505.87082 224.66252l0 -0.8125l1.75 0l0 -5.640625l-1.390625 0l0 -0.640625q0.53125 -0.09375 0.90625 -0.234375q0.390625 -0.140625 0.703125 -0.328125l0.765625 0l0 6.84375l1.578125 0l0 0.8125l-4.3125 0zm6.417145 -5.34375q0 0.75 0.34375 1.1875q0.359375 0.4375 1.0625 0.4375q0.390625 0 0.8125 -0.234375q0.4375 -0.25 0.796875 -0.78125q-0.09375 -1.125 -0.53125 -1.703125q-0.421875 -0.578125 -1.15625 -0.578125q-0.546875 0 -0.9375 0.46875q-0.390625 0.453125 -0.390625 1.203125zm1.046875 5.484375q-0.609375 0 -1.078125 -0.234375q-0.453125 -0.234375 -0.765625 -0.5625l0.546875 -0.625q0.25 0.265625 0.578125 0.4375q0.328125 0.171875 0.6875 0.171875q0.546875 0 1.0 -0.3125q0.453125 -0.3125 0.734375 -1.03125q0.28125 -0.71875 0.296875 -1.9375q-0.359375 0.453125 -0.84375 0.71875q-0.484375 0.265625 -0.953125 0.265625q-0.984375 0 -1.578125 -0.59375q-0.59375 -0.59375 -0.59375 -1.78125q0 -0.734375 0.3125 -1.28125q0.3125 -0.546875 0.8125 -0.859375q0.515625 -0.3125 1.125 -0.3125q0.75 0 1.34375 0.40625q0.609375 0.40625 0.953125 1.21875q0.34375 0.8125 0.34375 2.0625q0 1.53125 -0.421875 2.46875q-0.40625 0.9375 -1.0625 1.359375q-0.65625 0.421875 -1.4375 0.421875zm6.6359253 -4.078125q-0.359375 0 -0.796875 0.25q-0.4375 0.234375 -0.796875 0.765625q0.09375 1.109375 0.515625 1.703125q0.4375 0.578125 1.171875 0.578125q0.5625 0 0.9375 -0.453125q0.390625 -0.46875 0.390625 -1.21875q0 -0.75 -0.359375 -1.1875q-0.34375 -0.4375 -1.0625 -0.4375zm0.09375 4.078125q-0.75 0 -1.359375 -0.40625q-0.59375 -0.40625 -0.9375 -1.21875q-0.34375 -0.828125 -0.34375 -2.0625q0 -1.53125 0.40625 -2.46875q0.421875 -0.9375 1.078125 -1.359375q0.671875 -0.421875 1.421875 -0.421875q0.625 0 1.078125 0.234375q0.453125 0.234375 0.78125 0.578125l-0.5625 0.609375q-0.21875 -0.265625 -0.5625 -0.421875q-0.328125 -0.171875 -0.6875 -0.171875q-0.546875 0 -1.0 0.3125q-0.4375 0.296875 -0.71875 1.015625q-0.28125 0.703125 -0.296875 1.921875q0.359375 -0.4375 0.828125 -0.703125q0.484375 -0.265625 0.953125 -0.265625q1.0 0 1.59375 0.609375q0.59375 0.59375 0.59375 1.765625q0 0.734375 -0.3125 1.28125q-0.3125 0.546875 -0.828125 0.859375q-0.5 0.3125 -1.125 0.3125zm5.8703003 -4.078125q-0.359375 0 -0.796875 0.25q-0.4375 0.234375 -0.796875 0.765625q0.09375 1.109375 0.515625 1.703125q0.4375 0.578125 1.171875 0.578125q0.5625 0 0.9375 -0.453125q0.390625 -0.46875 0.390625 -1.21875q0 -0.75 -0.359375 -1.1875q-0.34375 -0.4375 -1.0625 -0.4375zm0.09375 4.078125q-0.75 0 -1.359375 -0.40625q-0.59375 -0.40625 -0.9375 -1.21875q-0.34375 -0.828125 -0.34375 -2.0625q0 -1.53125 0.40625 -2.46875q0.421875 -0.9375 1.078125 -1.359375q0.671875 -0.421875 1.421875 -0.421875q0.625 0 1.078125 0.234375q0.453125 0.234375 0.78125 0.578125l-0.5625 0.609375q-0.21875 -0.265625 -0.5625 -0.421875q-0.328125 -0.171875 -0.6875 -0.171875q-0.546875 0 -1.0 0.3125q-0.4375 0.296875 -0.71875 1.015625q-0.28125 0.703125 -0.296875 1.921875q0.359375 -0.4375 0.828125 -0.703125q0.484375 -0.265625 0.953125 -0.265625q1.0 0 1.59375 0.609375q0.59375 0.59375 0.59375 1.765625q0 0.734375 -0.3125 1.28125q-0.3125 0.546875 -0.828125 0.859375q-0.5 0.3125 -1.125 0.3125z" fill-rule="nonzero"/><path fill="#ffffff" d="m505.87082 263.55753l0 -0.8125l1.75 0l0 -5.640625l-1.390625 0l0 -0.640625q0.53125 -0.09375 0.90625 -0.234375q0.390625 -0.140625 0.703125 -0.328125l0.765625 0l0 6.84375l1.578125 0l0 0.8125l-4.3125 0zm6.417145 -5.34375q0 0.75 0.34375 1.1875q0.359375 0.4375 1.0625 0.4375q0.390625 0 0.8125 -0.234375q0.4375 -0.25 0.796875 -0.78125q-0.09375 -1.125 -0.53125 -1.703125q-0.421875 -0.578125 -1.15625 -0.578125q-0.546875 0 -0.9375 0.46875q-0.390625 0.453125 -0.390625 1.203125zm1.046875 5.484375q-0.609375 0 -1.078125 -0.234375q-0.453125 -0.234375 -0.765625 -0.5625l0.546875 -0.625q0.25 0.265625 0.578125 0.4375q0.328125 0.171875 0.6875 0.171875q0.546875 0 1.0 -0.3125q0.453125 -0.3125 0.734375 -1.03125q0.28125 -0.71875 0.296875 -1.9375q-0.359375 0.453125 -0.84375 0.71875q-0.484375 0.265625 -0.953125 0.265625q-0.984375 0 -1.578125 -0.59375q-0.59375 -0.59375 -0.59375 -1.78125q0 -0.734375 0.3125 -1.28125q0.3125 -0.546875 0.8125 -0.859375q0.515625 -0.3125 1.125 -0.3125q0.75 0 1.34375 0.40625q0.609375 0.40625 0.953125 1.21875q0.34375 0.8125 0.34375 2.0625q0 1.53125 -0.421875 2.46875q-0.40625 0.9375 -1.0625 1.359375q-0.65625 0.421875 -1.4375 0.421875zm6.3234253 0q-0.921875 0 -1.515625 -0.3125q-0.59375 -0.328125 -1.0 -0.734375l0.484375 -0.640625q0.34375 0.328125 0.796875 0.609375q0.46875 0.265625 1.140625 0.265625q0.703125 0 1.1875 -0.46875q0.484375 -0.484375 0.484375 -1.28125q0 -0.796875 -0.453125 -1.234375q-0.4375 -0.453125 -1.171875 -0.453125q-0.40625 0 -0.6875 0.125q-0.28125 0.125 -0.625 0.34375l-0.53125 -0.328125l0.25 -3.6875l3.828125 0l0 0.859375l-2.953125 0l-0.203125 2.265625q0.265625 -0.15625 0.53125 -0.234375q0.28125 -0.078125 0.640625 -0.078125q0.65625 0 1.1875 0.265625q0.53125 0.25 0.859375 0.78125q0.328125 0.515625 0.328125 1.34375q0 0.828125 -0.375 1.421875q-0.359375 0.578125 -0.953125 0.875q-0.578125 0.296875 -1.25 0.296875zm4.5578003 -5.484375q0 0.75 0.34375 1.1875q0.359375 0.4375 1.0625 0.4375q0.390625 0 0.8125 -0.234375q0.4375 -0.25 0.796875 -0.78125q-0.09375 -1.125 -0.53125 -1.703125q-0.421875 -0.578125 -1.15625 -0.578125q-0.546875 0 -0.9375 0.46875q-0.390625 0.453125 -0.390625 1.203125zm1.046875 5.484375q-0.609375 0 -1.078125 -0.234375q-0.453125 -0.234375 -0.765625 -0.5625l0.546875 -0.625q0.25 0.265625 0.578125 0.4375q0.328125 0.171875 0.6875 0.171875q0.546875 0 1.0 -0.3125q0.453125 -0.3125 0.734375 -1.03125q0.28125 -0.71875 0.296875 -1.9375q-0.359375 0.453125 -0.84375 0.71875q-0.484375 0.265625 -0.953125 0.265625q-0.984375 0 -1.578125 -0.59375q-0.59375 -0.59375 -0.59375 -1.78125q0 -0.734375 0.3125 -1.28125q0.3125 -0.546875 0.8125 -0.859375q0.515625 -0.3125 1.125 -0.3125q0.75 0 1.34375 0.40625q0.609375 0.40625 0.953125 1.21875q0.34375 0.8125 0.34375 2.0625q0 1.53125 -0.421875 2.46875q-0.40625 0.9375 -1.0625 1.359375q-0.65625 0.421875 -1.4375 0.421875z" fill-rule="nonzero"/><path fill="#ffffff" d="m505.87082 302.45255l0 -0.8125l1.75 0l0 -5.640625l-1.390625 0l0 -0.640625q0.53125 -0.09375 0.90625 -0.234375q0.390625 -0.140625 0.703125 -0.328125l0.765625 0l0 6.84375l1.578125 0l0 0.8125l-4.3125 0zm6.417145 -5.34375q0 0.75 0.34375 1.1875q0.359375 0.4375 1.0625 0.4375q0.390625 0 0.8125 -0.234375q0.4375 -0.25 0.796875 -0.78125q-0.09375 -1.125 -0.53125 -1.703125q-0.421875 -0.578125 -1.15625 -0.578125q-0.546875 0 -0.9375 0.46875q-0.390625 0.453125 -0.390625 1.203125zm1.046875 5.484375q-0.609375 0 -1.078125 -0.234375q-0.453125 -0.234375 -0.765625 -0.5625l0.546875 -0.625q0.25 0.265625 0.578125 0.4375q0.328125 0.171875 0.6875 0.171875q0.546875 0 1.0 -0.3125q0.453125 -0.3125 0.734375 -1.03125q0.28125 -0.71875 0.296875 -1.9375q-0.359375 0.453125 -0.84375 0.71875q-0.484375 0.265625 -0.953125 0.265625q-0.984375 0 -1.578125 -0.59375q-0.59375 -0.59375 -0.59375 -1.78125q0 -0.734375 0.3125 -1.28125q0.3125 -0.546875 0.8125 -0.859375q0.515625 -0.3125 1.125 -0.3125q0.75 0 1.34375 0.40625q0.609375 0.40625 0.953125 1.21875q0.34375 0.8125 0.34375 2.0625q0 1.53125 -0.421875 2.46875q-0.40625 0.9375 -1.0625 1.359375q-0.65625 0.421875 -1.4375 0.421875zm6.6359253 -4.078125q-0.359375 0 -0.796875 0.25q-0.4375 0.234375 -0.796875 0.765625q0.09375 1.109375 0.515625 1.703125q0.4375 0.578125 1.171875 0.578125q0.5625 0 0.9375 -0.453125q0.390625 -0.46875 0.390625 -1.21875q0 -0.75 -0.359375 -1.1875q-0.34375 -0.4375 -1.0625 -0.4375zm0.09375 4.078125q-0.75 0 -1.359375 -0.40625q-0.59375 -0.40625 -0.9375 -1.21875q-0.34375 -0.828125 -0.34375 -2.0625q0 -1.53125 0.40625 -2.46875q0.421875 -0.9375 1.078125 -1.359375q0.671875 -0.421875 1.421875 -0.421875q0.625 0 1.078125 0.234375q0.453125 0.234375 0.78125 0.578125l-0.5625 0.609375q-0.21875 -0.265625 -0.5625 -0.421875q-0.328125 -0.171875 -0.6875 -0.171875q-0.546875 0 -1.0 0.3125q-0.4375 0.296875 -0.71875 1.015625q-0.28125 0.703125 -0.296875 1.921875q0.359375 -0.4375 0.828125 -0.703125q0.484375 -0.265625 0.953125 -0.265625q1.0 0 1.59375 0.609375q0.59375 0.59375 0.59375 1.765625q0 0.734375 -0.3125 1.28125q-0.3125 0.546875 -0.828125 0.859375q-0.5 0.3125 -1.125 0.3125zm5.5578003 0q-0.921875 0 -1.515625 -0.3125q-0.59375 -0.328125 -1.0 -0.734375l0.484375 -0.640625q0.34375 0.328125 0.796875 0.609375q0.46875 0.265625 1.140625 0.265625q0.703125 0 1.1875 -0.46875q0.484375 -0.484375 0.484375 -1.28125q0 -0.796875 -0.453125 -1.234375q-0.4375 -0.453125 -1.171875 -0.453125q-0.40625 0 -0.6875 0.125q-0.28125 0.125 -0.625 0.34375l-0.53125 -0.328125l0.25 -3.6875l3.828125 0l0 0.859375l-2.953125 0l-0.203125 2.265625q0.265625 -0.15625 0.53125 -0.234375q0.28125 -0.078125 0.640625 -0.078125q0.65625 0 1.1875 0.265625q0.53125 0.25 0.859375 0.78125q0.328125 0.515625 0.328125 1.34375q0 0.828125 -0.375 1.421875q-0.359375 0.578125 -0.953125 0.875q-0.578125 0.296875 -1.25 0.296875z" fill-rule="nonzero"/><path shape-rendering="crispEdges" fill="#660000" d="m644.0 162.0l132.05249 0l0 38.89502l-132.05249 0l0 -38.89502z" fill-rule="nonzero"/><path shape-rendering="crispEdges" fill="#660000" d="m644.0 200.89502l132.05249 0l0 38.895004l-132.05249 0l0 -38.895004z" fill-rule="nonzero"/><path shape-rendering="crispEdges" fill="#660000" d="m644.0 239.79002l132.05249 0l0 38.895004l-132.05249 0l0 -38.895004z" fill-rule="nonzero"/><path shape-rendering="crispEdges" fill="#660000" d="m644.0 278.68503l132.05249 0l0 38.89502l-132.05249 0l0 -38.89502z" fill-rule="nonzero"/><path stroke="#ffffff" stroke-width="1.0" stroke-linecap="butt" d="m644.0 161.50131l0 156.57742" fill-rule="nonzero"/><path stroke="#ffffff" stroke-width="1.0" stroke-linecap="butt" d="m776.0525 161.50131l0 156.57742" fill-rule="nonzero"/><path stroke="#ffffff" stroke-width="1.0" stroke-linecap="butt" d="m643.50134 162.0l133.04987 0" fill-rule="nonzero"/><path stroke="#ffffff" stroke-width="1.0" stroke-linecap="butt" d="m643.50134 200.89502l133.04987 0" fill-rule="nonzero"/><path stroke="#ffffff" stroke-width="1.0" stroke-linecap="butt" d="m643.50134 239.79002l133.04987 0" fill-rule="nonzero"/><path stroke="#ffffff" stroke-width="1.0" stroke-linecap="butt" d="m643.50134 278.68503l133.04987 0" fill-rule="nonzero"/><path stroke="#ffffff" stroke-width="1.0" stroke-linecap="butt" d="m643.50134 317.58005l133.04987 0" fill-rule="nonzero"/><path fill="#ffffff" d="m658.6782 185.7675l0 -7.875l1.03125 0l2.84375 4.953125l0.859375 1.625l0.046875 0q-0.046875 -0.59375 -0.09375 -1.234375q-0.03125 -0.65625 -0.03125 -1.265625l0 -4.078125l0.953125 0l0 7.875l-1.03125 0l-2.859375 -4.953125l-0.859375 -1.625l-0.046875 0q0.046875 0.59375 0.09375 1.21875q0.046875 0.625 0.046875 1.25l0 4.109375l-0.953125 0zm10.029663 0.140625q-0.78125 0 -1.421875 -0.359375q-0.625 -0.375 -1.0 -1.046875q-0.375 -0.6875 -0.375 -1.640625q0 -0.953125 0.375 -1.640625q0.390625 -0.6875 0.984375 -1.046875q0.609375 -0.375 1.265625 -0.375q1.109375 0 1.71875 0.75q0.609375 0.734375 0.609375 1.984375q0 0.15625 -0.015625 0.3125q0 0.140625 -0.03125 0.25l-3.921875 0q0.046875 0.921875 0.5625 1.484375q0.53125 0.546875 1.375 0.546875q0.421875 0 0.765625 -0.125q0.359375 -0.140625 0.6875 -0.34375l0.34375 0.65625q-0.375 0.234375 -0.84375 0.421875q-0.46875 0.171875 -1.078125 0.171875zm-1.828125 -3.53125l3.109375 0q0 -0.875 -0.375 -1.34375q-0.375 -0.46875 -1.0625 -0.46875q-0.609375 0 -1.09375 0.484375q-0.484375 0.46875 -0.578125 1.328125zm6.40271 3.390625l-1.625 -5.828125l1.015625 0l0.859375 3.375q0.09375 0.40625 0.171875 0.8125q0.09375 0.390625 0.1875 0.796875l0.046875 0q0.09375 -0.40625 0.1875 -0.796875q0.09375 -0.40625 0.203125 -0.8125l0.90625 -3.375l0.953125 0l0.90625 3.375q0.109375 0.40625 0.203125 0.8125q0.109375 0.390625 0.203125 0.796875l0.0625 0q0.09375 -0.40625 0.171875 -0.796875q0.09375 -0.40625 0.1875 -0.8125l0.84375 -3.375l0.9375 0l-1.5625 5.828125l-1.203125 0l-0.828125 -3.125q-0.109375 -0.421875 -0.203125 -0.828125q-0.09375 -0.421875 -0.203125 -0.859375l-0.046875 0q-0.09375 0.4375 -0.1875 0.859375q-0.09375 0.40625 -0.21875 0.828125l-0.8125 3.125l-1.15625 0zm11.469177 0l0 -3.046875l-2.375 -4.828125l1.078125 0l1.015625 2.21875q0.1875 0.4375 0.375 0.859375q0.1875 0.421875 0.375 0.859375l0.046875 0q0.203125 -0.4375 0.40625 -0.859375q0.203125 -0.421875 0.390625 -0.859375l1.015625 -2.21875l1.03125 0l-2.359375 4.828125l0 3.046875l-1.0 0zm6.1106567 0.140625q-0.703125 0 -1.328125 -0.359375q-0.609375 -0.359375 -1.0 -1.03125q-0.375 -0.6875 -0.375 -1.65625q0 -0.984375 0.375 -1.65625q0.390625 -0.6875 1.0 -1.046875q0.625 -0.359375 1.328125 -0.359375q0.71875 0 1.328125 0.359375q0.625 0.359375 1.0 1.046875q0.375 0.671875 0.375 1.65625q0 0.96875 -0.375 1.65625q-0.375 0.671875 -1.0 1.03125q-0.609375 0.359375 -1.328125 0.359375zm0 -0.8125q0.765625 0 1.21875 -0.609375q0.46875 -0.625 0.46875 -1.625q0 -1.0 -0.46875 -1.625q-0.453125 -0.625 -1.21875 -0.625q-0.734375 0 -1.203125 0.625q-0.46875 0.625 -0.46875 1.625q0 1.0 0.46875 1.625q0.46875 0.609375 1.203125 0.609375zm4.2384033 0.671875l0 -5.828125l0.8125 0l0.09375 1.046875l0.03125 0q0.296875 -0.546875 0.71875 -0.859375q0.4375 -0.328125 0.9375 -0.328125q0.34375 0 0.625 0.109375l-0.1875 0.875q-0.15625 -0.0625 -0.28125 -0.078125q-0.109375 -0.03125 -0.296875 -0.03125q-0.359375 0 -0.765625 0.3125q-0.40625 0.296875 -0.703125 1.03125l0 3.75l-0.984375 0zm4.1640625 0l0 -8.546875l0.96875 0l0 5.78125l0.03125 0l2.484375 -3.0625l1.09375 0l-1.953125 2.34375l2.21875 3.484375l-1.078125 0l-1.703125 -2.8125l-1.09375 1.28125l0 1.53125l-0.96875 0z" fill-rule="nonzero"/><path fill="#ffffff" d="m660.8657 224.80315q-0.828125 0 -1.546875 -0.3125q-0.703125 -0.3125 -1.21875 -0.84375l0.609375 -0.703125q0.421875 0.453125 0.984375 0.71875q0.5625 0.265625 1.1875 0.265625q0.78125 0 1.203125 -0.34375q0.4375 -0.359375 0.4375 -0.9375q0 -0.40625 -0.171875 -0.640625q-0.171875 -0.25 -0.46875 -0.40625q-0.296875 -0.171875 -0.671875 -0.34375l-1.125 -0.5q-0.375 -0.15625 -0.75 -0.40625q-0.359375 -0.25 -0.609375 -0.640625q-0.234375 -0.40625 -0.234375 -0.96875q0 -0.609375 0.3125 -1.078125q0.328125 -0.46875 0.890625 -0.734375q0.5625 -0.28125 1.265625 -0.28125q0.703125 0 1.296875 0.28125q0.609375 0.265625 1.03125 0.6875l-0.546875 0.65625q-0.359375 -0.359375 -0.796875 -0.546875q-0.4375 -0.203125 -0.984375 -0.203125q-0.65625 0 -1.0625 0.3125q-0.40625 0.3125 -0.40625 0.84375q0 0.375 0.203125 0.625q0.203125 0.234375 0.5 0.390625q0.296875 0.15625 0.609375 0.28125l1.109375 0.484375q0.46875 0.1875 0.828125 0.46875q0.375 0.265625 0.578125 0.65625q0.21875 0.390625 0.21875 0.984375q0 0.625 -0.328125 1.140625q-0.3125 0.5 -0.921875 0.796875q-0.59375 0.296875 -1.421875 0.296875zm5.470581 0q-0.734375 0 -1.21875 -0.4375q-0.484375 -0.4375 -0.484375 -1.21875q0 -0.953125 0.859375 -1.453125q0.859375 -0.515625 2.71875 -0.734375q0 -0.359375 -0.109375 -0.6875q-0.09375 -0.34375 -0.359375 -0.546875q-0.25 -0.21875 -0.734375 -0.21875q-0.5 0 -0.953125 0.1875q-0.4375 0.1875 -0.78125 0.4375l-0.390625 -0.6875q0.40625 -0.265625 1.0 -0.5q0.59375 -0.25 1.296875 -0.25q1.0625 0 1.546875 0.65625q0.484375 0.640625 0.484375 1.734375l0 3.578125l-0.828125 0l-0.078125 -0.703125l-0.03125 0q-0.40625 0.34375 -0.90625 0.59375q-0.484375 0.25 -1.03125 0.25zm0.28125 -0.78125q0.421875 0 0.796875 -0.203125q0.375 -0.21875 0.796875 -0.578125l0 -1.625q-1.453125 0.171875 -2.046875 0.546875q-0.578125 0.359375 -0.578125 0.921875q0 0.484375 0.296875 0.71875q0.3125 0.21875 0.734375 0.21875zm4.4230347 0.640625l0 -5.828125l0.8125 0l0.09375 0.84375l0.03125 0q0.421875 -0.421875 0.890625 -0.703125q0.46875 -0.28125 1.0625 -0.28125q0.921875 0 1.34375 0.578125q0.4375 0.578125 0.4375 1.6875l0 3.703125l-0.984375 0l0 -3.5625q0 -0.8125 -0.265625 -1.1875q-0.265625 -0.375 -0.84375 -0.375q-0.4375 0 -0.796875 0.234375q-0.359375 0.21875 -0.796875 0.671875l0 4.21875l-0.984375 0zm9.0578 0l0 -7.875l4.53125 0l0 0.84375l-3.53125 0l0 2.65625l3.0 0l0 0.84375l-3.0 0l0 3.53125l-1.0 0zm5.5942993 0l0 -5.828125l0.8125 0l0.09375 1.046875l0.03125 0q0.296875 -0.546875 0.71875 -0.859375q0.4375 -0.328125 0.9375 -0.328125q0.34375 0 0.625 0.109375l-0.1875 0.875q-0.15625 -0.0625 -0.28125 -0.078125q-0.109375 -0.03125 -0.296875 -0.03125q-0.359375 0 -0.765625 0.3125q-0.40625 0.296875 -0.703125 1.03125l0 3.75l-0.984375 0zm5.2197876 0.140625q-0.734375 0 -1.21875 -0.4375q-0.484375 -0.4375 -0.484375 -1.21875q0 -0.953125 0.859375 -1.453125q0.859375 -0.515625 2.71875 -0.734375q0 -0.359375 -0.109375 -0.6875q-0.09375 -0.34375 -0.359375 -0.546875q-0.25 -0.21875 -0.734375 -0.21875q-0.5 0 -0.953125 0.1875q-0.4375 0.1875 -0.78125 0.4375l-0.390625 -0.6875q0.40625 -0.265625 1.0 -0.5q0.59375 -0.25 1.296875 -0.25q1.0625 0 1.546875 0.65625q0.484375 0.640625 0.484375 1.734375l0 3.578125l-0.828125 0l-0.078125 -0.703125l-0.03125 0q-0.40625 0.34375 -0.90625 0.59375q-0.484375 0.25 -1.03125 0.25zm0.28125 -0.78125q0.421875 0 0.796875 -0.203125q0.375 -0.21875 0.796875 -0.578125l0 -1.625q-1.453125 0.171875 -2.046875 0.546875q-0.578125 0.359375 -0.578125 0.921875q0 0.484375 0.296875 0.71875q0.3125 0.21875 0.734375 0.21875zm4.4230347 0.640625l0 -5.828125l0.8125 0l0.09375 0.84375l0.03125 0q0.421875 -0.421875 0.890625 -0.703125q0.46875 -0.28125 1.0625 -0.28125q0.921875 0 1.34375 0.578125q0.4375 0.578125 0.4375 1.6875l0 3.703125l-0.984375 0l0 -3.5625q0 -0.8125 -0.265625 -1.1875q-0.265625 -0.375 -0.84375 -0.375q-0.4375 0 -0.796875 0.234375q-0.359375 0.21875 -0.796875 0.671875l0 4.21875l-0.984375 0zm8.860901 0.140625q-0.765625 0 -1.390625 -0.359375q-0.625 -0.359375 -0.984375 -1.03125q-0.359375 -0.6875 -0.359375 -1.65625q0 -0.984375 0.390625 -1.65625q0.390625 -0.6875 1.03125 -1.046875q0.640625 -0.359375 1.390625 -0.359375q0.578125 0 0.984375 0.203125q0.421875 0.203125 0.71875 0.46875l-0.5 0.65625q-0.25 -0.234375 -0.53125 -0.375q-0.28125 -0.140625 -0.640625 -0.140625q-0.515625 0 -0.9375 0.28125q-0.40625 0.28125 -0.640625 0.796875q-0.234375 0.5 -0.234375 1.171875q0 1.0 0.484375 1.625q0.5 0.609375 1.3125 0.609375q0.40625 0 0.75 -0.171875q0.34375 -0.171875 0.609375 -0.421875l0.4375 0.671875q-0.390625 0.34375 -0.875 0.546875q-0.484375 0.1875 -1.015625 0.1875zm3.175171 -0.140625l0 -5.828125l0.984375 0l0 5.828125l-0.984375 0zm0.5 -7.03125q-0.28125 0 -0.46875 -0.171875q-0.1875 -0.171875 -0.1875 -0.484375q0 -0.28125 0.1875 -0.453125q0.1875 -0.1875 0.46875 -0.1875q0.28125 0 0.46875 0.1875q0.1875 0.171875 0.1875 0.453125q0 0.3125 -0.1875 0.484375q-0.1875 0.171875 -0.46875 0.171875zm3.9832764 7.171875q-0.625 0 -1.203125 -0.234375q-0.5625 -0.234375 -0.96875 -0.5625l0.484375 -0.65625q0.390625 0.296875 0.796875 0.5q0.40625 0.1875 0.921875 0.1875q0.578125 0 0.859375 -0.265625q0.296875 -0.265625 0.296875 -0.640625q0 -0.3125 -0.203125 -0.515625q-0.203125 -0.203125 -0.515625 -0.328125q-0.296875 -0.140625 -0.625 -0.265625q-0.40625 -0.15625 -0.8125 -0.34375q-0.390625 -0.203125 -0.640625 -0.515625q-0.25 -0.328125 -0.25 -0.8125q0 -0.71875 0.53125 -1.1875q0.546875 -0.46875 1.484375 -0.46875q0.546875 0 1.015625 0.1875q0.46875 0.1875 0.796875 0.46875l-0.46875 0.625q-0.3125 -0.234375 -0.640625 -0.375q-0.3125 -0.140625 -0.703125 -0.140625q-0.546875 0 -0.8125 0.25q-0.25 0.25 -0.25 0.578125q0 0.28125 0.171875 0.453125q0.1875 0.171875 0.46875 0.3125q0.296875 0.125 0.625 0.25q0.40625 0.15625 0.8125 0.359375q0.421875 0.1875 0.6875 0.53125q0.265625 0.328125 0.265625 0.875q0 0.46875 -0.25 0.859375q-0.234375 0.390625 -0.71875 0.640625q-0.46875 0.234375 -1.15625 0.234375zm5.793701 0q-0.765625 0 -1.390625 -0.359375q-0.625 -0.359375 -0.984375 -1.03125q-0.359375 -0.6875 -0.359375 -1.65625q0 -0.984375 0.390625 -1.65625q0.390625 -0.6875 1.03125 -1.046875q0.640625 -0.359375 1.390625 -0.359375q0.578125 0 0.984375 0.203125q0.421875 0.203125 0.71875 0.46875l-0.5 0.65625q-0.25 -0.234375 -0.53125 -0.375q-0.28125 -0.140625 -0.640625 -0.140625q-0.515625 0 -0.9375 0.28125q-0.40625 0.28125 -0.640625 0.796875q-0.234375 0.5 -0.234375 1.171875q0 1.0 0.484375 1.625q0.5 0.609375 1.3125 0.609375q0.40625 0 0.75 -0.171875q0.34375 -0.171875 0.609375 -0.421875l0.4375 0.671875q-0.390625 0.34375 -0.875 0.546875q-0.484375 0.1875 -1.015625 0.1875zm5.1887817 0q-0.703125 0 -1.328125 -0.359375q-0.609375 -0.359375 -1.0 -1.03125q-0.375 -0.6875 -0.375 -1.65625q0 -0.984375 0.375 -1.65625q0.390625 -0.6875 1.0 -1.046875q0.625 -0.359375 1.328125 -0.359375q0.71875 0 1.328125 0.359375q0.625 0.359375 1.0 1.046875q0.375 0.671875 0.375 1.65625q0 0.96875 -0.375 1.65625q-0.375 0.671875 -1.0 1.03125q-0.609375 0.359375 -1.328125 0.359375zm0 -0.8125q0.765625 0 1.21875 -0.609375q0.46875 -0.625 0.46875 -1.625q0 -1.0 -0.46875 -1.625q-0.453125 -0.625 -1.21875 -0.625q-0.734375 0 -1.203125 0.625q-0.46875 0.625 -0.46875 1.625q0 1.0 0.46875 1.625q0.46875 0.609375 1.203125 0.609375z" fill-rule="nonzero"/><path fill="#ffffff" d="m658.6782 263.55753l0 -7.875l1.0 0l0 7.015625l3.4375 0l0 0.859375l-4.4375 0zm7.8599243 0.140625q-0.703125 0 -1.328125 -0.359375q-0.609375 -0.359375 -1.0 -1.03125q-0.375 -0.6875 -0.375 -1.65625q0 -0.984375 0.375 -1.65625q0.390625 -0.6875 1.0 -1.046875q0.625 -0.359375 1.328125 -0.359375q0.71875 0 1.328125 0.359375q0.625 0.359375 1.0 1.046875q0.375 0.671875 0.375 1.65625q0 0.96875 -0.375 1.65625q-0.375 0.671875 -1.0 1.03125q-0.609375 0.359375 -1.328125 0.359375zm0 -0.8125q0.765625 0 1.21875 -0.609375q0.46875 -0.625 0.46875 -1.625q0 -1.0 -0.46875 -1.625q-0.453125 -0.625 -1.21875 -0.625q-0.734375 0 -1.203125 0.625q-0.46875 0.625 -0.46875 1.625q0 1.0 0.46875 1.625q0.46875 0.609375 1.203125 0.609375zm5.7696533 0.8125q-0.625 0 -1.203125 -0.234375q-0.5625 -0.234375 -0.96875 -0.5625l0.484375 -0.65625q0.390625 0.296875 0.796875 0.5q0.40625 0.1875 0.921875 0.1875q0.578125 0 0.859375 -0.265625q0.296875 -0.265625 0.296875 -0.640625q0 -0.3125 -0.203125 -0.515625q-0.203125 -0.203125 -0.515625 -0.328125q-0.296875 -0.140625 -0.625 -0.265625q-0.40625 -0.15625 -0.8125 -0.34375q-0.390625 -0.203125 -0.640625 -0.515625q-0.25 -0.328125 -0.25 -0.8125q0 -0.71875 0.53125 -1.1875q0.546875 -0.46875 1.484375 -0.46875q0.546875 0 1.015625 0.1875q0.46875 0.1875 0.796875 0.46875l-0.46875 0.625q-0.3125 -0.234375 -0.640625 -0.375q-0.3125 -0.140625 -0.703125 -0.140625q-0.546875 0 -0.8125 0.25q-0.25 0.25 -0.25 0.578125q0 0.28125 0.171875 0.453125q0.1875 0.171875 0.46875 0.3125q0.296875 0.125 0.625 0.25q0.40625 0.15625 0.8125 0.359375q0.421875 0.1875 0.6875 0.53125q0.265625 0.328125 0.265625 0.875q0 0.46875 -0.25 0.859375q-0.234375 0.390625 -0.71875 0.640625q-0.46875 0.234375 -1.15625 0.234375zm7.3499146 -4.546875l-0.375 1.203125l2.359375 0l-0.359375 -1.203125q-0.21875 -0.65625 -0.421875 -1.3125q-0.1875 -0.65625 -0.375 -1.34375l-0.046875 0q-0.1875 0.6875 -0.375 1.34375q-0.1875 0.65625 -0.40625 1.3125zm-2.40625 4.40625l2.671875 -7.875l1.125 0l2.65625 7.875l-1.0625 0l-0.734375 -2.40625l-2.875 0l-0.75 2.40625l-1.03125 0zm7.481201 0l0 -5.828125l0.8125 0l0.09375 0.84375l0.03125 0q0.421875 -0.421875 0.890625 -0.703125q0.46875 -0.28125 1.0625 -0.28125q0.921875 0 1.34375 0.578125q0.4375 0.578125 0.4375 1.6875l0 3.703125l-0.984375 0l0 -3.5625q0 -0.8125 -0.265625 -1.1875q-0.265625 -0.375 -0.84375 -0.375q-0.4375 0 -0.796875 0.234375q-0.359375 0.21875 -0.796875 0.671875l0 4.21875l-0.984375 0zm8.532776 2.6875q-1.0625 0 -1.734375 -0.40625q-0.671875 -0.40625 -0.671875 -1.171875q0 -0.359375 0.21875 -0.703125q0.234375 -0.34375 0.625 -0.609375l0 -0.046875q-0.21875 -0.140625 -0.375 -0.375q-0.140625 -0.234375 -0.140625 -0.578125q0 -0.375 0.203125 -0.640625q0.203125 -0.28125 0.4375 -0.4375l0 -0.046875q-0.296875 -0.234375 -0.53125 -0.640625q-0.234375 -0.421875 -0.234375 -0.9375q0 -0.625 0.296875 -1.09375q0.3125 -0.46875 0.8125 -0.71875q0.5 -0.25 1.09375 -0.25q0.234375 0 0.453125 0.046875q0.21875 0.03125 0.375 0.09375l2.03125 0l0 0.75l-1.203125 0q0.203125 0.1875 0.34375 0.515625q0.140625 0.3125 0.140625 0.6875q0 0.625 -0.296875 1.078125q-0.28125 0.453125 -0.765625 0.703125q-0.484375 0.25 -1.078125 0.25q-0.46875 0 -0.875 -0.203125q-0.15625 0.125 -0.265625 0.296875q-0.109375 0.15625 -0.109375 0.390625q0 0.28125 0.21875 0.46875q0.21875 0.171875 0.8125 0.171875l1.125 0q1.03125 0 1.53125 0.328125q0.515625 0.328125 0.515625 1.0625q0 0.546875 -0.359375 1.0q-0.359375 0.453125 -1.03125 0.734375q-0.65625 0.28125 -1.5625 0.28125zm0 -5.203125q0.5 0 0.859375 -0.375q0.375 -0.375 0.375 -1.015625q0 -0.625 -0.359375 -0.984375q-0.359375 -0.359375 -0.875 -0.359375q-0.515625 0 -0.875 0.359375q-0.359375 0.359375 -0.359375 0.984375q0 0.640625 0.359375 1.015625q0.375 0.375 0.875 0.375zm0.140625 4.515625q0.84375 0 1.34375 -0.375q0.5 -0.359375 0.5 -0.8125q0 -0.40625 -0.3125 -0.5625q-0.296875 -0.15625 -0.859375 -0.15625l-1.0 0q-0.171875 0 -0.375 -0.03125q-0.1875 -0.015625 -0.390625 -0.0625q-0.3125 0.234375 -0.453125 0.484375q-0.140625 0.25 -0.140625 0.5q0 0.46875 0.4375 0.734375q0.453125 0.28125 1.25 0.28125zm6.130066 -1.859375q-0.78125 0 -1.421875 -0.359375q-0.625 -0.375 -1.0 -1.046875q-0.375 -0.6875 -0.375 -1.640625q0 -0.953125 0.375 -1.640625q0.390625 -0.6875 0.984375 -1.046875q0.609375 -0.375 1.265625 -0.375q1.109375 0 1.71875 0.75q0.609375 0.734375 0.609375 1.984375q0 0.15625 -0.015625 0.3125q0 0.140625 -0.03125 0.25l-3.921875 0q0.046875 0.921875 0.5625 1.484375q0.53125 0.546875 1.375 0.546875q0.421875 0 0.765625 -0.125q0.359375 -0.140625 0.6875 -0.34375l0.34375 0.65625q-0.375 0.234375 -0.84375 0.421875q-0.46875 0.171875 -1.078125 0.171875zm-1.828125 -3.53125l3.109375 0q0 -0.875 -0.375 -1.34375q-0.375 -0.46875 -1.0625 -0.46875q-0.609375 0 -1.09375 0.484375q-0.484375 0.46875 -0.578125 1.328125zm6.4676514 3.53125q-0.5625 0 -0.8125 -0.34375q-0.234375 -0.34375 -0.234375 -0.96875l0 -7.375l0.984375 0l0 7.4375q0 0.234375 0.078125 0.34375q0.09375 0.09375 0.203125 0.09375q0.046875 0 0.078125 0q0.046875 -0.015625 0.125 -0.03125l0.140625 0.75q-0.09375 0.046875 -0.234375 0.0625q-0.125 0.03125 -0.328125 0.03125zm4.3725586 0q-0.78125 0 -1.421875 -0.359375q-0.625 -0.375 -1.0 -1.046875q-0.375 -0.6875 -0.375 -1.640625q0 -0.953125 0.375 -1.640625q0.390625 -0.6875 0.984375 -1.046875q0.609375 -0.375 1.265625 -0.375q1.109375 0 1.71875 0.75q0.609375 0.734375 0.609375 1.984375q0 0.15625 -0.015625 0.3125q0 0.140625 -0.03125 0.25l-3.921875 0q0.046875 0.921875 0.5625 1.484375q0.53125 0.546875 1.375 0.546875q0.421875 0 0.765625 -0.125q0.359375 -0.140625 0.6875 -0.34375l0.34375 0.65625q-0.375 0.234375 -0.84375 0.421875q-0.46875 0.171875 -1.078125 0.171875zm-1.828125 -3.53125l3.109375 0q0 -0.875 -0.375 -1.34375q-0.375 -0.46875 -1.0625 -0.46875q-0.609375 0 -1.09375 0.484375q-0.484375 0.46875 -0.578125 1.328125zm6.9520264 3.53125q-0.625 0 -1.203125 -0.234375q-0.5625 -0.234375 -0.96875 -0.5625l0.484375 -0.65625q0.390625 0.296875 0.796875 0.5q0.40625 0.1875 0.921875 0.1875q0.578125 0 0.859375 -0.265625q0.296875 -0.265625 0.296875 -0.640625q0 -0.3125 -0.203125 -0.515625q-0.203125 -0.203125 -0.515625 -0.328125q-0.296875 -0.140625 -0.625 -0.265625q-0.40625 -0.15625 -0.8125 -0.34375q-0.390625 -0.203125 -0.640625 -0.515625q-0.25 -0.328125 -0.25 -0.8125q0 -0.71875 0.53125 -1.1875q0.546875 -0.46875 1.484375 -0.46875q0.546875 0 1.015625 0.1875q0.46875 0.1875 0.796875 0.46875l-0.46875 0.625q-0.3125 -0.234375 -0.640625 -0.375q-0.3125 -0.140625 -0.703125 -0.140625q-0.546875 0 -0.8125 0.25q-0.25 0.25 -0.25 0.578125q0 0.28125 0.171875 0.453125q0.1875 0.171875 0.46875 0.3125q0.296875 0.125 0.625 0.25q0.40625 0.15625 0.8125 0.359375q0.421875 0.1875 0.6875 0.53125q0.265625 0.328125 0.265625 0.875q0 0.46875 -0.25 0.859375q-0.234375 0.390625 -0.71875 0.640625q-0.46875 0.234375 -1.15625 0.234375z" fill-rule="nonzero"/><path fill="#ffffff" d="m658.6782 302.45255l0 -7.875l2.25 0q0.890625 0 1.546875 0.21875q0.65625 0.21875 1.03125 0.734375q0.375 0.5 0.375 1.359375q0 1.25 -0.8125 1.84375q-0.796875 0.59375 -2.09375 0.59375l-1.296875 0l0 3.125l-1.0 0zm1.0 -3.9375l1.171875 0q1.03125 0 1.53125 -0.390625q0.5 -0.390625 0.5 -1.234375q0 -0.84375 -0.53125 -1.171875q-0.515625 -0.328125 -1.546875 -0.328125l-1.125 0l0 3.125zm5.698303 3.9375l0 -8.546875l0.984375 0l0 2.328125l-0.03125 1.203125q0.421875 -0.390625 0.875 -0.671875q0.46875 -0.28125 1.0625 -0.28125q0.921875 0 1.34375 0.578125q0.4375 0.578125 0.4375 1.6875l0 3.703125l-0.984375 0l0 -3.5625q0 -0.8125 -0.265625 -1.1875q-0.265625 -0.375 -0.84375 -0.375q-0.4375 0 -0.796875 0.234375q-0.359375 0.21875 -0.796875 0.671875l0 4.21875l-0.984375 0zm6.528015 0l0 -5.828125l0.984375 0l0 5.828125l-0.984375 0zm0.5 -7.03125q-0.28125 0 -0.46875 -0.171875q-0.1875 -0.171875 -0.1875 -0.484375q0 -0.28125 0.1875 -0.453125q0.1875 -0.1875 0.46875 -0.1875q0.28125 0 0.46875 0.1875q0.1875 0.171875 0.1875 0.453125q0 0.3125 -0.1875 0.484375q-0.1875 0.171875 -0.46875 0.171875zm3.4989014 7.171875q-0.5625 0 -0.8125 -0.34375q-0.234375 -0.34375 -0.234375 -0.96875l0 -7.375l0.984375 0l0 7.4375q0 0.234375 0.078125 0.34375q0.09375 0.09375 0.203125 0.09375q0.046875 0 0.078125 0q0.046875 -0.015625 0.125 -0.03125l0.140625 0.75q-0.09375 0.046875 -0.234375 0.0625q-0.125 0.03125 -0.328125 0.03125zm3.3569336 0q-0.734375 0 -1.21875 -0.4375q-0.484375 -0.4375 -0.484375 -1.21875q0 -0.953125 0.859375 -1.453125q0.859375 -0.515625 2.71875 -0.734375q0 -0.359375 -0.109375 -0.6875q-0.09375 -0.34375 -0.359375 -0.546875q-0.25 -0.21875 -0.734375 -0.21875q-0.5 0 -0.953125 0.1875q-0.4375 0.1875 -0.78125 0.4375l-0.390625 -0.6875q0.40625 -0.265625 1.0 -0.5q0.59375 -0.25 1.296875 -0.25q1.0625 0 1.546875 0.65625q0.484375 0.640625 0.484375 1.734375l0 3.578125l-0.828125 0l-0.078125 -0.703125l-0.03125 0q-0.40625 0.34375 -0.90625 0.59375q-0.484375 0.25 -1.03125 0.25zm0.28125 -0.78125q0.421875 0 0.796875 -0.203125q0.375 -0.21875 0.796875 -0.578125l0 -1.625q-1.453125 0.171875 -2.046875 0.546875q-0.578125 0.359375 -0.578125 0.921875q0 0.484375 0.296875 0.71875q0.3125 0.21875 0.734375 0.21875zm6.4074097 0.78125q-1.078125 0 -1.75 -0.796875q-0.65625 -0.796875 -0.65625 -2.25q0 -0.953125 0.34375 -1.640625q0.359375 -0.6875 0.9375 -1.046875q0.59375 -0.375 1.25 -0.375q0.5 0 0.875 0.1875q0.375 0.171875 0.765625 0.484375l-0.046875 -1.0l0 -2.25l0.984375 0l0 8.546875l-0.8125 0l-0.078125 -0.6875l-0.046875 0q-0.328125 0.34375 -0.796875 0.59375q-0.453125 0.234375 -0.96875 0.234375zm0.21875 -0.828125q0.765625 0 1.5 -0.796875l0 -3.046875q-0.375 -0.34375 -0.71875 -0.46875q-0.34375 -0.140625 -0.703125 -0.140625q-0.46875 0 -0.84375 0.28125q-0.375 0.28125 -0.609375 0.78125q-0.234375 0.484375 -0.234375 1.15625q0 1.046875 0.421875 1.640625q0.421875 0.59375 1.1875 0.59375zm6.816345 0.828125q-0.78125 0 -1.421875 -0.359375q-0.625 -0.375 -1.0 -1.046875q-0.375 -0.6875 -0.375 -1.640625q0 -0.953125 0.375 -1.640625q0.390625 -0.6875 0.984375 -1.046875q0.609375 -0.375 1.265625 -0.375q1.109375 0 1.71875 0.75q0.609375 0.734375 0.609375 1.984375q0 0.15625 -0.015625 0.3125q0 0.140625 -0.03125 0.25l-3.921875 0q0.046875 0.921875 0.5625 1.484375q0.53125 0.546875 1.375 0.546875q0.421875 0 0.765625 -0.125q0.359375 -0.140625 0.6875 -0.34375l0.34375 0.65625q-0.375 0.234375 -0.84375 0.421875q-0.46875 0.171875 -1.078125 0.171875zm-1.828125 -3.53125l3.109375 0q0 -0.875 -0.375 -1.34375q-0.375 -0.46875 -1.0625 -0.46875q-0.609375 0 -1.09375 0.484375q-0.484375 0.46875 -0.578125 1.328125zm6.4676514 3.53125q-0.5625 0 -0.8125 -0.34375q-0.234375 -0.34375 -0.234375 -0.96875l0 -7.375l0.984375 0l0 7.4375q0 0.234375 0.078125 0.34375q0.09375 0.09375 0.203125 0.09375q0.046875 0 0.078125 0q0.046875 -0.015625 0.125 -0.03125l0.140625 0.75q-0.09375 0.046875 -0.234375 0.0625q-0.125 0.03125 -0.328125 0.03125zm2.0131226 2.3125l0 -8.28125l0.8125 0l0.09375 0.671875l0.03125 0q0.390625 -0.34375 0.859375 -0.578125q0.484375 -0.234375 1.0 -0.234375q1.125 0 1.703125 0.8125q0.59375 0.796875 0.59375 2.15625q0 0.984375 -0.359375 1.703125q-0.34375 0.703125 -0.921875 1.078125q-0.5625 0.359375 -1.234375 0.359375q-0.40625 0 -0.8125 -0.171875q-0.390625 -0.1875 -0.8125 -0.5l0.03125 1.015625l0 1.96875l-0.984375 0zm2.40625 -3.140625q0.71875 0 1.1875 -0.609375q0.484375 -0.625 0.484375 -1.703125q0 -0.953125 -0.359375 -1.546875q-0.34375 -0.59375 -1.171875 -0.59375q-0.375 0 -0.75 0.203125q-0.375 0.203125 -0.8125 0.578125l0 3.0625q0.390625 0.34375 0.765625 0.484375q0.375 0.125 0.65625 0.125zm4.253845 0.6875l0 -8.546875l0.984375 0l0 2.328125l-0.03125 1.203125q0.421875 -0.390625 0.875 -0.671875q0.46875 -0.28125 1.0625 -0.28125q0.921875 0 1.34375 0.578125q0.4375 0.578125 0.4375 1.6875l0 3.703125l-0.984375 0l0 -3.5625q0 -0.8125 -0.265625 -1.1875q-0.265625 -0.375 -0.84375 -0.375q-0.4375 0 -0.796875 0.234375q-0.359375 0.21875 -0.796875 0.671875l0 4.21875l-0.984375 0zm6.528015 0l0 -5.828125l0.984375 0l0 5.828125l-0.984375 0zm0.5 -7.03125q-0.28125 0 -0.46875 -0.171875q-0.1875 -0.171875 -0.1875 -0.484375q0 -0.28125 0.1875 -0.453125q0.1875 -0.1875 0.46875 -0.1875q0.28125 0 0.46875 0.1875q0.1875 0.171875 0.1875 0.453125q0 0.3125 -0.1875 0.484375q-0.1875 0.171875 -0.46875 0.171875zm3.7957764 7.171875q-0.734375 0 -1.21875 -0.4375q-0.484375 -0.4375 -0.484375 -1.21875q0 -0.953125 0.859375 -1.453125q0.859375 -0.515625 2.71875 -0.734375q0 -0.359375 -0.109375 -0.6875q-0.09375 -0.34375 -0.359375 -0.546875q-0.25 -0.21875 -0.734375 -0.21875q-0.5 0 -0.953125 0.1875q-0.4375 0.1875 -0.78125 0.4375l-0.390625 -0.6875q0.40625 -0.265625 1.0 -0.5q0.59375 -0.25 1.296875 -0.25q1.0625 0 1.546875 0.65625q0.484375 0.640625 0.484375 1.734375l0 3.578125l-0.828125 0l-0.078125 -0.703125l-0.03125 0q-0.40625 0.34375 -0.90625 0.59375q-0.484375 0.25 -1.03125 0.25zm0.28125 -0.78125q0.421875 0 0.796875 -0.203125q0.375 -0.21875 0.796875 -0.578125l0 -1.625q-1.453125 0.171875 -2.046875 0.546875q-0.578125 0.359375 -0.578125 0.921875q0 0.484375 0.296875 0.71875q0.3125 0.21875 0.734375 0.21875z" fill-rule="nonzero"/><path fill="#000000" d="m339.9895 115.56431l132.06299 0l0 42.01574l-132.06299 0z" fill-rule="evenodd"/><path stroke="#000000" stroke-width="1.0" stroke-linejoin="round" stroke-linecap="butt" d="m339.9895 115.56431l132.06299 0l0 42.01574l-132.06299 0z" fill-rule="evenodd"/><path fill="#ffffff" d="m352.14575 143.71092q-0.859375 0 -1.25 -0.53125q-0.375 -0.53125 -0.375 -1.515625l0 -11.453125l1.53125 0l0 11.5625q0 0.359375 0.125 0.515625q0.140625 0.15625 0.296875 0.15625q0.078125 0 0.140625 0q0.0625 -0.015625 0.203125 -0.03125l0.203125 1.15625q-0.15625 0.078125 -0.359375 0.109375q-0.203125 0.03125 -0.515625 0.03125zm6.663574 0q-1.109375 0 -2.078125 -0.546875q-0.953125 -0.5625 -1.546875 -1.625q-0.578125 -1.0625 -0.578125 -2.5625q0 -1.53125 0.578125 -2.59375q0.59375 -1.0625 1.546875 -1.625q0.96875 -0.5625 2.078125 -0.5625q1.109375 0 2.0625 0.5625q0.953125 0.5625 1.53125 1.625q0.59375 1.0625 0.59375 2.59375q0 1.5 -0.59375 2.5625q-0.578125 1.0625 -1.53125 1.625q-0.953125 0.546875 -2.0625 0.546875zm0 -1.265625q1.171875 0 1.890625 -0.953125q0.71875 -0.96875 0.71875 -2.515625q0 -1.5625 -0.71875 -2.53125q-0.71875 -0.96875 -1.890625 -0.96875q-1.15625 0 -1.890625 0.96875q-0.734375 0.96875 -0.734375 2.53125q0 1.546875 0.734375 2.515625q0.734375 0.953125 1.890625 0.953125zm10.158569 1.265625q-1.1875 0 -2.15625 -0.546875q-0.96875 -0.5625 -1.53125 -1.625q-0.5625 -1.0625 -0.5625 -2.5625q0 -1.53125 0.609375 -2.59375q0.609375 -1.0625 1.59375 -1.625q1.0 -0.5625 2.15625 -0.5625q0.90625 0 1.546875 0.328125q0.640625 0.3125 1.109375 0.734375l-0.78125 1.015625q-0.390625 -0.359375 -0.828125 -0.578125q-0.4375 -0.21875 -0.984375 -0.21875q-0.828125 0 -1.46875 0.4375q-0.640625 0.4375 -1.015625 1.234375q-0.359375 0.78125 -0.359375 1.828125q0 1.546875 0.78125 2.515625q0.78125 0.953125 2.03125 0.953125q0.625 0 1.15625 -0.265625q0.546875 -0.265625 0.96875 -0.640625l0.671875 1.015625q-0.625 0.546875 -1.375 0.859375q-0.734375 0.296875 -1.5625 0.296875zm6.836212 0q-1.140625 0 -1.90625 -0.671875q-0.75 -0.6875 -0.75 -1.890625q0 -1.5 1.328125 -2.28125q1.34375 -0.796875 4.234375 -1.125q0 -0.578125 -0.15625 -1.09375q-0.15625 -0.53125 -0.5625 -0.84375q-0.40625 -0.328125 -1.140625 -0.328125q-0.796875 0 -1.484375 0.296875q-0.6875 0.296875 -1.234375 0.671875l-0.59375 -1.0625q0.640625 -0.421875 1.5625 -0.796875q0.921875 -0.390625 2.0 -0.390625q1.65625 0 2.40625 1.03125q0.75 1.015625 0.75 2.703125l0 5.5625l-1.265625 0l-0.140625 -1.078125l-0.046875 0q-0.640625 0.515625 -1.390625 0.90625q-0.75 0.390625 -1.609375 0.390625zm0.4375 -1.21875q0.65625 0 1.234375 -0.3125q0.578125 -0.328125 1.234375 -0.90625l0 -2.515625q-2.265625 0.28125 -3.171875 0.84375q-0.890625 0.546875 -0.890625 1.421875q0 0.765625 0.453125 1.125q0.46875 0.34375 1.140625 0.34375zm9.469543 1.21875q-1.46875 0 -2.03125 -0.828125q-0.5625 -0.84375 -0.5625 -2.1875l0 -5.015625l-1.34375 0l0 -1.15625l1.40625 -0.09375l0.1875 -2.546875l1.296875 0l0 2.546875l2.4375 0l0 1.25l-2.4375 0l0 5.03125q0 0.84375 0.296875 1.296875q0.3125 0.453125 1.09375 0.453125q0.25 0 0.53125 -0.078125q0.28125 -0.078125 0.5 -0.15625l0.296875 1.15625q-0.375 0.125 -0.8125 0.21875q-0.4375 0.109375 -0.859375 0.109375zm3.4464417 -0.21875l0 -9.0625l1.53125 0l0 9.0625l-1.53125 0zm0.78125 -10.9375q-0.453125 0 -0.75 -0.265625q-0.28125 -0.265625 -0.28125 -0.734375q0 -0.453125 0.28125 -0.734375q0.296875 -0.28125 0.75 -0.28125q0.453125 0 0.734375 0.28125q0.296875 0.28125 0.296875 0.734375q0 0.46875 -0.296875 0.734375q-0.28125 0.265625 -0.734375 0.265625zm7.339447 11.15625q-1.109375 0 -2.078125 -0.546875q-0.953125 -0.5625 -1.546875 -1.625q-0.578125 -1.0625 -0.578125 -2.5625q0 -1.53125 0.578125 -2.59375q0.59375 -1.0625 1.546875 -1.625q0.96875 -0.5625 2.078125 -0.5625q1.109375 0 2.0625 0.5625q0.953125 0.5625 1.53125 1.625q0.59375 1.0625 0.59375 2.59375q0 1.5 -0.59375 2.5625q-0.578125 1.0625 -1.53125 1.625q-0.953125 0.546875 -2.0625 0.546875zm0 -1.265625q1.171875 0 1.890625 -0.953125q0.71875 -0.96875 0.71875 -2.515625q0 -1.5625 -0.71875 -2.53125q-0.71875 -0.96875 -1.890625 -0.96875q-1.15625 0 -1.890625 0.96875q-0.734375 0.96875 -0.734375 2.53125q0 1.546875 0.734375 2.515625q0.734375 0.953125 1.890625 0.953125zm6.5804443 1.046875l0 -9.0625l1.265625 0l0.125 1.296875l0.0625 0q0.65625 -0.640625 1.375 -1.078125q0.734375 -0.453125 1.671875 -0.453125q1.4375 0 2.09375 0.90625q0.65625 0.90625 0.65625 2.640625l0 5.75l-1.53125 0l0 -5.546875q0 -1.265625 -0.40625 -1.84375q-0.40625 -0.578125 -1.296875 -0.578125q-0.703125 0 -1.25 0.359375q-0.546875 0.359375 -1.234375 1.046875l0 6.5625l-1.53125 0z" fill-rule="nonzero"/><path fill="#000000" d="m299.0866 39.892387l530.92914 0l0 42.015747l-530.92914 0z" fill-rule="evenodd"/><path stroke="#000000" stroke-width="1.0" stroke-linejoin="round" stroke-linecap="butt" d="m299.0866 39.892387l530.92914 0l0 42.015747l-530.92914 0z" fill-rule="evenodd"/><path fill="#ffffff" d="m309.61786 67.82026l0 -9.0625l1.265625 0l0.125 1.640625l0.0625 0q0.46875 -0.859375 1.140625 -1.359375q0.671875 -0.515625 1.4375 -0.515625q0.53125 0 0.96875 0.1875l-0.296875 1.34375q-0.234375 -0.0625 -0.421875 -0.09375q-0.171875 -0.046875 -0.453125 -0.046875q-0.578125 0 -1.203125 0.46875q-0.625 0.453125 -1.09375 1.609375l0 5.828125l-1.53125 0zm6.4737244 0l0 -9.0625l1.53125 0l0 9.0625l-1.53125 0zm0.78125 -10.9375q-0.453125 0 -0.75 -0.265625q-0.28125 -0.265625 -0.28125 -0.734375q0 -0.453125 0.28125 -0.734375q0.296875 -0.28125 0.75 -0.28125q0.453125 0 0.734375 0.28125q0.296875 0.28125 0.296875 0.734375q0 0.46875 -0.296875 0.734375q-0.28125 0.265625 -0.734375 0.265625zm7.339447 11.15625q-1.109375 0 -2.078125 -0.546875q-0.953125 -0.5625 -1.546875 -1.625q-0.578125 -1.0625 -0.578125 -2.5625q0 -1.53125 0.578125 -2.59375q0.59375 -1.0625 1.546875 -1.625q0.96875 -0.5625 2.078125 -0.5625q1.109375 0 2.0625 0.5625q0.953125 0.5625 1.53125 1.625q0.59375 1.0625 0.59375 2.59375q0 1.5 -0.59375 2.5625q-0.578125 1.0625 -1.53125 1.625q-0.953125 0.546875 -2.0625 0.546875zm0 -1.265625q1.171875 0 1.890625 -0.953125q0.71875 -0.96875 0.71875 -2.515625q0 -1.5625 -0.71875 -2.53125q-0.71875 -0.96875 -1.890625 -0.96875q-1.15625 0 -1.890625 0.96875q-0.734375 0.96875 -0.734375 2.53125q0 1.546875 0.734375 2.515625q0.734375 0.953125 1.890625 0.953125zm9.122467 1.265625q-1.46875 0 -2.03125 -0.828125q-0.5625 -0.84375 -0.5625 -2.1875l0 -5.015625l-1.34375 0l0 -1.15625l1.40625 -0.09375l0.1875 -2.546875l1.296875 0l0 2.546875l2.4375 0l0 1.25l-2.4375 0l0 5.03125q0 0.84375 0.296875 1.296875q0.3125 0.453125 1.09375 0.453125q0.25 0 0.53125 -0.078125q0.28125 -0.078125 0.5 -0.15625l0.296875 1.15625q-0.375 0.125 -0.8125 0.21875q-0.4375 0.109375 -0.859375 0.109375zm5.634796 0q-0.984375 0 -1.859375 -0.359375q-0.875 -0.359375 -1.53125 -0.890625l0.765625 -1.015625q0.609375 0.46875 1.234375 0.78125q0.640625 0.296875 1.4375 0.296875q0.890625 0 1.34375 -0.421875q0.453125 -0.421875 0.453125 -1.0q0 -0.46875 -0.3125 -0.78125q-0.3125 -0.3125 -0.796875 -0.53125q-0.46875 -0.21875 -0.96875 -0.40625q-0.625 -0.234375 -1.25 -0.546875q-0.609375 -0.3125 -1.0 -0.796875q-0.390625 -0.5 -0.390625 -1.265625q0 -1.09375 0.828125 -1.828125q0.828125 -0.75 2.296875 -0.75q0.84375 0 1.5625 0.3125q0.734375 0.296875 1.265625 0.71875l-0.75 0.96875q-0.46875 -0.359375 -0.984375 -0.578125q-0.5 -0.21875 -1.09375 -0.21875q-0.859375 0 -1.265625 0.390625q-0.390625 0.390625 -0.390625 0.90625q0 0.4375 0.28125 0.703125q0.28125 0.265625 0.71875 0.46875q0.453125 0.203125 0.953125 0.40625q0.65625 0.234375 1.28125 0.546875q0.640625 0.3125 1.0625 0.828125q0.421875 0.5 0.421875 1.359375q0 0.734375 -0.390625 1.359375q-0.375 0.609375 -1.109375 0.984375q-0.734375 0.359375 -1.8125 0.359375z" fill-rule="nonzero"/><path fill="#000000" fill-opacity="0.0" d="m119.80549 115.89239l132.06299 0l0 42.015755l-132.06299 0z" fill-rule="evenodd"/><path fill="#373a3c" d="m205.88606 135.96864l-0.578125 1.859375l3.6875 0l-0.578125 -1.859375q-0.34375 -1.03125 -0.640625 -2.046875q-0.296875 -1.015625 -0.59375 -2.078125l-0.078125 0q-0.28125 1.0625 -0.578125 2.078125q-0.296875 1.015625 -0.640625 2.046875zm-3.71875 6.84375l4.140625 -12.234375l1.75 0l4.140625 12.234375l-1.65625 0l-1.15625 -3.734375l-4.46875 0l-1.171875 3.734375l-1.578125 0zm11.617752 0l0 -9.0625l1.265625 0l0.125 1.640625l0.0625 0q0.46875 -0.859375 1.140625 -1.359375q0.671875 -0.515625 1.4375 -0.515625q0.53125 0 0.96875 0.1875l-0.296875 1.34375q-0.234375 -0.0625 -0.421875 -0.09375q-0.171875 -0.046875 -0.453125 -0.046875q-0.578125 0 -1.203125 0.46875q-0.625 0.453125 -1.09375 1.609375l0 5.828125l-1.53125 0zm6.4737244 0l0 -9.0625l1.265625 0l0.125 1.640625l0.0625 0q0.46875 -0.859375 1.140625 -1.359375q0.671875 -0.515625 1.4375 -0.515625q0.53125 0 0.96875 0.1875l-0.296875 1.34375q-0.234375 -0.0625 -0.421875 -0.09375q-0.171875 -0.046875 -0.453125 -0.046875q-0.578125 0 -1.203125 0.46875q-0.625 0.453125 -1.09375 1.609375l0 5.828125l-1.53125 0zm8.119476 0.21875q-1.140625 0 -1.90625 -0.671875q-0.75 -0.6875 -0.75 -1.890625q0 -1.5 1.328125 -2.28125q1.34375 -0.796875 4.234375 -1.125q0 -0.578125 -0.15625 -1.09375q-0.15625 -0.53125 -0.5625 -0.84375q-0.40625 -0.328125 -1.140625 -0.328125q-0.796875 0 -1.484375 0.296875q-0.6875 0.296875 -1.234375 0.671875l-0.59375 -1.0625q0.640625 -0.421875 1.5625 -0.796875q0.921875 -0.390625 2.0 -0.390625q1.65625 0 2.40625 1.03125q0.75 1.015625 0.75 2.703125l0 5.5625l-1.265625 0l-0.140625 -1.078125l-0.046875 0q-0.640625 0.515625 -1.390625 0.90625q-0.75 0.390625 -1.609375 0.390625zm0.4375 -1.21875q0.65625 0 1.234375 -0.3125q0.578125 -0.328125 1.234375 -0.90625l0 -2.515625q-2.265625 0.28125 -3.171875 0.84375q-0.890625 0.546875 -0.890625 1.421875q0 0.765625 0.453125 1.125q0.46875 0.34375 1.140625 0.34375zm7.0121307 4.90625q-0.296875 0 -0.5625 -0.0625q-0.265625 -0.0625 -0.5 -0.125l0.3125 -1.21875q0.140625 0.03125 0.328125 0.078125q0.1875 0.046875 0.359375 0.046875q0.765625 0 1.265625 -0.546875q0.5 -0.546875 0.78125 -1.390625l0.203125 -0.671875l-3.640625 -9.078125l1.59375 0l1.84375 5.015625q0.203125 0.578125 0.4375 1.25q0.234375 0.671875 0.4375 1.296875l0.078125 0q0.203125 -0.609375 0.390625 -1.28125q0.1875 -0.671875 0.375 -1.265625l1.625 -5.015625l1.484375 0l-3.40625 9.8125q-0.328125 0.890625 -0.765625 1.59375q-0.4375 0.71875 -1.078125 1.140625q-0.640625 0.421875 -1.5625 0.421875z" fill-rule="nonzero"/><path fill="#000000" fill-opacity="0.0" d="m119.80549 200.1076l132.06299 0l0 42.015747l-132.06299 0z" fill-rule="evenodd"/><path fill="#373a3c" d="m199.62701 227.24635q-1.296875 0 -2.40625 -0.484375q-1.09375 -0.5 -1.890625 -1.3125l0.9375 -1.09375q0.65625 0.6875 1.53125 1.109375q0.890625 0.421875 1.84375 0.421875q1.21875 0 1.890625 -0.546875q0.671875 -0.546875 0.671875 -1.453125q0 -0.625 -0.28125 -1.0q-0.265625 -0.375 -0.734375 -0.625q-0.453125 -0.265625 -1.03125 -0.53125l-1.75 -0.765625q-0.578125 -0.25 -1.15625 -0.640625q-0.5625 -0.390625 -0.953125 -1.0q-0.375 -0.625 -0.375 -1.515625q0 -0.9375 0.5 -1.671875q0.5 -0.734375 1.375 -1.15625q0.875 -0.421875 1.96875 -0.421875q1.109375 0 2.03125 0.421875q0.9375 0.421875 1.59375 1.09375l-0.84375 1.015625q-0.5625 -0.546875 -1.25 -0.84375q-0.671875 -0.3125 -1.53125 -0.3125q-1.015625 0 -1.640625 0.484375q-0.625 0.484375 -0.625 1.296875q0 0.578125 0.296875 0.96875q0.3125 0.375 0.78125 0.625q0.46875 0.234375 0.953125 0.4375l1.734375 0.75q0.703125 0.296875 1.265625 0.71875q0.578125 0.421875 0.90625 1.03125q0.34375 0.609375 0.34375 1.515625q0 0.96875 -0.5 1.765625q-0.5 0.796875 -1.4375 1.265625q-0.9375 0.453125 -2.21875 0.453125zm9.993683 0q-1.1875 0 -2.15625 -0.546875q-0.96875 -0.5625 -1.53125 -1.625q-0.5625 -1.0625 -0.5625 -2.5625q0 -1.53125 0.609375 -2.59375q0.609375 -1.0625 1.59375 -1.625q1.0 -0.5625 2.15625 -0.5625q0.90625 0 1.546875 0.328125q0.640625 0.3125 1.109375 0.734375l-0.78125 1.015625q-0.390625 -0.359375 -0.828125 -0.578125q-0.4375 -0.21875 -0.984375 -0.21875q-0.828125 0 -1.46875 0.4375q-0.640625 0.4375 -1.015625 1.234375q-0.359375 0.78125 -0.359375 1.828125q0 1.546875 0.78125 2.515625q0.78125 0.953125 2.03125 0.953125q0.625 0 1.15625 -0.265625q0.546875 -0.265625 0.96875 -0.640625l0.671875 1.015625q-0.625 0.546875 -1.375 0.859375q-0.734375 0.296875 -1.5625 0.296875zm6.836212 0q-1.140625 0 -1.90625 -0.671875q-0.75 -0.6875 -0.75 -1.890625q0 -1.5 1.328125 -2.28125q1.34375 -0.796875 4.234375 -1.125q0 -0.578125 -0.15625 -1.09375q-0.15625 -0.53125 -0.5625 -0.84375q-0.40625 -0.328125 -1.140625 -0.328125q-0.796875 0 -1.484375 0.296875q-0.6875 0.296875 -1.234375 0.671875l-0.59375 -1.0625q0.640625 -0.421875 1.5625 -0.796875q0.921875 -0.390625 2.0 -0.390625q1.65625 0 2.40625 1.03125q0.75 1.015625 0.75 2.703125l0 5.5625l-1.265625 0l-0.140625 -1.078125l-0.046875 0q-0.640625 0.515625 -1.390625 0.90625q-0.75 0.390625 -1.609375 0.390625zm0.4375 -1.21875q0.65625 0 1.234375 -0.3125q0.578125 -0.328125 1.234375 -0.90625l0 -2.515625q-2.265625 0.28125 -3.171875 0.84375q-0.890625 0.546875 -0.890625 1.421875q0 0.765625 0.453125 1.125q0.46875 0.34375 1.140625 0.34375zm8.496506 1.21875q-0.859375 0 -1.25 -0.53125q-0.375 -0.53125 -0.375 -1.515625l0 -11.453125l1.53125 0l0 11.5625q0 0.359375 0.125 0.515625q0.140625 0.15625 0.296875 0.15625q0.078125 0 0.140625 0q0.0625 -0.015625 0.203125 -0.03125l0.203125 1.15625q-0.15625 0.078125 -0.359375 0.109375q-0.203125 0.03125 -0.515625 0.03125zm5.2260895 0q-1.140625 0 -1.90625 -0.671875q-0.75 -0.6875 -0.75 -1.890625q0 -1.5 1.328125 -2.28125q1.34375 -0.796875 4.234375 -1.125q0 -0.578125 -0.15625 -1.09375q-0.15625 -0.53125 -0.5625 -0.84375q-0.40625 -0.328125 -1.140625 -0.328125q-0.796875 0 -1.484375 0.296875q-0.6875 0.296875 -1.234375 0.671875l-0.59375 -1.0625q0.640625 -0.421875 1.5625 -0.796875q0.921875 -0.390625 2.0 -0.390625q1.65625 0 2.40625 1.03125q0.75 1.015625 0.75 2.703125l0 5.5625l-1.265625 0l-0.140625 -1.078125l-0.046875 0q-0.640625 0.515625 -1.390625 0.90625q-0.75 0.390625 -1.609375 0.390625zm0.4375 -1.21875q0.65625 0 1.234375 -0.3125q0.578125 -0.328125 1.234375 -0.90625l0 -2.515625q-2.265625 0.28125 -3.171875 0.84375q-0.890625 0.546875 -0.890625 1.421875q0 0.765625 0.453125 1.125q0.46875 0.34375 1.140625 0.34375zm6.8715057 1.0l0 -9.0625l1.265625 0l0.125 1.640625l0.0625 0q0.46875 -0.859375 1.140625 -1.359375q0.671875 -0.515625 1.4375 -0.515625q0.53125 0 0.96875 0.1875l-0.296875 1.34375q-0.234375 -0.0625 -0.421875 -0.09375q-0.171875 -0.046875 -0.453125 -0.046875q-0.578125 0 -1.203125 0.46875q-0.625 0.453125 -1.09375 1.609375l0 5.828125l-1.53125 0z" fill-rule="nonzero"/><path fill="#000000" fill-opacity="0.0" d="m251.86848 60.90026l47.2126 0" fill-rule="evenodd"/><path stroke="#000000" stroke-width="2.0" stroke-linejoin="round" stroke-linecap="butt" d="m259.44846 60.90026l27.63263 0" fill-rule="evenodd"/><path fill="#000000" stroke="#000000" stroke-width="2.0" stroke-linecap="butt" d="m252.86848 60.90026c0 -1.8170166 1.4729767 -3.289997 3.2899933 -3.289997c1.8170166 0 3.2900085 1.4729805 3.2900085 3.289997c0 1.8170166 -1.472992 3.290001 -3.2900085 3.290001c-1.8170166 0 -3.2899933 -1.4729843 -3.2899933 -3.290001z" fill-rule="nonzero"/><path fill="#000000" stroke="#000000" stroke-width="2.0" stroke-linecap="butt" d="m287.0811 64.20373l9.076202 -3.3034668l-9.076202 -3.303463z" fill-rule="evenodd"/><path fill="#000000" fill-opacity="0.0" d="m251.86848 136.90027l88.12599 -0.31497192" fill-rule="evenodd"/><path stroke="#000000" stroke-width="2.0" stroke-linejoin="round" stroke-linecap="butt" d="m259.44843 136.87317l68.54611 -0.24497986" fill-rule="evenodd"/><path fill="#000000" stroke="#000000" stroke-width="2.0" stroke-linecap="butt" d="m252.86847 136.89668c-0.0064849854 -1.8170013 1.4612122 -3.2952423 3.2782288 -3.3017273c1.8169861 -0.006500244 3.295227 1.4612122 3.3017273 3.2782135c0.006500244 1.8170013 -1.4612122 3.2952423 -3.2782288 3.3017426c-1.8169861 0.0064849854 -3.295227 -1.4612122 -3.3017273 -3.2782288z" fill-rule="nonzero"/><path fill="#000000" stroke="#000000" stroke-width="2.0" stroke-linecap="butt" d="m328.00635 139.93164l9.064331 -3.3358917l-9.087952 -3.270996z" fill-rule="evenodd"/><path fill="#000000" fill-opacity="0.0" d="m251.86848 221.11548l102.45668 -0.25196838" fill-rule="evenodd"/><path stroke="#000000" stroke-width="2.0" stroke-linejoin="round" stroke-linecap="butt" d="m259.44846 221.09685l82.87677 -0.2038269" fill-rule="evenodd"/><path fill="#000000" stroke="#000000" stroke-width="2.0" stroke-linecap="butt" d="m252.86847 221.11302c-0.0044555664 -1.8170013 1.4648895 -3.2936096 3.2818909 -3.2980804c1.8170166 -0.004470825 3.2936401 1.4648895 3.2980957 3.2819061c0.0044555664 1.8170013 -1.4648743 3.2936096 -3.2818909 3.2980804c-1.8170166 0.004470825 -3.2936249 -1.4648895 -3.2980957 -3.2819061z" fill-rule="nonzero"/><path fill="#000000" stroke="#000000" stroke-width="2.0" stroke-linecap="butt" d="m342.33334 224.19649l9.068024 -3.3257751l-9.08429 -3.2811432z" fill-rule="evenodd"/></g></svg>